  0
SECTION
  2
HEADER
  9
$ACADVER
  1
AC1024
  9
$ACADMAINTVER
 70
     6
  9
$DWGCODEPAGE
  3
ANSI_1252
  9
$INSBASE
 10
0.0
 20
0.0
 30
0.0
  9
$EXTMIN
 10
1.000000000000000E+20
 20
1.000000000000000E+20
 30
1.000000000000000E+20
  9
$EXTMAX
 10
-1.000000000000000E+20
 20
-1.000000000000000E+20
 30
-1.000000000000000E+20
  9
$LIMMIN
 10
0.0
 20
0.0
  9
$LIMMAX
 10
12.0
 20
9.0
  9
$ORTHOMODE
 70
     0
  9
$REGENMODE
 70
     1
  9
$FILLMODE
 70
     1
  9
$QTEXTMODE
 70
     0
  9
$MIRRTEXT
 70
     1
  9
$LTSCALE
 40
1.0
  9
$ATTMODE
 70
     1
  9
$TEXTSIZE
 40
0.2
  9
$TRACEWID
 40
0.05
  9
$TEXTSTYLE
  7
Standard
  9
$CLAYER
  8
0
  9
$CELTYPE
  6
ByLayer
  9
$CECOLOR
 62
   256
  9
$CELTSCALE
 40
1.0
  9
$DISPSILH
 70
     0
  9
$DIMSCALE
 40
1.0
  9
$DIMASZ
 40
0.18
  9
$DIMEXO
 40
0.0625
  9
$DIMDLI
 40
0.38
  9
$DIMRND
 40
0.0
  9
$DIMDLE
 40
0.0
  9
$DIMEXE
 40
0.18
  9
$DIMTP
 40
0.0
  9
$DIMTM
 40
0.0
  9
$DIMTXT
 40
0.18
  9
$DIMCEN
 40
0.09
  9
$DIMTSZ
 40
0.0
  9
$DIMTOL
 70
     0
  9
$DIMLIM
 70
     0
  9
$DIMTIH
 70
     1
  9
$DIMTOH
 70
     1
  9
$DIMSE1
 70
     0
  9
$DIMSE2
 70
     0
  9
$DIMTAD
 70
     0
  9
$DIMZIN
 70
     0
  9
$DIMBLK
  1

  9
$DIMASO
 70
     1
  9
$DIMSHO
 70
     1
  9
$DIMPOST
  1

  9
$DIMAPOST
  1

  9
$DIMALT
 70
     0
  9
$DIMALTD
 70
     2
  9
$DIMALTF
 40
25.4
  9
$DIMLFAC
 40
1.0
  9
$DIMTOFL
 70
     0
  9
$DIMTVP
 40
0.0
  9
$DIMTIX
 70
     0
  9
$DIMSOXD
 70
     0
  9
$DIMSAH
 70
     0
  9
$DIMBLK1
  1

  9
$DIMBLK2
  1

  9
$DIMSTYLE
  2
Standard
  9
$DIMCLRD
 70
     0
  9
$DIMCLRE
 70
     0
  9
$DIMCLRT
 70
     0
  9
$DIMTFAC
 40
1.0
  9
$DIMGAP
 40
0.09
  9
$DIMJUST
 70
     0
  9
$DIMSD1
 70
     0
  9
$DIMSD2
 70
     0
  9
$DIMTOLJ
 70
     1
  9
$DIMTZIN
 70
     0
  9
$DIMALTZ
 70
     0
  9
$DIMALTTZ
 70
     0
  9
$DIMUPT
 70
     0
  9
$DIMDEC
 70
     4
  9
$DIMTDEC
 70
     4
  9
$DIMALTU
 70
     2
  9
$DIMALTTD
 70
     2
  9
$DIMTXSTY
  7
Standard
  9
$DIMAUNIT
 70
     0
  9
$DIMADEC
 70
     0
  9
$DIMALTRND
 40
0.0
  9
$DIMAZIN
 70
     0
  9
$DIMDSEP
 70
    46
  9
$DIMATFIT
 70
     3
  9
$DIMFRAC
 70
     0
  9
$DIMLDRBLK
  1

  9
$DIMLUNIT
 70
     2
  9
$DIMLWD
 70
    -2
  9
$DIMLWE
 70
    -2
  9
$DIMTMOVE
 70
     0
  9
$DIMFXL
 40
1.0
  9
$DIMFXLON
 70
     0
  9
$DIMJOGANG
 40
0.7853981633974483
  9
$DIMTFILL
 70
     0
  9
$DIMTFILLCLR
 70
     0
  9
$DIMARCSYM
 70
     0
  9
$DIMLTYPE
  6

  9
$DIMLTEX1
  6

  9
$DIMLTEX2
  6

  9
$DIMTXTDIRECTION
 70
     0
  9
$LUNITS
 70
     2
  9
$LUPREC
 70
     4
  9
$SKETCHINC
 40
0.1
  9
$FILLETRAD
 40
0.5
  9
$AUNITS
 70
     0
  9
$AUPREC
 70
     0
  9
$MENU
  1
.
  9
$ELEVATION
 40
0.0
  9
$PELEVATION
 40
0.0
  9
$THICKNESS
 40
0.0
  9
$LIMCHECK
 70
     0
  9
$CHAMFERA
 40
0.5
  9
$CHAMFERB
 40
0.5
  9
$CHAMFERC
 40
1.0
  9
$CHAMFERD
 40
0.0
  9
$SKPOLY
 70
     0
  9
$TDCREATE
 40
2459543.541242199
  9
$TDUCREATE
 40
2459543.291242199
  9
$TDUPDATE
 40
2459543.541242222
  9
$TDUUPDATE
 40
2459543.291242222
  9
$TDINDWG
 40
0.0000000116
  9
$TDUSRTIMER
 40
0.0000000116
  9
$USRTIMER
 70
     1
  9
$ANGBASE
 50
0.0
  9
$ANGDIR
 70
     0
  9
$PDMODE
 70
     0
  9
$PDSIZE
 40
0.0
  9
$PLINEWID
 40
0.0
  9
$SPLFRAME
 70
     0
  9
$SPLINETYPE
 70
     6
  9
$SPLINESEGS
 70
     8
  9
$HANDSEED
  5
4E
  9
$SURFTAB1
 70
     6
  9
$SURFTAB2
 70
     6
  9
$SURFTYPE
 70
     6
  9
$SURFU
 70
     6
  9
$SURFV
 70
     6
  9
$UCSBASE
  2

  9
$UCSNAME
  2

  9
$UCSORG
 10
0.0
 20
0.0
 30
0.0
  9
$UCSXDIR
 10
1.0
 20
0.0
 30
0.0
  9
$UCSYDIR
 10
0.0
 20
1.0
 30
0.0
  9
$UCSORTHOREF
  2

  9
$UCSORTHOVIEW
 70
     0
  9
$UCSORGTOP
 10
0.0
 20
0.0
 30
0.0
  9
$UCSORGBOTTOM
 10
0.0
 20
0.0
 30
0.0
  9
$UCSORGLEFT
 10
0.0
 20
0.0
 30
0.0
  9
$UCSORGRIGHT
 10
0.0
 20
0.0
 30
0.0
  9
$UCSORGFRONT
 10
0.0
 20
0.0
 30
0.0
  9
$UCSORGBACK
 10
0.0
 20
0.0
 30
0.0
  9
$PUCSBASE
  2

  9
$PUCSNAME
  2

  9
$PUCSORG
 10
0.0
 20
0.0
 30
0.0
  9
$PUCSXDIR
 10
1.0
 20
0.0
 30
0.0
  9
$PUCSYDIR
 10
0.0
 20
1.0
 30
0.0
  9
$PUCSORTHOREF
  2

  9
$PUCSORTHOVIEW
 70
     0
  9
$PUCSORGTOP
 10
0.0
 20
0.0
 30
0.0
  9
$PUCSORGBOTTOM
 10
0.0
 20
0.0
 30
0.0
  9
$PUCSORGLEFT
 10
0.0
 20
0.0
 30
0.0
  9
$PUCSORGRIGHT
 10
0.0
 20
0.0
 30
0.0
  9
$PUCSORGFRONT
 10
0.0
 20
0.0
 30
0.0
  9
$PUCSORGBACK
 10
0.0
 20
0.0
 30
0.0
  9
$USERI1
 70
     0
  9
$USERI2
 70
     0
  9
$USERI3
 70
     0
  9
$USERI4
 70
     0
  9
$USERI5
 70
     0
  9
$USERR1
 40
0.0
  9
$USERR2
 40
0.0
  9
$USERR3
 40
0.0
  9
$USERR4
 40
0.0
  9
$USERR5
 40
0.0
  9
$WORLDVIEW
 70
     1
  9
$SHADEDGE
 70
     3
  9
$SHADEDIF
 70
    70
  9
$TILEMODE
 70
     1
  9
$MAXACTVP
 70
    64
  9
$PINSBASE
 10
0.0
 20
0.0
 30
0.0
  9
$PLIMCHECK
 70
     0
  9
$PEXTMIN
 10
1.000000000000000E+20
 20
1.000000000000000E+20
 30
1.000000000000000E+20
  9
$PEXTMAX
 10
-1.000000000000000E+20
 20
-1.000000000000000E+20
 30
-1.000000000000000E+20
  9
$PLIMMIN
 10
0.0
 20
0.0
  9
$PLIMMAX
 10
12.0
 20
9.0
  9
$UNITMODE
 70
     0
  9
$VISRETAIN
 70
     1
  9
$PLINEGEN
 70
     0
  9
$PSLTSCALE
 70
     1
  9
$TREEDEPTH
 70
  3020
  9
$CMLSTYLE
  2
Standard
  9
$CMLJUST
 70
     0
  9
$CMLSCALE
 40
1.0
  9
$PROXYGRAPHICS
 70
     1
  9
$MEASUREMENT
 70
     0
  9
$CELWEIGHT
370
    -1
  9
$ENDCAPS
280
     0
  9
$JOINSTYLE
280
     0
  9
$LWDISPLAY
290
     1
  9
$INSUNITS
 70
     1
  9
$HYPERLINKBASE
  1

  9
$STYLESHEET
  1

  9
$XEDIT
290
     1
  9
$CEPSNTYPE
380
     0
  9
$PSTYLEMODE
290
     1
  9
$FINGERPRINTGUID
  2
{DDBEC129-1063-4EE8-8EC0-45D59CB30762}
  9
$VERSIONGUID
  2
{FAEB1C32-E019-11D5-929B-00C0DF256EC4}
  9
$EXTNAMES
290
     1
  9
$PSVPSCALE
 40
0.0
  9
$OLESTARTUP
290
     0
  9
$SORTENTS
280
   127
  9
$INDEXCTL
280
     0
  9
$HIDETEXT
280
     1
  9
$XCLIPFRAME
280
     2
  9
$HALOGAP
280
     0
  9
$OBSCOLOR
 70
   257
  9
$OBSLTYPE
280
     0
  9
$INTERSECTIONDISPLAY
280
     0
  9
$INTERSECTIONCOLOR
 70
   257
  9
$DIMASSOC
280
     2
  9
$PROJECTNAME
  1

  9
$CAMERADISPLAY
290
     0
  9
$LENSLENGTH
 40
50.0
  9
$CAMERAHEIGHT
 40
0.0
  9
$STEPSPERSEC
 40
2.0
  9
$STEPSIZE
 40
6.0
  9
$3DDWFPREC
 40
2.0
  9
$PSOLWIDTH
 40
0.25
  9
$PSOLHEIGHT
 40
4.0
  9
$LOFTANG1
 40
1.570796326794897
  9
$LOFTANG2
 40
1.570796326794897
  9
$LOFTMAG1
 40
0.0
  9
$LOFTMAG2
 40
0.0
  9
$LOFTPARAM
 70
     7
  9
$LOFTNORMALS
280
     1
  9
$LATITUDE
 40
37.795
  9
$LONGITUDE
 40
-122.394
  9
$NORTHDIRECTION
 40
0.0
  9
$TIMEZONE
 70
 -8000
  9
$LIGHTGLYPHDISPLAY
280
     1
  9
$TILEMODELIGHTSYNCH
280
     1
  9
$CMATERIAL
347
3C
  9
$SOLIDHIST
280
     1
  9
$SHOWHIST
280
     1
  9
$DWFFRAME
280
     2
  9
$DGNFRAME
280
     2
  9
$REALWORLDSCALE
290
     1
  9
$INTERFERECOLOR
 62
   256
  9
$CSHADOW
280
     0
  9
$SHADOWPLANELOCATION
 40
0.0
  0
ENDSEC
  0
SECTION
  2
CLASSES
  0
CLASS
  1
ACDBDICTIONARYWDFLT
  2
AcDbDictionaryWithDefault
  3
ObjectDBX Classes
 90
        0
 91
        4
280
     0
281
     0
  0
CLASS
  1
VISUALSTYLE
  2
AcDbVisualStyle
  3
ObjectDBX Classes
 90
     4095
 91
        4
280
     0
281
     0
  0
CLASS
  1
MATERIAL
  2
AcDbMaterial
  3
ObjectDBX Classes
 90
     1153
 91
        4
280
     0
281
     0
  0
CLASS
  1
SUN
  2
AcDbSun
  3
SCENEOE
 90
     1024
 91
        4
280
     0
281
     0
  0
ENDSEC
  0
SECTION
  2
TABLES
  0
TABLE
  2
VPORT
  5
8
330
0
100
AcDbSymbolTable
 70
     1
  0
VPORT
  5
29
330
8
100
AcDbSymbolTableRecord
100
AcDbViewportTableRecord
  2
*Active
 70
     0
 10
0.0
 20
0.0
 11
1.0
 21
1.0
 12
0.0
 22
0.0
 13
0.0
 23
0.0
 14
0.5
 24
0.5
 15
0.5
 25
0.5
 16
0.0
 26
0.0
 36
1.0
 17
18.11494034730382
 27
-24.92803628315522
 37
0.0
 40
7.928754340054159
 41
1.26123216474023
 42
50.0
 43
0.0
 44
0.0
 50
0.0
 51
0.0
 71
     0
 72
   100
 73
     1
 74
     3
 75
     0
 76
     0
 77
     0
 78
     0
281
     0
 65
     1
110
0.0
120
0.0
130
0.0
111
1.0
121
0.0
131
0.0
112
0.0
122
1.0
132
0.0
 79
     0
146
0.0
 60
     3
 61
     5
292
     1
282
     1
141
0.0
142
0.0
 63
   250
361
3F
  0
ENDTAB
  0
TABLE
  2
LTYPE
  5
5
330
0
100
AcDbSymbolTable
 70
     1
  0
LTYPE
  5
14
330
5
100
AcDbSymbolTableRecord
100
AcDbLinetypeTableRecord
  2
ByBlock
 70
     0
  3

 72
    65
 73
     0
 40
0.0
  0
LTYPE
  5
15
330
5
100
AcDbSymbolTableRecord
100
AcDbLinetypeTableRecord
  2
ByLayer
 70
     0
  3

 72
    65
 73
     0
 40
0.0
  0
LTYPE
  5
16
330
5
100
AcDbSymbolTableRecord
100
AcDbLinetypeTableRecord
  2
Continuous
 70
     0
  3
Solid line
 72
    65
 73
     0
 40
0.0
  0
ENDTAB
  0
TABLE
  2
LAYER
  5
2
330
0
100
AcDbSymbolTable
 70
     2
  0
LAYER
  5
10
330
2
100
AcDbSymbolTableRecord
100
AcDbLayerTableRecord
  2
0
 70
     0
 62
     7
  6
Continuous
370
    -3
390
F
347
3E
  0
LAYER
  5
40
330
2
100
AcDbSymbolTableRecord
100
AcDbLayerTableRecord
  2
Layer 1
 70
     0
 62
     7
  6
Continuous
370
    -3
390
F
347
3E
  0
ENDTAB
  0
TABLE
  2
STYLE
  5
3
330
0
100
AcDbSymbolTable
 70
     1
  0
STYLE
  5
11
330
3
100
AcDbSymbolTableRecord
100
AcDbTextStyleTableRecord
  2
Standard
 70
     0
 40
0.0
 41
1.0
 50
0.0
 71
     0
 42
0.2
  3
txt
  4

  0
ENDTAB
  0
TABLE
  2
VIEW
  5
6
330
0
100
AcDbSymbolTable
 70
     0
  0
ENDTAB
  0
TABLE
  2
UCS
  5
7
330
0
100
AcDbSymbolTable
 70
     0
  0
ENDTAB
  0
TABLE
  2
APPID
  5
9
330
0
100
AcDbSymbolTable
 70
     1
  0
APPID
  5
12
330
9
100
AcDbSymbolTableRecord
100
AcDbRegAppTableRecord
  2
ACAD
 70
     0
  0
ENDTAB
  0
TABLE
  2
DIMSTYLE
  5
A
330
0
100
AcDbSymbolTable
 70
     1
100
AcDbDimStyleTable
  0
DIMSTYLE
105
27
330
A
100
AcDbSymbolTableRecord
100
AcDbDimStyleTableRecord
  2
Standard
 70
     0
178
     0
340
11
  0
ENDTAB
  0
TABLE
  2
BLOCK_RECORD
  5
1
330
0
100
AcDbSymbolTable
 70
     2
  0
BLOCK_RECORD
  5
1F
330
1
100
AcDbSymbolTableRecord
100
AcDbBlockTableRecord
  2
*Model_Space
340
22
 70
     0
280
     1
281
     0
  0
BLOCK_RECORD
  5
1B
330
1
100
AcDbSymbolTableRecord
100
AcDbBlockTableRecord
  2
*Paper_Space
340
1E
 70
     0
280
     1
281
     0
  0
BLOCK_RECORD
  5
23
330
1
100
AcDbSymbolTableRecord
100
AcDbBlockTableRecord
  2
*Paper_Space0
340
26
 70
     0
280
     1
281
     0
  0
BLOCK_RECORD
  5
41
330
1
100
AcDbSymbolTableRecord
100
AcDbBlockTableRecord
  2
block 2
340
0
102
{BLKREFS
331
42
102
}
 70
     0
280
     1
281
     0
  0
ENDTAB
  0
ENDSEC
  0
SECTION
  2
BLOCKS
  0
BLOCK
  5
20
330
1F
100
AcDbEntity
  8
0
100
AcDbBlockBegin
  2
*Model_Space
 70
     0
 10
0.0
 20
0.0
 30
0.0
  3
*Model_Space
  1

  0
ENDBLK
  5
21
330
1F
100
AcDbEntity
  8
0
100
AcDbBlockEnd
  0
BLOCK
  5
1C
330
1B
100
AcDbEntity
 67
     1
  8
0
100
AcDbBlockBegin
  2
*Paper_Space
 70
     0
 10
0.0
 20
0.0
 30
0.0
  3
*Paper_Space
  1

  0
ENDBLK
  5
1D
330
1B
100
AcDbEntity
 67
     1
  8
0
100
AcDbBlockEnd
  0
BLOCK
  5
24
330
23
100
AcDbEntity
  8
0
100
AcDbBlockBegin
  2
*Paper_Space0
 70
     0
 10
0.0
 20
0.0
 30
0.0
  3
*Paper_Space0
  1

  0
ENDBLK
  5
25
330
23
100
AcDbEntity
  8
0
100
AcDbBlockEnd
  0
BLOCK
  5
43
330
41
100
AcDbEntity
  8
0
100
AcDbBlockBegin
  2
block 2
 70
     0
 10
0.0
 20
0.0
 30
0.0
  3
block 2
  1

  0
SPLINE
  5
45
330
41
100
AcDbEntity
  8
Layer 1
370
     0
100
AcDbSpline
210
0.0
220
0.0
230
1.0
 70
    11
 71
     3
 72
   281
 73
   277
 74
     0
 42
0.0000000001
 43
0.0000000001
 12
1.0
 22
0.0
 32
0.0
 13
1.0
 23
0.0
 33
0.0
 40
0.0
 40
0.0
 40
0.0
 40
0.0
 40
1.0
 40
1.0
 40
1.0
 40
2.0
 40
2.0
 40
2.0
 40
3.0
 40
3.0
 40
3.0
 40
4.0
 40
4.0
 40
4.0
 40
5.0
 40
5.0
 40
5.0
 40
6.0
 40
6.0
 40
6.0
 40
7.0
 40
7.0
 40
7.0
 40
8.0
 40
8.0
 40
8.0
 40
9.0
 40
9.0
 40
9.0
 40
10.0
 40
10.0
 40
10.0
 40
11.0
 40
11.0
 40
11.0
 40
12.0
 40
12.0
 40
12.0
 40
13.0
 40
13.0
 40
13.0
 40
14.0
 40
14.0
 40
14.0
 40
15.0
 40
15.0
 40
15.0
 40
16.0
 40
16.0
 40
16.0
 40
17.0
 40
17.0
 40
17.0
 40
18.0
 40
18.0
 40
18.0
 40
19.0
 40
19.0
 40
19.0
 40
20.0
 40
20.0
 40
20.0
 40
21.0
 40
21.0
 40
21.0
 40
22.0
 40
22.0
 40
22.0
 40
23.0
 40
23.0
 40
23.0
 40
24.0
 40
24.0
 40
24.0
 40
25.0
 40
25.0
 40
25.0
 40
26.0
 40
26.0
 40
26.0
 40
27.0
 40
27.0
 40
27.0
 40
28.0
 40
28.0
 40
28.0
 40
29.0
 40
29.0
 40
29.0
 40
30.0
 40
30.0
 40
30.0
 40
31.0
 40
31.0
 40
31.0
 40
32.0
 40
32.0
 40
32.0
 40
33.0
 40
33.0
 40
33.0
 40
34.0
 40
34.0
 40
34.0
 40
35.0
 40
35.0
 40
35.0
 40
36.0
 40
36.0
 40
36.0
 40
37.0
 40
37.0
 40
37.0
 40
38.0
 40
38.0
 40
38.0
 40
39.0
 40
39.0
 40
39.0
 40
40.0
 40
40.0
 40
40.0
 40
41.0
 40
41.0
 40
41.0
 40
42.0
 40
42.0
 40
42.0
 40
43.0
 40
43.0
 40
43.0
 40
44.0
 40
44.0
 40
44.0
 40
45.0
 40
45.0
 40
45.0
 40
46.0
 40
46.0
 40
46.0
 40
47.0
 40
47.0
 40
47.0
 40
48.0
 40
48.0
 40
48.0
 40
49.0
 40
49.0
 40
49.0
 40
50.0
 40
50.0
 40
50.0
 40
51.0
 40
51.0
 40
51.0
 40
52.0
 40
52.0
 40
52.0
 40
53.0
 40
53.0
 40
53.0
 40
54.0
 40
54.0
 40
54.0
 40
55.0
 40
55.0
 40
55.0
 40
56.0
 40
56.0
 40
56.0
 40
57.0
 40
57.0
 40
57.0
 40
58.0
 40
58.0
 40
58.0
 40
59.0
 40
59.0
 40
59.0
 40
60.0
 40
60.0
 40
60.0
 40
61.0
 40
61.0
 40
61.0
 40
62.0
 40
62.0
 40
62.0
 40
63.0
 40
63.0
 40
63.0
 40
64.0
 40
64.0
 40
64.0
 40
65.0
 40
65.0
 40
65.0
 40
66.0
 40
66.0
 40
66.0
 40
67.0
 40
67.0
 40
67.0
 40
68.0
 40
68.0
 40
68.0
 40
69.0
 40
69.0
 40
69.0
 40
70.0
 40
70.0
 40
70.0
 40
71.0
 40
71.0
 40
71.0
 40
72.0
 40
72.0
 40
72.0
 40
73.0
 40
73.0
 40
73.0
 40
74.0
 40
74.0
 40
74.0
 40
75.0
 40
75.0
 40
75.0
 40
76.0
 40
76.0
 40
76.0
 40
77.0
 40
77.0
 40
77.0
 40
78.0
 40
78.0
 40
78.0
 40
79.0
 40
79.0
 40
79.0
 40
80.0
 40
80.0
 40
80.0
 40
81.0
 40
81.0
 40
81.0
 40
82.0
 40
82.0
 40
82.0
 40
83.0
 40
83.0
 40
83.0
 40
84.0
 40
84.0
 40
84.0
 40
85.0
 40
85.0
 40
85.0
 40
86.0
 40
86.0
 40
86.0
 40
87.0
 40
87.0
 40
87.0
 40
88.0
 40
88.0
 40
88.0
 40
89.0
 40
89.0
 40
89.0
 40
90.0
 40
90.0
 40
90.0
 40
91.0
 40
91.0
 40
91.0
 40
92.0
 40
92.0
 40
92.0
 40
92.0
 10
23.07799777800786
 20
-22.63135674759943
 30
0.0
 10
23.07799777800786
 20
-22.63135674759943
 30
0.0
 10
23.06002689005239
 20
-22.59182057472617
 30
0.0
 10
23.06002689005239
 20
-22.59182057472617
 30
0.0
 10
23.06002689005239
 20
-22.59182057472617
 30
0.0
 10
23.05643358994606
 20
-22.58103848069524
 30
0.0
 10
23.05643358994606
 20
-22.58103848069524
 30
0.0
 10
23.05643358994606
 20
-22.58103848069524
 30
0.0
 10
23.05284028983973
 20
-22.57384968677065
 30
0.0
 10
23.05284028983973
 20
-22.57384968677065
 30
0.0
 10
23.05284028983973
 20
-22.57384968677065
 30
0.0
 10
23.04565149591518
 20
-22.55947319577743
 30
0.0
 10
23.04565149591518
 20
-22.55947319577743
 30
0.0
 10
23.04565149591518
 20
-22.55947319577743
 30
0.0
 10
23.03846270199059
 20
-22.54509670478425
 30
0.0
 10
23.03846270199059
 20
-22.54509670478425
 30
0.0
 10
23.03846270199059
 20
-22.54509670478425
 30
0.0
 10
23.03486940188425
 20
-22.53790791085965
 30
0.0
 10
23.03486940188425
 20
-22.53790791085965
 30
0.0
 10
23.03486940188425
 20
-22.53790791085965
 30
0.0
 10
23.03486940188425
 20
-22.53431351389736
 30
0.0
 10
23.03486940188425
 20
-22.53431351389736
 30
0.0
 10
23.02768060795966
 20
-22.51993702290418
 30
0.0
 10
23.03127610177792
 20
-22.52712471997281
 30
0.0
 10
23.02768060795966
 20
-22.52353141986643
 30
0.0
 10
23.02768060795966
 20
-22.52353141986643
 30
0.0
 10
23.00611641989781
 20
-22.49118404091771
 30
0.0
 10
23.00611641989781
 20
-22.49118404091771
 30
0.0
 10
22.99173883204864
 20
-22.46961875599994
 30
0.0
 10
22.97376794409317
 20
-22.45164786804445
 30
0.0
 10
22.95939254995591
 20
-22.43008258312663
 30
0.0
 10
22.94142166200037
 20
-22.41211169517116
 30
0.0
 10
22.92345077404484
 20
-22.39414080721563
 30
0.0
 10
22.90547988608937
 20
-22.37616991926016
 30
0.0
 10
22.75093068841448
 20
-22.23959160954074
 30
0.0
 10
22.52449793891754
 20
-22.19286664274285
 30
0.0
 10
22.33041147151337
 20
-22.25396810053391
 30
0.0
 10
22.30525178963325
 20
-22.26115689445851
 30
0.0
 10
22.27649880764688
 20
-22.27193898848943
 30
0.0
 10
22.25133912576676
 20
-22.28272108252036
 30
0.0
 10
22.25133912576676
 20
-22.28272108252036
 30
0.0
 10
22.2261794438867
 20
-22.29709757351356
 30
0.0
 10
22.2261794438867
 20
-22.29709757351356
 30
0.0
 10
22.2261794438867
 20
-22.29709757351356
 30
0.0
 10
22.21180185603756
 20
-22.30428636743816
 30
0.0
 10
22.21180185603756
 20
-22.30428636743816
 30
0.0
 10
22.21180185603756
 20
-22.30428636743816
 30
0.0
 10
22.20101976200661
 20
-22.31147516136275
 30
0.0
 10
22.20101976200661
 20
-22.31147516136275
 30
0.0
 10
22.20101976200661
 20
-22.31147516136275
 30
0.0
 10
22.19383096808201
 20
-22.315069558325
 30
0.0
 10
22.19383096808201
 20
-22.315069558325
 30
0.0
 10
22.19383096808201
 20
-22.315069558325
 30
0.0
 10
22.0931944342736
 20
-22.37617101611613
 30
0.0
 10
22.0931944342736
 20
-22.37617101611613
 30
0.0
 10
22.0931944342736
 20
-22.37617101611613
 30
0.0
 10
21.88832587283853
 20
-22.49477843788001
 30
0.0
 10
21.88832587283853
 20
-22.49477843788001
 30
0.0
 10
21.88832587283853
 20
-22.49477843788001
 30
0.0
 10
21.48218424378658
 20
-22.73199437826381
 30
0.0
 10
21.48218424378658
 20
-22.73199437826381
 30
0.0
 10
21.48218424378658
 20
-22.73199437826381
 30
0.0
 10
21.20183883042316
 20
-22.89373236986335
 30
0.0
 10
21.20183883042316
 20
-22.89373236986335
 30
0.0
 10
21.20183883042316
 20
-22.72839998130151
 30
0.0
 10
21.20183883042316
 20
-22.55947429263339
 30
0.0
 10
21.20543213052949
 20
-22.3905475071093
 30
0.0
 10
21.20543213052949
 20
-22.28991097330089
 30
0.0
 10
21.20543213052949
 20
-22.19286773959882
 30
0.0
 10
21.20543213052949
 20
-22.09223120579039
 30
0.0
 10
21.20543213052949
 20
-22.04191293888617
 30
0.0
 10
21.20543213052949
 20
-21.99159467198198
 30
0.0
 10
21.20543213052949
 20
-21.94127530822177
 30
0.0
 10
21.20543213052949
 20
-21.91252232623538
 30
0.0
 10
21.20183883042316
 20
-21.88376824739301
 30
0.0
 10
21.20183883042316
 20
-21.85501526540659
 30
0.0
 10
21.20183883042316
 20
-21.82626228342019
 30
0.0
 10
21.19465003649859
 20
-21.79750820457778
 30
0.0
 10
21.19105673639223
 20
-21.76875522259136
 30
0.0
 10
21.15152166037488
 20
-21.53513367916985
 30
0.0
 10
21.02212995086814
 20
-21.31588862674158
 30
0.0
 10
20.82804458031993
 20
-21.16852767456324
 30
0.0
 10
20.73100134661786
 20
-21.09304972577898
 30
0.0
 10
20.62317601888486
 20
-21.03913706191245
 30
0.0
 10
20.5045685971209
 20
-21.00319528600145
 30
0.0
 10
20.4758156151345
 20
-20.99600704050484
 30
0.0
 10
20.44706153629214
 20
-20.98522439804595
 30
0.0
 10
20.41471415734342
 20
-20.98163000108368
 30
0.0
 10
20.38236677839473
 20
-20.97803560412138
 30
0.0
 10
20.34642500248371
 20
-20.97084735862477
 30
0.0
 10
20.31767092364134
 20
-20.96725351009043
 30
0.0
 10
20.31767092364134
 20
-20.96725351009043
 30
0.0
 10
20.23859857789474
 20
-20.96365911312813
 30
0.0
 10
20.23859857789474
 20
-20.96365911312813
 30
0.0
 10
20.23859857789474
 20
-20.96365911312813
 30
0.0
 10
20.15233853507955
 20
-20.96365911312813
 30
0.0
 10
20.15233853507955
 20
-20.96365911312813
 30
0.0
 10
19.94028227657582
 20
-20.96365911312813
 30
0.0
 10
19.72822601807211
 20
-20.96725351009043
 30
0.0
 10
19.51257536260608
 20
-20.96725351009043
 30
0.0
 10
18.64997274074209
 20
-20.97084790705273
 30
0.0
 10
17.75861713689164
 20
-20.98522439804595
 30
0.0
 10
16.85288394519201
 20
-20.99241264354254
 30
0.0
 10
15.94715075349237
 20
-21.00319528600145
 30
0.0
 10
15.02704216765551
 20
-21.00678913453577
 30
0.0
 10
14.1069324849627
 20
-21.00678913453577
 30
0.0
 10
13.84815125966108
 20
-21.00319473757347
 30
0.0
 10
13.59296552817775
 20
-21.11820885923104
 30
0.0
 10
13.42044434569137
 20
-21.30510543585468
 30
0.0
 10
13.33418430287619
 20
-21.39855427259448
 30
0.0
 10
13.26589514801645
 20
-21.50997399728979
 30
0.0
 10
13.22276457818089
 20
-21.63217581601599
 30
0.0
 10
13.20119929326309
 20
-21.69327727380707
 30
0.0
 10
13.18682280226984
 20
-21.75437763474222
 30
0.0
 10
13.17604070823894
 20
-21.82266678960193
 30
0.0
 10
13.17604070823894
 20
-21.82985558352652
 30
0.0
 10
13.17244631127664
 20
-21.8406376775574
 30
0.0
 10
13.17244631127664
 20
-21.84782647148199
 30
0.0
 10
13.17244631127664
 20
-21.84782647148199
 30
0.0
 10
13.17244631127664
 20
-21.86939175639979
 30
0.0
 10
13.17244631127664
 20
-21.86939175639979
 30
0.0
 10
13.17244631127664
 20
-21.86939175639979
 30
0.0
 10
13.16885191431435
 20
-21.91252232623538
 30
0.0
 10
13.16885191431435
 20
-21.91252232623538
 30
0.0
 10
13.16885191431435
 20
-21.91252232623538
 30
0.0
 10
13.16885191431435
 20
-21.9233044202663
 30
0.0
 10
13.16885191431435
 20
-21.9233044202663
 30
0.0
 10
13.16885191431435
 20
-21.9233044202663
 30
0.0
 10
13.16885191431435
 20
-21.93768091125952
 30
0.0
 10
13.16885191431435
 20
-21.93768091125952
 30
0.0
 10
13.16885191431435
 20
-21.93768091125952
 30
0.0
 10
13.16885191431435
 20
-22.00237566915694
 30
0.0
 10
13.16885191431435
 20
-22.00237566915694
 30
0.0
 10
13.16885191431435
 20
-22.46242996207535
 30
0.0
 10
13.1616631203898
 20
-22.91529655792515
 30
0.0
 10
13.15806982028347
 20
-23.37175755073728
 30
0.0
 10
13.14728772625254
 20
-24.27749074243689
 30
0.0
 10
13.14009893232795
 20
-25.16884634628731
 30
0.0
 10
13.12931683829702
 20
-26.03144896815135
 30
0.0
 10
13.12572244133475
 20
-26.46275027908339
 30
0.0
 10
13.12212804437243
 20
-26.88686279609081
 30
0.0
 10
13.1185347442661
 20
-27.30378761602962
 30
0.0
 10
13.11494034730382
 20
-27.51224947757105
 30
0.0
 10
13.11494034730382
 20
-27.71711803900613
 30
0.0
 10
13.11494034730382
 20
-27.92198660044121
 30
0.0
 10
13.11494034730382
 20
-28.04059402220517
 30
0.0
 10
13.14010002918386
 20
-28.16279693778733
 30
0.0
 10
13.18322950216351
 20
-28.27421556562667
 30
0.0
 10
13.2263600719991
 20
-28.38563529032191
 30
0.0
 10
13.29105482989656
 20
-28.4862718241304
 30
0.0
 10
13.37012717564312
 20
-28.57253186694558
 30
0.0
 10
13.44919952138967
 20
-28.65879190976082
 30
0.0
 10
13.54264726127354
 20
-28.7306754615828
 30
0.0
 10
13.64328489193791
 20
-28.78458812544929
 30
0.0
 10
13.64328489193791
 20
-28.78458812544929
 30
0.0
 10
13.72235723768452
 20
-28.82052990136031
 30
0.0
 10
13.72235723768452
 20
-28.82052990136031
 30
0.0
 10
13.75111021967091
 20
-28.83131199539124
 30
0.0
 10
13.776269901551
 20
-28.83850078931583
 30
0.0
 10
13.80502288353745
 20
-28.84928288334671
 30
0.0
 10
13.85893554740394
 20
-28.86365937433993
 30
0.0
 10
13.91284821127043
 20
-28.87803586533315
 30
0.0
 10
13.97754296916784
 20
-28.8852246592577
 30
0.0
 10
13.99191946016107
 20
-28.88881905622
 30
0.0
 10
14.00989034811654
 20
-28.88881905622
 30
0.0
 10
14.02067353900343
 20
-28.89241345318229
 30
0.0
 10
14.02067353900343
 20
-28.89241345318229
 30
0.0
 10
14.05661531491442
 20
-28.89241345318229
 30
0.0
 10
14.05661531491442
 20
-28.89241345318229
 30
0.0
 10
14.05661531491442
 20
-28.89241345318229
 30
0.0
 10
14.09255709082544
 20
-28.89241345318229
 30
0.0
 10
14.09255709082544
 20
-28.89241345318229
 30
0.0
 10
14.09255709082544
 20
-28.89241345318229
 30
0.0
 10
14.10333918485632
 20
-28.89241345318229
 30
0.0
 10
14.10333918485632
 20
-28.89241345318229
 30
0.0
 10
14.12131007281184
 20
-28.89241345318229
 30
0.0
 10
14.11412127888724
 20
-28.89241345318229
 30
0.0
 10
14.12131007281184
 20
-28.89241345318229
 30
0.0
 10
14.12131007281184
 20
-28.89241345318229
 30
0.0
 10
14.13928096076736
 20
-28.89241345318229
 30
0.0
 10
14.13928096076736
 20
-28.89241345318229
 30
0.0
 10
14.18600483070925
 20
-28.89241345318229
 30
0.0
 10
14.23272979750714
 20
-28.89241345318229
 30
0.0
 10
14.28304806441138
 20
-28.89241345318229
 30
0.0
 10
14.37649690115116
 20
-28.89241345318229
 30
0.0
 10
14.4735390379973
 20
-28.89241345318229
 30
0.0
 10
14.5633934777748
 20
-28.88881905622
 30
0.0
 10
14.93718772787803
 20
-28.8852246592577
 30
0.0
 10
15.29660548698803
 20
-28.8816302622954
 30
0.0
 10
15.64164675510483
 20
-28.87803696218907
 30
0.0
 10
16.33172929133843
 20
-28.87084816826453
 30
0.0
 10
16.96430366988731
 20
-28.8636604711959
 30
0.0
 10
17.52499559347012
 20
-28.8564716772713
 30
0.0
 10
18.08568751705287
 20
-28.84928288334671
 30
0.0
 10
18.57449588881375
 20
-28.84568958324038
 30
0.0
 10
18.97704312090337
 20
-28.84568958324038
 30
0.0
 10
19.7821386819386
 20
-28.84209518627808
 30
0.0
 10
20.242194071713
 20
-28.83850078931583
 30
0.0
 10
20.242194071713
 20
-28.83850078931583
 30
0.0
 10
20.242194071713
 20
-28.83850078931583
 30
0.0
 10
20.27454145066172
 20
-28.83850078931583
 30
0.0
 10
20.33564290845278
 20
-28.83490639235353
 30
0.0
 10
20.39674436624387
 20
-28.82412429832261
 30
0.0
 10
20.49019210612773
 20
-28.81334110743571
 30
0.0
 10
20.60161183082303
 20
-28.76661723749382
 30
0.0
 10
20.7130315555183
 20
-28.71989336755188
 30
0.0
 10
20.84242216816907
 20
-28.637226624843
 30
0.0
 10
20.95384079600843
 20
-28.50424271208587
 30
0.0
 10
21.00775345987495
 20
-28.43595355722616
 30
0.0
 10
21.06166612374144
 20
-28.35688121147955
 30
0.0
 10
21.10120229661475
 20
-28.26702677170207
 30
0.0
 10
21.10839109053935
 20
-28.24186708982198
 30
0.0
 10
21.11917318457027
 20
-28.22030290176013
 30
0.0
 10
21.12636197849482
 20
-28.19514321988006
 30
0.0
 10
21.13355077241936
 20
-28.169983538
 30
0.0
 10
21.14073956634396
 20
-28.14482495297587
 30
0.0
 10
21.14792616655662
 20
-28.11966527109576
 30
0.0
 10
21.15511496048121
 20
-28.09450558921569
 30
0.0
 10
21.15870826058755
 20
-28.06575260722926
 30
0.0
 10
21.16230375440581
 20
-28.03699962524287
 30
0.0
 10
21.16589705451214
 20
-28.02262313424964
 30
0.0
 10
21.16589705451214
 20
-28.00824664325647
 30
0.0
 10
21.1694925483304
 20
-27.99386905540728
 30
0.0
 10
21.1694925483304
 20
-27.98308696137635
 30
0.0
 10
21.1694925483304
 20
-27.96870937352719
 30
0.0
 10
21.1694925483304
 20
-27.95792727949626
 30
0.0
 10
21.1694925483304
 20
-27.94714518546533
 30
0.0
 10
21.1694925483304
 20
-27.93276759761619
 30
0.0
 10
21.17308584843673
 20
-27.91839110662297
 30
0.0
 10
21.17308584843673
 20
-27.91839110662297
 30
0.0
 10
21.17308584843673
 20
-27.90401461562977
 30
0.0
 10
21.17308584843673
 20
-27.90401461562977
 30
0.0
 10
21.17308584843673
 20
-27.90401461562977
 30
0.0
 10
21.17308584843673
 20
-27.87526163364338
 30
0.0
 10
21.17308584843673
 20
-27.87526163364338
 30
0.0
 10
21.17308584843673
 20
-27.85010195176326
 30
0.0
 10
21.17308584843673
 20
-27.82494336673913
 30
0.0
 10
21.17308584843673
 20
-27.79618928789677
 30
0.0
 10
21.17308584843673
 20
-27.74227662403028
 30
0.0
 10
21.17308584843673
 20
-27.68836396016377
 30
0.0
 10
21.17308584843673
 20
-27.63445129629728
 30
0.0
 10
21.17308584843673
 20
-27.52303157160198
 30
0.0
 10
21.17308584843673
 20
-27.40801854680032
 30
0.0
 10
21.17308584843673
 20
-27.28581563121816
 30
0.0
 10
21.17308584843673
 20
-27.04141199376575
 30
0.0
 10
21.17667914854307
 20
-26.77903637150186
 30
0.0
 10
21.17667914854307
 20
-26.49869095813844
 30
0.0
 10
21.18027244864942
 20
-25.93799903455561
 30
0.0
 10
21.18746124257402
 20
-25.30542355915082
 30
0.0
 10
21.19105673639223
 20
-24.61534211977318
 30
0.0
 10
21.19105673639223
 20
-24.51111118900245
 30
0.0
 10
21.19465003649859
 20
-24.40328586126945
 30
0.0
 10
21.19465003649859
 20
-24.29546053353645
 30
0.0
 10
21.19465003649859
 20
-24.29546053353645
 30
0.0
 10
21.53609690765312
 20
-24.09778076602593
 30
0.0
 10
21.53609690765312
 20
-24.09778076602593
 30
0.0
 10
21.53609690765312
 20
-24.09778076602593
 30
0.0
 10
22.35197565957522
 20
-23.62334888525834
 30
0.0
 10
22.35197565957522
 20
-23.62334888525834
 30
0.0
 10
22.35197565957522
 20
-23.62334888525834
 30
0.0
 10
22.75811728862714
 20
-23.38613294487454
 30
0.0
 10
22.75811728862714
 20
-23.38613294487454
 30
0.0
 10
22.75811728862714
 20
-23.38613294487454
 30
0.0
 10
22.8084366523873
 20
-23.35737996288809
 30
0.0
 10
22.8084366523873
 20
-23.35737996288809
 30
0.0
 10
22.82640754034282
 20
-23.34659786885721
 30
0.0
 10
22.85156722222286
 20
-23.32862698090169
 30
0.0
 10
22.87313141028471
 20
-23.31424939305253
 30
0.0
 10
22.91266648630209
 20
-23.28190201410383
 30
0.0
 10
22.95220375603132
 20
-23.24596023819281
 30
0.0
 10
22.98455003812404
 20
-23.20642406531952
 30
0.0
 10
23.04924479602151
 20
-23.12735171957292
 30
0.0
 10
23.09237536585705
 20
-23.02671518576451
 30
0.0
 10
23.11034625381257
 20
-22.92607865195608
 30
0.0
 10
23.1211283478435
 20
-22.83263091207224
 30
0.0
 10
23.1139395539189
 20
-22.72839998130151
 30
0.0
 10
23.07799777800786
 20
-22.63135674759943
 30
0.0
  0
SPLINE
  5
46
330
41
100
AcDbEntity
  8
Layer 1
370
     0
100
AcDbSpline
210
0.0
220
0.0
230
1.0
 70
    11
 71
     3
 72
   212
 73
   208
 74
     0
 42
0.0000000001
 43
0.0000000001
 12
1.0
 22
0.0
 32
0.0
 13
1.0
 23
0.0
 33
0.0
 40
0.0
 40
0.0
 40
0.0
 40
0.0
 40
1.0
 40
1.0
 40
1.0
 40
2.0
 40
2.0
 40
2.0
 40
3.0
 40
3.0
 40
3.0
 40
4.0
 40
4.0
 40
4.0
 40
5.0
 40
5.0
 40
5.0
 40
6.0
 40
6.0
 40
6.0
 40
7.0
 40
7.0
 40
7.0
 40
8.0
 40
8.0
 40
8.0
 40
9.0
 40
9.0
 40
9.0
 40
10.0
 40
10.0
 40
10.0
 40
11.0
 40
11.0
 40
11.0
 40
12.0
 40
12.0
 40
12.0
 40
13.0
 40
13.0
 40
13.0
 40
14.0
 40
14.0
 40
14.0
 40
15.0
 40
15.0
 40
15.0
 40
16.0
 40
16.0
 40
16.0
 40
17.0
 40
17.0
 40
17.0
 40
18.0
 40
18.0
 40
18.0
 40
19.0
 40
19.0
 40
19.0
 40
20.0
 40
20.0
 40
20.0
 40
21.0
 40
21.0
 40
21.0
 40
22.0
 40
22.0
 40
22.0
 40
23.0
 40
23.0
 40
23.0
 40
24.0
 40
24.0
 40
24.0
 40
25.0
 40
25.0
 40
25.0
 40
26.0
 40
26.0
 40
26.0
 40
27.0
 40
27.0
 40
27.0
 40
28.0
 40
28.0
 40
28.0
 40
29.0
 40
29.0
 40
29.0
 40
30.0
 40
30.0
 40
30.0
 40
31.0
 40
31.0
 40
31.0
 40
32.0
 40
32.0
 40
32.0
 40
33.0
 40
33.0
 40
33.0
 40
34.0
 40
34.0
 40
34.0
 40
35.0
 40
35.0
 40
35.0
 40
36.0
 40
36.0
 40
36.0
 40
37.0
 40
37.0
 40
37.0
 40
38.0
 40
38.0
 40
38.0
 40
39.0
 40
39.0
 40
39.0
 40
40.0
 40
40.0
 40
40.0
 40
41.0
 40
41.0
 40
41.0
 40
42.0
 40
42.0
 40
42.0
 40
43.0
 40
43.0
 40
43.0
 40
44.0
 40
44.0
 40
44.0
 40
45.0
 40
45.0
 40
45.0
 40
46.0
 40
46.0
 40
46.0
 40
47.0
 40
47.0
 40
47.0
 40
48.0
 40
48.0
 40
48.0
 40
49.0
 40
49.0
 40
49.0
 40
50.0
 40
50.0
 40
50.0
 40
51.0
 40
51.0
 40
51.0
 40
52.0
 40
52.0
 40
52.0
 40
53.0
 40
53.0
 40
53.0
 40
54.0
 40
54.0
 40
54.0
 40
55.0
 40
55.0
 40
55.0
 40
56.0
 40
56.0
 40
56.0
 40
57.0
 40
57.0
 40
57.0
 40
58.0
 40
58.0
 40
58.0
 40
59.0
 40
59.0
 40
59.0
 40
60.0
 40
60.0
 40
60.0
 40
61.0
 40
61.0
 40
61.0
 40
62.0
 40
62.0
 40
62.0
 40
63.0
 40
63.0
 40
63.0
 40
64.0
 40
64.0
 40
64.0
 40
65.0
 40
65.0
 40
65.0
 40
66.0
 40
66.0
 40
66.0
 40
67.0
 40
67.0
 40
67.0
 40
68.0
 40
68.0
 40
68.0
 40
69.0
 40
69.0
 40
69.0
 40
69.0
 10
18.22945242698501
 20
-24.65128499254009
 30
0.0
 10
18.22945242698501
 20
-24.65128499254009
 30
0.0
 10
16.68036166584966
 20
-25.56780027827065
 30
0.0
 10
16.68036166584966
 20
-25.56780027827065
 30
0.0
 10
16.56175424408573
 20
-25.41325108059573
 30
0.0
 10
16.44314572546586
 20
-25.25870078606486
 30
0.0
 10
16.32453830370193
 20
-25.10774598535221
 30
0.0
 10
16.32453830370193
 20
-25.10774598535221
 30
0.0
 10
15.91480227768774
 20
-24.57580704375583
 30
0.0
 10
15.91480227768774
 20
-24.57580704375583
 30
0.0
 10
15.91480227768774
 20
-24.57580704375583
 30
0.0
 10
15.81057134691703
 20
-24.44641643110501
 30
0.0
 10
15.81057134691703
 20
-24.44641643110501
 30
0.0
 10
15.79978925288611
 20
-24.43563433707411
 30
0.0
 10
15.79619485592381
 20
-24.42485114618722
 30
0.0
 10
15.78181836493059
 20
-24.41047465519404
 30
0.0
 10
15.77103627089966
 20
-24.39609816420082
 30
0.0
 10
15.76025308001279
 20
-24.38172167320759
 30
0.0
 10
15.74587658901957
 20
-24.37093848232073
 30
0.0
 10
15.74587658901957
 20
-24.37093848232073
 30
0.0
 10
15.7063404161463
 20
-24.33499670640973
 30
0.0
 10
15.7063404161463
 20
-24.33499670640973
 30
0.0
 10
15.69196392515308
 20
-24.32421461237881
 30
0.0
 10
15.67758743415986
 20
-24.31343142149192
 30
0.0
 10
15.66320984631066
 20
-24.30264932746104
 30
0.0
 10
15.54460242454679
 20
-24.21998368160808
 30
0.0
 10
15.39724092394052
 20
-24.18044750873479
 30
0.0
 10
15.25706821725875
 20
-24.19841839669031
 30
0.0
 10
15.18518466543674
 20
-24.20560719061485
 30
0.0
 10
15.11330111361475
 20
-24.22717137867673
 30
0.0
 10
15.04860635571734
 20
-24.25951985448139
 30
0.0
 10
15.03063546776184
 20
-24.27030194851232
 30
0.0
 10
15.01266457980637
 20
-24.27749074243689
 30
0.0
 10
14.99469369185085
 20
-24.28827283646782
 30
0.0
 10
14.98391159781992
 20
-24.29546163039241
 30
0.0
 10
14.98031720085767
 20
-24.29905493049874
 30
0.0
 10
14.97672280389533
 20
-24.30264932746104
 30
0.0
 10
14.97672280389533
 20
-24.30264932746104
 30
0.0
 10
14.95875191593985
 20
-24.31343142149192
 30
0.0
 10
14.95875191593985
 20
-24.31343142149192
 30
0.0
 10
14.95875191593985
 20
-24.31343142149192
 30
0.0
 10
14.95156312201529
 20
-24.32062021541651
 30
0.0
 10
14.95156312201529
 20
-24.32062021541651
 30
0.0
 10
14.95156312201529
 20
-24.32062021541651
 30
0.0
 10
14.94437432809069
 20
-24.32780900934111
 30
0.0
 10
14.94437432809069
 20
-24.32780900934111
 30
0.0
 10
14.94437432809069
 20
-24.32780900934111
 30
0.0
 10
14.93718553416609
 20
-24.3349978032657
 30
0.0
 10
14.93718553416609
 20
-24.3349978032657
 30
0.0
 10
14.93718553416609
 20
-24.3349978032657
 30
0.0
 10
14.91562024924833
 20
-24.35296869122117
 30
0.0
 10
14.91562024924833
 20
-24.35296869122117
 30
0.0
 10
14.9012437582551
 20
-24.3637507852521
 30
0.0
 10
14.89046056736821
 20
-24.37812837310126
 30
0.0
 10
14.87608407637501
 20
-24.39250486409449
 30
0.0
 10
14.77544754256658
 20
-24.50033019182749
 30
0.0
 10
14.71794048173782
 20
-24.64050289850921
 30
0.0
 10
14.71434608477549
 20
-24.78786439911548
 30
0.0
 10
14.71434608477549
 20
-24.85974795093749
 30
0.0
 10
14.72512817880642
 20
-24.9352258997218
 30
0.0
 10
14.75028786068654
 20
-25.00351505458148
 30
0.0
 10
14.75388225764878
 20
-25.02148594253698
 30
0.0
 10
14.76466435167971
 20
-25.0394568304925
 30
0.0
 10
14.77185314560431
 20
-25.05383332148573
 30
0.0
 10
14.77185314560431
 20
-25.05383332148573
 30
0.0
 10
14.78263523963523
 20
-25.07899300336579
 30
0.0
 10
14.78263523963523
 20
-25.07899300336579
 30
0.0
 10
14.78263523963523
 20
-25.07899300336579
 30
0.0
 10
14.79701173062843
 20
-25.10774598535221
 30
0.0
 10
14.79701173062843
 20
-25.10774598535221
 30
0.0
 10
14.79701173062843
 20
-25.10774598535221
 30
0.0
 10
14.81138822162166
 20
-25.13290566723228
 30
0.0
 10
14.81138822162166
 20
-25.13290566723228
 30
0.0
 10
14.8185770155462
 20
-25.14368776126321
 30
0.0
 10
14.8185770155462
 20
-25.14368776126321
 30
0.0
 10
14.82576471261488
 20
-25.1508765551878
 30
0.0
 10
14.82576471261488
 20
-25.1508765551878
 30
0.0
 10
14.8365468066458
 20
-25.16884744314327
 30
0.0
 10
14.8365468066458
 20
-25.16884744314327
 30
0.0
 10
14.8365468066458
 20
-25.16884744314327
 30
0.0
 10
14.84014120360805
 20
-25.17244184010557
 30
0.0
 10
14.84014120360805
 20
-25.17244184010557
 30
0.0
 10
14.84014120360805
 20
-25.17244184010557
 30
0.0
 10
14.84014120360805
 20
-25.17603623706787
 30
0.0
 10
14.84014120360805
 20
-25.17603623706787
 30
0.0
 10
14.84014120360805
 20
-25.17603623706787
 30
0.0
 10
14.84732999753265
 20
-25.18322503099244
 30
0.0
 10
14.84732999753265
 20
-25.18322503099244
 30
0.0
 10
14.84732999753265
 20
-25.18322503099244
 30
0.0
 10
14.85451879145724
 20
-25.19041382491703
 30
0.0
 10
14.85451879145724
 20
-25.19041382491703
 30
0.0
 10
14.85451879145724
 20
-25.19041382491703
 30
0.0
 10
15.06298065299868
 20
-25.45278835032498
 30
0.0
 10
15.06298065299868
 20
-25.45278835032498
 30
0.0
 10
15.06298065299868
 20
-25.45278835032498
 30
0.0
 10
15.47990547293744
 20
-25.97394410103445
 30
0.0
 10
15.47990547293744
 20
-25.97394410103445
 30
0.0
 10
15.47990547293744
 20
-25.97394410103445
 30
0.0
 10
15.90042468983855
 20
-26.49509985174399
 30
0.0
 10
15.90042468983855
 20
-26.49509985174399
 30
0.0
 10
15.90042468983855
 20
-26.49509985174399
 30
0.0
 10
16.00465562060925
 20
-26.62449046439479
 30
0.0
 10
16.00465562060925
 20
-26.62449046439479
 30
0.0
 10
16.00465562060925
 20
-26.62449046439479
 30
0.0
 10
16.05856828447574
 20
-26.68918522229223
 30
0.0
 10
16.05856828447574
 20
-26.68918522229223
 30
0.0
 10
16.08013356939356
 20
-26.71793820427865
 30
0.0
 10
16.10529215441769
 20
-26.74309788615872
 30
0.0
 10
16.13404623326005
 20
-26.76825756803878
 30
0.0
 10
16.19155329408884
 20
-26.81857583494303
 30
0.0
 10
16.25624805198625
 20
-26.85811200781632
 30
0.0
 10
16.32453720684599
 20
-26.88327168969641
 30
0.0
 10
16.36047898275696
 20
-26.89764818068958
 30
0.0
 10
16.396420758668
 20
-26.90483697461417
 30
0.0
 10
16.43236253457897
 20
-26.9120246716828
 30
0.0
 10
16.45033342253449
 20
-26.9156190686451
 30
0.0
 10
16.46830431049001
 20
-26.9192134656074
 30
0.0
 10
16.48986959540778
 20
-26.9192134656074
 30
0.0
 10
16.48986959540778
 20
-26.9192134656074
 30
0.0
 10
16.50424608640098
 20
-26.9192134656074
 30
0.0
 10
16.50424608640098
 20
-26.9192134656074
 30
0.0
 10
16.5078404833633
 20
-26.9192134656074
 30
0.0
 10
16.51502818043191
 20
-26.9192134656074
 30
0.0
 10
16.5186225773942
 20
-26.9192134656074
 30
0.0
 10
16.5186225773942
 20
-26.9192134656074
 30
0.0
 10
16.54018786231202
 20
-26.9192134656074
 30
0.0
 10
16.54018786231202
 20
-26.9192134656074
 30
0.0
 10
16.54018786231202
 20
-26.9192134656074
 30
0.0
 10
16.54378225927427
 20
-26.9192134656074
 30
0.0
 10
16.54378225927427
 20
-26.9192134656074
 30
0.0
 10
16.64801319004497
 20
-26.9192134656074
 30
0.0
 10
16.755838517778
 20
-26.890460483621
 30
0.0
 10
16.84569295755548
 20
-26.84014111986079
 30
0.0
 10
16.84569295755548
 20
-26.84014111986079
 30
0.0
 10
17.05056151899058
 20
-26.72153369809686
 30
0.0
 10
17.05056151899058
 20
-26.72153369809686
 30
0.0
 10
17.05056151899058
 20
-26.72153369809686
 30
0.0
 10
17.4567031480425
 20
-26.48431775771306
 30
0.0
 10
17.4567031480425
 20
-26.48431775771306
 30
0.0
 10
17.4567031480425
 20
-26.48431775771306
 30
0.0
 10
18.27258189996463
 20
-26.00988587694547
 30
0.0
 10
18.27258189996463
 20
-26.00988587694547
 30
0.0
 10
18.27258189996463
 20
-26.00988587694547
 30
0.0
 10
19.90074390999062
 20
-25.06102321226624
 30
0.0
 10
19.90074390999062
 20
-25.06102321226624
 30
0.0
 10
19.90074390999062
 20
-25.06102321226624
 30
0.0
 10
20.00497484076135
 20
-24.99992175447515
 30
0.0
 10
20.00497484076135
 20
-24.99992175447515
 30
0.0
 10
20.00497484076135
 20
-24.99992175447515
 30
0.0
 10
19.97622185877491
 20
-27.67039526592018
 30
0.0
 10
19.97622185877491
 20
-27.67039526592018
 30
0.0
 10
19.9043383069529
 20
-27.67039526592018
 30
0.0
 10
19.83245475513089
 20
-27.67039526592018
 30
0.0
 10
19.76057120330887
 20
-27.67039526592018
 30
0.0
 10
19.76057120330887
 20
-27.67039526592018
 30
0.0
 10
19.39037135016795
 20
-27.67398966288248
 30
0.0
 10
19.39037135016795
 20
-27.67398966288248
 30
0.0
 10
19.39037135016795
 20
-27.67398966288248
 30
0.0
 10
18.64637615006786
 20
-27.68117845680707
 30
0.0
 10
18.64637615006786
 20
-27.68117845680707
 30
0.0
 10
18.64637615006786
 20
-27.68117845680707
 30
0.0
 10
17.16198124368589
 20
-27.69555494780025
 30
0.0
 10
17.16198124368589
 20
-27.69555494780025
 30
0.0
 10
17.16198124368589
 20
-27.69555494780025
 30
0.0
 10
14.29023356776808
 20
-27.72790232674894
 30
0.0
 10
14.29023356776808
 20
-27.72790232674894
 30
0.0
 10
14.29742236169265
 20
-27.27863012786146
 30
0.0
 10
14.30101566179898
 20
-26.82935792897395
 30
0.0
 10
14.30820445572357
 20
-26.38008573008642
 30
0.0
 10
14.30820445572357
 20
-26.38008573008642
 30
0.0
 10
14.3189865497545
 20
-24.93163259961547
 30
0.0
 10
14.3189865497545
 20
-24.93163259961547
 30
0.0
 10
14.3189865497545
 20
-24.93163259961547
 30
0.0
 10
14.3261753436791
 20
-24.20920268443312
 30
0.0
 10
14.3261753436791
 20
-24.20920268443312
 30
0.0
 10
14.3261753436791
 20
-24.20920268443312
 30
0.0
 10
14.3261753436791
 20
-23.48317837228852
 30
0.0
 10
14.3261753436791
 20
-23.48317837228852
 30
0.0
 10
14.3261753436791
 20
-23.48317837228852
 30
0.0
 10
14.32976974064134
 20
-22.17489794849924
 30
0.0
 10
14.32976974064134
 20
-22.17489794849924
 30
0.0
 10
14.32976974064134
 20
-22.17489794849924
 30
0.0
 10
14.9335911372038
 20
-22.17489794849924
 30
0.0
 10
14.9335911372038
 20
-22.17489794849924
 30
0.0
 10
14.9335911372038
 20
-22.17489794849924
 30
0.0
 10
15.67758633730394
 20
-22.17130355153697
 30
0.0
 10
15.67758633730394
 20
-22.17130355153697
 30
0.0
 10
15.67758633730394
 20
-22.17130355153697
 30
0.0
 10
17.16198124368589
 20
-22.16770915457469
 30
0.0
 10
17.16198124368589
 20
-22.16770915457469
 30
0.0
 10
17.16198124368589
 20
-22.16770915457469
 30
0.0
 10
18.64637615006786
 20
-22.15333266358147
 30
0.0
 10
18.64637615006786
 20
-22.15333266358147
 30
0.0
 10
18.64637615006786
 20
-22.15333266358147
 30
0.0
 10
19.39037135016795
 20
-22.14255056955054
 30
0.0
 10
19.39037135016795
 20
-22.14255056955054
 30
0.0
 10
19.60602200563398
 20
-22.13895617258825
 30
0.0
 10
19.81807826413771
 20
-22.13536177562595
 30
0.0
 10
20.03372891960372
 20
-22.13176847551962
 30
0.0
 10
20.03372891960372
 20
-22.13176847551962
 30
0.0
 10
20.01935242861049
 20
-23.59100479687749
 30
0.0
 10
20.01935242861049
 20
-23.59100479687749
 30
0.0
 10
20.01935242861049
 20
-23.59100479687749
 30
0.0
 10
19.84683234298008
 20
-23.6916413306859
 30
0.0
 10
19.84683234298008
 20
-23.6916413306859
 30
0.0
 10
19.84683234298008
 20
-23.6916413306859
 30
0.0
 10
18.22945242698501
 20
-24.65128499254009
 30
0.0
 10
18.22945242698501
 20
-24.65128499254009
 30
0.0
  0
HATCH
  5
47
330
41
100
AcDbEntity
  8
Layer 1
 62
   250
420
  2301728
100
AcDbHatch
 10
0.0
 20
0.0
 30
0.0
210
0.0
220
0.0
230
1.0
  2
SOLID
 70
     1
 71
     0
 91
        2
 92
        1
 93
        1
 72
     4
 94
        3
 73
     0
 74
     1
 95
      281
 96
      277
 40
0.0
 40
0.0
 40
0.0
 40
0.0
 40
1.0
 40
1.0
 40
1.0
 40
2.0
 40
2.0
 40
2.0
 40
3.0
 40
3.0
 40
3.0
 40
4.0
 40
4.0
 40
4.0
 40
5.0
 40
5.0
 40
5.0
 40
6.0
 40
6.0
 40
6.0
 40
7.0
 40
7.0
 40
7.0
 40
8.0
 40
8.0
 40
8.0
 40
9.0
 40
9.0
 40
9.0
 40
10.0
 40
10.0
 40
10.0
 40
11.0
 40
11.0
 40
11.0
 40
12.0
 40
12.0
 40
12.0
 40
13.0
 40
13.0
 40
13.0
 40
14.0
 40
14.0
 40
14.0
 40
15.0
 40
15.0
 40
15.0
 40
16.0
 40
16.0
 40
16.0
 40
17.0
 40
17.0
 40
17.0
 40
18.0
 40
18.0
 40
18.0
 40
19.0
 40
19.0
 40
19.0
 40
20.0
 40
20.0
 40
20.0
 40
21.0
 40
21.0
 40
21.0
 40
22.0
 40
22.0
 40
22.0
 40
23.0
 40
23.0
 40
23.0
 40
24.0
 40
24.0
 40
24.0
 40
25.0
 40
25.0
 40
25.0
 40
26.0
 40
26.0
 40
26.0
 40
27.0
 40
27.0
 40
27.0
 40
28.0
 40
28.0
 40
28.0
 40
29.0
 40
29.0
 40
29.0
 40
30.0
 40
30.0
 40
30.0
 40
31.0
 40
31.0
 40
31.0
 40
32.0
 40
32.0
 40
32.0
 40
33.0
 40
33.0
 40
33.0
 40
34.0
 40
34.0
 40
34.0
 40
35.0
 40
35.0
 40
35.0
 40
36.0
 40
36.0
 40
36.0
 40
37.0
 40
37.0
 40
37.0
 40
38.0
 40
38.0
 40
38.0
 40
39.0
 40
39.0
 40
39.0
 40
40.0
 40
40.0
 40
40.0
 40
41.0
 40
41.0
 40
41.0
 40
42.0
 40
42.0
 40
42.0
 40
43.0
 40
43.0
 40
43.0
 40
44.0
 40
44.0
 40
44.0
 40
45.0
 40
45.0
 40
45.0
 40
46.0
 40
46.0
 40
46.0
 40
47.0
 40
47.0
 40
47.0
 40
48.0
 40
48.0
 40
48.0
 40
49.0
 40
49.0
 40
49.0
 40
50.0
 40
50.0
 40
50.0
 40
51.0
 40
51.0
 40
51.0
 40
52.0
 40
52.0
 40
52.0
 40
53.0
 40
53.0
 40
53.0
 40
54.0
 40
54.0
 40
54.0
 40
55.0
 40
55.0
 40
55.0
 40
56.0
 40
56.0
 40
56.0
 40
57.0
 40
57.0
 40
57.0
 40
58.0
 40
58.0
 40
58.0
 40
59.0
 40
59.0
 40
59.0
 40
60.0
 40
60.0
 40
60.0
 40
61.0
 40
61.0
 40
61.0
 40
62.0
 40
62.0
 40
62.0
 40
63.0
 40
63.0
 40
63.0
 40
64.0
 40
64.0
 40
64.0
 40
65.0
 40
65.0
 40
65.0
 40
66.0
 40
66.0
 40
66.0
 40
67.0
 40
67.0
 40
67.0
 40
68.0
 40
68.0
 40
68.0
 40
69.0
 40
69.0
 40
69.0
 40
70.0
 40
70.0
 40
70.0
 40
71.0
 40
71.0
 40
71.0
 40
72.0
 40
72.0
 40
72.0
 40
73.0
 40
73.0
 40
73.0
 40
74.0
 40
74.0
 40
74.0
 40
75.0
 40
75.0
 40
75.0
 40
76.0
 40
76.0
 40
76.0
 40
77.0
 40
77.0
 40
77.0
 40
78.0
 40
78.0
 40
78.0
 40
79.0
 40
79.0
 40
79.0
 40
80.0
 40
80.0
 40
80.0
 40
81.0
 40
81.0
 40
81.0
 40
82.0
 40
82.0
 40
82.0
 40
83.0
 40
83.0
 40
83.0
 40
84.0
 40
84.0
 40
84.0
 40
85.0
 40
85.0
 40
85.0
 40
86.0
 40
86.0
 40
86.0
 40
87.0
 40
87.0
 40
87.0
 40
88.0
 40
88.0
 40
88.0
 40
89.0
 40
89.0
 40
89.0
 40
90.0
 40
90.0
 40
90.0
 40
91.0
 40
91.0
 40
91.0
 40
92.0
 40
92.0
 40
92.0
 40
92.0
 10
23.07799777800786
 20
-22.63135674759943
 10
23.07799777800786
 20
-22.63135674759943
 10
23.06002689005239
 20
-22.59182057472617
 10
23.06002689005239
 20
-22.59182057472617
 10
23.06002689005239
 20
-22.59182057472617
 10
23.05643358994606
 20
-22.58103848069524
 10
23.05643358994606
 20
-22.58103848069524
 10
23.05643358994606
 20
-22.58103848069524
 10
23.05284028983973
 20
-22.57384968677065
 10
23.05284028983973
 20
-22.57384968677065
 10
23.05284028983973
 20
-22.57384968677065
 10
23.04565149591518
 20
-22.55947319577743
 10
23.04565149591518
 20
-22.55947319577743
 10
23.04565149591518
 20
-22.55947319577743
 10
23.03846270199059
 20
-22.54509670478425
 10
23.03846270199059
 20
-22.54509670478425
 10
23.03846270199059
 20
-22.54509670478425
 10
23.03486940188425
 20
-22.53790791085965
 10
23.03486940188425
 20
-22.53790791085965
 10
23.03486940188425
 20
-22.53790791085965
 10
23.03486940188425
 20
-22.53431351389736
 10
23.03486940188425
 20
-22.53431351389736
 10
23.02768060795966
 20
-22.51993702290418
 10
23.03127610177792
 20
-22.52712471997281
 10
23.02768060795966
 20
-22.52353141986643
 10
23.02768060795966
 20
-22.52353141986643
 10
23.00611641989781
 20
-22.49118404091771
 10
23.00611641989781
 20
-22.49118404091771
 10
22.99173883204864
 20
-22.46961875599994
 10
22.97376794409317
 20
-22.45164786804445
 10
22.95939254995591
 20
-22.43008258312663
 10
22.94142166200037
 20
-22.41211169517116
 10
22.92345077404484
 20
-22.39414080721563
 10
22.90547988608937
 20
-22.37616991926016
 10
22.75093068841448
 20
-22.23959160954074
 10
22.52449793891754
 20
-22.19286664274285
 10
22.33041147151337
 20
-22.25396810053391
 10
22.30525178963325
 20
-22.26115689445851
 10
22.27649880764688
 20
-22.27193898848943
 10
22.25133912576676
 20
-22.28272108252036
 10
22.25133912576676
 20
-22.28272108252036
 10
22.2261794438867
 20
-22.29709757351356
 10
22.2261794438867
 20
-22.29709757351356
 10
22.2261794438867
 20
-22.29709757351356
 10
22.21180185603756
 20
-22.30428636743816
 10
22.21180185603756
 20
-22.30428636743816
 10
22.21180185603756
 20
-22.30428636743816
 10
22.20101976200661
 20
-22.31147516136275
 10
22.20101976200661
 20
-22.31147516136275
 10
22.20101976200661
 20
-22.31147516136275
 10
22.19383096808201
 20
-22.315069558325
 10
22.19383096808201
 20
-22.315069558325
 10
22.19383096808201
 20
-22.315069558325
 10
22.0931944342736
 20
-22.37617101611613
 10
22.0931944342736
 20
-22.37617101611613
 10
22.0931944342736
 20
-22.37617101611613
 10
21.88832587283853
 20
-22.49477843788001
 10
21.88832587283853
 20
-22.49477843788001
 10
21.88832587283853
 20
-22.49477843788001
 10
21.48218424378658
 20
-22.73199437826381
 10
21.48218424378658
 20
-22.73199437826381
 10
21.48218424378658
 20
-22.73199437826381
 10
21.20183883042316
 20
-22.89373236986335
 10
21.20183883042316
 20
-22.89373236986335
 10
21.20183883042316
 20
-22.72839998130151
 10
21.20183883042316
 20
-22.55947429263339
 10
21.20543213052949
 20
-22.3905475071093
 10
21.20543213052949
 20
-22.28991097330089
 10
21.20543213052949
 20
-22.19286773959882
 10
21.20543213052949
 20
-22.09223120579039
 10
21.20543213052949
 20
-22.04191293888617
 10
21.20543213052949
 20
-21.99159467198198
 10
21.20543213052949
 20
-21.94127530822177
 10
21.20543213052949
 20
-21.91252232623538
 10
21.20183883042316
 20
-21.88376824739301
 10
21.20183883042316
 20
-21.85501526540659
 10
21.20183883042316
 20
-21.82626228342019
 10
21.19465003649859
 20
-21.79750820457778
 10
21.19105673639223
 20
-21.76875522259136
 10
21.15152166037488
 20
-21.53513367916985
 10
21.02212995086814
 20
-21.31588862674158
 10
20.82804458031993
 20
-21.16852767456324
 10
20.73100134661786
 20
-21.09304972577898
 10
20.62317601888486
 20
-21.03913706191245
 10
20.5045685971209
 20
-21.00319528600145
 10
20.4758156151345
 20
-20.99600704050484
 10
20.44706153629214
 20
-20.98522439804595
 10
20.41471415734342
 20
-20.98163000108368
 10
20.38236677839473
 20
-20.97803560412138
 10
20.34642500248371
 20
-20.97084735862477
 10
20.31767092364134
 20
-20.96725351009043
 10
20.31767092364134
 20
-20.96725351009043
 10
20.23859857789474
 20
-20.96365911312813
 10
20.23859857789474
 20
-20.96365911312813
 10
20.23859857789474
 20
-20.96365911312813
 10
20.15233853507955
 20
-20.96365911312813
 10
20.15233853507955
 20
-20.96365911312813
 10
19.94028227657582
 20
-20.96365911312813
 10
19.72822601807211
 20
-20.96725351009043
 10
19.51257536260608
 20
-20.96725351009043
 10
18.64997274074209
 20
-20.97084790705273
 10
17.75861713689164
 20
-20.98522439804595
 10
16.85288394519201
 20
-20.99241264354254
 10
15.94715075349237
 20
-21.00319528600145
 10
15.02704216765551
 20
-21.00678913453577
 10
14.1069324849627
 20
-21.00678913453577
 10
13.84815125966108
 20
-21.00319473757347
 10
13.59296552817775
 20
-21.11820885923104
 10
13.42044434569137
 20
-21.30510543585468
 10
13.33418430287619
 20
-21.39855427259448
 10
13.26589514801645
 20
-21.50997399728979
 10
13.22276457818089
 20
-21.63217581601599
 10
13.20119929326309
 20
-21.69327727380707
 10
13.18682280226984
 20
-21.75437763474222
 10
13.17604070823894
 20
-21.82266678960193
 10
13.17604070823894
 20
-21.82985558352652
 10
13.17244631127664
 20
-21.8406376775574
 10
13.17244631127664
 20
-21.84782647148199
 10
13.17244631127664
 20
-21.84782647148199
 10
13.17244631127664
 20
-21.86939175639979
 10
13.17244631127664
 20
-21.86939175639979
 10
13.17244631127664
 20
-21.86939175639979
 10
13.16885191431435
 20
-21.91252232623538
 10
13.16885191431435
 20
-21.91252232623538
 10
13.16885191431435
 20
-21.91252232623538
 10
13.16885191431435
 20
-21.9233044202663
 10
13.16885191431435
 20
-21.9233044202663
 10
13.16885191431435
 20
-21.9233044202663
 10
13.16885191431435
 20
-21.93768091125952
 10
13.16885191431435
 20
-21.93768091125952
 10
13.16885191431435
 20
-21.93768091125952
 10
13.16885191431435
 20
-22.00237566915694
 10
13.16885191431435
 20
-22.00237566915694
 10
13.16885191431435
 20
-22.46242996207535
 10
13.1616631203898
 20
-22.91529655792515
 10
13.15806982028347
 20
-23.37175755073728
 10
13.14728772625254
 20
-24.27749074243689
 10
13.14009893232795
 20
-25.16884634628731
 10
13.12931683829702
 20
-26.03144896815135
 10
13.12572244133475
 20
-26.46275027908339
 10
13.12212804437243
 20
-26.88686279609081
 10
13.1185347442661
 20
-27.30378761602962
 10
13.11494034730382
 20
-27.51224947757105
 10
13.11494034730382
 20
-27.71711803900613
 10
13.11494034730382
 20
-27.92198660044121
 10
13.11494034730382
 20
-28.04059402220517
 10
13.14010002918386
 20
-28.16279693778733
 10
13.18322950216351
 20
-28.27421556562667
 10
13.2263600719991
 20
-28.38563529032191
 10
13.29105482989656
 20
-28.4862718241304
 10
13.37012717564312
 20
-28.57253186694558
 10
13.44919952138967
 20
-28.65879190976082
 10
13.54264726127354
 20
-28.7306754615828
 10
13.64328489193791
 20
-28.78458812544929
 10
13.64328489193791
 20
-28.78458812544929
 10
13.72235723768452
 20
-28.82052990136031
 10
13.72235723768452
 20
-28.82052990136031
 10
13.75111021967091
 20
-28.83131199539124
 10
13.776269901551
 20
-28.83850078931583
 10
13.80502288353745
 20
-28.84928288334671
 10
13.85893554740394
 20
-28.86365937433993
 10
13.91284821127043
 20
-28.87803586533315
 10
13.97754296916784
 20
-28.8852246592577
 10
13.99191946016107
 20
-28.88881905622
 10
14.00989034811654
 20
-28.88881905622
 10
14.02067353900343
 20
-28.89241345318229
 10
14.02067353900343
 20
-28.89241345318229
 10
14.05661531491442
 20
-28.89241345318229
 10
14.05661531491442
 20
-28.89241345318229
 10
14.05661531491442
 20
-28.89241345318229
 10
14.09255709082544
 20
-28.89241345318229
 10
14.09255709082544
 20
-28.89241345318229
 10
14.09255709082544
 20
-28.89241345318229
 10
14.10333918485632
 20
-28.89241345318229
 10
14.10333918485632
 20
-28.89241345318229
 10
14.12131007281184
 20
-28.89241345318229
 10
14.11412127888724
 20
-28.89241345318229
 10
14.12131007281184
 20
-28.89241345318229
 10
14.12131007281184
 20
-28.89241345318229
 10
14.13928096076736
 20
-28.89241345318229
 10
14.13928096076736
 20
-28.89241345318229
 10
14.18600483070925
 20
-28.89241345318229
 10
14.23272979750714
 20
-28.89241345318229
 10
14.28304806441138
 20
-28.89241345318229
 10
14.37649690115116
 20
-28.89241345318229
 10
14.4735390379973
 20
-28.89241345318229
 10
14.5633934777748
 20
-28.88881905622
 10
14.93718772787803
 20
-28.8852246592577
 10
15.29660548698803
 20
-28.8816302622954
 10
15.64164675510483
 20
-28.87803696218907
 10
16.33172929133843
 20
-28.87084816826453
 10
16.96430366988731
 20
-28.8636604711959
 10
17.52499559347012
 20
-28.8564716772713
 10
18.08568751705287
 20
-28.84928288334671
 10
18.57449588881375
 20
-28.84568958324038
 10
18.97704312090337
 20
-28.84568958324038
 10
19.7821386819386
 20
-28.84209518627808
 10
20.242194071713
 20
-28.83850078931583
 10
20.242194071713
 20
-28.83850078931583
 10
20.242194071713
 20
-28.83850078931583
 10
20.27454145066172
 20
-28.83850078931583
 10
20.33564290845278
 20
-28.83490639235353
 10
20.39674436624387
 20
-28.82412429832261
 10
20.49019210612773
 20
-28.81334110743571
 10
20.60161183082303
 20
-28.76661723749382
 10
20.7130315555183
 20
-28.71989336755188
 10
20.84242216816907
 20
-28.637226624843
 10
20.95384079600843
 20
-28.50424271208587
 10
21.00775345987495
 20
-28.43595355722616
 10
21.06166612374144
 20
-28.35688121147955
 10
21.10120229661475
 20
-28.26702677170207
 10
21.10839109053935
 20
-28.24186708982198
 10
21.11917318457027
 20
-28.22030290176013
 10
21.12636197849482
 20
-28.19514321988006
 10
21.13355077241936
 20
-28.169983538
 10
21.14073956634396
 20
-28.14482495297587
 10
21.14792616655662
 20
-28.11966527109576
 10
21.15511496048121
 20
-28.09450558921569
 10
21.15870826058755
 20
-28.06575260722926
 10
21.16230375440581
 20
-28.03699962524287
 10
21.16589705451214
 20
-28.02262313424964
 10
21.16589705451214
 20
-28.00824664325647
 10
21.1694925483304
 20
-27.99386905540728
 10
21.1694925483304
 20
-27.98308696137635
 10
21.1694925483304
 20
-27.96870937352719
 10
21.1694925483304
 20
-27.95792727949626
 10
21.1694925483304
 20
-27.94714518546533
 10
21.1694925483304
 20
-27.93276759761619
 10
21.17308584843673
 20
-27.91839110662297
 10
21.17308584843673
 20
-27.91839110662297
 10
21.17308584843673
 20
-27.90401461562977
 10
21.17308584843673
 20
-27.90401461562977
 10
21.17308584843673
 20
-27.90401461562977
 10
21.17308584843673
 20
-27.87526163364338
 10
21.17308584843673
 20
-27.87526163364338
 10
21.17308584843673
 20
-27.85010195176326
 10
21.17308584843673
 20
-27.82494336673913
 10
21.17308584843673
 20
-27.79618928789677
 10
21.17308584843673
 20
-27.74227662403028
 10
21.17308584843673
 20
-27.68836396016377
 10
21.17308584843673
 20
-27.63445129629728
 10
21.17308584843673
 20
-27.52303157160198
 10
21.17308584843673
 20
-27.40801854680032
 10
21.17308584843673
 20
-27.28581563121816
 10
21.17308584843673
 20
-27.04141199376575
 10
21.17667914854307
 20
-26.77903637150186
 10
21.17667914854307
 20
-26.49869095813844
 10
21.18027244864942
 20
-25.93799903455561
 10
21.18746124257402
 20
-25.30542355915082
 10
21.19105673639223
 20
-24.61534211977318
 10
21.19105673639223
 20
-24.51111118900245
 10
21.19465003649859
 20
-24.40328586126945
 10
21.19465003649859
 20
-24.29546053353645
 10
21.19465003649859
 20
-24.29546053353645
 10
21.53609690765312
 20
-24.09778076602593
 10
21.53609690765312
 20
-24.09778076602593
 10
21.53609690765312
 20
-24.09778076602593
 10
22.35197565957522
 20
-23.62334888525834
 10
22.35197565957522
 20
-23.62334888525834
 10
22.35197565957522
 20
-23.62334888525834
 10
22.75811728862714
 20
-23.38613294487454
 10
22.75811728862714
 20
-23.38613294487454
 10
22.75811728862714
 20
-23.38613294487454
 10
22.8084366523873
 20
-23.35737996288809
 10
22.8084366523873
 20
-23.35737996288809
 10
22.82640754034282
 20
-23.34659786885721
 10
22.85156722222286
 20
-23.32862698090169
 10
22.87313141028471
 20
-23.31424939305253
 10
22.91266648630209
 20
-23.28190201410383
 10
22.95220375603132
 20
-23.24596023819281
 10
22.98455003812404
 20
-23.20642406531952
 10
23.04924479602151
 20
-23.12735171957292
 10
23.09237536585705
 20
-23.02671518576451
 10
23.11034625381257
 20
-22.92607865195608
 10
23.1211283478435
 20
-22.83263091207224
 10
23.1139395539189
 20
-22.72839998130151
 10
23.07799777800786
 20
-22.63135674759943
 97
        0
 97
        0
 92
        1
 93
        1
 72
     4
 94
        3
 73
     0
 74
     1
 95
      212
 96
      208
 40
0.0
 40
0.0
 40
0.0
 40
0.0
 40
1.0
 40
1.0
 40
1.0
 40
2.0
 40
2.0
 40
2.0
 40
3.0
 40
3.0
 40
3.0
 40
4.0
 40
4.0
 40
4.0
 40
5.0
 40
5.0
 40
5.0
 40
6.0
 40
6.0
 40
6.0
 40
7.0
 40
7.0
 40
7.0
 40
8.0
 40
8.0
 40
8.0
 40
9.0
 40
9.0
 40
9.0
 40
10.0
 40
10.0
 40
10.0
 40
11.0
 40
11.0
 40
11.0
 40
12.0
 40
12.0
 40
12.0
 40
13.0
 40
13.0
 40
13.0
 40
14.0
 40
14.0
 40
14.0
 40
15.0
 40
15.0
 40
15.0
 40
16.0
 40
16.0
 40
16.0
 40
17.0
 40
17.0
 40
17.0
 40
18.0
 40
18.0
 40
18.0
 40
19.0
 40
19.0
 40
19.0
 40
20.0
 40
20.0
 40
20.0
 40
21.0
 40
21.0
 40
21.0
 40
22.0
 40
22.0
 40
22.0
 40
23.0
 40
23.0
 40
23.0
 40
24.0
 40
24.0
 40
24.0
 40
25.0
 40
25.0
 40
25.0
 40
26.0
 40
26.0
 40
26.0
 40
27.0
 40
27.0
 40
27.0
 40
28.0
 40
28.0
 40
28.0
 40
29.0
 40
29.0
 40
29.0
 40
30.0
 40
30.0
 40
30.0
 40
31.0
 40
31.0
 40
31.0
 40
32.0
 40
32.0
 40
32.0
 40
33.0
 40
33.0
 40
33.0
 40
34.0
 40
34.0
 40
34.0
 40
35.0
 40
35.0
 40
35.0
 40
36.0
 40
36.0
 40
36.0
 40
37.0
 40
37.0
 40
37.0
 40
38.0
 40
38.0
 40
38.0
 40
39.0
 40
39.0
 40
39.0
 40
40.0
 40
40.0
 40
40.0
 40
41.0
 40
41.0
 40
41.0
 40
42.0
 40
42.0
 40
42.0
 40
43.0
 40
43.0
 40
43.0
 40
44.0
 40
44.0
 40
44.0
 40
45.0
 40
45.0
 40
45.0
 40
46.0
 40
46.0
 40
46.0
 40
47.0
 40
47.0
 40
47.0
 40
48.0
 40
48.0
 40
48.0
 40
49.0
 40
49.0
 40
49.0
 40
50.0
 40
50.0
 40
50.0
 40
51.0
 40
51.0
 40
51.0
 40
52.0
 40
52.0
 40
52.0
 40
53.0
 40
53.0
 40
53.0
 40
54.0
 40
54.0
 40
54.0
 40
55.0
 40
55.0
 40
55.0
 40
56.0
 40
56.0
 40
56.0
 40
57.0
 40
57.0
 40
57.0
 40
58.0
 40
58.0
 40
58.0
 40
59.0
 40
59.0
 40
59.0
 40
60.0
 40
60.0
 40
60.0
 40
61.0
 40
61.0
 40
61.0
 40
62.0
 40
62.0
 40
62.0
 40
63.0
 40
63.0
 40
63.0
 40
64.0
 40
64.0
 40
64.0
 40
65.0
 40
65.0
 40
65.0
 40
66.0
 40
66.0
 40
66.0
 40
67.0
 40
67.0
 40
67.0
 40
68.0
 40
68.0
 40
68.0
 40
69.0
 40
69.0
 40
69.0
 40
69.0
 10
18.22945242698501
 20
-24.65128499254009
 10
18.22945242698501
 20
-24.65128499254009
 10
16.68036166584966
 20
-25.56780027827065
 10
16.68036166584966
 20
-25.56780027827065
 10
16.56175424408573
 20
-25.41325108059573
 10
16.44314572546586
 20
-25.25870078606486
 10
16.32453830370193
 20
-25.10774598535221
 10
16.32453830370193
 20
-25.10774598535221
 10
15.91480227768774
 20
-24.57580704375583
 10
15.91480227768774
 20
-24.57580704375583
 10
15.91480227768774
 20
-24.57580704375583
 10
15.81057134691703
 20
-24.44641643110501
 10
15.81057134691703
 20
-24.44641643110501
 10
15.79978925288611
 20
-24.43563433707411
 10
15.79619485592381
 20
-24.42485114618722
 10
15.78181836493059
 20
-24.41047465519404
 10
15.77103627089966
 20
-24.39609816420082
 10
15.76025308001279
 20
-24.38172167320759
 10
15.74587658901957
 20
-24.37093848232073
 10
15.74587658901957
 20
-24.37093848232073
 10
15.7063404161463
 20
-24.33499670640973
 10
15.7063404161463
 20
-24.33499670640973
 10
15.69196392515308
 20
-24.32421461237881
 10
15.67758743415986
 20
-24.31343142149192
 10
15.66320984631066
 20
-24.30264932746104
 10
15.54460242454679
 20
-24.21998368160808
 10
15.39724092394052
 20
-24.18044750873479
 10
15.25706821725875
 20
-24.19841839669031
 10
15.18518466543674
 20
-24.20560719061485
 10
15.11330111361475
 20
-24.22717137867673
 10
15.04860635571734
 20
-24.25951985448139
 10
15.03063546776184
 20
-24.27030194851232
 10
15.01266457980637
 20
-24.27749074243689
 10
14.99469369185085
 20
-24.28827283646782
 10
14.98391159781992
 20
-24.29546163039241
 10
14.98031720085767
 20
-24.29905493049874
 10
14.97672280389533
 20
-24.30264932746104
 10
14.97672280389533
 20
-24.30264932746104
 10
14.95875191593985
 20
-24.31343142149192
 10
14.95875191593985
 20
-24.31343142149192
 10
14.95875191593985
 20
-24.31343142149192
 10
14.95156312201529
 20
-24.32062021541651
 10
14.95156312201529
 20
-24.32062021541651
 10
14.95156312201529
 20
-24.32062021541651
 10
14.94437432809069
 20
-24.32780900934111
 10
14.94437432809069
 20
-24.32780900934111
 10
14.94437432809069
 20
-24.32780900934111
 10
14.93718553416609
 20
-24.3349978032657
 10
14.93718553416609
 20
-24.3349978032657
 10
14.93718553416609
 20
-24.3349978032657
 10
14.91562024924833
 20
-24.35296869122117
 10
14.91562024924833
 20
-24.35296869122117
 10
14.9012437582551
 20
-24.3637507852521
 10
14.89046056736821
 20
-24.37812837310126
 10
14.87608407637501
 20
-24.39250486409449
 10
14.77544754256658
 20
-24.50033019182749
 10
14.71794048173782
 20
-24.64050289850921
 10
14.71434608477549
 20
-24.78786439911548
 10
14.71434608477549
 20
-24.85974795093749
 10
14.72512817880642
 20
-24.9352258997218
 10
14.75028786068654
 20
-25.00351505458148
 10
14.75388225764878
 20
-25.02148594253698
 10
14.76466435167971
 20
-25.0394568304925
 10
14.77185314560431
 20
-25.05383332148573
 10
14.77185314560431
 20
-25.05383332148573
 10
14.78263523963523
 20
-25.07899300336579
 10
14.78263523963523
 20
-25.07899300336579
 10
14.78263523963523
 20
-25.07899300336579
 10
14.79701173062843
 20
-25.10774598535221
 10
14.79701173062843
 20
-25.10774598535221
 10
14.79701173062843
 20
-25.10774598535221
 10
14.81138822162166
 20
-25.13290566723228
 10
14.81138822162166
 20
-25.13290566723228
 10
14.8185770155462
 20
-25.14368776126321
 10
14.8185770155462
 20
-25.14368776126321
 10
14.82576471261488
 20
-25.1508765551878
 10
14.82576471261488
 20
-25.1508765551878
 10
14.8365468066458
 20
-25.16884744314327
 10
14.8365468066458
 20
-25.16884744314327
 10
14.8365468066458
 20
-25.16884744314327
 10
14.84014120360805
 20
-25.17244184010557
 10
14.84014120360805
 20
-25.17244184010557
 10
14.84014120360805
 20
-25.17244184010557
 10
14.84014120360805
 20
-25.17603623706787
 10
14.84014120360805
 20
-25.17603623706787
 10
14.84014120360805
 20
-25.17603623706787
 10
14.84732999753265
 20
-25.18322503099244
 10
14.84732999753265
 20
-25.18322503099244
 10
14.84732999753265
 20
-25.18322503099244
 10
14.85451879145724
 20
-25.19041382491703
 10
14.85451879145724
 20
-25.19041382491703
 10
14.85451879145724
 20
-25.19041382491703
 10
15.06298065299868
 20
-25.45278835032498
 10
15.06298065299868
 20
-25.45278835032498
 10
15.06298065299868
 20
-25.45278835032498
 10
15.47990547293744
 20
-25.97394410103445
 10
15.47990547293744
 20
-25.97394410103445
 10
15.47990547293744
 20
-25.97394410103445
 10
15.90042468983855
 20
-26.49509985174399
 10
15.90042468983855
 20
-26.49509985174399
 10
15.90042468983855
 20
-26.49509985174399
 10
16.00465562060925
 20
-26.62449046439479
 10
16.00465562060925
 20
-26.62449046439479
 10
16.00465562060925
 20
-26.62449046439479
 10
16.05856828447574
 20
-26.68918522229223
 10
16.05856828447574
 20
-26.68918522229223
 10
16.08013356939356
 20
-26.71793820427865
 10
16.10529215441769
 20
-26.74309788615872
 10
16.13404623326005
 20
-26.76825756803878
 10
16.19155329408884
 20
-26.81857583494303
 10
16.25624805198625
 20
-26.85811200781632
 10
16.32453720684599
 20
-26.88327168969641
 10
16.36047898275696
 20
-26.89764818068958
 10
16.396420758668
 20
-26.90483697461417
 10
16.43236253457897
 20
-26.9120246716828
 10
16.45033342253449
 20
-26.9156190686451
 10
16.46830431049001
 20
-26.9192134656074
 10
16.48986959540778
 20
-26.9192134656074
 10
16.48986959540778
 20
-26.9192134656074
 10
16.50424608640098
 20
-26.9192134656074
 10
16.50424608640098
 20
-26.9192134656074
 10
16.5078404833633
 20
-26.9192134656074
 10
16.51502818043191
 20
-26.9192134656074
 10
16.5186225773942
 20
-26.9192134656074
 10
16.5186225773942
 20
-26.9192134656074
 10
16.54018786231202
 20
-26.9192134656074
 10
16.54018786231202
 20
-26.9192134656074
 10
16.54018786231202
 20
-26.9192134656074
 10
16.54378225927427
 20
-26.9192134656074
 10
16.54378225927427
 20
-26.9192134656074
 10
16.64801319004497
 20
-26.9192134656074
 10
16.755838517778
 20
-26.890460483621
 10
16.84569295755548
 20
-26.84014111986079
 10
16.84569295755548
 20
-26.84014111986079
 10
17.05056151899058
 20
-26.72153369809686
 10
17.05056151899058
 20
-26.72153369809686
 10
17.05056151899058
 20
-26.72153369809686
 10
17.4567031480425
 20
-26.48431775771306
 10
17.4567031480425
 20
-26.48431775771306
 10
17.4567031480425
 20
-26.48431775771306
 10
18.27258189996463
 20
-26.00988587694547
 10
18.27258189996463
 20
-26.00988587694547
 10
18.27258189996463
 20
-26.00988587694547
 10
19.90074390999062
 20
-25.06102321226624
 10
19.90074390999062
 20
-25.06102321226624
 10
19.90074390999062
 20
-25.06102321226624
 10
20.00497484076135
 20
-24.99992175447515
 10
20.00497484076135
 20
-24.99992175447515
 10
20.00497484076135
 20
-24.99992175447515
 10
19.97622185877491
 20
-27.67039526592018
 10
19.97622185877491
 20
-27.67039526592018
 10
19.9043383069529
 20
-27.67039526592018
 10
19.83245475513089
 20
-27.67039526592018
 10
19.76057120330887
 20
-27.67039526592018
 10
19.76057120330887
 20
-27.67039526592018
 10
19.39037135016795
 20
-27.67398966288248
 10
19.39037135016795
 20
-27.67398966288248
 10
19.39037135016795
 20
-27.67398966288248
 10
18.64637615006786
 20
-27.68117845680707
 10
18.64637615006786
 20
-27.68117845680707
 10
18.64637615006786
 20
-27.68117845680707
 10
17.16198124368589
 20
-27.69555494780025
 10
17.16198124368589
 20
-27.69555494780025
 10
17.16198124368589
 20
-27.69555494780025
 10
14.29023356776808
 20
-27.72790232674894
 10
14.29023356776808
 20
-27.72790232674894
 10
14.29742236169265
 20
-27.27863012786146
 10
14.30101566179898
 20
-26.82935792897395
 10
14.30820445572357
 20
-26.38008573008642
 10
14.30820445572357
 20
-26.38008573008642
 10
14.3189865497545
 20
-24.93163259961547
 10
14.3189865497545
 20
-24.93163259961547
 10
14.3189865497545
 20
-24.93163259961547
 10
14.3261753436791
 20
-24.20920268443312
 10
14.3261753436791
 20
-24.20920268443312
 10
14.3261753436791
 20
-24.20920268443312
 10
14.3261753436791
 20
-23.48317837228852
 10
14.3261753436791
 20
-23.48317837228852
 10
14.3261753436791
 20
-23.48317837228852
 10
14.32976974064134
 20
-22.17489794849924
 10
14.32976974064134
 20
-22.17489794849924
 10
14.32976974064134
 20
-22.17489794849924
 10
14.9335911372038
 20
-22.17489794849924
 10
14.9335911372038
 20
-22.17489794849924
 10
14.9335911372038
 20
-22.17489794849924
 10
15.67758633730394
 20
-22.17130355153697
 10
15.67758633730394
 20
-22.17130355153697
 10
15.67758633730394
 20
-22.17130355153697
 10
17.16198124368589
 20
-22.16770915457469
 10
17.16198124368589
 20
-22.16770915457469
 10
17.16198124368589
 20
-22.16770915457469
 10
18.64637615006786
 20
-22.15333266358147
 10
18.64637615006786
 20
-22.15333266358147
 10
18.64637615006786
 20
-22.15333266358147
 10
19.39037135016795
 20
-22.14255056955054
 10
19.39037135016795
 20
-22.14255056955054
 10
19.60602200563398
 20
-22.13895617258825
 10
19.81807826413771
 20
-22.13536177562595
 10
20.03372891960372
 20
-22.13176847551962
 10
20.03372891960372
 20
-22.13176847551962
 10
20.01935242861049
 20
-23.59100479687749
 10
20.01935242861049
 20
-23.59100479687749
 10
20.01935242861049
 20
-23.59100479687749
 10
19.84683234298008
 20
-23.6916413306859
 10
19.84683234298008
 20
-23.6916413306859
 10
19.84683234298008
 20
-23.6916413306859
 10
18.22945242698501
 20
-24.65128499254009
 10
18.22945242698501
 20
-24.65128499254009
 97
        0
 97
        0
 75
     2
 76
     1
 98
        0
  0
SPLINE
  5
48
330
41
100
AcDbEntity
  8
Layer 1
370
     0
100
AcDbSpline
210
0.0
220
0.0
230
1.0
 70
    11
 71
     3
 72
   284
 73
   280
 74
     0
 42
0.0000000001
 43
0.0000000001
 12
1.0
 22
0.0
 32
0.0
 13
1.0
 23
0.0
 33
0.0
 40
0.0
 40
0.0
 40
0.0
 40
0.0
 40
1.0
 40
1.0
 40
1.0
 40
2.0
 40
2.0
 40
2.0
 40
3.0
 40
3.0
 40
3.0
 40
4.0
 40
4.0
 40
4.0
 40
5.0
 40
5.0
 40
5.0
 40
6.0
 40
6.0
 40
6.0
 40
7.0
 40
7.0
 40
7.0
 40
8.0
 40
8.0
 40
8.0
 40
9.0
 40
9.0
 40
9.0
 40
10.0
 40
10.0
 40
10.0
 40
11.0
 40
11.0
 40
11.0
 40
12.0
 40
12.0
 40
12.0
 40
13.0
 40
13.0
 40
13.0
 40
14.0
 40
14.0
 40
14.0
 40
15.0
 40
15.0
 40
15.0
 40
16.0
 40
16.0
 40
16.0
 40
17.0
 40
17.0
 40
17.0
 40
18.0
 40
18.0
 40
18.0
 40
19.0
 40
19.0
 40
19.0
 40
20.0
 40
20.0
 40
20.0
 40
21.0
 40
21.0
 40
21.0
 40
22.0
 40
22.0
 40
22.0
 40
23.0
 40
23.0
 40
23.0
 40
24.0
 40
24.0
 40
24.0
 40
25.0
 40
25.0
 40
25.0
 40
26.0
 40
26.0
 40
26.0
 40
27.0
 40
27.0
 40
27.0
 40
28.0
 40
28.0
 40
28.0
 40
29.0
 40
29.0
 40
29.0
 40
30.0
 40
30.0
 40
30.0
 40
31.0
 40
31.0
 40
31.0
 40
32.0
 40
32.0
 40
32.0
 40
33.0
 40
33.0
 40
33.0
 40
34.0
 40
34.0
 40
34.0
 40
35.0
 40
35.0
 40
35.0
 40
36.0
 40
36.0
 40
36.0
 40
37.0
 40
37.0
 40
37.0
 40
38.0
 40
38.0
 40
38.0
 40
39.0
 40
39.0
 40
39.0
 40
40.0
 40
40.0
 40
40.0
 40
41.0
 40
41.0
 40
41.0
 40
42.0
 40
42.0
 40
42.0
 40
43.0
 40
43.0
 40
43.0
 40
44.0
 40
44.0
 40
44.0
 40
45.0
 40
45.0
 40
45.0
 40
46.0
 40
46.0
 40
46.0
 40
47.0
 40
47.0
 40
47.0
 40
48.0
 40
48.0
 40
48.0
 40
49.0
 40
49.0
 40
49.0
 40
50.0
 40
50.0
 40
50.0
 40
51.0
 40
51.0
 40
51.0
 40
52.0
 40
52.0
 40
52.0
 40
53.0
 40
53.0
 40
53.0
 40
54.0
 40
54.0
 40
54.0
 40
55.0
 40
55.0
 40
55.0
 40
56.0
 40
56.0
 40
56.0
 40
57.0
 40
57.0
 40
57.0
 40
58.0
 40
58.0
 40
58.0
 40
59.0
 40
59.0
 40
59.0
 40
60.0
 40
60.0
 40
60.0
 40
61.0
 40
61.0
 40
61.0
 40
62.0
 40
62.0
 40
62.0
 40
63.0
 40
63.0
 40
63.0
 40
64.0
 40
64.0
 40
64.0
 40
65.0
 40
65.0
 40
65.0
 40
66.0
 40
66.0
 40
66.0
 40
67.0
 40
67.0
 40
67.0
 40
68.0
 40
68.0
 40
68.0
 40
69.0
 40
69.0
 40
69.0
 40
70.0
 40
70.0
 40
70.0
 40
71.0
 40
71.0
 40
71.0
 40
72.0
 40
72.0
 40
72.0
 40
73.0
 40
73.0
 40
73.0
 40
74.0
 40
74.0
 40
74.0
 40
75.0
 40
75.0
 40
75.0
 40
76.0
 40
76.0
 40
76.0
 40
77.0
 40
77.0
 40
77.0
 40
78.0
 40
78.0
 40
78.0
 40
79.0
 40
79.0
 40
79.0
 40
80.0
 40
80.0
 40
80.0
 40
81.0
 40
81.0
 40
81.0
 40
82.0
 40
82.0
 40
82.0
 40
83.0
 40
83.0
 40
83.0
 40
84.0
 40
84.0
 40
84.0
 40
85.0
 40
85.0
 40
85.0
 40
86.0
 40
86.0
 40
86.0
 40
87.0
 40
87.0
 40
87.0
 40
88.0
 40
88.0
 40
88.0
 40
89.0
 40
89.0
 40
89.0
 40
90.0
 40
90.0
 40
90.0
 40
91.0
 40
91.0
 40
91.0
 40
92.0
 40
92.0
 40
92.0
 40
93.0
 40
93.0
 40
93.0
 40
93.0
 10
20.96821509328973
 20
-27.88604482453022
 30
0.0
 10
20.96821509328973
 20
-27.86088514265015
 30
0.0
 10
20.96821509328973
 20
-27.835726557626
 30
0.0
 10
20.96821509328973
 20
-27.80697247878361
 30
0.0
 10
20.96821509328973
 20
-27.75305981491712
 30
0.0
 10
20.96821509328973
 20
-27.69914715105066
 30
0.0
 10
20.96821509328973
 20
-27.64523448718412
 30
0.0
 10
20.96821509328973
 20
-27.53381476248887
 30
0.0
 10
20.96821509328973
 20
-27.41880173768721
 30
0.0
 10
20.96821509328973
 20
-27.29659882210505
 30
0.0
 10
20.96821509328973
 20
-27.05219518465259
 30
0.0
 10
20.96462069632748
 20
-26.7898195623887
 30
0.0
 10
20.96102629936513
 20
-26.50947414902528
 30
0.0
 10
20.95743190240288
 20
-25.9487822254425
 30
0.0
 10
20.95024420533425
 20
-25.31620675003766
 30
0.0
 10
20.94664980837196
 20
-24.62612531066002
 30
0.0
 10
20.94664980837196
 20
-24.56861824983124
 30
0.0
 10
20.94664980837196
 20
-24.51111118900245
 30
0.0
 10
20.94664980837196
 20
-24.45360522502961
 30
0.0
 10
20.94664980837196
 20
-24.45360522502961
 30
0.0
 10
20.27094485998752
 20
-24.84896476005062
 30
0.0
 10
20.27094485998752
 20
-24.84896476005062
 30
0.0
 10
20.27094485998752
 20
-24.84896476005062
 30
0.0
 10
20.30329223893624
 20
-27.8249444635951
 30
0.0
 10
20.30329223893624
 20
-27.8249444635951
 30
0.0
 10
20.30329223893624
 20
-27.91120450641029
 30
0.0
 10
20.23500308407647
 20
-27.98308805823232
 30
0.0
 10
20.14874304126129
 20
-27.98308805823232
 30
0.0
 10
20.14874304126129
 20
-27.98308805823232
 30
0.0
 10
20.14874304126129
 20
-27.98308805823232
 30
0.0
 10
20.14874304126129
 20
-27.98308805823232
 30
0.0
 10
20.14874304126129
 20
-27.98308805823232
 30
0.0
 10
20.14514864429899
 20
-27.98308805823232
 30
0.0
 10
20.14514864429899
 20
-27.98308805823232
 30
0.0
 10
20.02294682557279
 20
-27.98308805823232
 30
0.0
 10
19.89715060988429
 20
-27.98308805823232
 30
0.0
 10
19.77494879115807
 20
-27.98308805823232
 30
0.0
 10
19.77494879115807
 20
-27.98308805823232
 30
0.0
 10
19.40474893801711
 20
-27.97949366127002
 30
0.0
 10
19.40474893801711
 20
-27.97949366127002
 30
0.0
 10
19.40474893801711
 20
-27.97949366127002
 30
0.0
 10
18.66075373791702
 20
-27.97230486734545
 30
0.0
 10
18.66075373791702
 20
-27.97230486734545
 30
0.0
 10
18.66075373791702
 20
-27.97230486734545
 30
0.0
 10
14.20397352495284
 20
-27.92198660044121
 30
0.0
 10
14.20397352495284
 20
-27.92198660044121
 30
0.0
 10
14.15006086108636
 20
-27.92198660044121
 30
0.0
 10
14.10693029125082
 20
-27.87885603060562
 30
0.0
 10
14.10693029125082
 20
-27.82494336673913
 30
0.0
 10
14.10693029125082
 20
-27.82494336673913
 30
0.0
 10
14.10693029125082
 20
-27.82494336673913
 30
0.0
 10
14.10693029125082
 20
-27.82494336673913
 30
0.0
 10
14.09974149732622
 20
-27.34332378890291
 30
0.0
 10
14.09255380025754
 20
-26.85810981410441
 30
0.0
 10
14.0889594032953
 20
-26.37649023626818
 30
0.0
 10
14.0889594032953
 20
-26.37649023626818
 30
0.0
 10
14.07817730926435
 20
-24.9280371057972
 30
0.0
 10
14.07817730926435
 20
-24.9280371057972
 30
0.0
 10
14.07817730926435
 20
-24.9280371057972
 30
0.0
 10
14.07458291230205
 20
-24.20560719061485
 30
0.0
 10
14.07458291230205
 20
-24.20560719061485
 30
0.0
 10
14.07458291230205
 20
-24.20560719061485
 30
0.0
 10
14.07458291230205
 20
-23.48317727543256
 30
0.0
 10
14.07458291230205
 20
-23.48317727543256
 30
0.0
 10
14.07458291230205
 20
-23.48317727543256
 30
0.0
 10
14.07098851533978
 20
-22.0347241449616
 30
0.0
 10
14.07098851533978
 20
-22.0347241449616
 30
0.0
 10
14.07098851533978
 20
-21.95924619617729
 30
0.0
 10
14.13208997313083
 20
-21.89814583524215
 30
0.0
 10
14.20756682505917
 20
-21.8945514382799
 30
0.0
 10
14.20756682505917
 20
-21.8945514382799
 30
0.0
 10
14.20756682505917
 20
-21.8945514382799
 30
0.0
 10
14.20756682505917
 20
-21.8945514382799
 30
0.0
 10
14.20756682505917
 20
-21.8945514382799
 30
0.0
 10
14.95156202515929
 20
-21.8945514382799
 30
0.0
 10
14.95156202515929
 20
-21.8945514382799
 30
0.0
 10
14.95156202515929
 20
-21.8945514382799
 30
0.0
 10
15.69555722525944
 20
-21.89814583524215
 30
0.0
 10
15.69555722525944
 20
-21.89814583524215
 30
0.0
 10
15.69555722525944
 20
-21.89814583524215
 30
0.0
 10
17.17995213164141
 20
-21.90174023220445
 30
0.0
 10
17.17995213164141
 20
-21.90174023220445
 30
0.0
 10
17.17995213164141
 20
-21.90174023220445
 30
0.0
 10
18.66434703802335
 20
-21.91611672319767
 30
0.0
 10
18.66434703802335
 20
-21.91611672319767
 30
0.0
 10
18.66434703802335
 20
-21.91611672319767
 30
0.0
 10
19.40834223812345
 20
-21.9268988172286
 30
0.0
 10
19.40834223812345
 20
-21.9268988172286
 30
0.0
 10
19.65634027253817
 20
-21.9304932141909
 30
0.0
 10
19.9043383069529
 20
-21.93408761115314
 30
0.0
 10
20.15233743822359
 20
-21.93768091125952
 30
0.0
 10
20.15233743822359
 20
-21.93768091125952
 30
0.0
 10
20.15233743822359
 20
-21.93768091125952
 30
0.0
 10
20.15233743822359
 20
-21.93768091125952
 30
0.0
 10
20.2062501020901
 20
-21.93768091125952
 30
0.0
 10
20.24938067192566
 20
-21.98081148109509
 30
0.0
 10
20.24938067192566
 20
-22.0347241449616
 30
0.0
 10
20.24938067192566
 20
-22.0347241449616
 30
0.0
 10
20.26375716291886
 20
-23.45801869040843
 30
0.0
 10
20.26375716291886
 20
-23.45801869040843
 30
0.0
 10
20.26375716291886
 20
-23.45801869040843
 30
0.0
 10
20.94665090522787
 20
-23.05906475842514
 30
0.0
 10
20.94665090522787
 20
-23.05906475842514
 30
0.0
 10
20.94665090522787
 20
-22.84341410295913
 30
0.0
 10
20.94665090522787
 20
-22.62057465356856
 30
0.0
 10
20.94305650826562
 20
-22.3977363010339
 30
0.0
 10
20.94305650826562
 20
-22.29709976722549
 30
0.0
 10
20.94305650826562
 20
-22.20005653352342
 30
0.0
 10
20.94305650826562
 20
-22.09941999971498
 30
0.0
 10
20.94305650826562
 20
-22.04910173281077
 30
0.0
 10
20.94305650826562
 20
-21.99878346590652
 30
0.0
 10
20.94305650826562
 20
-21.94846410214637
 30
0.0
 10
20.94305650826562
 20
-21.9233044202663
 30
0.0
 10
20.93946211130333
 20
-21.90533353231078
 30
0.0
 10
20.93946211130333
 20
-21.88376934424898
 30
0.0
 10
20.93946211130333
 20
-21.86220405933118
 30
0.0
 10
20.93227331737876
 20
-21.84063877441336
 30
0.0
 10
20.93227331737876
 20
-21.82266788645789
 30
0.0
 10
20.90352033539231
 20
-21.6573354978961
 30
0.0
 10
20.81007149865253
 20
-21.49919190325886
 30
0.0
 10
20.66989879197081
 20
-21.39496097248815
 30
0.0
 10
20.60160963711112
 20
-21.34104830862167
 30
0.0
 10
20.52253729136449
 20
-21.30151213574835
 30
0.0
 10
20.43987164551158
 20
-21.2763535507242
 30
0.0
 10
20.41830636059379
 20
-21.27275915376195
 30
0.0
 10
20.39674107567602
 20
-21.26557090826532
 30
0.0
 10
20.37877018772049
 20
-21.26197705973103
 30
0.0
 10
20.3572049028027
 20
-21.25838266276873
 30
0.0
 10
20.34282841180953
 20
-21.25478881423444
 30
0.0
 10
20.31766872992941
 20
-21.25119441727214
 30
0.0
 10
20.31766872992941
 20
-21.25119441727214
 30
0.0
 10
20.23859638418281
 20
-21.24760002030985
 30
0.0
 10
20.23859638418281
 20
-21.24760002030985
 30
0.0
 10
20.23859638418281
 20
-21.24760002030985
 30
0.0
 10
20.16671283236085
 20
-21.24760002030985
 30
0.0
 10
20.16671283236085
 20
-21.24760002030985
 30
0.0
 10
19.95465657385714
 20
-21.24760002030985
 30
0.0
 10
19.7426003153534
 20
-21.24400562334755
 30
0.0
 10
19.52694965988742
 20
-21.24400562334755
 30
0.0
 10
18.66434703802335
 20
-21.24041122638525
 30
0.0
 10
17.77299143417288
 20
-21.22603473539205
 30
0.0
 10
16.8672582424733
 20
-21.21884648989544
 30
0.0
 10
15.96152505077372
 20
-21.20806384743653
 30
0.0
 10
15.0414164649368
 20
-21.20446999890224
 30
0.0
 10
14.12130678224399
 20
-21.20446999890224
 30
0.0
 10
13.91643822080889
 20
-21.20446999890224
 30
0.0
 10
13.7187584532984
 20
-21.29432443867972
 30
0.0
 10
13.58218014357898
 20
-21.44528033624829
 30
0.0
 10
13.51389098871924
 20
-21.5207582850326
 30
0.0
 10
13.45997832485275
 20
-21.60701832784783
 30
0.0
 10
13.42763094590403
 20
-21.70406156154993
 30
0.0
 10
13.40966005794851
 20
-21.75078543149185
 30
0.0
 10
13.39887796391763
 20
-21.80110479525198
 30
0.0
 10
13.39528356695534
 20
-21.84782866519393
 30
0.0
 10
13.39528356695534
 20
-21.8550174591185
 30
0.0
 10
13.39168916999304
 20
-21.85861075922483
 30
0.0
 10
13.39168916999304
 20
-21.86579955314942
 30
0.0
 10
13.39168916999304
 20
-21.86579955314942
 30
0.0
 10
13.39168916999304
 20
-21.88736483806719
 30
0.0
 10
13.39168916999304
 20
-21.88736483806719
 30
0.0
 10
13.39168916999304
 20
-21.88736483806719
 30
0.0
 10
13.38809477303074
 20
-21.9412775019337
 30
0.0
 10
13.38809477303074
 20
-21.9412775019337
 30
0.0
 10
13.38809477303074
 20
-21.944871898896
 30
0.0
 10
13.38809477303074
 20
-21.944871898896
 30
0.0
 10
13.38809477303074
 20
-21.944871898896
 30
0.0
 10
13.38809477303074
 20
-21.944871898896
 30
0.0
 10
13.38809477303074
 20
-21.944871898896
 30
0.0
 10
13.38809477303074
 20
-21.944871898896
 30
0.0
 10
13.38809477303074
 20
-21.944871898896
 30
0.0
 10
13.38809477303074
 20
-21.9664371838138
 30
0.0
 10
13.38809477303074
 20
-21.9664371838138
 30
0.0
 10
13.38809477303074
 20
-21.9664371838138
 30
0.0
 10
13.38809477303074
 20
-22.00956775364938
 30
0.0
 10
13.38809477303074
 20
-22.00956775364938
 30
0.0
 10
13.38809477303074
 20
-22.46962204656779
 30
0.0
 10
13.39168916999304
 20
-22.92608303937989
 30
0.0
 10
13.39887686706167
 20
-23.37894963522972
 30
0.0
 10
13.40965896109259
 20
-24.28468282692933
 30
0.0
 10
13.41684775501719
 20
-25.17603843077978
 30
0.0
 10
13.42762984904812
 20
-26.0386410526438
 30
0.0
 10
13.43122424601036
 20
-26.46994236357583
 30
0.0
 10
13.43481864297266
 20
-26.89405488058325
 30
0.0
 10
13.43841194307902
 20
-27.31097970052206
 30
0.0
 10
13.44200634004132
 20
-27.51944156206349
 30
0.0
 10
13.44200634004132
 20
-27.72431012349858
 30
0.0
 10
13.44560073700356
 20
-27.92558428797138
 30
0.0
 10
13.44560073700356
 20
-28.09091667653317
 30
0.0
 10
13.51029549490103
 20
-28.24906027117039
 30
0.0
 10
13.61812082263403
 20
-28.37126208989659
 30
0.0
 10
13.67203348650052
 20
-28.43236354768768
 30
0.0
 10
13.73313494429158
 20
-28.48268181459192
 30
0.0
 10
13.80501849611359
 20
-28.52221798746521
 30
0.0
 10
13.80501849611359
 20
-28.52221798746521
 30
0.0
 10
13.85893115998008
 20
-28.54737766934527
 30
0.0
 10
13.85893115998008
 20
-28.54737766934527
 30
0.0
 10
13.85893115998008
 20
-28.54737766934527
 30
0.0
 10
13.91284382384659
 20
-28.56894295426306
 30
0.0
 10
13.91284382384659
 20
-28.56894295426306
 30
0.0
 10
13.94878559975761
 20
-28.57972504829399
 30
0.0
 10
13.9883217726309
 20
-28.59050823918088
 30
0.0
 10
14.02426354854192
 20
-28.59410263614313
 30
0.0
 10
14.03145234246646
 20
-28.59410263614313
 30
0.0
 10
14.04223443649739
 20
-28.59769703310543
 30
0.0
 10
14.04942323042198
 20
-28.59769703310543
 30
0.0
 10
14.04942323042198
 20
-28.59769703310543
 30
0.0
 10
14.085365006333
 20
-28.60129143006773
 30
0.0
 10
14.085365006333
 20
-28.60129143006773
 30
0.0
 10
14.085365006333
 20
-28.60129143006773
 30
0.0
 10
14.12130678224399
 20
-28.60488582703002
 30
0.0
 10
14.12130678224399
 20
-28.60488582703002
 30
0.0
 10
14.12130678224399
 20
-28.60488582703002
 30
0.0
 10
14.12849557616859
 20
-28.60488582703002
 30
0.0
 10
14.12849557616859
 20
-28.60488582703002
 30
0.0
 10
14.12849557616859
 20
-28.60488582703002
 30
0.0
 10
14.13208997313083
 20
-28.60488582703002
 30
0.0
 10
14.13208997313083
 20
-28.60488582703002
 30
0.0
 10
14.13208997313083
 20
-28.60488582703002
 30
0.0
 10
14.15006086108636
 20
-28.60488582703002
 30
0.0
 10
14.15006086108636
 20
-28.60488582703002
 30
0.0
 10
14.19678473102825
 20
-28.60488582703002
 30
0.0
 10
14.24350969782616
 20
-28.60488582703002
 30
0.0
 10
14.29382796473038
 20
-28.60488582703002
 30
0.0
 10
14.38727680147015
 20
-28.60488582703002
 30
0.0
 10
14.48072563820996
 20
-28.60848022399232
 30
0.0
 10
14.57417337809382
 20
-28.60848022399232
 30
0.0
 10
14.94796762819702
 20
-28.61207462095462
 30
0.0
 10
15.30738538730707
 20
-28.61566901791689
 30
0.0
 10
15.65242665542382
 20
-28.61926231802325
 30
0.0
 10
16.34250919165745
 20
-28.62645111194782
 30
0.0
 10
16.9750835702063
 20
-28.63363880901645
 30
0.0
 10
17.53577549378911
 20
-28.64082760294104
 30
0.0
 10
18.09646741737192
 20
-28.64801639686564
 30
0.0
 10
18.58527578913274
 20
-28.65160969697197
 30
0.0
 10
18.98782302122239
 20
-28.65160969697197
 30
0.0
 10
19.7929185822576
 20
-28.65520409393422
 30
0.0
 10
20.252973972032
 20
-28.65520409393422
 30
0.0
 10
20.252973972032
 20
-28.65520409393422
 30
0.0
 10
20.252973972032
 20
-28.65520409393422
 30
0.0
 10
20.27813365391211
 20
-28.65520409393422
 30
0.0
 10
20.3284519208163
 20
-28.65160969697197
 30
0.0
 10
20.37517579075822
 20
-28.64442090304738
 30
0.0
 10
20.45065373954251
 20
-28.63723320597875
 30
0.0
 10
20.53691378235774
 20
-28.59769703310543
 30
0.0
 10
20.62317382517297
 20
-28.56175525719444
 30
0.0
 10
20.72740475594368
 20
-28.49706049929702
 30
0.0
 10
20.81725919572116
 20
-28.39282847167033
 30
0.0
 10
20.86038976555675
 20
-28.33891580780386
 30
0.0
 10
20.89992484157404
 20
-28.27781435001278
 30
0.0
 10
20.93227331737876
 20
-28.20233749808444
 30
0.0
 10
20.93946211130333
 20
-28.18436661012892
 30
0.0
 10
20.94664980837196
 20
-28.16639572217344
 30
0.0
 10
20.95383860229655
 20
-28.14483043725565
 30
0.0
 10
20.96102739622114
 20
-28.12685954930013
 30
0.0
 10
20.96462069632748
 20
-28.10529426438236
 30
0.0
 10
20.97180949025202
 20
-28.08372897946454
 30
0.0
 10
20.97899828417662
 20
-28.06216369454675
 30
0.0
 10
20.97899828417662
 20
-28.04419280659128
 30
0.0
 10
20.98259158428295
 20
-28.02262752167346
 30
0.0
 10
20.98259158428295
 20
-28.01184542764253
 30
0.0
 10
20.98618598124525
 20
-28.00465663371799
 30
0.0
 10
20.98618598124525
 20
-27.99387453968706
 30
0.0
 10
20.98618598124525
 20
-27.98309244565613
 30
0.0
 10
20.98618598124525
 20
-27.96871485780697
 30
0.0
 10
20.98618598124525
 20
-27.95793276377604
 30
0.0
 10
20.98618598124525
 20
-27.94715066974512
 30
0.0
 10
20.98618598124525
 20
-27.93277308189598
 30
0.0
 10
20.98618598124525
 20
-27.91839659090275
 30
0.0
 10
20.98618598124525
 20
-27.91839659090275
 30
0.0
 10
20.98618598124525
 20
-27.91480219394046
 30
0.0
 10
20.98618598124525
 20
-27.91480219394046
 30
0.0
 10
20.98618598124525
 20
-27.91480219394046
 30
0.0
 10
20.98618598124525
 20
-27.91480219394046
 30
0.0
 10
20.98618598124525
 20
-27.91480219394046
 30
0.0
 10
20.98618598124525
 20
-27.91480219394046
 30
0.0
 10
20.98618598124525
 20
-27.90402009990956
 30
0.0
 10
20.98618598124525
 20
-27.90402009990956
 30
0.0
 10
20.98618598124525
 20
-27.90402009990956
 30
0.0
 10
20.96821509328973
 20
-27.88604482453022
 30
0.0
 10
20.96821509328973
 20
-27.88604482453022
 30
0.0
  0
HATCH
  5
49
330
41
100
AcDbEntity
  8
Layer 1
 62
   205
420
  8277387
100
AcDbHatch
 10
0.0
 20
0.0
 30
0.0
210
0.0
220
0.0
230
1.0
  2
SOLID
 70
     1
 71
     0
 91
        1
 92
        1
 93
        1
 72
     4
 94
        3
 73
     0
 74
     1
 95
      284
 96
      280
 40
0.0
 40
0.0
 40
0.0
 40
0.0
 40
1.0
 40
1.0
 40
1.0
 40
2.0
 40
2.0
 40
2.0
 40
3.0
 40
3.0
 40
3.0
 40
4.0
 40
4.0
 40
4.0
 40
5.0
 40
5.0
 40
5.0
 40
6.0
 40
6.0
 40
6.0
 40
7.0
 40
7.0
 40
7.0
 40
8.0
 40
8.0
 40
8.0
 40
9.0
 40
9.0
 40
9.0
 40
10.0
 40
10.0
 40
10.0
 40
11.0
 40
11.0
 40
11.0
 40
12.0
 40
12.0
 40
12.0
 40
13.0
 40
13.0
 40
13.0
 40
14.0
 40
14.0
 40
14.0
 40
15.0
 40
15.0
 40
15.0
 40
16.0
 40
16.0
 40
16.0
 40
17.0
 40
17.0
 40
17.0
 40
18.0
 40
18.0
 40
18.0
 40
19.0
 40
19.0
 40
19.0
 40
20.0
 40
20.0
 40
20.0
 40
21.0
 40
21.0
 40
21.0
 40
22.0
 40
22.0
 40
22.0
 40
23.0
 40
23.0
 40
23.0
 40
24.0
 40
24.0
 40
24.0
 40
25.0
 40
25.0
 40
25.0
 40
26.0
 40
26.0
 40
26.0
 40
27.0
 40
27.0
 40
27.0
 40
28.0
 40
28.0
 40
28.0
 40
29.0
 40
29.0
 40
29.0
 40
30.0
 40
30.0
 40
30.0
 40
31.0
 40
31.0
 40
31.0
 40
32.0
 40
32.0
 40
32.0
 40
33.0
 40
33.0
 40
33.0
 40
34.0
 40
34.0
 40
34.0
 40
35.0
 40
35.0
 40
35.0
 40
36.0
 40
36.0
 40
36.0
 40
37.0
 40
37.0
 40
37.0
 40
38.0
 40
38.0
 40
38.0
 40
39.0
 40
39.0
 40
39.0
 40
40.0
 40
40.0
 40
40.0
 40
41.0
 40
41.0
 40
41.0
 40
42.0
 40
42.0
 40
42.0
 40
43.0
 40
43.0
 40
43.0
 40
44.0
 40
44.0
 40
44.0
 40
45.0
 40
45.0
 40
45.0
 40
46.0
 40
46.0
 40
46.0
 40
47.0
 40
47.0
 40
47.0
 40
48.0
 40
48.0
 40
48.0
 40
49.0
 40
49.0
 40
49.0
 40
50.0
 40
50.0
 40
50.0
 40
51.0
 40
51.0
 40
51.0
 40
52.0
 40
52.0
 40
52.0
 40
53.0
 40
53.0
 40
53.0
 40
54.0
 40
54.0
 40
54.0
 40
55.0
 40
55.0
 40
55.0
 40
56.0
 40
56.0
 40
56.0
 40
57.0
 40
57.0
 40
57.0
 40
58.0
 40
58.0
 40
58.0
 40
59.0
 40
59.0
 40
59.0
 40
60.0
 40
60.0
 40
60.0
 40
61.0
 40
61.0
 40
61.0
 40
62.0
 40
62.0
 40
62.0
 40
63.0
 40
63.0
 40
63.0
 40
64.0
 40
64.0
 40
64.0
 40
65.0
 40
65.0
 40
65.0
 40
66.0
 40
66.0
 40
66.0
 40
67.0
 40
67.0
 40
67.0
 40
68.0
 40
68.0
 40
68.0
 40
69.0
 40
69.0
 40
69.0
 40
70.0
 40
70.0
 40
70.0
 40
71.0
 40
71.0
 40
71.0
 40
72.0
 40
72.0
 40
72.0
 40
73.0
 40
73.0
 40
73.0
 40
74.0
 40
74.0
 40
74.0
 40
75.0
 40
75.0
 40
75.0
 40
76.0
 40
76.0
 40
76.0
 40
77.0
 40
77.0
 40
77.0
 40
78.0
 40
78.0
 40
78.0
 40
79.0
 40
79.0
 40
79.0
 40
80.0
 40
80.0
 40
80.0
 40
81.0
 40
81.0
 40
81.0
 40
82.0
 40
82.0
 40
82.0
 40
83.0
 40
83.0
 40
83.0
 40
84.0
 40
84.0
 40
84.0
 40
85.0
 40
85.0
 40
85.0
 40
86.0
 40
86.0
 40
86.0
 40
87.0
 40
87.0
 40
87.0
 40
88.0
 40
88.0
 40
88.0
 40
89.0
 40
89.0
 40
89.0
 40
90.0
 40
90.0
 40
90.0
 40
91.0
 40
91.0
 40
91.0
 40
92.0
 40
92.0
 40
92.0
 40
93.0
 40
93.0
 40
93.0
 40
93.0
 10
20.96821509328973
 20
-27.88604482453022
 10
20.96821509328973
 20
-27.86088514265015
 10
20.96821509328973
 20
-27.835726557626
 10
20.96821509328973
 20
-27.80697247878361
 10
20.96821509328973
 20
-27.75305981491712
 10
20.96821509328973
 20
-27.69914715105066
 10
20.96821509328973
 20
-27.64523448718412
 10
20.96821509328973
 20
-27.53381476248887
 10
20.96821509328973
 20
-27.41880173768721
 10
20.96821509328973
 20
-27.29659882210505
 10
20.96821509328973
 20
-27.05219518465259
 10
20.96462069632748
 20
-26.7898195623887
 10
20.96102629936513
 20
-26.50947414902528
 10
20.95743190240288
 20
-25.9487822254425
 10
20.95024420533425
 20
-25.31620675003766
 10
20.94664980837196
 20
-24.62612531066002
 10
20.94664980837196
 20
-24.56861824983124
 10
20.94664980837196
 20
-24.51111118900245
 10
20.94664980837196
 20
-24.45360522502961
 10
20.94664980837196
 20
-24.45360522502961
 10
20.27094485998752
 20
-24.84896476005062
 10
20.27094485998752
 20
-24.84896476005062
 10
20.27094485998752
 20
-24.84896476005062
 10
20.30329223893624
 20
-27.8249444635951
 10
20.30329223893624
 20
-27.8249444635951
 10
20.30329223893624
 20
-27.91120450641029
 10
20.23500308407647
 20
-27.98308805823232
 10
20.14874304126129
 20
-27.98308805823232
 10
20.14874304126129
 20
-27.98308805823232
 10
20.14874304126129
 20
-27.98308805823232
 10
20.14874304126129
 20
-27.98308805823232
 10
20.14874304126129
 20
-27.98308805823232
 10
20.14514864429899
 20
-27.98308805823232
 10
20.14514864429899
 20
-27.98308805823232
 10
20.02294682557279
 20
-27.98308805823232
 10
19.89715060988429
 20
-27.98308805823232
 10
19.77494879115807
 20
-27.98308805823232
 10
19.77494879115807
 20
-27.98308805823232
 10
19.40474893801711
 20
-27.97949366127002
 10
19.40474893801711
 20
-27.97949366127002
 10
19.40474893801711
 20
-27.97949366127002
 10
18.66075373791702
 20
-27.97230486734545
 10
18.66075373791702
 20
-27.97230486734545
 10
18.66075373791702
 20
-27.97230486734545
 10
14.20397352495284
 20
-27.92198660044121
 10
14.20397352495284
 20
-27.92198660044121
 10
14.15006086108636
 20
-27.92198660044121
 10
14.10693029125082
 20
-27.87885603060562
 10
14.10693029125082
 20
-27.82494336673913
 10
14.10693029125082
 20
-27.82494336673913
 10
14.10693029125082
 20
-27.82494336673913
 10
14.10693029125082
 20
-27.82494336673913
 10
14.09974149732622
 20
-27.34332378890291
 10
14.09255380025754
 20
-26.85810981410441
 10
14.0889594032953
 20
-26.37649023626818
 10
14.0889594032953
 20
-26.37649023626818
 10
14.07817730926435
 20
-24.9280371057972
 10
14.07817730926435
 20
-24.9280371057972
 10
14.07817730926435
 20
-24.9280371057972
 10
14.07458291230205
 20
-24.20560719061485
 10
14.07458291230205
 20
-24.20560719061485
 10
14.07458291230205
 20
-24.20560719061485
 10
14.07458291230205
 20
-23.48317727543256
 10
14.07458291230205
 20
-23.48317727543256
 10
14.07458291230205
 20
-23.48317727543256
 10
14.07098851533978
 20
-22.0347241449616
 10
14.07098851533978
 20
-22.0347241449616
 10
14.07098851533978
 20
-21.95924619617729
 10
14.13208997313083
 20
-21.89814583524215
 10
14.20756682505917
 20
-21.8945514382799
 10
14.20756682505917
 20
-21.8945514382799
 10
14.20756682505917
 20
-21.8945514382799
 10
14.20756682505917
 20
-21.8945514382799
 10
14.20756682505917
 20
-21.8945514382799
 10
14.95156202515929
 20
-21.8945514382799
 10
14.95156202515929
 20
-21.8945514382799
 10
14.95156202515929
 20
-21.8945514382799
 10
15.69555722525944
 20
-21.89814583524215
 10
15.69555722525944
 20
-21.89814583524215
 10
15.69555722525944
 20
-21.89814583524215
 10
17.17995213164141
 20
-21.90174023220445
 10
17.17995213164141
 20
-21.90174023220445
 10
17.17995213164141
 20
-21.90174023220445
 10
18.66434703802335
 20
-21.91611672319767
 10
18.66434703802335
 20
-21.91611672319767
 10
18.66434703802335
 20
-21.91611672319767
 10
19.40834223812345
 20
-21.9268988172286
 10
19.40834223812345
 20
-21.9268988172286
 10
19.65634027253817
 20
-21.9304932141909
 10
19.9043383069529
 20
-21.93408761115314
 10
20.15233743822359
 20
-21.93768091125952
 10
20.15233743822359
 20
-21.93768091125952
 10
20.15233743822359
 20
-21.93768091125952
 10
20.15233743822359
 20
-21.93768091125952
 10
20.2062501020901
 20
-21.93768091125952
 10
20.24938067192566
 20
-21.98081148109509
 10
20.24938067192566
 20
-22.0347241449616
 10
20.24938067192566
 20
-22.0347241449616
 10
20.26375716291886
 20
-23.45801869040843
 10
20.26375716291886
 20
-23.45801869040843
 10
20.26375716291886
 20
-23.45801869040843
 10
20.94665090522787
 20
-23.05906475842514
 10
20.94665090522787
 20
-23.05906475842514
 10
20.94665090522787
 20
-22.84341410295913
 10
20.94665090522787
 20
-22.62057465356856
 10
20.94305650826562
 20
-22.3977363010339
 10
20.94305650826562
 20
-22.29709976722549
 10
20.94305650826562
 20
-22.20005653352342
 10
20.94305650826562
 20
-22.09941999971498
 10
20.94305650826562
 20
-22.04910173281077
 10
20.94305650826562
 20
-21.99878346590652
 10
20.94305650826562
 20
-21.94846410214637
 10
20.94305650826562
 20
-21.9233044202663
 10
20.93946211130333
 20
-21.90533353231078
 10
20.93946211130333
 20
-21.88376934424898
 10
20.93946211130333
 20
-21.86220405933118
 10
20.93227331737876
 20
-21.84063877441336
 10
20.93227331737876
 20
-21.82266788645789
 10
20.90352033539231
 20
-21.6573354978961
 10
20.81007149865253
 20
-21.49919190325886
 10
20.66989879197081
 20
-21.39496097248815
 10
20.60160963711112
 20
-21.34104830862167
 10
20.52253729136449
 20
-21.30151213574835
 10
20.43987164551158
 20
-21.2763535507242
 10
20.41830636059379
 20
-21.27275915376195
 10
20.39674107567602
 20
-21.26557090826532
 10
20.37877018772049
 20
-21.26197705973103
 10
20.3572049028027
 20
-21.25838266276873
 10
20.34282841180953
 20
-21.25478881423444
 10
20.31766872992941
 20
-21.25119441727214
 10
20.31766872992941
 20
-21.25119441727214
 10
20.23859638418281
 20
-21.24760002030985
 10
20.23859638418281
 20
-21.24760002030985
 10
20.23859638418281
 20
-21.24760002030985
 10
20.16671283236085
 20
-21.24760002030985
 10
20.16671283236085
 20
-21.24760002030985
 10
19.95465657385714
 20
-21.24760002030985
 10
19.7426003153534
 20
-21.24400562334755
 10
19.52694965988742
 20
-21.24400562334755
 10
18.66434703802335
 20
-21.24041122638525
 10
17.77299143417288
 20
-21.22603473539205
 10
16.8672582424733
 20
-21.21884648989544
 10
15.96152505077372
 20
-21.20806384743653
 10
15.0414164649368
 20
-21.20446999890224
 10
14.12130678224399
 20
-21.20446999890224
 10
13.91643822080889
 20
-21.20446999890224
 10
13.7187584532984
 20
-21.29432443867972
 10
13.58218014357898
 20
-21.44528033624829
 10
13.51389098871924
 20
-21.5207582850326
 10
13.45997832485275
 20
-21.60701832784783
 10
13.42763094590403
 20
-21.70406156154993
 10
13.40966005794851
 20
-21.75078543149185
 10
13.39887796391763
 20
-21.80110479525198
 10
13.39528356695534
 20
-21.84782866519393
 10
13.39528356695534
 20
-21.8550174591185
 10
13.39168916999304
 20
-21.85861075922483
 10
13.39168916999304
 20
-21.86579955314942
 10
13.39168916999304
 20
-21.86579955314942
 10
13.39168916999304
 20
-21.88736483806719
 10
13.39168916999304
 20
-21.88736483806719
 10
13.39168916999304
 20
-21.88736483806719
 10
13.38809477303074
 20
-21.9412775019337
 10
13.38809477303074
 20
-21.9412775019337
 10
13.38809477303074
 20
-21.944871898896
 10
13.38809477303074
 20
-21.944871898896
 10
13.38809477303074
 20
-21.944871898896
 10
13.38809477303074
 20
-21.944871898896
 10
13.38809477303074
 20
-21.944871898896
 10
13.38809477303074
 20
-21.944871898896
 10
13.38809477303074
 20
-21.944871898896
 10
13.38809477303074
 20
-21.9664371838138
 10
13.38809477303074
 20
-21.9664371838138
 10
13.38809477303074
 20
-21.9664371838138
 10
13.38809477303074
 20
-22.00956775364938
 10
13.38809477303074
 20
-22.00956775364938
 10
13.38809477303074
 20
-22.46962204656779
 10
13.39168916999304
 20
-22.92608303937989
 10
13.39887686706167
 20
-23.37894963522972
 10
13.40965896109259
 20
-24.28468282692933
 10
13.41684775501719
 20
-25.17603843077978
 10
13.42762984904812
 20
-26.0386410526438
 10
13.43122424601036
 20
-26.46994236357583
 10
13.43481864297266
 20
-26.89405488058325
 10
13.43841194307902
 20
-27.31097970052206
 10
13.44200634004132
 20
-27.51944156206349
 10
13.44200634004132
 20
-27.72431012349858
 10
13.44560073700356
 20
-27.92558428797138
 10
13.44560073700356
 20
-28.09091667653317
 10
13.51029549490103
 20
-28.24906027117039
 10
13.61812082263403
 20
-28.37126208989659
 10
13.67203348650052
 20
-28.43236354768768
 10
13.73313494429158
 20
-28.48268181459192
 10
13.80501849611359
 20
-28.52221798746521
 10
13.80501849611359
 20
-28.52221798746521
 10
13.85893115998008
 20
-28.54737766934527
 10
13.85893115998008
 20
-28.54737766934527
 10
13.85893115998008
 20
-28.54737766934527
 10
13.91284382384659
 20
-28.56894295426306
 10
13.91284382384659
 20
-28.56894295426306
 10
13.94878559975761
 20
-28.57972504829399
 10
13.9883217726309
 20
-28.59050823918088
 10
14.02426354854192
 20
-28.59410263614313
 10
14.03145234246646
 20
-28.59410263614313
 10
14.04223443649739
 20
-28.59769703310543
 10
14.04942323042198
 20
-28.59769703310543
 10
14.04942323042198
 20
-28.59769703310543
 10
14.085365006333
 20
-28.60129143006773
 10
14.085365006333
 20
-28.60129143006773
 10
14.085365006333
 20
-28.60129143006773
 10
14.12130678224399
 20
-28.60488582703002
 10
14.12130678224399
 20
-28.60488582703002
 10
14.12130678224399
 20
-28.60488582703002
 10
14.12849557616859
 20
-28.60488582703002
 10
14.12849557616859
 20
-28.60488582703002
 10
14.12849557616859
 20
-28.60488582703002
 10
14.13208997313083
 20
-28.60488582703002
 10
14.13208997313083
 20
-28.60488582703002
 10
14.13208997313083
 20
-28.60488582703002
 10
14.15006086108636
 20
-28.60488582703002
 10
14.15006086108636
 20
-28.60488582703002
 10
14.19678473102825
 20
-28.60488582703002
 10
14.24350969782616
 20
-28.60488582703002
 10
14.29382796473038
 20
-28.60488582703002
 10
14.38727680147015
 20
-28.60488582703002
 10
14.48072563820996
 20
-28.60848022399232
 10
14.57417337809382
 20
-28.60848022399232
 10
14.94796762819702
 20
-28.61207462095462
 10
15.30738538730707
 20
-28.61566901791689
 10
15.65242665542382
 20
-28.61926231802325
 10
16.34250919165745
 20
-28.62645111194782
 10
16.9750835702063
 20
-28.63363880901645
 10
17.53577549378911
 20
-28.64082760294104
 10
18.09646741737192
 20
-28.64801639686564
 10
18.58527578913274
 20
-28.65160969697197
 10
18.98782302122239
 20
-28.65160969697197
 10
19.7929185822576
 20
-28.65520409393422
 10
20.252973972032
 20
-28.65520409393422
 10
20.252973972032
 20
-28.65520409393422
 10
20.252973972032
 20
-28.65520409393422
 10
20.27813365391211
 20
-28.65520409393422
 10
20.3284519208163
 20
-28.65160969697197
 10
20.37517579075822
 20
-28.64442090304738
 10
20.45065373954251
 20
-28.63723320597875
 10
20.53691378235774
 20
-28.59769703310543
 10
20.62317382517297
 20
-28.56175525719444
 10
20.72740475594368
 20
-28.49706049929702
 10
20.81725919572116
 20
-28.39282847167033
 10
20.86038976555675
 20
-28.33891580780386
 10
20.89992484157404
 20
-28.27781435001278
 10
20.93227331737876
 20
-28.20233749808444
 10
20.93946211130333
 20
-28.18436661012892
 10
20.94664980837196
 20
-28.16639572217344
 10
20.95383860229655
 20
-28.14483043725565
 10
20.96102739622114
 20
-28.12685954930013
 10
20.96462069632748
 20
-28.10529426438236
 10
20.97180949025202
 20
-28.08372897946454
 10
20.97899828417662
 20
-28.06216369454675
 10
20.97899828417662
 20
-28.04419280659128
 10
20.98259158428295
 20
-28.02262752167346
 10
20.98259158428295
 20
-28.01184542764253
 10
20.98618598124525
 20
-28.00465663371799
 10
20.98618598124525
 20
-27.99387453968706
 10
20.98618598124525
 20
-27.98309244565613
 10
20.98618598124525
 20
-27.96871485780697
 10
20.98618598124525
 20
-27.95793276377604
 10
20.98618598124525
 20
-27.94715066974512
 10
20.98618598124525
 20
-27.93277308189598
 10
20.98618598124525
 20
-27.91839659090275
 10
20.98618598124525
 20
-27.91839659090275
 10
20.98618598124525
 20
-27.91480219394046
 10
20.98618598124525
 20
-27.91480219394046
 10
20.98618598124525
 20
-27.91480219394046
 10
20.98618598124525
 20
-27.91480219394046
 10
20.98618598124525
 20
-27.91480219394046
 10
20.98618598124525
 20
-27.91480219394046
 10
20.98618598124525
 20
-27.90402009990956
 10
20.98618598124525
 20
-27.90402009990956
 10
20.98618598124525
 20
-27.90402009990956
 10
20.96821509328973
 20
-27.88604482453022
 10
20.96821509328973
 20
-27.88604482453022
 97
        0
 97
        0
 75
     2
 76
     1
 98
        0
  0
SPLINE
  5
4A
330
41
100
AcDbEntity
  8
Layer 1
370
     0
100
AcDbSpline
210
0.0
220
0.0
230
1.0
 70
    11
 71
     3
 72
   218
 73
   214
 74
     0
 42
0.0000000001
 43
0.0000000001
 12
1.0
 22
0.0
 32
0.0
 13
1.0
 23
0.0
 33
0.0
 40
0.0
 40
0.0
 40
0.0
 40
0.0
 40
1.0
 40
1.0
 40
1.0
 40
2.0
 40
2.0
 40
2.0
 40
3.0
 40
3.0
 40
3.0
 40
4.0
 40
4.0
 40
4.0
 40
5.0
 40
5.0
 40
5.0
 40
6.0
 40
6.0
 40
6.0
 40
7.0
 40
7.0
 40
7.0
 40
8.0
 40
8.0
 40
8.0
 40
9.0
 40
9.0
 40
9.0
 40
10.0
 40
10.0
 40
10.0
 40
11.0
 40
11.0
 40
11.0
 40
12.0
 40
12.0
 40
12.0
 40
13.0
 40
13.0
 40
13.0
 40
14.0
 40
14.0
 40
14.0
 40
15.0
 40
15.0
 40
15.0
 40
16.0
 40
16.0
 40
16.0
 40
17.0
 40
17.0
 40
17.0
 40
18.0
 40
18.0
 40
18.0
 40
19.0
 40
19.0
 40
19.0
 40
20.0
 40
20.0
 40
20.0
 40
21.0
 40
21.0
 40
21.0
 40
22.0
 40
22.0
 40
22.0
 40
23.0
 40
23.0
 40
23.0
 40
24.0
 40
24.0
 40
24.0
 40
25.0
 40
25.0
 40
25.0
 40
26.0
 40
26.0
 40
26.0
 40
27.0
 40
27.0
 40
27.0
 40
28.0
 40
28.0
 40
28.0
 40
29.0
 40
29.0
 40
29.0
 40
30.0
 40
30.0
 40
30.0
 40
31.0
 40
31.0
 40
31.0
 40
32.0
 40
32.0
 40
32.0
 40
33.0
 40
33.0
 40
33.0
 40
34.0
 40
34.0
 40
34.0
 40
35.0
 40
35.0
 40
35.0
 40
36.0
 40
36.0
 40
36.0
 40
37.0
 40
37.0
 40
37.0
 40
38.0
 40
38.0
 40
38.0
 40
39.0
 40
39.0
 40
39.0
 40
40.0
 40
40.0
 40
40.0
 40
41.0
 40
41.0
 40
41.0
 40
42.0
 40
42.0
 40
42.0
 40
43.0
 40
43.0
 40
43.0
 40
44.0
 40
44.0
 40
44.0
 40
45.0
 40
45.0
 40
45.0
 40
46.0
 40
46.0
 40
46.0
 40
47.0
 40
47.0
 40
47.0
 40
48.0
 40
48.0
 40
48.0
 40
49.0
 40
49.0
 40
49.0
 40
50.0
 40
50.0
 40
50.0
 40
51.0
 40
51.0
 40
51.0
 40
52.0
 40
52.0
 40
52.0
 40
53.0
 40
53.0
 40
53.0
 40
54.0
 40
54.0
 40
54.0
 40
55.0
 40
55.0
 40
55.0
 40
56.0
 40
56.0
 40
56.0
 40
57.0
 40
57.0
 40
57.0
 40
58.0
 40
58.0
 40
58.0
 40
59.0
 40
59.0
 40
59.0
 40
60.0
 40
60.0
 40
60.0
 40
61.0
 40
61.0
 40
61.0
 40
62.0
 40
62.0
 40
62.0
 40
63.0
 40
63.0
 40
63.0
 40
64.0
 40
64.0
 40
64.0
 40
65.0
 40
65.0
 40
65.0
 40
66.0
 40
66.0
 40
66.0
 40
67.0
 40
67.0
 40
67.0
 40
68.0
 40
68.0
 40
68.0
 40
69.0
 40
69.0
 40
69.0
 40
70.0
 40
70.0
 40
70.0
 40
71.0
 40
71.0
 40
71.0
 40
71.0
 10
22.71858001889789
 20
-22.59541497168842
 30
0.0
 10
22.6395076731513
 20
-22.52353141986643
 30
0.0
 10
22.51730695128104
 20
-22.49477843788001
 30
0.0
 10
22.41307492365437
 20
-22.52712581682873
 30
0.0
 10
22.40588612972978
 20
-22.52712581682873
 30
0.0
 10
22.40229282962344
 20
-22.53072021379103
 30
0.0
 10
22.39510403569885
 20
-22.53431461075332
 30
0.0
 10
22.39151073559252
 20
-22.53790900771562
 30
0.0
 10
22.38432194166797
 20
-22.53790900771562
 30
0.0
 10
22.38072644784971
 20
-22.53790900771562
 30
0.0
 10
22.38072644784971
 20
-22.53790900771562
 30
0.0
 10
22.35556676596962
 20
-22.55228549870879
 30
0.0
 10
22.35556676596962
 20
-22.55228549870879
 30
0.0
 10
22.35556676596962
 20
-22.55228549870879
 30
0.0
 10
22.34118917812043
 20
-22.55947429263339
 30
0.0
 10
22.34118917812043
 20
-22.55947429263339
 30
0.0
 10
22.34118917812043
 20
-22.55947429263339
 30
0.0
 10
22.34118917812043
 20
-22.55947429263339
 30
0.0
 10
22.34118917812043
 20
-22.55947429263339
 30
0.0
 10
22.34118917812043
 20
-22.55947429263339
 30
0.0
 10
22.34118917812043
 20
-22.55947429263339
 30
0.0
 10
22.34118917812043
 20
-22.55947429263339
 30
0.0
 10
22.34118917812043
 20
-22.55947429263339
 30
0.0
 10
22.33400038419589
 20
-22.56306868959569
 30
0.0
 10
22.33400038419589
 20
-22.56306868959569
 30
0.0
 10
22.33400038419589
 20
-22.56306868959569
 30
0.0
 10
22.23336385038748
 20
-22.62057575042448
 30
0.0
 10
22.23336385038748
 20
-22.62057575042448
 30
0.0
 10
22.23336385038748
 20
-22.62057575042448
 30
0.0
 10
22.02849528895237
 20
-22.7391831721884
 30
0.0
 10
22.02849528895237
 20
-22.7391831721884
 30
0.0
 10
22.02849528895237
 20
-22.7391831721884
 30
0.0
 10
21.61875816608219
 20
-22.9728047156099
 30
0.0
 10
21.61875816608219
 20
-22.9728047156099
 30
0.0
 10
21.61875816608219
 20
-22.9728047156099
 30
0.0
 10
19.98340736213165
 20
-23.91088528625826
 30
0.0
 10
19.98340736213165
 20
-23.91088528625826
 30
0.0
 10
19.98340736213165
 20
-23.91088528625826
 30
0.0
 10
18.34446216121877
 20
-24.84537145994424
 30
0.0
 10
18.34446216121877
 20
-24.84537145994424
 30
0.0
 10
18.34446216121877
 20
-24.84537145994424
 30
0.0
 10
16.70551696030596
 20
-25.7798576336303
 30
0.0
 10
16.70551696030596
 20
-25.7798576336303
 30
0.0
 10
16.66238639047032
 20
-25.80501731551036
 30
0.0
 10
16.60847372660383
 20
-25.79423412462352
 30
0.0
 10
16.57972074461744
 20
-25.75829234871253
 30
0.0
 10
16.57972074461744
 20
-25.75829234871253
 30
0.0
 10
16.57972074461744
 20
-25.75829234871253
 30
0.0
 10
16.57972074461744
 20
-25.75829234871253
 30
0.0
 10
16.57972074461744
 20
-25.75829234871253
 30
0.0
 10
16.57972074461744
 20
-25.75829234871253
 30
0.0
 10
16.57972074461744
 20
-25.75829234871253
 30
0.0
 10
16.43595364097342
 20
-25.58936556318844
 30
0.0
 10
16.29218653732945
 20
-25.42043987452032
 30
0.0
 10
16.14841943368543
 20
-25.24791869203391
 30
0.0
 10
16.14841943368543
 20
-25.24791869203391
 30
0.0
 10
15.71711812275339
 20
-24.73754503535532
 30
0.0
 10
15.71711812275339
 20
-24.73754503535532
 30
0.0
 10
15.71711812275339
 20
-24.73754503535532
 30
0.0
 10
15.60929279502041
 20
-24.60815442270453
 30
0.0
 10
15.60929279502041
 20
-24.60815442270453
 30
0.0
 10
15.60210400109582
 20
-24.5973723286736
 30
0.0
 10
15.59132190706489
 20
-24.58658913778671
 30
0.0
 10
15.5841331131403
 20
-24.57940144071808
 30
0.0
 10
15.5841331131403
 20
-24.57940144071808
 30
0.0
 10
15.56256782822253
 20
-24.55783615580031
 30
0.0
 10
15.56256782822253
 20
-24.55783615580031
 30
0.0
 10
15.56256782822253
 20
-24.55783615580031
 30
0.0
 10
15.54100254330473
 20
-24.53986526784481
 30
0.0
 10
15.54100254330473
 20
-24.53986526784481
 30
0.0
 10
15.53381374938014
 20
-24.53267647392022
 30
0.0
 10
15.52303165534921
 20
-24.52908317381389
 30
0.0
 10
15.51584286142462
 20
-24.52189437988929
 30
0.0
 10
15.45114810352723
 20
-24.47876381005375
 30
0.0
 10
15.36848136081835
 20
-24.46079292209823
 30
0.0
 10
15.28941011192771
 20
-24.46798171602283
 30
0.0
 10
15.24987393905442
 20
-24.47157611298513
 30
0.0
 10
15.21393216314343
 20
-24.4859526039783
 30
0.0
 10
15.17799038723241
 20
-24.50392349193382
 30
0.0
 10
15.17080159330787
 20
-24.50751788889612
 30
0.0
 10
15.16361389623919
 20
-24.51111228585836
 30
0.0
 10
15.15642510231464
 20
-24.51470558596475
 30
0.0
 10
15.15283070535234
 20
-24.51470558596475
 30
0.0
 10
15.14564300828371
 20
-24.52189437988929
 30
0.0
 10
15.14204861132142
 20
-24.52548767999562
 30
0.0
 10
15.14204861132142
 20
-24.52548767999562
 30
0.0
 10
15.1240777233659
 20
-24.53626977402655
 30
0.0
 10
15.1240777233659
 20
-24.53626977402655
 30
0.0
 10
15.1240777233659
 20
-24.53626977402655
 30
0.0
 10
15.12048332640362
 20
-24.53986417098885
 30
0.0
 10
15.12048332640362
 20
-24.53986417098885
 30
0.0
 10
15.12048332640362
 20
-24.53986417098885
 30
0.0
 10
15.12048332640362
 20
-24.53986417098885
 30
0.0
 10
15.12048332640362
 20
-24.53986417098885
 30
0.0
 10
15.12048332640362
 20
-24.53986417098885
 30
0.0
 10
15.12048332640362
 20
-24.53986417098885
 30
0.0
 10
15.12048332640362
 20
-24.53986417098885
 30
0.0
 10
15.12048332640362
 20
-24.53986417098885
 30
0.0
 10
15.11688892944133
 20
-24.54345856795114
 30
0.0
 10
15.11688892944133
 20
-24.54345856795114
 30
0.0
 10
15.11688892944133
 20
-24.54345856795114
 30
0.0
 10
15.1061068354104
 20
-24.55424066198207
 30
0.0
 10
15.1061068354104
 20
-24.55424066198207
 30
0.0
 10
15.09891804148586
 20
-24.56142945590664
 30
0.0
 10
15.09173034441718
 20
-24.56861715297527
 30
0.0
 10
15.08454155049263
 20
-24.57580594689987
 30
0.0
 10
15.03422328358844
 20
-24.63331300772865
 30
0.0
 10
15.00546920474608
 20
-24.70879095651296
 30
0.0
 10
15.00546920474608
 20
-24.7878622054036
 30
0.0
 10
15.00546920474608
 20
-24.82739837827689
 30
0.0
 10
15.01265799867062
 20
-24.86334015418786
 30
0.0
 10
15.02703448966385
 20
-24.89928193009885
 30
0.0
 10
15.03062888662609
 20
-24.91006402412977
 30
0.0
 10
15.03422328358844
 20
-24.91725281805437
 30
0.0
 10
15.03781658369477
 20
-24.92444161197896
 30
0.0
 10
15.03781658369477
 20
-24.92444161197896
 30
0.0
 10
15.04500537761932
 20
-24.93881810297216
 30
0.0
 10
15.04500537761932
 20
-24.93881810297216
 30
0.0
 10
15.04500537761932
 20
-24.93881810297216
 30
0.0
 10
15.05219417154391
 20
-24.94960019700309
 30
0.0
 10
15.05219417154391
 20
-24.94960019700309
 30
0.0
 10
15.05219417154391
 20
-24.94960019700309
 30
0.0
 10
15.05578856850621
 20
-24.96038229103402
 30
0.0
 10
15.05578856850621
 20
-24.96038229103402
 30
0.0
 10
15.05578856850621
 20
-24.96397668799631
 30
0.0
 10
15.0629773624308
 20
-24.97116438506494
 30
0.0
 10
15.06657066253713
 20
-24.97475878202719
 30
0.0
 10
15.06657066253713
 20
-24.97475878202719
 30
0.0
 10
15.07735275656804
 20
-24.99272966998271
 30
0.0
 10
15.07735275656804
 20
-24.99272966998271
 30
0.0
 10
15.07735275656804
 20
-24.99272966998271
 30
0.0
 10
15.08094715353033
 20
-24.99632406694501
 30
0.0
 10
15.08094715353033
 20
-24.99632406694501
 30
0.0
 10
15.08094715353033
 20
-24.99632406694501
 30
0.0
 10
15.08813594745493
 20
-25.00351286086955
 30
0.0
 10
15.08813594745493
 20
-25.00351286086955
 30
0.0
 10
15.08813594745493
 20
-25.00351286086955
 30
0.0
 10
15.30019220595861
 20
-25.2622940861712
 30
0.0
 10
15.30019220595861
 20
-25.2622940861712
 30
0.0
 10
15.30019220595861
 20
-25.2622940861712
 30
0.0
 10
15.72430472296605
 20
-25.77985543991841
 30
0.0
 10
15.72430472296605
 20
-25.77985543991841
 30
0.0
 10
15.72430472296605
 20
-25.77985543991841
 30
0.0
 10
16.14482393986716
 20
-26.29741679366563
 30
0.0
 10
16.14482393986716
 20
-26.29741679366563
 30
0.0
 10
16.14482393986716
 20
-26.29741679366563
 30
0.0
 10
16.24905487063787
 20
-26.42680740631643
 30
0.0
 10
16.24905487063787
 20
-26.42680740631643
 30
0.0
 10
16.24905487063787
 20
-26.42680740631643
 30
0.0
 10
16.30296753450435
 20
-26.49150216421384
 30
0.0
 10
16.30296753450435
 20
-26.49150216421384
 30
0.0
 10
16.31734402549758
 20
-26.50587865520707
 30
0.0
 10
16.32812721638447
 20
-26.52025514620024
 30
0.0
 10
16.34250370737767
 20
-26.53103833708714
 30
0.0
 10
16.37125668936412
 20
-26.55619801896723
 30
0.0
 10
16.40360516516876
 20
-26.57416890692275
 30
0.0
 10
16.43595254411745
 20
-26.58495100095362
 30
0.0
 10
16.45392343207297
 20
-26.59213979487822
 30
0.0
 10
16.47189432002849
 20
-26.59573309498455
 30
0.0
 10
16.48986520798396
 20
-26.59932749194685
 30
0.0
 10
16.49705400190853
 20
-26.59932749194685
 30
0.0
 10
16.50783609593946
 20
-26.60292188890915
 30
0.0
 10
16.51502488986405
 20
-26.60292188890915
 30
0.0
 10
16.51502488986405
 20
-26.60292188890915
 30
0.0
 10
16.51861928682635
 20
-26.60292188890915
 30
0.0
 10
16.51861928682635
 20
-26.60292188890915
 30
0.0
 10
16.51861928682635
 20
-26.60292188890915
 30
0.0
 10
16.52221368378865
 20
-26.60292188890915
 30
0.0
 10
16.5258080807509
 20
-26.60292188890915
 30
0.0
 10
16.5258080807509
 20
-26.60292188890915
 30
0.0
 10
16.54377896870642
 20
-26.60292188890915
 30
0.0
 10
16.54377896870642
 20
-26.60292188890915
 30
0.0
 10
16.59409723561066
 20
-26.60292188890915
 30
0.0
 10
16.64800989947712
 20
-26.58854539791592
 30
0.0
 10
16.69114046931269
 20
-26.56338571603586
 30
0.0
 10
16.69114046931269
 20
-26.56338571603586
 30
0.0
 10
16.89241463378552
 20
-26.44837159437823
 30
0.0
 10
16.89241463378552
 20
-26.44837159437823
 30
0.0
 10
16.89241463378552
 20
-26.44837159437823
 30
0.0
 10
17.30215065979974
 20
-26.21115565399446
 30
0.0
 10
17.30215065979974
 20
-26.21115565399446
 30
0.0
 10
17.30215065979974
 20
-26.21115565399446
 30
0.0
 10
18.11802941172186
 20
-25.74031817018916
 30
0.0
 10
18.11802941172186
 20
-25.74031817018916
 30
0.0
 10
18.11802941172186
 20
-25.74031817018916
 30
0.0
 10
19.7497858187101
 20
-24.79504990247223
 30
0.0
 10
19.7497858187101
 20
-24.79504990247223
 30
0.0
 10
19.7497858187101
 20
-24.79504990247223
 30
0.0
 10
21.38154332255433
 20
-23.84978163475524
 30
0.0
 10
21.38154332255433
 20
-23.84978163475524
 30
0.0
 10
21.38154332255433
 20
-23.84978163475524
 30
0.0
 10
22.19742207447646
 20
-23.37894415094994
 30
0.0
 10
22.19742207447646
 20
-23.37894415094994
 30
0.0
 10
22.19742207447646
 20
-23.37894415094994
 30
0.0
 10
22.60715919734659
 20
-23.14532260752844
 30
0.0
 10
22.60715919734659
 20
-23.14532260752844
 30
0.0
 10
22.60715919734659
 20
-23.14532260752844
 30
0.0
 10
22.6574785611068
 20
-23.11656962554199
 30
0.0
 10
22.6574785611068
 20
-23.11656962554199
 30
0.0
 10
22.67185614895594
 20
-23.10578753151112
 30
0.0
 10
22.68263824298689
 20
-23.10219313454882
 30
0.0
 10
22.69342033701782
 20
-23.09500434062423
 30
0.0
 10
22.71498452507967
 20
-23.07703345266873
 30
0.0
 10
22.73655090685336
 20
-23.05906256471321
 30
0.0
 10
22.75092630099061
 20
-23.04109167675773
 30
0.0
 10
22.78686807690165
 20
-23.00155550388445
 30
0.0
 10
22.80843226496348
 20
-22.94764284001796
 30
0.0
 10
22.81921655270629
 20
-22.89373017615142
 30
0.0
 10
22.82640534663089
 20
-22.83981751228493
 30
0.0
 10
22.82280985281262
 20
-22.78231045145612
 30
0.0
 10
22.80483896485715
 20
-22.73558658151422
 30
0.0
 10
22.79046357071989
 20
-22.67808171439734
 30
0.0
 10
22.75811509491521
 20
-22.63135674759943
 30
0.0
 10
22.71858001889789
 20
-22.59541497168842
 30
0.0
  0
HATCH
  5
4B
330
41
100
AcDbEntity
  8
Layer 1
 62
   193
420
 10185389
100
AcDbHatch
 10
0.0
 20
0.0
 30
0.0
210
0.0
220
0.0
230
1.0
  2
SOLID
 70
     1
 71
     0
 91
        1
 92
        1
 93
        1
 72
     4
 94
        3
 73
     0
 74
     1
 95
      218
 96
      214
 40
0.0
 40
0.0
 40
0.0
 40
0.0
 40
1.0
 40
1.0
 40
1.0
 40
2.0
 40
2.0
 40
2.0
 40
3.0
 40
3.0
 40
3.0
 40
4.0
 40
4.0
 40
4.0
 40
5.0
 40
5.0
 40
5.0
 40
6.0
 40
6.0
 40
6.0
 40
7.0
 40
7.0
 40
7.0
 40
8.0
 40
8.0
 40
8.0
 40
9.0
 40
9.0
 40
9.0
 40
10.0
 40
10.0
 40
10.0
 40
11.0
 40
11.0
 40
11.0
 40
12.0
 40
12.0
 40
12.0
 40
13.0
 40
13.0
 40
13.0
 40
14.0
 40
14.0
 40
14.0
 40
15.0
 40
15.0
 40
15.0
 40
16.0
 40
16.0
 40
16.0
 40
17.0
 40
17.0
 40
17.0
 40
18.0
 40
18.0
 40
18.0
 40
19.0
 40
19.0
 40
19.0
 40
20.0
 40
20.0
 40
20.0
 40
21.0
 40
21.0
 40
21.0
 40
22.0
 40
22.0
 40
22.0
 40
23.0
 40
23.0
 40
23.0
 40
24.0
 40
24.0
 40
24.0
 40
25.0
 40
25.0
 40
25.0
 40
26.0
 40
26.0
 40
26.0
 40
27.0
 40
27.0
 40
27.0
 40
28.0
 40
28.0
 40
28.0
 40
29.0
 40
29.0
 40
29.0
 40
30.0
 40
30.0
 40
30.0
 40
31.0
 40
31.0
 40
31.0
 40
32.0
 40
32.0
 40
32.0
 40
33.0
 40
33.0
 40
33.0
 40
34.0
 40
34.0
 40
34.0
 40
35.0
 40
35.0
 40
35.0
 40
36.0
 40
36.0
 40
36.0
 40
37.0
 40
37.0
 40
37.0
 40
38.0
 40
38.0
 40
38.0
 40
39.0
 40
39.0
 40
39.0
 40
40.0
 40
40.0
 40
40.0
 40
41.0
 40
41.0
 40
41.0
 40
42.0
 40
42.0
 40
42.0
 40
43.0
 40
43.0
 40
43.0
 40
44.0
 40
44.0
 40
44.0
 40
45.0
 40
45.0
 40
45.0
 40
46.0
 40
46.0
 40
46.0
 40
47.0
 40
47.0
 40
47.0
 40
48.0
 40
48.0
 40
48.0
 40
49.0
 40
49.0
 40
49.0
 40
50.0
 40
50.0
 40
50.0
 40
51.0
 40
51.0
 40
51.0
 40
52.0
 40
52.0
 40
52.0
 40
53.0
 40
53.0
 40
53.0
 40
54.0
 40
54.0
 40
54.0
 40
55.0
 40
55.0
 40
55.0
 40
56.0
 40
56.0
 40
56.0
 40
57.0
 40
57.0
 40
57.0
 40
58.0
 40
58.0
 40
58.0
 40
59.0
 40
59.0
 40
59.0
 40
60.0
 40
60.0
 40
60.0
 40
61.0
 40
61.0
 40
61.0
 40
62.0
 40
62.0
 40
62.0
 40
63.0
 40
63.0
 40
63.0
 40
64.0
 40
64.0
 40
64.0
 40
65.0
 40
65.0
 40
65.0
 40
66.0
 40
66.0
 40
66.0
 40
67.0
 40
67.0
 40
67.0
 40
68.0
 40
68.0
 40
68.0
 40
69.0
 40
69.0
 40
69.0
 40
70.0
 40
70.0
 40
70.0
 40
71.0
 40
71.0
 40
71.0
 40
71.0
 10
22.71858001889789
 20
-22.59541497168842
 10
22.6395076731513
 20
-22.52353141986643
 10
22.51730695128104
 20
-22.49477843788001
 10
22.41307492365437
 20
-22.52712581682873
 10
22.40588612972978
 20
-22.52712581682873
 10
22.40229282962344
 20
-22.53072021379103
 10
22.39510403569885
 20
-22.53431461075332
 10
22.39151073559252
 20
-22.53790900771562
 10
22.38432194166797
 20
-22.53790900771562
 10
22.38072644784971
 20
-22.53790900771562
 10
22.38072644784971
 20
-22.53790900771562
 10
22.35556676596962
 20
-22.55228549870879
 10
22.35556676596962
 20
-22.55228549870879
 10
22.35556676596962
 20
-22.55228549870879
 10
22.34118917812043
 20
-22.55947429263339
 10
22.34118917812043
 20
-22.55947429263339
 10
22.34118917812043
 20
-22.55947429263339
 10
22.34118917812043
 20
-22.55947429263339
 10
22.34118917812043
 20
-22.55947429263339
 10
22.34118917812043
 20
-22.55947429263339
 10
22.34118917812043
 20
-22.55947429263339
 10
22.34118917812043
 20
-22.55947429263339
 10
22.34118917812043
 20
-22.55947429263339
 10
22.33400038419589
 20
-22.56306868959569
 10
22.33400038419589
 20
-22.56306868959569
 10
22.33400038419589
 20
-22.56306868959569
 10
22.23336385038748
 20
-22.62057575042448
 10
22.23336385038748
 20
-22.62057575042448
 10
22.23336385038748
 20
-22.62057575042448
 10
22.02849528895237
 20
-22.7391831721884
 10
22.02849528895237
 20
-22.7391831721884
 10
22.02849528895237
 20
-22.7391831721884
 10
21.61875816608219
 20
-22.9728047156099
 10
21.61875816608219
 20
-22.9728047156099
 10
21.61875816608219
 20
-22.9728047156099
 10
19.98340736213165
 20
-23.91088528625826
 10
19.98340736213165
 20
-23.91088528625826
 10
19.98340736213165
 20
-23.91088528625826
 10
18.34446216121877
 20
-24.84537145994424
 10
18.34446216121877
 20
-24.84537145994424
 10
18.34446216121877
 20
-24.84537145994424
 10
16.70551696030596
 20
-25.7798576336303
 10
16.70551696030596
 20
-25.7798576336303
 10
16.66238639047032
 20
-25.80501731551036
 10
16.60847372660383
 20
-25.79423412462352
 10
16.57972074461744
 20
-25.75829234871253
 10
16.57972074461744
 20
-25.75829234871253
 10
16.57972074461744
 20
-25.75829234871253
 10
16.57972074461744
 20
-25.75829234871253
 10
16.57972074461744
 20
-25.75829234871253
 10
16.57972074461744
 20
-25.75829234871253
 10
16.57972074461744
 20
-25.75829234871253
 10
16.43595364097342
 20
-25.58936556318844
 10
16.29218653732945
 20
-25.42043987452032
 10
16.14841943368543
 20
-25.24791869203391
 10
16.14841943368543
 20
-25.24791869203391
 10
15.71711812275339
 20
-24.73754503535532
 10
15.71711812275339
 20
-24.73754503535532
 10
15.71711812275339
 20
-24.73754503535532
 10
15.60929279502041
 20
-24.60815442270453
 10
15.60929279502041
 20
-24.60815442270453
 10
15.60210400109582
 20
-24.5973723286736
 10
15.59132190706489
 20
-24.58658913778671
 10
15.5841331131403
 20
-24.57940144071808
 10
15.5841331131403
 20
-24.57940144071808
 10
15.56256782822253
 20
-24.55783615580031
 10
15.56256782822253
 20
-24.55783615580031
 10
15.56256782822253
 20
-24.55783615580031
 10
15.54100254330473
 20
-24.53986526784481
 10
15.54100254330473
 20
-24.53986526784481
 10
15.53381374938014
 20
-24.53267647392022
 10
15.52303165534921
 20
-24.52908317381389
 10
15.51584286142462
 20
-24.52189437988929
 10
15.45114810352723
 20
-24.47876381005375
 10
15.36848136081835
 20
-24.46079292209823
 10
15.28941011192771
 20
-24.46798171602283
 10
15.24987393905442
 20
-24.47157611298513
 10
15.21393216314343
 20
-24.4859526039783
 10
15.17799038723241
 20
-24.50392349193382
 10
15.17080159330787
 20
-24.50751788889612
 10
15.16361389623919
 20
-24.51111228585836
 10
15.15642510231464
 20
-24.51470558596475
 10
15.15283070535234
 20
-24.51470558596475
 10
15.14564300828371
 20
-24.52189437988929
 10
15.14204861132142
 20
-24.52548767999562
 10
15.14204861132142
 20
-24.52548767999562
 10
15.1240777233659
 20
-24.53626977402655
 10
15.1240777233659
 20
-24.53626977402655
 10
15.1240777233659
 20
-24.53626977402655
 10
15.12048332640362
 20
-24.53986417098885
 10
15.12048332640362
 20
-24.53986417098885
 10
15.12048332640362
 20
-24.53986417098885
 10
15.12048332640362
 20
-24.53986417098885
 10
15.12048332640362
 20
-24.53986417098885
 10
15.12048332640362
 20
-24.53986417098885
 10
15.12048332640362
 20
-24.53986417098885
 10
15.12048332640362
 20
-24.53986417098885
 10
15.12048332640362
 20
-24.53986417098885
 10
15.11688892944133
 20
-24.54345856795114
 10
15.11688892944133
 20
-24.54345856795114
 10
15.11688892944133
 20
-24.54345856795114
 10
15.1061068354104
 20
-24.55424066198207
 10
15.1061068354104
 20
-24.55424066198207
 10
15.09891804148586
 20
-24.56142945590664
 10
15.09173034441718
 20
-24.56861715297527
 10
15.08454155049263
 20
-24.57580594689987
 10
15.03422328358844
 20
-24.63331300772865
 10
15.00546920474608
 20
-24.70879095651296
 10
15.00546920474608
 20
-24.7878622054036
 10
15.00546920474608
 20
-24.82739837827689
 10
15.01265799867062
 20
-24.86334015418786
 10
15.02703448966385
 20
-24.89928193009885
 10
15.03062888662609
 20
-24.91006402412977
 10
15.03422328358844
 20
-24.91725281805437
 10
15.03781658369477
 20
-24.92444161197896
 10
15.03781658369477
 20
-24.92444161197896
 10
15.04500537761932
 20
-24.93881810297216
 10
15.04500537761932
 20
-24.93881810297216
 10
15.04500537761932
 20
-24.93881810297216
 10
15.05219417154391
 20
-24.94960019700309
 10
15.05219417154391
 20
-24.94960019700309
 10
15.05219417154391
 20
-24.94960019700309
 10
15.05578856850621
 20
-24.96038229103402
 10
15.05578856850621
 20
-24.96038229103402
 10
15.05578856850621
 20
-24.96397668799631
 10
15.0629773624308
 20
-24.97116438506494
 10
15.06657066253713
 20
-24.97475878202719
 10
15.06657066253713
 20
-24.97475878202719
 10
15.07735275656804
 20
-24.99272966998271
 10
15.07735275656804
 20
-24.99272966998271
 10
15.07735275656804
 20
-24.99272966998271
 10
15.08094715353033
 20
-24.99632406694501
 10
15.08094715353033
 20
-24.99632406694501
 10
15.08094715353033
 20
-24.99632406694501
 10
15.08813594745493
 20
-25.00351286086955
 10
15.08813594745493
 20
-25.00351286086955
 10
15.08813594745493
 20
-25.00351286086955
 10
15.30019220595861
 20
-25.2622940861712
 10
15.30019220595861
 20
-25.2622940861712
 10
15.30019220595861
 20
-25.2622940861712
 10
15.72430472296605
 20
-25.77985543991841
 10
15.72430472296605
 20
-25.77985543991841
 10
15.72430472296605
 20
-25.77985543991841
 10
16.14482393986716
 20
-26.29741679366563
 10
16.14482393986716
 20
-26.29741679366563
 10
16.14482393986716
 20
-26.29741679366563
 10
16.24905487063787
 20
-26.42680740631643
 10
16.24905487063787
 20
-26.42680740631643
 10
16.24905487063787
 20
-26.42680740631643
 10
16.30296753450435
 20
-26.49150216421384
 10
16.30296753450435
 20
-26.49150216421384
 10
16.31734402549758
 20
-26.50587865520707
 10
16.32812721638447
 20
-26.52025514620024
 10
16.34250370737767
 20
-26.53103833708714
 10
16.37125668936412
 20
-26.55619801896723
 10
16.40360516516876
 20
-26.57416890692275
 10
16.43595254411745
 20
-26.58495100095362
 10
16.45392343207297
 20
-26.59213979487822
 10
16.47189432002849
 20
-26.59573309498455
 10
16.48986520798396
 20
-26.59932749194685
 10
16.49705400190853
 20
-26.59932749194685
 10
16.50783609593946
 20
-26.60292188890915
 10
16.51502488986405
 20
-26.60292188890915
 10
16.51502488986405
 20
-26.60292188890915
 10
16.51861928682635
 20
-26.60292188890915
 10
16.51861928682635
 20
-26.60292188890915
 10
16.51861928682635
 20
-26.60292188890915
 10
16.52221368378865
 20
-26.60292188890915
 10
16.5258080807509
 20
-26.60292188890915
 10
16.5258080807509
 20
-26.60292188890915
 10
16.54377896870642
 20
-26.60292188890915
 10
16.54377896870642
 20
-26.60292188890915
 10
16.59409723561066
 20
-26.60292188890915
 10
16.64800989947712
 20
-26.58854539791592
 10
16.69114046931269
 20
-26.56338571603586
 10
16.69114046931269
 20
-26.56338571603586
 10
16.89241463378552
 20
-26.44837159437823
 10
16.89241463378552
 20
-26.44837159437823
 10
16.89241463378552
 20
-26.44837159437823
 10
17.30215065979974
 20
-26.21115565399446
 10
17.30215065979974
 20
-26.21115565399446
 10
17.30215065979974
 20
-26.21115565399446
 10
18.11802941172186
 20
-25.74031817018916
 10
18.11802941172186
 20
-25.74031817018916
 10
18.11802941172186
 20
-25.74031817018916
 10
19.7497858187101
 20
-24.79504990247223
 10
19.7497858187101
 20
-24.79504990247223
 10
19.7497858187101
 20
-24.79504990247223
 10
21.38154332255433
 20
-23.84978163475524
 10
21.38154332255433
 20
-23.84978163475524
 10
21.38154332255433
 20
-23.84978163475524
 10
22.19742207447646
 20
-23.37894415094994
 10
22.19742207447646
 20
-23.37894415094994
 10
22.19742207447646
 20
-23.37894415094994
 10
22.60715919734659
 20
-23.14532260752844
 10
22.60715919734659
 20
-23.14532260752844
 10
22.60715919734659
 20
-23.14532260752844
 10
22.6574785611068
 20
-23.11656962554199
 10
22.6574785611068
 20
-23.11656962554199
 10
22.67185614895594
 20
-23.10578753151112
 10
22.68263824298689
 20
-23.10219313454882
 10
22.69342033701782
 20
-23.09500434062423
 10
22.71498452507967
 20
-23.07703345266873
 10
22.73655090685336
 20
-23.05906256471321
 10
22.75092630099061
 20
-23.04109167675773
 10
22.78686807690165
 20
-23.00155550388445
 10
22.80843226496348
 20
-22.94764284001796
 10
22.81921655270629
 20
-22.89373017615142
 10
22.82640534663089
 20
-22.83981751228493
 10
22.82280985281262
 20
-22.78231045145612
 10
22.80483896485715
 20
-22.73558658151422
 10
22.79046357071989
 20
-22.67808171439734
 10
22.75811509491521
 20
-22.63135674759943
 10
22.71858001889789
 20
-22.59541497168842
 97
        0
 97
        0
 75
     2
 76
     1
 98
        0
  0
ENDBLK
  5
44
330
41
100
AcDbEntity
  8
0
100
AcDbBlockEnd
  0
ENDSEC
  0
SECTION
  2
ENTITIES
  0
INSERT
  5
42
330
1F
100
AcDbEntity
  8
Layer 1
100
AcDbBlockReference
  2
block 2
 10
0.0
 20
0.0
 30
0.0
  0
ENDSEC
  0
SECTION
  2
OBJECTS
  0
DICTIONARY
  5
C
330
0
100
AcDbDictionary
281
     1
  3
ACAD_GROUP
350
D
  3
ACAD_LAYOUT
350
1A
  3
ACAD_MATERIAL
350
3B
  3
ACAD_MLEADERSTYLE
350
4D
  3
ACAD_MLINESTYLE
350
17
  3
ACAD_PLOTSETTINGS
350
19
  3
ACAD_PLOTSTYLENAME
350
E
  3
ACAD_TABLESTYLE
350
4C
  3
ACAD_VISUALSTYLE
350
2A
  0
SUN
  5
3F
330
29
100
AcDbSun
 90
        1
290
     0
 63
     7
421
 16777215
 40
1.0
291
     1
 91
  2455826
 92
 54000000
292
     0
 70
     2
 71
   256
280
     1
  0
DICTIONARY
  5
D
102
{ACAD_REACTORS
330
C
102
}
330
C
100
AcDbDictionary
281
     1
  0
DICTIONARY
  5
1A
102
{ACAD_REACTORS
330
C
102
}
330
C
100
AcDbDictionary
281
     1
  3
Layout1
350
1E
  3
Layout2
350
26
  3
Model
350
22
  0
DICTIONARY
  5
3B
102
{ACAD_REACTORS
330
C
102
}
330
C
100
AcDbDictionary
281
     1
  3
ByBlock
350
3D
  3
ByLayer
350
3C
  3
Global
350
3E
  0
DICTIONARY
  5
4D
102
{ACAD_REACTORS
330
C
102
}
330
C
100
AcDbDictionary
281
     1
  0
DICTIONARY
  5
17
102
{ACAD_REACTORS
330
C
102
}
330
C
100
AcDbDictionary
281
     1
  3
Standard
350
18
  0
DICTIONARY
  5
19
102
{ACAD_REACTORS
330
C
102
}
330
C
100
AcDbDictionary
281
     1
  0
ACDBDICTIONARYWDFLT
  5
E
102
{ACAD_REACTORS
330
C
102
}
330
C
100
AcDbDictionary
281
     1
  3
Normal
350
F
100
AcDbDictionaryWithDefault
340
F
  0
DICTIONARY
  5
4C
102
{ACAD_REACTORS
330
C
102
}
330
C
100
AcDbDictionary
281
     1
  0
DICTIONARY
  5
2A
102
{ACAD_REACTORS
330
C
102
}
330
C
100
AcDbDictionary
281
     1
  3
2dWireframe
350
2F
  3
3D Hidden
350
31
  3
3dWireframe
350
30
  3
Basic
350
32
  3
Brighten
350
36
  3
ColorChange
350
3A
  3
Conceptual
350
34
  3
Dim
350
35
  3
Facepattern
350
39
  3
Flat
350
2B
  3
FlatWithEdges
350
2C
  3
Gouraud
350
2D
  3
GouraudWithEdges
350
2E
  3
Linepattern
350
38
  3
Realistic
350
33
  3
Thicken
350
37
  0
LAYOUT
  5
1E
102
{ACAD_REACTORS
330
1A
102
}
330
1A
100
AcDbPlotSettings
  1

  2
none_device
  4

  6

 40
0.0
 41
0.0
 42
0.0
 43
0.0
 44
0.0
 45
0.0
 46
0.0
 47
0.0
 48
0.0
 49
0.0
140
0.0
141
0.0
142
1.0
143
1.0
 70
   688
 72
     0
 73
     0
 74
     5
  7

 75
    16
 76
     0
 77
     2
 78
   300
147
1.0
148
0.0
149
0.0
100
AcDbLayout
  1
Layout1
 70
     1
 71
     1
 10
0.0
 20
0.0
 11
12.0
 21
9.0
 12
0.0
 22
0.0
 32
0.0
 14
1.000000000000000E+20
 24
1.000000000000000E+20
 34
1.000000000000000E+20
 15
-1.000000000000000E+20
 25
-1.000000000000000E+20
 35
-1.000000000000000E+20
146
0.0
 13
0.0
 23
0.0
 33
0.0
 16
1.0
 26
0.0
 36
0.0
 17
0.0
 27
1.0
 37
0.0
 76
     0
330
1B
  0
LAYOUT
  5
26
102
{ACAD_REACTORS
330
1A
102
}
330
1A
100
AcDbPlotSettings
  1

  2
none_device
  4

  6

 40
0.0
 41
0.0
 42
0.0
 43
0.0
 44
0.0
 45
0.0
 46
0.0
 47
0.0
 48
0.0
 49
0.0
140
0.0
141
0.0
142
1.0
143
1.0
 70
   688
 72
     0
 73
     0
 74
     5
  7

 75
    16
 76
     0
 77
     2
 78
   300
147
1.0
148
0.0
149
0.0
100
AcDbLayout
  1
Layout2
 70
     1
 71
     2
 10
0.0
 20
0.0
 11
0.0
 21
0.0
 12
0.0
 22
0.0
 32
0.0
 14
0.0
 24
0.0
 34
0.0
 15
0.0
 25
0.0
 35
0.0
146
0.0
 13
0.0
 23
0.0
 33
0.0
 16
1.0
 26
0.0
 36
0.0
 17
0.0
 27
1.0
 37
0.0
 76
     0
330
23
  0
LAYOUT
  5
22
102
{ACAD_REACTORS
330
1A
102
}
330
1A
100
AcDbPlotSettings
  1

  2
none_device
  4

  6

 40
0.0
 41
0.0
 42
0.0
 43
0.0
 44
0.0
 45
0.0
 46
0.0
 47
0.0
 48
0.0
 49
0.0
140
0.0
141
0.0
142
1.0
143
1.0
 70
  1712
 72
     0
 73
     0
 74
     0
  7

 75
     0
 76
     0
 77
     2
 78
   300
147
1.0
148
0.0
149
0.0
100
AcDbLayout
  1
Model
 70
     1
 71
     0
 10
0.0
 20
0.0
 11
12.0
 21
9.0
 12
0.0
 22
0.0
 32
0.0
 14
1.000000000000000E+20
 24
1.000000000000000E+20
 34
1.000000000000000E+20
 15
-1.000000000000000E+20
 25
-1.000000000000000E+20
 35
-1.000000000000000E+20
146
0.0
 13
0.0
 23
0.0
 33
0.0
 16
1.0
 26
0.0
 36
0.0
 17
0.0
 27
1.0
 37
0.0
 76
     0
330
1F
331
29
  0
MATERIAL
  5
3D
102
{ACAD_REACTORS
330
3B
102
}
330
3B
100
AcDbMaterial
  1
ByBlock
 72
     1
 94
      127
  0
MATERIAL
  5
3C
102
{ACAD_REACTORS
330
3B
102
}
330
3B
100
AcDbMaterial
  1
ByLayer
 72
     1
 94
      127
  0
MATERIAL
  5
3E
102
{ACAD_REACTORS
330
3B
102
}
330
3B
100
AcDbMaterial
  1
Global
 72
     1
 94
      127
  0
MLINESTYLE
  5
18
102
{ACAD_REACTORS
330
17
102
}
330
17
100
AcDbMlineStyle
  2
Standard
 70
     0
  3

 62
   256
 51
90.0
 52
90.0
 71
     2
 49
0.5
 62
   256
  6
BYLAYER
 49
-0.5
 62
   256
  6
BYLAYER
  0
ACDBPLACEHOLDER
  5
F
102
{ACAD_REACTORS
330
E
102
}
330
E
  0
VISUALSTYLE
  5
2F
102
{ACAD_REACTORS
330
2A
102
}
330
2A
100
AcDbVisualStyle
  2
2dWireframe
 70
     4
177
     2
291
     0
 71
     0
176
     1
 72
     2
176
     1
 73
     0
176
     1
 90
        0
176
     1
 40
-0.6
176
     1
 41
-30.0
176
     1
 62
     5
 63
     7
421
 16777215
176
     1
 74
     1
176
     1
 91
        4
176
     1
 64
     7
176
     1
 65
   257
176
     1
 75
     1
176
     1
175
     1
176
     1
 42
1.0
176
     1
 92
        0
176
     1
 66
   257
176
     1
 43
1.0
176
     1
 76
     1
176
     1
 77
     6
176
     1
 78
     2
176
     1
 67
     7
176
     1
 79
     5
176
     1
170
     0
176
     1
171
     0
176
     1
290
     0
176
     1
 93
        1
176
     1
 44
0.0
176
     1
173
     0
176
     1
  0
VISUALSTYLE
  5
31
102
{ACAD_REACTORS
330
2A
102
}
330
2A
100
AcDbVisualStyle
  2
3D Hidden
 70
     6
177
     2
291
     0
 71
     1
176
     1
 72
     2
176
     1
 73
     2
176
     1
 90
        0
176
     1
 40
-0.6
176
     1
 41
-30.0
176
     1
 62
     5
 63
     7
421
 16777215
176
     1
 74
     2
176
     1
 91
        2
176
     1
 64
     7
176
     1
 65
   257
176
     1
 75
     2
176
     1
175
     1
176
     1
 42
40.0
176
     1
 92
        0
176
     1
 66
   257
176
     1
 43
1.0
176
     1
 76
     1
176
     1
 77
     6
176
     1
 78
     2
176
     1
 67
     7
176
     1
 79
     3
176
     1
170
     0
176
     1
171
     0
176
     1
290
     0
176
     1
 93
        1
176
     1
 44
0.0
176
     1
173
     0
176
     1
  0
VISUALSTYLE
  5
30
102
{ACAD_REACTORS
330
2A
102
}
330
2A
100
AcDbVisualStyle
  2
3dWireframe
 70
     5
177
     2
291
     0
 71
     0
176
     1
 72
     2
176
     1
 73
     0
176
     1
 90
        0
176
     1
 40
-0.6
176
     1
 41
-30.0
176
     1
 62
     5
 63
     7
421
 16777215
176
     1
 74
     1
176
     1
 91
        4
176
     1
 64
     7
176
     1
 65
   257
176
     1
 75
     1
176
     1
175
     1
176
     1
 42
1.0
176
     1
 92
        0
176
     1
 66
   257
176
     1
 43
1.0
176
     1
 76
     1
176
     1
 77
     6
176
     1
 78
     2
176
     1
 67
     7
176
     1
 79
     5
176
     1
170
     0
176
     1
171
     0
176
     1
290
     0
176
     1
 93
        1
176
     1
 44
0.0
176
     1
173
     0
176
     1
  0
VISUALSTYLE
  5
32
102
{ACAD_REACTORS
330
2A
102
}
330
2A
100
AcDbVisualStyle
  2
Basic
 70
     7
177
     2
291
     1
 71
     1
176
     1
 72
     0
176
     1
 73
     1
176
     1
 90
        0
176
     1
 40
-0.6
176
     1
 41
-30.0
176
     1
 62
     5
 63
     7
421
 16777215
176
     1
 74
     0
176
     1
 91
        4
176
     1
 64
     7
176
     1
 65
   257
176
     1
 75
     1
176
     1
175
     1
176
     1
 42
1.0
176
     1
 92
        8
176
     1
 66
     7
176
     1
 43
1.0
176
     1
 76
     1
176
     1
 77
     6
176
     1
 78
     2
176
     1
 67
     7
176
     1
 79
     5
176
     1
170
     0
176
     1
171
     0
176
     1
290
     0
176
     1
 93
        1
176
     1
 44
0.0
176
     1
173
     0
176
     1
  0
VISUALSTYLE
  5
36
102
{ACAD_REACTORS
330
2A
102
}
330
2A
100
AcDbVisualStyle
  2
Brighten
 70
    12
177
     2
291
     1
 71
     2
176
     1
 72
     2
176
     1
 73
     0
176
     1
 90
        0
176
     1
 40
-0.6
176
     1
 41
-30.0
176
     1
 62
     5
 63
     7
421
 16777215
176
     1
 74
     1
176
     1
 91
        4
176
     1
 64
     7
176
     1
 65
   257
176
     1
 75
     1
176
     1
175
     1
176
     1
 42
1.0
176
     1
 92
        8
176
     1
 66
     7
176
     1
 43
1.0
176
     1
 76
     1
176
     1
 77
     6
176
     1
 78
     2
176
     1
 67
     7
176
     1
 79
     5
176
     1
170
     0
176
     1
171
     0
176
     1
290
     0
176
     1
 93
        1
176
     1
 44
50.0
176
     1
173
     0
176
     1
  0
VISUALSTYLE
  5
3A
102
{ACAD_REACTORS
330
2A
102
}
330
2A
100
AcDbVisualStyle
  2
ColorChange
 70
    16
177
     2
291
     1
 71
     2
176
     1
 72
     2
176
     1
 73
     3
176
     1
 90
        0
176
     1
 40
-0.6
176
     1
 41
-30.0
176
     1
 62
     5
 63
     8
421
  8421504
176
     1
 74
     1
176
     1
 91
        4
176
     1
 64
     7
176
     1
 65
   257
176
     1
 75
     1
176
     1
175
     1
176
     1
 42
1.0
176
     1
 92
        8
176
     1
 66
     8
424
  8421504
176
     1
 43
1.0
176
     1
 76
     1
176
     1
 77
     6
176
     1
 78
     2
176
     1
 67
     7
176
     1
 79
     5
176
     1
170
     0
176
     1
171
     0
176
     1
290
     0
176
     1
 93
        1
176
     1
 44
0.0
176
     1
173
     0
176
     1
  0
VISUALSTYLE
  5
34
102
{ACAD_REACTORS
330
2A
102
}
330
2A
100
AcDbVisualStyle
  2
Conceptual
 70
     9
177
     2
291
     0
 71
     3
176
     1
 72
     2
176
     1
 73
     0
176
     1
 90
        0
176
     1
 40
-0.6
176
     1
 41
-30.0
176
     1
 62
     5
 63
     7
421
 16777215
176
     1
 74
     2
176
     1
 91
        2
176
     1
 64
     7
176
     1
 65
   257
176
     1
 75
     1
176
     1
175
     1
176
     1
 42
40.0
176
     1
 92
        8
176
     1
 66
     7
176
     1
 43
1.0
176
     1
 76
     1
176
     1
 77
     6
176
     1
 78
     2
176
     1
 67
     7
176
     1
 79
     3
176
     1
170
     0
176
     1
171
     0
176
     1
290
     0
176
     1
 93
        1
176
     1
 44
0.0
176
     1
173
     0
176
     1
  0
VISUALSTYLE
  5
35
102
{ACAD_REACTORS
330
2A
102
}
330
2A
100
AcDbVisualStyle
  2
Dim
 70
    11
177
     2
291
     1
 71
     2
176
     1
 72
     2
176
     1
 73
     0
176
     1
 90
        0
176
     1
 40
-0.6
176
     1
 41
-30.0
176
     1
 62
     5
 63
     7
421
 16777215
176
     1
 74
     1
176
     1
 91
        4
176
     1
 64
     7
176
     1
 65
   257
176
     1
 75
     1
176
     1
175
     1
176
     1
 42
1.0
176
     1
 92
        8
176
     1
 66
     7
176
     1
 43
1.0
176
     1
 76
     1
176
     1
 77
     6
176
     1
 78
     2
176
     1
 67
     7
176
     1
 79
     5
176
     1
170
     0
176
     1
171
     0
176
     1
290
     0
176
     1
 93
        1
176
     1
 44
-50.0
176
     1
173
     0
176
     1
  0
VISUALSTYLE
  5
39
102
{ACAD_REACTORS
330
2A
102
}
330
2A
100
AcDbVisualStyle
  2
Facepattern
 70
    15
177
     2
291
     1
 71
     2
176
     1
 72
     2
176
     1
 73
     0
176
     1
 90
        0
176
     1
 40
-0.6
176
     1
 41
-30.0
176
     1
 62
     5
 63
     7
421
 16777215
176
     1
 74
     1
176
     1
 91
        4
176
     1
 64
     7
176
     1
 65
   257
176
     1
 75
     1
176
     1
175
     1
176
     1
 42
1.0
176
     1
 92
        8
176
     1
 66
     7
176
     1
 43
1.0
176
     1
 76
     1
176
     1
 77
     6
176
     1
 78
     2
176
     1
 67
     7
176
     1
 79
     5
176
     1
170
     0
176
     1
171
     0
176
     1
290
     0
176
     1
 93
        1
176
     1
 44
0.0
176
     1
173
     0
176
     1
  0
VISUALSTYLE
  5
2B
102
{ACAD_REACTORS
330
2A
102
}
330
2A
100
AcDbVisualStyle
  2
Flat
 70
     0
177
     2
291
     1
 71
     2
176
     1
 72
     1
176
     1
 73
     1
176
     1
 90
        2
176
     1
 40
-0.6
176
     1
 41
30.0
176
     1
 62
     5
 63
     7
421
 16777215
176
     1
 74
     0
176
     1
 91
        4
176
     1
 64
     7
176
     1
 65
   257
176
     1
 75
     1
176
     1
175
     1
176
     1
 42
1.0
176
     1
 92
        8
176
     1
 66
     7
176
     1
 43
1.0
176
     1
 76
     1
176
     1
 77
     6
176
     1
 78
     2
176
     1
 67
     7
176
     1
 79
     5
176
     1
170
     0
176
     1
171
     0
176
     1
290
     0
176
     1
 93
       13
176
     1
 44
0.0
176
     1
173
     0
176
     1
  0
VISUALSTYLE
  5
2C
102
{ACAD_REACTORS
330
2A
102
}
330
2A
100
AcDbVisualStyle
  2
FlatWithEdges
 70
     1
177
     2
291
     1
 71
     2
176
     1
 72
     1
176
     1
 73
     1
176
     1
 90
        2
176
     1
 40
-0.6
176
     1
 41
30.0
176
     1
 62
     5
 63
     7
421
 16777215
176
     1
 74
     1
176
     1
 91
        4
176
     1
 64
     7
176
     1
 65
   257
176
     1
 75
     1
176
     1
175
     1
176
     1
 42
1.0
176
     1
 92
        0
176
     1
 66
   257
176
     1
 43
1.0
176
     1
 76
     1
176
     1
 77
     6
176
     1
 78
     2
176
     1
 67
     7
176
     1
 79
     5
176
     1
170
     0
176
     1
171
     0
176
     1
290
     0
176
     1
 93
       13
176
     1
 44
0.0
176
     1
173
     0
176
     1
  0
VISUALSTYLE
  5
2D
102
{ACAD_REACTORS
330
2A
102
}
330
2A
100
AcDbVisualStyle
  2
Gouraud
 70
     2
177
     2
291
     1
 71
     2
176
     1
 72
     2
176
     1
 73
     1
176
     1
 90
        2
176
     1
 40
-0.6
176
     1
 41
30.0
176
     1
 62
     5
 63
     7
421
 16777215
176
     1
 74
     0
176
     1
 91
        4
176
     1
 64
     7
176
     1
 65
   257
176
     1
 75
     1
176
     1
175
     1
176
     1
 42
1.0
176
     1
 92
        0
176
     1
 66
     7
176
     1
 43
1.0
176
     1
 76
     1
176
     1
 77
     6
176
     1
 78
     2
176
     1
 67
     7
176
     1
 79
     5
176
     1
170
     0
176
     1
171
     0
176
     1
290
     0
176
     1
 93
       13
176
     1
 44
0.0
176
     1
173
     0
176
     1
  0
VISUALSTYLE
  5
2E
102
{ACAD_REACTORS
330
2A
102
}
330
2A
100
AcDbVisualStyle
  2
GouraudWithEdges
 70
     3
177
     2
291
     1
 71
     2
176
     1
 72
     2
176
     1
 73
     1
176
     1
 90
        2
176
     1
 40
-0.6
176
     1
 41
30.0
176
     1
 62
     5
 63
     7
421
 16777215
176
     1
 74
     1
176
     1
 91
        4
176
     1
 64
     7
176
     1
 65
   257
176
     1
 75
     1
176
     1
175
     1
176
     1
 42
1.0
176
     1
 92
        0
176
     1
 66
   257
176
     1
 43
1.0
176
     1
 76
     1
176
     1
 77
     6
176
     1
 78
     2
176
     1
 67
     7
176
     1
 79
     5
176
     1
170
     0
176
     1
171
     0
176
     1
290
     0
176
     1
 93
       13
176
     1
 44
0.0
176
     1
173
     0
176
     1
  0
VISUALSTYLE
  5
38
102
{ACAD_REACTORS
330
2A
102
}
330
2A
100
AcDbVisualStyle
  2
Linepattern
 70
    14
177
     2
291
     1
 71
     2
176
     1
 72
     2
176
     1
 73
     0
176
     1
 90
        0
176
     1
 40
-0.6
176
     1
 41
-30.0
176
     1
 62
     5
 63
     7
421
 16777215
176
     1
 74
     1
176
     1
 91
        4
176
     1
 64
     7
176
     1
 65
   257
176
     1
 75
     7
176
     1
175
     7
176
     1
 42
1.0
176
     1
 92
        8
176
     1
 66
     7
176
     1
 43
1.0
176
     1
 76
     1
176
     1
 77
     6
176
     1
 78
     2
176
     1
 67
     7
176
     1
 79
     5
176
     1
170
     0
176
     1
171
     0
176
     1
290
     0
176
     1
 93
        1
176
     1
 44
0.0
176
     1
173
     0
176
     1
  0
VISUALSTYLE
  5
33
102
{ACAD_REACTORS
330
2A
102
}
330
2A
100
AcDbVisualStyle
  2
Realistic
 70
     8
177
     2
291
     0
 71
     2
176
     1
 72
     2
176
     1
 73
     0
176
     1
 90
        0
176
     1
 40
-0.6
176
     1
 41
-30.0
176
     1
 62
     5
 63
     7
421
 16777215
176
     1
 74
     1
176
     1
 91
        0
176
     1
 64
     7
176
     1
 65
   257
176
     1
 75
     1
176
     1
175
     1
176
     1
 42
1.0
176
     1
 92
        8
176
     1
 66
     8
424
  7895160
176
     1
 43
1.0
176
     1
 76
     1
176
     1
 77
     6
176
     1
 78
     2
176
     1
 67
     7
176
     1
 79
     5
176
     1
170
     0
176
     1
171
     0
176
     1
290
     0
176
     1
 93
       13
176
     1
 44
0.0
176
     1
173
     0
176
     1
  0
VISUALSTYLE
  5
37
102
{ACAD_REACTORS
330
2A
102
}
330
2A
100
AcDbVisualStyle
  2
Thicken
 70
    13
177
     2
291
     1
 71
     2
176
     1
 72
     2
176
     1
 73
     0
176
     1
 90
        0
176
     1
 40
-0.6
176
     1
 41
-30.0
176
     1
 62
     5
 63
     7
421
 16777215
176
     1
 74
     1
176
     1
 91
        4
176
     1
 64
     7
176
     1
 65
   257
176
     1
 75
     1
176
     1
175
     1
176
     1
 42
1.0
176
     1
 92
       12
176
     1
 66
     7
176
     1
 43
1.0
176
     1
 76
     1
176
     1
 77
     6
176
     1
 78
     2
176
     1
 67
     7
176
     1
 79
     5
176
     1
170
     0
176
     1
171
     0
176
     1
290
     0
176
     1
 93
        1
176
     1
 44
0.0
176
     1
173
     0
176
     1
  0
ENDSEC
  0
EOF
