<?xml version="1.0" encoding="utf-8"?>
<!-- Generator: Adobe Illustrator 22.0.0, SVG Export Plug-In . SVG Version: 6.00 Build 0)  -->
<svg version="1.1" id="Layer_1" xmlns="http://www.w3.org/2000/svg" xmlns:xlink="http://www.w3.org/1999/xlink" x="0px" y="0px"
	 viewBox="0 0 720 570.7" style="enable-background:new 0 0 720 570.7;" xml:space="preserve">
<path id="XMLID_42_" d="M717.1,120l-1.3-2.8l-0.3-0.8l-0.3-0.5l-0.5-1l-0.5-1l-0.3-0.5V113c-0.5-1-0.3-0.5-0.5-0.8l-1.6-2.3
	c-1-1.6-2.3-2.8-3.4-4.4c-1.3-1.3-2.6-2.6-3.9-3.9c-11.1-9.8-27.4-13.2-41.4-8.8c-1.8,0.5-3.9,1.3-5.7,2.1l-1.8,1l-1,0.5l-1,0.5
	l-0.5,0.3l-7.2,4.4l-14.7,8.5L602,127.3l-20.2,11.6c0-11.9,0-24.1,0.3-36.2c0-7.2,0-14.2,0-21.5c0-3.6,0-7.2,0-10.9
	c0-1.8-0.3-4.1-0.3-6.2c0-2.1-0.5-4.1-0.8-6.2c-2.8-16.8-12.2-32.6-26.1-43.2c-7-5.4-14.7-9.3-23.3-11.9c-2.1-0.5-4.1-1-6.5-1.6
	c-2.3-0.3-4.9-0.8-7-1L512.5,0h-6.2c-15.3,0-30.5,0.3-46,0.3C398.1,0.5,334,1.6,268.8,2.1c-65.2,0.8-131.4,1-197.6,1
	c-18.6-0.3-37,8-49.4,21.5c-6.2,6.7-11.1,14.7-14.2,23.5c-1.6,4.4-2.6,8.8-3.1,13.7c0,0.5-0.3,1.3-0.3,1.8v1.6l-0.3,3.1v0.8v1v1.6
	v3.1c0,33.1-0.3,66-0.8,98.6C2.3,238.5,1.8,302.7,1,364.8c-0.3,31-0.5,61.6-0.8,91.6c0,15-0.3,29.7-0.3,44.5
	c0,8.8,1.8,17.3,4.9,25.4c3.1,8,7.8,15.3,13.5,21.5c5.7,6.2,12.4,11.4,19.7,15.3l5.7,2.6c1.8,0.8,3.9,1.3,5.9,2.1
	c3.9,1,7.8,2.1,12.4,2.6c1,0.3,2.3,0.3,3.1,0.5h2.6h2.6h0.5c1.3,0,0.8,0,1.3,0h1.3c3.4,0,6.7,0,10.3,0c6.7,0,13.5-0.3,20.2-0.3
	c26.9-0.3,52.8-0.5,77.6-0.8c49.7-0.5,95.2-1,135.6-1.6c40.4-0.5,75.5-0.8,104.5-0.8c57.9-0.3,91.1-0.3,91.1-0.3s2.3,0,6.7-0.3
	c4.4-0.5,11.1-1.6,19.1-4.9s17.3-9.3,25.6-18.6c3.9-4.9,7.8-10.6,10.6-17.1c0.5-1.8,1.3-3.4,1.8-5.2c0.5-1.8,1-3.6,1.6-5.4
	c0.5-1.8,0.8-3.9,1-5.9c0.3-1,0.3-2.1,0.5-3.1c0-0.8,0-1.8,0.3-2.6c0-0.8,0-1.8,0.3-2.8v-1v-0.8V498c0-1.8,0-3.6,0-5.7
	c0-3.9,0-7.8,0-11.6c0-8,0-16.3,0-25.1c0-17.6,0.3-36.5,0.5-56.7c0.3-40.4,0.8-85.9,1-135.6c0-7.5,0-15.3,0.3-23l24.6-14.2
	l58.7-34.1l29.2-17.1l3.6-2.1c1.3-0.8,3.1-1.8,4.7-3.1c2.8-2.3,5.7-4.9,8-7.8c4.7-5.7,7.8-12.9,9.1-20.2
	C720.2,134.5,719.7,127,717.1,120z M563.7,263.6c0.5,49.7,0.8,95.2,1,135.6c0.3,20.2,0.3,39.1,0.5,56.7c0,8.8,0,17.1,0,25.1
	c0,3.9,0,8,0,11.6c0,1.8,0,3.9,0,5.7v1.3v0.8l0,0v0.3c0,1,0,1.8,0,2.8c0,0.8,0,1.8,0,2.6c0,0.8-0.3,1.6-0.3,2.1
	c-0.3,1.6-0.3,2.8-0.8,4.4c-0.5,1.6-0.8,2.8-1.3,4.4c-0.5,1.3-1,2.8-1.6,4.1c-2.3,5.2-5.2,9.8-8.3,13.7
	c-6.5,7.5-13.7,12.2-20.2,14.7c-6.2,2.6-11.6,3.4-15,3.9c-3.6,0.3-5.4,0.3-5.4,0.3s-33.1-0.3-91.1-0.3c-29,0-64.2-0.3-104.5-0.8
	c-40.4-0.5-85.9-1-135.6-1.6c-24.8-0.3-50.7-0.5-77.6-0.8c-6.7,0-13.5-0.3-20.2-0.3c-3.4,0-6.7,0-10.3,0h-1.3c0,0,0,0-0.3,0h-0.5
	l-2.6-0.3l-2.6-0.3c-0.8,0-1.3-0.3-1.8-0.3c-2.3-0.3-5.2-1-8-1.8l-3.9-1.6l-3.9-1.8c-4.9-2.8-9.6-6.5-13.5-10.9
	c-7.5-8.8-12.2-20.2-12.4-32.1c-0.3-14.5-0.3-29.2-0.5-44.2c-0.3-30-0.5-60.5-0.8-91.6c-0.8-62.1-1.3-126.2-2.1-191.4
	c-0.3-32.6-0.5-65.4-0.8-98.6v-3.1v-1.6l0,0c0,0,0,0,0-0.3l0.3-3.9v-1.6c0-0.5,0.3-0.8,0.3-1.3c0.5-3.1,1.3-6.7,2.3-10.3
	c2.3-6.7,6.2-13.2,11.1-18.6c9.8-10.9,24.1-17.3,38.8-17.3c66.2,0,132.5,0.3,197.6,1c65.2,0.5,129.3,1.3,191.4,1.8
	c15.5,0,31,0.3,46,0.3h5.2l5.7,0.3c1.6,0.3,2.8,0.5,4.4,0.8c1.6,0.3,3.1,0.8,4.4,1c5.9,1.8,11.6,4.7,16.6,8.5
	c9.8,7.5,16.6,18.9,18.9,30.8c0.3,1.6,0.5,3.1,0.5,4.4c0,1.6,0.3,2.8,0.3,4.7c0,3.6,0,7.2,0,10.9c0,7.2,0,14.5,0,21.5
	c0,16,0,32.1,0.3,47.6l-49.2,28.7l-1-102.4c0-3.9-3.1-7-7-7l0,0c-17.8-0.3-35.7-0.5-53.5-0.8l-53.5-0.8l-106.8-1l-106.8-0.3
	L130.9,67H77.3l0,0c-5.4,0-9.8,4.4-9.8,10.1l0.3,104.3v52l0.3,52l0.8,104.3c0.5,34.7,0.8,69.6,1.3,104.3l0,0c0,3.9,3.1,7,7,7
	l320.8,3.6l53.5,0.5l26.6,0.3c8.8,0,17.8,0,26.6,0h0.3l0,0c6.2,0,11.1-5.2,11.1-11.4l-2.3-214.2l48.6-28.5
	C563.4,255.3,563.4,259.5,563.7,263.6z M256.6,331.1c-8.5-11.1-17.1-22.2-25.6-33.1l-29.5-38l-7.5-9.3c-0.8-0.8-1-1.6-2.1-2.3
	c-0.8-1-1.6-1.8-2.6-2.8l-2.8-2.6c-1-0.8-2.1-1.6-3.1-2.3c-8.5-5.9-19.1-8.8-29.2-7.5c-5.2,0.5-10.3,2.1-15,4.4
	c-1.3,0.8-2.6,1.3-3.9,2.1c-0.8,0.5-1,0.5-1.3,1l-1.3,0.8l-0.5,0.5l-0.5,0.5l-0.3,0.3l-0.3,0.3l-1.6,1.3c-1,0.8-1.8,1.8-2.8,2.8
	c-7.2,7.8-11.4,17.8-11.6,28.5c0,5.2,0.8,10.6,2.3,15.5c0.3,1.3,1,2.6,1.6,3.6l0.8,1.8l1,1.8l1,1.8c0.5,0.8,0.5,0.8,1,1.3l0.8,1.3
	l0.3,0.3v0.3l0.5,0.5l0.5,0.5l15,18.9l30,37.5l30,37.5l7.5,9.3l3.9,4.7c1.6,1.8,3.4,3.9,5.4,5.7c4.1,3.6,8.8,6.5,13.7,8.3
	c2.6,1,5.2,1.6,7.8,2.1c1.3,0.3,2.6,0.5,4.1,0.5h1c0.5,0,0.8,0,1,0h1.6h0.3c7.5,0,15.3-2.1,21.7-5.7l14.7-8.5l29.2-17.1l58.7-34.1
	l117.4-68.3l7.5-4.4l-2.1,192.2c-5.2,0-10.3,0-15.5,0l-26.6,0.3l-53.5,0.5L291,484.8l-206.7,2.3c0.5-32.3,0.8-64.7,1.3-97l0.8-104.3
	l0.3-52v-52l0.3-94.2h43.5l53.5-0.3l106.8-0.3l106.8-1l53.5-0.8c15.5-0.3,30.8-0.5,46.3-0.8l-1,105l-12.4,7.2l-116.9,69.1
	L256.6,331.1z M698.7,138.7c-0.8,3.9-2.3,7.5-4.9,10.6c-1.3,1.6-2.6,2.8-4.1,3.9c-0.8,0.5-1.6,1-2.6,1.6l-3.6,2.1L654,173.6
	l-58.7,33.9l-117.4,68.3l-117.4,68l-58.7,33.9l-29.5,17.1l-14.5,8.3c-3.4,1.8-7,2.8-10.6,2.8h-1.3c-0.3,0-0.5,0-0.5,0H245
	c-0.5,0-1.3-0.3-1.8-0.3c-1.3-0.3-2.6-0.5-3.9-1c-2.6-0.8-4.7-2.3-6.7-3.9c-1-1-1.8-1.8-2.8-2.8l-3.9-4.7l-7.5-9.3l-30.3-37.3
	l-30.8-37.5L142,290.5l-0.5-0.5l-0.3-0.3l-0.8-1.3c-0.3-0.3-0.8-0.8-0.8-1l-0.3-0.8l-0.5-0.8l-0.5-1c-0.3-0.5-0.5-1.3-0.8-1.8
	c-1-2.6-1.6-5.2-1.6-8c0-5.4,2.1-11.1,5.7-15.3c0.5-0.5,1-1,1.6-1.6l0.8-0.8l0.3-0.3l0,0l0,0l0.3-0.3l1.3-0.8c0.3-0.3,0.8-0.8,1-0.8
	c0.5-0.3,1-0.5,1.6-0.8c2.6-1.3,5.2-2.1,8-2.6c5.7-0.8,11.6,0.5,16.3,3.9c0.5,0.5,1.3,0.8,1.8,1.3l1.6,1.3l1.6,1.6
	c0.5,0.5,1.3,1.6,1.8,2.1l7.8,9.3l31,36.7c10.3,12.2,20.7,24.6,31,36.7l0,0l0,0c2.1,2.6,5.9,3.4,9.1,1.6l118-67.3l118-67.3
	l117.7-67.5l29.5-16.8l14.7-8.5l7.2-4.1l0.5-0.3l0,0l0,0l1-0.5l1.8-1c0.3,0,0.8-0.3,1-0.3c0.3-0.3,0.8-0.3,1.3-0.5
	c7.5-2.3,16.3-0.5,22,4.9c2.8,2.6,5.2,5.9,6.5,9.8C699,130.6,699.2,134.8,698.7,138.7z"/>
</svg>
