<?xml version="1.0" encoding="utf-8"?>
<!-- Generator: Adobe Illustrator 22.0.0, SVG Export Plug-In . SVG Version: 6.00 Build 0)  -->
<svg version="1.1" id="Layer_1" xmlns="http://www.w3.org/2000/svg" xmlns:xlink="http://www.w3.org/1999/xlink" x="0px" y="0px"
	 viewBox="0 0 720 570.9" style="enable-background:new 0 0 720 570.9;" xml:space="preserve">
<style type="text/css">
	.st0{fill:#7E4E8C;}
	.st1{fill:#9C6BAD;}
</style>
<g id="XMLID_3_">
	<path id="XMLID_188_" d="M717.3,120.1l-1.3-2.8l-0.3-0.8l-0.3-0.5l-0.5-1l-0.5-1l-0.3-0.5v-0.3c-0.5-1-0.3-0.5-0.5-0.8l-1.6-2.3
		c-1-1.6-2.3-2.8-3.4-4.4c-1.3-1.3-2.6-2.6-3.9-3.9c-11.1-9.8-27.4-13.2-41.4-8.8c-1.8,0.5-3.9,1.3-5.7,2.1l-1.8,1l-1,0.5l-0.8,0.5
		l-0.5,0.3l-7.2,4.4l-14.8,8.5l-29.2,17.1L582.3,139c0-11.9,0-24.1,0.3-36.2c0-7.2,0-14.2,0-21.5c0-3.6,0-7.2,0-10.9
		c0-2.1-0.3-4.1-0.3-6.2s-0.5-4.1-0.8-6.2c-2.8-16.8-12.2-32.6-26.1-43.2c-7-5.4-14.8-9.3-23.3-11.9c-2.1-0.5-4.1-1.3-6.5-1.6
		c-2.3-0.3-4.9-0.8-7-1L512.9,0h-6.2c-15.3,0-30.5,0.3-46.1,0.3c-62.1,0.3-126.3,1.3-191.5,1.8c-65.2,0.8-131.5,1-197.7,1
		c-18.6-0.3-37,8-49.4,21.5c-6.2,6.7-11.1,14.8-14.2,23.5c-1.6,4.4-2.6,8.8-3.4,13.7c0,0.5-0.3,1.3-0.3,1.8v1.6l-0.3,3.1v0.8v1v4.7
		c0,33.1-0.5,65.7-0.8,98.6C2.3,238.6,1.8,302.8,1,364.9c-0.3,31.1-0.5,61.6-0.8,91.6C0,471.5,0,486.2,0,501
		c0,8.5,1.8,17.3,4.9,25.4c3.1,8,7.8,15.3,13.5,21.5c5.7,6.2,12.4,11.4,19.7,15.3l5.7,2.6c2.1,0.8,3.9,1.3,6,2.1
		c3.9,1,7.8,2.1,12.4,2.6c1,0.3,2.3,0.3,3.1,0.5h2.6h2.6h0.8c1.3,0,0.8,0,1.3,0h1.3c3.4,0,6.7,0,10.4,0c6.7,0,13.7,0,20.2-0.3
		c26.9-0.3,52.8-0.5,77.6-0.8c49.7-0.5,95.2-1,135.6-1.6c40.4-0.5,75.6-0.8,104.5-0.8c58-0.3,91.1-0.5,91.1-0.5s2.3,0,6.7-0.3
		c4.4-0.8,11.1-1.6,19.1-4.9s17.3-9.3,25.4-18.9c3.9-4.9,7.8-10.6,10.6-17.1c0.5-1.8,1.3-3.4,1.8-5.2c0.5-1.8,1-3.6,1.6-5.4
		c0.5-1.8,0.8-3.9,1-6c0.3-1,0.3-2.1,0.5-3.1c0-0.8,0-1.8,0-2.6s0-1.8,0.3-2.8v-1v-2.1c0-1.8,0-3.6,0-5.7c0-3.9,0-7.8,0-11.6
		c0-8,0-16.3,0-25.1c0-17.6,0.3-36.5,0.3-56.7c0.3-40.4,0.8-85.9,1-135.6c0-7.5,0.3-15.3,0.3-23l24.6-14.2l58.7-34.2l29.2-17.1
		l3.6-2.1c1.3-0.8,3.1-2.1,4.7-3.1c2.8-2.3,5.7-4.9,8-7.8c4.7-5.7,7.8-12.9,9.1-20.2C720.4,134.6,719.9,127.1,717.3,120.1z
		 M368.2,265.5l-111.5,66c-8.5-11.1-17.1-22.3-25.6-33.1l-29.5-38.3l-7.5-9.3c-0.8-0.8-1-1.6-2.1-2.6c-0.8-1-1.6-2.1-2.6-2.8
		l-2.8-2.6c-1-0.8-2.1-1.6-3.1-2.3c-8.5-6-19.1-8.8-29.2-7.5c-5.2,0.5-10.4,2.1-15,4.4c-1.3,0.8-2.6,1.3-3.9,2.1
		c-0.8,0.5-1,0.8-1.3,1l-1.3,0.8l-0.5,0.5l-0.5,0.5l-0.5,0.5l-1.6,1.3c-1,0.8-1.8,1.8-2.8,2.8c-7.2,7.8-11.4,17.9-11.6,28.5
		c0,5.2,0.8,10.6,2.6,15.5c0.3,1.3,1,2.6,1.6,3.6l0.8,1.8l1,2.1l1,1.8c0.5,0.8,0.5,0.8,1,1.3l0.8,1.3l0.3,0.3v0.3l0.5,0.5l0.5,0.5
		l15,18.9l30,37.5l30.3,37.5l7.5,9.3l3.9,4.7c1.6,2.1,3.4,3.9,5.4,5.7c4.1,3.6,8.8,6.5,13.7,8.3c2.6,1,5.2,1.6,7.8,2.1
		c1.3,0.3,2.6,0.5,4.1,0.5h1c0.3,0,0.8,0,1,0h1.6h0.3c7.5,0,15.3-2.1,21.7-5.7l14.8-8.5l29.2-17.1l58.7-34.2L488.6,295l7.5-4.4
		L494,482.9c-5.2,0-10.4,0-15.5,0l-26.7,0.3l-53.6,0.5l-106.9,1L84.6,487c0.5-32.3,0.8-64.7,1.3-97l0.8-104.3l0.5-52v-52.3l0.3-94.2
		h43.5l53.6-0.3l106.9-0.3l106.9-1l53.6-0.8c15.5-0.3,30.8-0.5,46.3-0.8l-1,105.1l-12.4,7.2L368.2,265.5z"/>
	<path id="XMLID_28_" class="st0" d="M565.4,498.4c0-1.8,0-3.6,0-5.7c0-3.9,0-7.8,0-11.6c0-8,0-16.3,0-25.1
		c0-17.6-0.3-36.5-0.5-56.7c-0.3-40.4-0.8-85.9-1-135.6c0-4.1,0-8.3,0-12.4l-48.7,28.5l2.3,214.3c0,6.2-4.9,11.4-11.1,11.4l0,0h-0.3
		c-8.8,0-17.9,0-26.7,0l-26.7-0.3l-53.6-0.5L78.4,501c-3.9,0-7-3.1-7-7l0,0c-0.5-34.7-1-69.6-1.3-104.3l-0.8-104.3l-0.3-52v-52
		L68.8,77.1c0-5.4,4.4-9.8,9.8-10.1l0,0h53.6l53.6,0.3l106.9,0.3l106.9,1l53.6,0.8c17.9,0.3,35.7,0.5,53.6,0.8l0,0c3.9,0,7,3.1,7,7
		l1,102.5l49.2-28.7c0-15.5,0-31.6-0.3-47.6c0-7.2,0-14.2,0-21.5c0-3.6,0-7.2,0-10.9c0-1.8-0.3-3.1-0.3-4.7c0-1.6-0.5-3.1-0.5-4.4
		c-2.1-11.9-8.8-23.3-18.9-30.8c-4.9-3.9-10.6-6.7-16.6-8.5c-1.6-0.3-3.1-0.8-4.4-1c-1.6-0.3-2.6-0.5-4.4-0.8l-5.7-0.3h-5.2
		c-15.3,0-30.5-0.3-46.1-0.3c-62.1-0.3-126.3-1.3-191.5-1.8c-65.2-0.8-131.5-1-197.7-1c-14.8,0-29,6.5-38.8,17.3
		c-4.9,5.4-8.8,11.6-11.1,18.6c-1.3,3.4-2.1,7-2.3,10.4c0,0.5-0.3,0.8-0.3,1.3v1.6l-0.3,3.9c0,0.3,0,0.3,0,0.3l0,0v1.6v3.1
		c0,33.1,0.3,66,0.8,98.6c0.8,65.2,1.3,129.4,2.1,191.5c0.3,31.1,0.5,61.6,0.8,91.6c0.3,15,0.3,29.8,0.5,44.3
		c0,11.9,4.7,23.3,12.4,32.1c3.9,4.4,8.3,8,13.5,10.9l3.9,1.8l3.9,1.6c2.6,0.8,5.4,1.6,8,1.8c0.5,0,1.3,0.3,1.8,0.3l2.6,0.3l2.6,0.3
		H73h0.3h1.3c3.4,0,6.7,0,10.4,0c6.7,0,13.5,0.3,20.2,0.3c26.9,0.3,52.8,0.5,77.6,0.8c49.7,0.5,95.2,1,135.6,1.6
		c40.4,0.5,75.6,0.8,104.5,0.8c58,0.3,91.1,0.3,91.1,0.3s1.8,0,5.4-0.3c3.4-0.5,8.8-1,15-3.9c6.2-2.6,13.7-7.2,20.2-14.8
		c3.1-3.9,6-8.3,8.3-13.7c0.5-1.3,1-2.6,1.6-4.1c0.5-1.3,0.8-2.8,1.3-4.4c0.5-1.6,0.5-2.8,0.8-4.4c0-0.8,0.3-1.3,0.3-2.1
		s0-1.8,0-2.6s0-1.8,0-2.8v-0.3l0,0v-0.8L565.4,498.4z"/>
	<path id="XMLID_29_" class="st1" d="M691.5,117.5c-5.7-5.2-14.5-7.2-22-4.9c-0.5,0-0.8,0.3-1.3,0.5c-0.3,0.3-0.8,0.3-1,0.3l-1.8,1
		l-1,0.5l0,0l0,0l-0.5,0.3l-7.2,4.1l-14.8,8.5l-29.5,16.8l-117.7,67.5l-118,67.3l-118,67.3c-3.1,1.8-7,1-9.1-1.6l0,0l0,0
		c-10.4-12.2-20.7-24.3-31.1-36.7l-31.1-36.7l-7.8-9.3c-0.5-0.8-1.3-1.6-1.8-2.1l-1.6-1.6l-1.6-1.3c-0.5-0.5-1.3-0.8-1.8-1.3
		c-4.7-3.1-10.6-4.4-16.3-3.9c-2.8,0.3-5.4,1.3-8,2.6c-0.5,0.3-1,0.5-1.6,0.8c-0.3,0-0.8,0.5-1,0.8l-1.3,0.8l-0.3,0.3l0,0l0,0
		l-0.3,0.3l-0.8,0.8c-0.5,0.5-1,1-1.6,1.6c-3.6,4.1-5.7,9.6-5.7,15.3c0,2.8,0.5,5.4,1.6,8c0.3,0.8,0.5,1.3,0.8,1.8l0.5,1l0.5,0.8
		l0.3,0.8c0,0.3,0.5,0.8,0.8,1l0.8,1.3l0.3,0.3l0.5,0.5l15.3,18.6l30.5,37.3l30.3,37.3l7.5,9.3l3.9,4.7c1,1,1.8,2.1,2.8,2.8
		c2.1,1.8,4.4,3.1,6.7,3.9c1.3,0.5,2.6,0.8,3.9,1c0.5,0,1.3,0.3,1.8,0.3h0.3c0,0,0.3,0,0.5,0h1.3c3.6,0,7.5-1,10.6-2.8l14.5-8.3
		l29.5-17.1l58.7-33.9l117.5-68.1l117.5-68.1l58.7-33.9l29.5-16.8l3.6-2.1c1-0.8,1.8-1,2.6-1.6c1.6-1.3,3.1-2.6,4.1-3.9
		c2.6-2.8,4.1-6.7,4.9-10.6c0.5-3.9,0.3-8-1-11.4C696.6,123.4,694.3,120.1,691.5,117.5z"/>
</g>
</svg>
