<?xml version="1.0" encoding="utf-8"?>
<!-- Generator: Adobe Illustrator 22.0.0, SVG Export Plug-In . SVG Version: 6.00 Build 0)  -->
<svg version="1.1" id="Layer_1" xmlns="http://www.w3.org/2000/svg" xmlns:xlink="http://www.w3.org/1999/xlink" x="0px" y="0px"
	 viewBox="0 0 720 568.7" style="enable-background:new 0 0 720 568.7;" xml:space="preserve">
<g id="XMLID_51_">
	<path id="XMLID_53_" d="M509.9,499.6H69.1V69.1h441.1V171l68.8-40.1V62.1C579,27.9,551.3,0,516.9,0H62.1C27.9,0,0,27.7,0,62.1
		v444.5c0,34.2,27.7,62.1,62.1,62.1h454.8c34.2,0,62.1-27.7,62.1-62.1V250.4l-68.8,40.1v209H509.9z"/>
	<path id="XMLID_168_" d="M715.3,111.5c-9.6-16.6-30.5-22-47.1-12.4l-417,242.4l-71.7-88.7c-11.9-14.7-33.6-17.1-48.4-5.2
		c-14.7,11.9-17.1,33.6-5.2,48.4l90.3,111.8c6.7,8.3,16.8,12.7,26.9,12.7c6,0,11.9-1.6,17.3-4.7l442.4-257.2
		C719.2,149,724.9,127.8,715.3,111.5z"/>
</g>
</svg>
