  0
SECTION
  2
HEADER
  9
$ACADVER
  1
AC1024
  9
$ACADMAINTVER
 70
     6
  9
$DWGCODEPAGE
  3
ANSI_1252
  9
$INSBASE
 10
0.0
 20
0.0
 30
0.0
  9
$EXTMIN
 10
1.000000000000000E+20
 20
1.000000000000000E+20
 30
1.000000000000000E+20
  9
$EXTMAX
 10
-1.000000000000000E+20
 20
-1.000000000000000E+20
 30
-1.000000000000000E+20
  9
$LIMMIN
 10
0.0
 20
0.0
  9
$LIMMAX
 10
12.0
 20
9.0
  9
$ORTHOMODE
 70
     0
  9
$REGENMODE
 70
     1
  9
$FILLMODE
 70
     1
  9
$QTEXTMODE
 70
     0
  9
$MIRRTEXT
 70
     1
  9
$LTSCALE
 40
1.0
  9
$ATTMODE
 70
     1
  9
$TEXTSIZE
 40
0.2
  9
$TRACEWID
 40
0.05
  9
$TEXTSTYLE
  7
Standard
  9
$CLAYER
  8
0
  9
$CELTYPE
  6
ByLayer
  9
$CECOLOR
 62
   256
  9
$CELTSCALE
 40
1.0
  9
$DISPSILH
 70
     0
  9
$DIMSCALE
 40
1.0
  9
$DIMASZ
 40
0.18
  9
$DIMEXO
 40
0.0625
  9
$DIMDLI
 40
0.38
  9
$DIMRND
 40
0.0
  9
$DIMDLE
 40
0.0
  9
$DIMEXE
 40
0.18
  9
$DIMTP
 40
0.0
  9
$DIMTM
 40
0.0
  9
$DIMTXT
 40
0.18
  9
$DIMCEN
 40
0.09
  9
$DIMTSZ
 40
0.0
  9
$DIMTOL
 70
     0
  9
$DIMLIM
 70
     0
  9
$DIMTIH
 70
     1
  9
$DIMTOH
 70
     1
  9
$DIMSE1
 70
     0
  9
$DIMSE2
 70
     0
  9
$DIMTAD
 70
     0
  9
$DIMZIN
 70
     0
  9
$DIMBLK
  1

  9
$DIMASO
 70
     1
  9
$DIMSHO
 70
     1
  9
$DIMPOST
  1

  9
$DIMAPOST
  1

  9
$DIMALT
 70
     0
  9
$DIMALTD
 70
     2
  9
$DIMALTF
 40
25.4
  9
$DIMLFAC
 40
1.0
  9
$DIMTOFL
 70
     0
  9
$DIMTVP
 40
0.0
  9
$DIMTIX
 70
     0
  9
$DIMSOXD
 70
     0
  9
$DIMSAH
 70
     0
  9
$DIMBLK1
  1

  9
$DIMBLK2
  1

  9
$DIMSTYLE
  2
Standard
  9
$DIMCLRD
 70
     0
  9
$DIMCLRE
 70
     0
  9
$DIMCLRT
 70
     0
  9
$DIMTFAC
 40
1.0
  9
$DIMGAP
 40
0.09
  9
$DIMJUST
 70
     0
  9
$DIMSD1
 70
     0
  9
$DIMSD2
 70
     0
  9
$DIMTOLJ
 70
     1
  9
$DIMTZIN
 70
     0
  9
$DIMALTZ
 70
     0
  9
$DIMALTTZ
 70
     0
  9
$DIMUPT
 70
     0
  9
$DIMDEC
 70
     4
  9
$DIMTDEC
 70
     4
  9
$DIMALTU
 70
     2
  9
$DIMALTTD
 70
     2
  9
$DIMTXSTY
  7
Standard
  9
$DIMAUNIT
 70
     0
  9
$DIMADEC
 70
     0
  9
$DIMALTRND
 40
0.0
  9
$DIMAZIN
 70
     0
  9
$DIMDSEP
 70
    46
  9
$DIMATFIT
 70
     3
  9
$DIMFRAC
 70
     0
  9
$DIMLDRBLK
  1

  9
$DIMLUNIT
 70
     2
  9
$DIMLWD
 70
    -2
  9
$DIMLWE
 70
    -2
  9
$DIMTMOVE
 70
     0
  9
$DIMFXL
 40
1.0
  9
$DIMFXLON
 70
     0
  9
$DIMJOGANG
 40
0.7853981633974483
  9
$DIMTFILL
 70
     0
  9
$DIMTFILLCLR
 70
     0
  9
$DIMARCSYM
 70
     0
  9
$DIMLTYPE
  6

  9
$DIMLTEX1
  6

  9
$DIMLTEX2
  6

  9
$DIMTXTDIRECTION
 70
     0
  9
$LUNITS
 70
     2
  9
$LUPREC
 70
     4
  9
$SKETCHINC
 40
0.1
  9
$FILLETRAD
 40
0.5
  9
$AUNITS
 70
     0
  9
$AUPREC
 70
     0
  9
$MENU
  1
.
  9
$ELEVATION
 40
0.0
  9
$PELEVATION
 40
0.0
  9
$THICKNESS
 40
0.0
  9
$LIMCHECK
 70
     0
  9
$CHAMFERA
 40
0.5
  9
$CHAMFERB
 40
0.5
  9
$CHAMFERC
 40
1.0
  9
$CHAMFERD
 40
0.0
  9
$SKPOLY
 70
     0
  9
$TDCREATE
 40
2459543.541501424
  9
$TDUCREATE
 40
2459543.291501424
  9
$TDUPDATE
 40
2459543.541501447
  9
$TDUUPDATE
 40
2459543.291501447
  9
$TDINDWG
 40
0.0000000116
  9
$TDUSRTIMER
 40
0.0000000116
  9
$USRTIMER
 70
     1
  9
$ANGBASE
 50
0.0
  9
$ANGDIR
 70
     0
  9
$PDMODE
 70
     0
  9
$PDSIZE
 40
0.0
  9
$PLINEWID
 40
0.0
  9
$SPLFRAME
 70
     0
  9
$SPLINETYPE
 70
     6
  9
$SPLINESEGS
 70
     8
  9
$HANDSEED
  5
48
  9
$SURFTAB1
 70
     6
  9
$SURFTAB2
 70
     6
  9
$SURFTYPE
 70
     6
  9
$SURFU
 70
     6
  9
$SURFV
 70
     6
  9
$UCSBASE
  2

  9
$UCSNAME
  2

  9
$UCSORG
 10
0.0
 20
0.0
 30
0.0
  9
$UCSXDIR
 10
1.0
 20
0.0
 30
0.0
  9
$UCSYDIR
 10
0.0
 20
1.0
 30
0.0
  9
$UCSORTHOREF
  2

  9
$UCSORTHOVIEW
 70
     0
  9
$UCSORGTOP
 10
0.0
 20
0.0
 30
0.0
  9
$UCSORGBOTTOM
 10
0.0
 20
0.0
 30
0.0
  9
$UCSORGLEFT
 10
0.0
 20
0.0
 30
0.0
  9
$UCSORGRIGHT
 10
0.0
 20
0.0
 30
0.0
  9
$UCSORGFRONT
 10
0.0
 20
0.0
 30
0.0
  9
$UCSORGBACK
 10
0.0
 20
0.0
 30
0.0
  9
$PUCSBASE
  2

  9
$PUCSNAME
  2

  9
$PUCSORG
 10
0.0
 20
0.0
 30
0.0
  9
$PUCSXDIR
 10
1.0
 20
0.0
 30
0.0
  9
$PUCSYDIR
 10
0.0
 20
1.0
 30
0.0
  9
$PUCSORTHOREF
  2

  9
$PUCSORTHOVIEW
 70
     0
  9
$PUCSORGTOP
 10
0.0
 20
0.0
 30
0.0
  9
$PUCSORGBOTTOM
 10
0.0
 20
0.0
 30
0.0
  9
$PUCSORGLEFT
 10
0.0
 20
0.0
 30
0.0
  9
$PUCSORGRIGHT
 10
0.0
 20
0.0
 30
0.0
  9
$PUCSORGFRONT
 10
0.0
 20
0.0
 30
0.0
  9
$PUCSORGBACK
 10
0.0
 20
0.0
 30
0.0
  9
$USERI1
 70
     0
  9
$USERI2
 70
     0
  9
$USERI3
 70
     0
  9
$USERI4
 70
     0
  9
$USERI5
 70
     0
  9
$USERR1
 40
0.0
  9
$USERR2
 40
0.0
  9
$USERR3
 40
0.0
  9
$USERR4
 40
0.0
  9
$USERR5
 40
0.0
  9
$WORLDVIEW
 70
     1
  9
$SHADEDGE
 70
     3
  9
$SHADEDIF
 70
    70
  9
$TILEMODE
 70
     1
  9
$MAXACTVP
 70
    64
  9
$PINSBASE
 10
0.0
 20
0.0
 30
0.0
  9
$PLIMCHECK
 70
     0
  9
$PEXTMIN
 10
1.000000000000000E+20
 20
1.000000000000000E+20
 30
1.000000000000000E+20
  9
$PEXTMAX
 10
-1.000000000000000E+20
 20
-1.000000000000000E+20
 30
-1.000000000000000E+20
  9
$PLIMMIN
 10
0.0
 20
0.0
  9
$PLIMMAX
 10
12.0
 20
9.0
  9
$UNITMODE
 70
     0
  9
$VISRETAIN
 70
     1
  9
$PLINEGEN
 70
     0
  9
$PSLTSCALE
 70
     1
  9
$TREEDEPTH
 70
  3020
  9
$CMLSTYLE
  2
Standard
  9
$CMLJUST
 70
     0
  9
$CMLSCALE
 40
1.0
  9
$PROXYGRAPHICS
 70
     1
  9
$MEASUREMENT
 70
     0
  9
$CELWEIGHT
370
    -1
  9
$ENDCAPS
280
     0
  9
$JOINSTYLE
280
     0
  9
$LWDISPLAY
290
     1
  9
$INSUNITS
 70
     1
  9
$HYPERLINKBASE
  1

  9
$STYLESHEET
  1

  9
$XEDIT
290
     1
  9
$CEPSNTYPE
380
     0
  9
$PSTYLEMODE
290
     1
  9
$FINGERPRINTGUID
  2
{7B41811E-9A88-4728-BD35-F77767BF3CF4}
  9
$VERSIONGUID
  2
{FAEB1C32-E019-11D5-929B-00C0DF256EC4}
  9
$EXTNAMES
290
     1
  9
$PSVPSCALE
 40
0.0
  9
$OLESTARTUP
290
     0
  9
$SORTENTS
280
   127
  9
$INDEXCTL
280
     0
  9
$HIDETEXT
280
     1
  9
$XCLIPFRAME
280
     2
  9
$HALOGAP
280
     0
  9
$OBSCOLOR
 70
   257
  9
$OBSLTYPE
280
     0
  9
$INTERSECTIONDISPLAY
280
     0
  9
$INTERSECTIONCOLOR
 70
   257
  9
$DIMASSOC
280
     2
  9
$PROJECTNAME
  1

  9
$CAMERADISPLAY
290
     0
  9
$LENSLENGTH
 40
50.0
  9
$CAMERAHEIGHT
 40
0.0
  9
$STEPSPERSEC
 40
2.0
  9
$STEPSIZE
 40
6.0
  9
$3DDWFPREC
 40
2.0
  9
$PSOLWIDTH
 40
0.25
  9
$PSOLHEIGHT
 40
4.0
  9
$LOFTANG1
 40
1.570796326794897
  9
$LOFTANG2
 40
1.570796326794897
  9
$LOFTMAG1
 40
0.0
  9
$LOFTMAG2
 40
0.0
  9
$LOFTPARAM
 70
     7
  9
$LOFTNORMALS
280
     1
  9
$LATITUDE
 40
37.795
  9
$LONGITUDE
 40
-122.394
  9
$NORTHDIRECTION
 40
0.0
  9
$TIMEZONE
 70
 -8000
  9
$LIGHTGLYPHDISPLAY
280
     1
  9
$TILEMODELIGHTSYNCH
280
     1
  9
$CMATERIAL
347
3C
  9
$SOLIDHIST
280
     1
  9
$SHOWHIST
280
     1
  9
$DWFFRAME
280
     2
  9
$DGNFRAME
280
     2
  9
$REALWORLDSCALE
290
     1
  9
$INTERFERECOLOR
 62
   256
  9
$CSHADOW
280
     0
  9
$SHADOWPLANELOCATION
 40
0.0
  0
ENDSEC
  0
SECTION
  2
CLASSES
  0
CLASS
  1
ACDBDICTIONARYWDFLT
  2
AcDbDictionaryWithDefault
  3
ObjectDBX Classes
 90
        0
 91
        4
280
     0
281
     0
  0
CLASS
  1
VISUALSTYLE
  2
AcDbVisualStyle
  3
ObjectDBX Classes
 90
     4095
 91
        4
280
     0
281
     0
  0
CLASS
  1
MATERIAL
  2
AcDbMaterial
  3
ObjectDBX Classes
 90
     1153
 91
        4
280
     0
281
     0
  0
CLASS
  1
SUN
  2
AcDbSun
  3
SCENEOE
 90
     1024
 91
        4
280
     0
281
     0
  0
ENDSEC
  0
SECTION
  2
TABLES
  0
TABLE
  2
VPORT
  5
8
330
0
100
AcDbSymbolTable
 70
     1
  0
VPORT
  5
29
330
8
100
AcDbSymbolTableRecord
100
AcDbViewportTableRecord
  2
*Active
 70
     0
 10
0.0
 20
0.0
 11
1.0
 21
1.0
 12
0.0
 22
0.0
 13
0.0
 23
0.0
 14
0.5
 24
0.5
 15
0.5
 25
0.5
 16
0.0
 26
0.0
 36
1.0
 17
18.82499715660788
 27
-25.16221337917763
 37
0.0
 40
7.926041404099376
 41
1.261663860956873
 42
50.0
 43
0.0
 44
0.0
 50
0.0
 51
0.0
 71
     0
 72
   100
 73
     1
 74
     3
 75
     0
 76
     0
 77
     0
 78
     0
281
     0
 65
     1
110
0.0
120
0.0
130
0.0
111
1.0
121
0.0
131
0.0
112
0.0
122
1.0
132
0.0
 79
     0
146
0.0
 60
     3
 61
     5
292
     1
282
     1
141
0.0
142
0.0
 63
   250
361
3F
  0
ENDTAB
  0
TABLE
  2
LTYPE
  5
5
330
0
100
AcDbSymbolTable
 70
     1
  0
LTYPE
  5
14
330
5
100
AcDbSymbolTableRecord
100
AcDbLinetypeTableRecord
  2
ByBlock
 70
     0
  3

 72
    65
 73
     0
 40
0.0
  0
LTYPE
  5
15
330
5
100
AcDbSymbolTableRecord
100
AcDbLinetypeTableRecord
  2
ByLayer
 70
     0
  3

 72
    65
 73
     0
 40
0.0
  0
LTYPE
  5
16
330
5
100
AcDbSymbolTableRecord
100
AcDbLinetypeTableRecord
  2
Continuous
 70
     0
  3
Solid line
 72
    65
 73
     0
 40
0.0
  0
ENDTAB
  0
TABLE
  2
LAYER
  5
2
330
0
100
AcDbSymbolTable
 70
     2
  0
LAYER
  5
10
330
2
100
AcDbSymbolTableRecord
100
AcDbLayerTableRecord
  2
0
 70
     0
 62
     7
  6
Continuous
370
    -3
390
F
347
3E
  0
LAYER
  5
40
330
2
100
AcDbSymbolTableRecord
100
AcDbLayerTableRecord
  2
Layer 1
 70
     0
 62
     7
  6
Continuous
370
    -3
390
F
347
3E
  0
ENDTAB
  0
TABLE
  2
STYLE
  5
3
330
0
100
AcDbSymbolTable
 70
     1
  0
STYLE
  5
11
330
3
100
AcDbSymbolTableRecord
100
AcDbTextStyleTableRecord
  2
Standard
 70
     0
 40
0.0
 41
1.0
 50
0.0
 71
     0
 42
0.2
  3
txt
  4

  0
ENDTAB
  0
TABLE
  2
VIEW
  5
6
330
0
100
AcDbSymbolTable
 70
     0
  0
ENDTAB
  0
TABLE
  2
UCS
  5
7
330
0
100
AcDbSymbolTable
 70
     0
  0
ENDTAB
  0
TABLE
  2
APPID
  5
9
330
0
100
AcDbSymbolTable
 70
     1
  0
APPID
  5
12
330
9
100
AcDbSymbolTableRecord
100
AcDbRegAppTableRecord
  2
ACAD
 70
     0
  0
ENDTAB
  0
TABLE
  2
DIMSTYLE
  5
A
330
0
100
AcDbSymbolTable
 70
     1
100
AcDbDimStyleTable
  0
DIMSTYLE
105
27
330
A
100
AcDbSymbolTableRecord
100
AcDbDimStyleTableRecord
  2
Standard
 70
     0
178
     0
340
11
  0
ENDTAB
  0
TABLE
  2
BLOCK_RECORD
  5
1
330
0
100
AcDbSymbolTable
 70
     1
  0
BLOCK_RECORD
  5
1F
330
1
100
AcDbSymbolTableRecord
100
AcDbBlockTableRecord
  2
*Model_Space
340
22
 70
     0
280
     1
281
     0
  0
BLOCK_RECORD
  5
1B
330
1
100
AcDbSymbolTableRecord
100
AcDbBlockTableRecord
  2
*Paper_Space
340
1E
 70
     0
280
     1
281
     0
  0
BLOCK_RECORD
  5
23
330
1
100
AcDbSymbolTableRecord
100
AcDbBlockTableRecord
  2
*Paper_Space0
340
26
 70
     0
280
     1
281
     0
  0
ENDTAB
  0
ENDSEC
  0
SECTION
  2
BLOCKS
  0
BLOCK
  5
20
330
1F
100
AcDbEntity
  8
0
100
AcDbBlockBegin
  2
*Model_Space
 70
     0
 10
0.0
 20
0.0
 30
0.0
  3
*Model_Space
  1

  0
ENDBLK
  5
21
330
1F
100
AcDbEntity
  8
0
100
AcDbBlockEnd
  0
BLOCK
  5
1C
330
1B
100
AcDbEntity
 67
     1
  8
0
100
AcDbBlockBegin
  2
*Paper_Space
 70
     0
 10
0.0
 20
0.0
 30
0.0
  3
*Paper_Space
  1

  0
ENDBLK
  5
1D
330
1B
100
AcDbEntity
 67
     1
  8
0
100
AcDbBlockEnd
  0
BLOCK
  5
24
330
23
100
AcDbEntity
  8
0
100
AcDbBlockBegin
  2
*Paper_Space0
 70
     0
 10
0.0
 20
0.0
 30
0.0
  3
*Paper_Space0
  1

  0
ENDBLK
  5
25
330
23
100
AcDbEntity
  8
0
100
AcDbBlockEnd
  0
ENDSEC
  0
SECTION
  2
ENTITIES
  0
SPLINE
  5
41
330
1F
100
AcDbEntity
  8
Layer 1
370
     0
100
AcDbSpline
210
0.0
220
0.0
230
1.0
 70
    11
 71
     3
 72
   287
 73
   283
 74
     0
 42
0.0000000001
 43
0.0000000001
 12
1.0
 22
0.0
 32
0.0
 13
1.0
 23
0.0
 33
0.0
 40
0.0
 40
0.0
 40
0.0
 40
0.0
 40
1.0
 40
1.0
 40
1.0
 40
2.0
 40
2.0
 40
2.0
 40
3.0
 40
3.0
 40
3.0
 40
4.0
 40
4.0
 40
4.0
 40
5.0
 40
5.0
 40
5.0
 40
6.0
 40
6.0
 40
6.0
 40
7.0
 40
7.0
 40
7.0
 40
8.0
 40
8.0
 40
8.0
 40
9.0
 40
9.0
 40
9.0
 40
10.0
 40
10.0
 40
10.0
 40
11.0
 40
11.0
 40
11.0
 40
12.0
 40
12.0
 40
12.0
 40
13.0
 40
13.0
 40
13.0
 40
14.0
 40
14.0
 40
14.0
 40
15.0
 40
15.0
 40
15.0
 40
16.0
 40
16.0
 40
16.0
 40
17.0
 40
17.0
 40
17.0
 40
18.0
 40
18.0
 40
18.0
 40
19.0
 40
19.0
 40
19.0
 40
20.0
 40
20.0
 40
20.0
 40
21.0
 40
21.0
 40
21.0
 40
22.0
 40
22.0
 40
22.0
 40
23.0
 40
23.0
 40
23.0
 40
24.0
 40
24.0
 40
24.0
 40
25.0
 40
25.0
 40
25.0
 40
26.0
 40
26.0
 40
26.0
 40
27.0
 40
27.0
 40
27.0
 40
28.0
 40
28.0
 40
28.0
 40
29.0
 40
29.0
 40
29.0
 40
30.0
 40
30.0
 40
30.0
 40
31.0
 40
31.0
 40
31.0
 40
32.0
 40
32.0
 40
32.0
 40
33.0
 40
33.0
 40
33.0
 40
34.0
 40
34.0
 40
34.0
 40
35.0
 40
35.0
 40
35.0
 40
36.0
 40
36.0
 40
36.0
 40
37.0
 40
37.0
 40
37.0
 40
38.0
 40
38.0
 40
38.0
 40
39.0
 40
39.0
 40
39.0
 40
40.0
 40
40.0
 40
40.0
 40
41.0
 40
41.0
 40
41.0
 40
42.0
 40
42.0
 40
42.0
 40
43.0
 40
43.0
 40
43.0
 40
44.0
 40
44.0
 40
44.0
 40
45.0
 40
45.0
 40
45.0
 40
46.0
 40
46.0
 40
46.0
 40
47.0
 40
47.0
 40
47.0
 40
48.0
 40
48.0
 40
48.0
 40
49.0
 40
49.0
 40
49.0
 40
50.0
 40
50.0
 40
50.0
 40
51.0
 40
51.0
 40
51.0
 40
52.0
 40
52.0
 40
52.0
 40
53.0
 40
53.0
 40
53.0
 40
54.0
 40
54.0
 40
54.0
 40
55.0
 40
55.0
 40
55.0
 40
56.0
 40
56.0
 40
56.0
 40
57.0
 40
57.0
 40
57.0
 40
58.0
 40
58.0
 40
58.0
 40
59.0
 40
59.0
 40
59.0
 40
60.0
 40
60.0
 40
60.0
 40
61.0
 40
61.0
 40
61.0
 40
62.0
 40
62.0
 40
62.0
 40
63.0
 40
63.0
 40
63.0
 40
64.0
 40
64.0
 40
64.0
 40
65.0
 40
65.0
 40
65.0
 40
66.0
 40
66.0
 40
66.0
 40
67.0
 40
67.0
 40
67.0
 40
68.0
 40
68.0
 40
68.0
 40
69.0
 40
69.0
 40
69.0
 40
70.0
 40
70.0
 40
70.0
 40
71.0
 40
71.0
 40
71.0
 40
72.0
 40
72.0
 40
72.0
 40
73.0
 40
73.0
 40
73.0
 40
74.0
 40
74.0
 40
74.0
 40
75.0
 40
75.0
 40
75.0
 40
76.0
 40
76.0
 40
76.0
 40
77.0
 40
77.0
 40
77.0
 40
78.0
 40
78.0
 40
78.0
 40
79.0
 40
79.0
 40
79.0
 40
80.0
 40
80.0
 40
80.0
 40
81.0
 40
81.0
 40
81.0
 40
82.0
 40
82.0
 40
82.0
 40
83.0
 40
83.0
 40
83.0
 40
84.0
 40
84.0
 40
84.0
 40
85.0
 40
85.0
 40
85.0
 40
86.0
 40
86.0
 40
86.0
 40
87.0
 40
87.0
 40
87.0
 40
88.0
 40
88.0
 40
88.0
 40
89.0
 40
89.0
 40
89.0
 40
90.0
 40
90.0
 40
90.0
 40
91.0
 40
91.0
 40
91.0
 40
92.0
 40
92.0
 40
92.0
 40
93.0
 40
93.0
 40
93.0
 40
94.0
 40
94.0
 40
94.0
 40
94.0
 10
23.78464640080316
 20
-22.86631945452912
 30
0.0
 10
23.78464640080316
 20
-22.86631945452912
 30
0.0
 10
23.76668166432758
 20
-22.82679681498666
 30
0.0
 10
23.76668166432758
 20
-22.82679681498666
 30
0.0
 10
23.76668166432758
 20
-22.82679681498666
 30
0.0
 10
23.76308959421688
 20
-22.81601841169347
 30
0.0
 10
23.76308959421688
 20
-22.81601841169347
 30
0.0
 10
23.76308959421688
 20
-22.81601841169347
 30
0.0
 10
23.75949752410613
 20
-22.80883207851106
 30
0.0
 10
23.75949752410613
 20
-22.80883207851106
 30
0.0
 10
23.75949752410613
 20
-22.80883207851106
 30
0.0
 10
23.75231119092369
 20
-22.79446050862665
 30
0.0
 10
23.75231119092369
 20
-22.79446050862665
 30
0.0
 10
23.75231119092369
 20
-22.79446050862665
 30
0.0
 10
23.74512485774122
 20
-22.78008893874228
 30
0.0
 10
23.74512485774122
 20
-22.78008893874228
 30
0.0
 10
23.74512485774122
 20
-22.78008893874228
 30
0.0
 10
23.7415327876305
 20
-22.77290260555982
 30
0.0
 10
23.7415327876305
 20
-22.77290260555982
 30
0.0
 10
23.7415327876305
 20
-22.77290260555982
 30
0.0
 10
23.7415327876305
 20
-22.76930943896857
 30
0.0
 10
23.7415327876305
 20
-22.76930943896857
 30
0.0
 10
23.73434645444806
 20
-22.75493786908419
 30
0.0
 10
23.73794071751978
 20
-22.76212310578613
 30
0.0
 10
23.73434645444806
 20
-22.75853103567541
 30
0.0
 10
23.73434645444806
 20
-22.75853103567541
 30
0.0
 10
23.71278964786168
 20
-22.72619472931539
 30
0.0
 10
23.71278964786168
 20
-22.72619472931539
 30
0.0
 10
23.69841698149677
 20
-22.70463682624856
 30
0.0
 10
23.68045224502121
 20
-22.68667208977291
 30
0.0
 10
23.6660817716173
 20
-22.66511418670608
 30
0.0
 10
23.64811703514164
 20
-22.6471494502305
 30
0.0
 10
23.63015229866601
 20
-22.62918471375484
 30
0.0
 10
23.61218756219046
 20
-22.61121997727921
 30
0.0
 10
23.45769126709231
 20
-22.47468841865669
 30
0.0
 10
23.23133602609166
 20
-22.42797944593182
 30
0.0
 10
23.03731599497059
 20
-22.4890599885411
 30
0.0
 10
23.01216492531249
 20
-22.49624632172357
 30
0.0
 10
22.98342178554374
 20
-22.50702472501671
 30
0.0
 10
22.95827071588565
 20
-22.51780312830988
 30
0.0
 10
22.95827071588565
 20
-22.51780312830988
 30
0.0
 10
22.93311964622762
 20
-22.53217469819431
 30
0.0
 10
22.93311964622762
 20
-22.53217469819431
 30
0.0
 10
22.93311964622762
 20
-22.53217469819431
 30
0.0
 10
22.91874697986271
 20
-22.53936103137673
 30
0.0
 10
22.91874697986271
 20
-22.53936103137673
 30
0.0
 10
22.91874697986271
 20
-22.53936103137673
 30
0.0
 10
22.90437431349778
 20
-22.5465473645592
 30
0.0
 10
22.90437431349778
 20
-22.5465473645592
 30
0.0
 10
22.90437431349778
 20
-22.5465473645592
 30
0.0
 10
22.89718798031532
 20
-22.55014053115042
 30
0.0
 10
22.89718798031532
 20
-22.55014053115042
 30
0.0
 10
22.89718798031532
 20
-22.55014053115042
 30
0.0
 10
22.79658589464412
 20
-22.61122107375973
 30
0.0
 10
22.79658589464412
 20
-22.61122107375973
 30
0.0
 10
22.79658589464412
 20
-22.61122107375973
 30
0.0
 10
22.59178746022983
 20
-22.72978789590661
 30
0.0
 10
22.59178746022983
 20
-22.72978789590661
 30
0.0
 10
22.59178746022983
 20
-22.72978789590661
 30
0.0
 10
22.18578485447304
 20
-22.96692263668092
 30
0.0
 10
22.18578485447304
 20
-22.96692263668092
 30
0.0
 10
22.18578485447304
 20
-22.96692263668092
 30
0.0
 10
21.90553540404557
 20
-23.12860526496148
 30
0.0
 10
21.90553540404557
 20
-23.12860526496148
 30
0.0
 10
21.90553540404557
 20
-22.96332947008967
 30
0.0
 10
21.90553540404557
 20
-22.79446160510714
 30
0.0
 10
21.90912747415627
 20
-22.62559264364412
 30
0.0
 10
21.90912747415627
 20
-22.52499055797287
 30
0.0
 10
21.90912747415627
 20
-22.42798054241232
 30
0.0
 10
21.90912747415627
 20
-22.32737845674102
 30
0.0
 10
21.90912747415627
 20
-22.27707741390539
 30
0.0
 10
21.90912747415627
 20
-22.22677637106979
 30
0.0
 10
21.90912747415627
 20
-22.17647423175362
 30
0.0
 10
21.90912747415627
 20
-22.15132316209555
 30
0.0
 10
21.90553540404557
 20
-22.11898685573556
 30
0.0
 10
21.90553540404557
 20
-22.09024371596673
 30
0.0
 10
21.90553540404557
 20
-22.06150057619794
 30
0.0
 10
21.89834907086311
 20
-22.03275633994867
 30
0.0
 10
21.89475700075238
 20
-22.00401320017987
 30
0.0
 10
21.85523545769037
 20
-21.77047162599683
 30
0.0
 10
21.7258880392893
 20
-21.55130162169815
 30
0.0
 10
21.53186910464877
 20
-21.40399111154223
 30
0.0
 10
21.43485908908817
 20
-21.32853899904851
 30
0.0
 10
21.32707067023451
 20
-21.27464478962166
 30
0.0
 10
21.20850384808755
 20
-21.23871531667042
 30
0.0
 10
21.17976070831881
 20
-21.23152953172818
 30
0.0
 10
21.15101647206951
 20
-21.22434374678601
 30
0.0
 10
21.11868016570952
 20
-21.21715741360354
 30
0.0
 10
21.0863438593495
 20
-21.21356424701237
 30
0.0
 10
21.05041438639821
 20
-21.20637846207018
 30
0.0
 10
21.02167015014892
 20
-21.20278584371918
 30
0.0
 10
21.02167015014892
 20
-21.20278584371918
 30
0.0
 10
20.94262487106397
 20
-21.19919267712794
 30
0.0
 10
20.94262487106397
 20
-21.19919267712794
 30
0.0
 10
20.94262487106397
 20
-21.19919267712794
 30
0.0
 10
20.85639435527714
 20
-21.19919267712794
 30
0.0
 10
20.85639435527714
 20
-21.19919267712794
 30
0.0
 10
20.64441068416095
 20
-21.19919267712794
 30
0.0
 10
20.43242701304472
 20
-21.20278584371918
 30
0.0
 10
20.21685017533726
 20
-21.20278584371918
 30
0.0
 10
19.35454282450751
 20
-21.20637901031038
 30
0.0
 10
18.46349233390896
 20
-21.22075058019482
 30
0.0
 10
17.55806917694559
 20
-21.22793636513701
 30
0.0
 10
16.65264601998211
 20
-21.23871531667042
 30
0.0
 10
15.73285238961474
 20
-21.24230793502137
 30
0.0
 10
14.8130576627669
 20
-21.24230793502137
 30
0.0
 10
14.55436501892579
 20
-21.23871476843017
 30
0.0
 10
14.29926663815642
 20
-21.35368952046633
 30
0.0
 10
14.12680451010217
 20
-21.54052212192449
 30
0.0
 10
14.04057399431526
 20
-21.6339389708938
 30
0.0
 10
13.972308215004
 20
-21.74532055633876
 30
0.0
 10
13.92919240887035
 20
-21.86748054507686
 30
0.0
 10
13.90763450580347
 20
-21.92856108768617
 30
0.0
 10
13.89326293591906
 20
-21.98964053381496
 30
0.0
 10
13.88607660273662
 20
-22.05790631312624
 30
0.0
 10
13.88607660273662
 20
-22.06509264630871
 30
0.0
 10
13.88248343614542
 20
-22.07587104960185
 30
0.0
 10
13.88248343614542
 20
-22.08305738278432
 30
0.0
 10
13.88248343614542
 20
-22.08305738278432
 30
0.0
 10
13.88248343614542
 20
-22.10461528585114
 30
0.0
 10
13.88248343614542
 20
-22.10461528585114
 30
0.0
 10
13.88248343614542
 20
-22.10461528585114
 30
0.0
 10
13.87889026955418
 20
-22.14773109198485
 30
0.0
 10
13.87889026955418
 20
-22.14773109198485
 30
0.0
 10
13.87889026955418
 20
-22.14773109198485
 30
0.0
 10
13.87889026955418
 20
-22.15850949527801
 30
0.0
 10
13.87889026955418
 20
-22.15850949527801
 30
0.0
 10
13.87889026955418
 20
-22.15850949527801
 30
0.0
 10
13.87889026955418
 20
-22.1728810651624
 30
0.0
 10
13.87889026955418
 20
-22.1728810651624
 30
0.0
 10
13.87889026955418
 20
-22.1728810651624
 30
0.0
 10
13.87889026955418
 20
-22.19443896822923
 30
0.0
 10
13.87889026955418
 20
-22.19443896822923
 30
0.0
 10
13.87889026955418
 20
-22.19443896822923
 30
0.0
 10
13.87889026955418
 20
-22.23755477436293
 30
0.0
 10
13.87889026955418
 20
-22.23755477436293
 30
0.0
 10
13.87889026955418
 20
-22.69745158954662
 30
0.0
 10
13.87529710296296
 20
-23.15375633461953
 30
0.0
 10
13.86811186626101
 20
-23.60646791310127
 30
0.0
 10
13.85733346296787
 20
-24.51189107006472
 30
0.0
 10
13.8501471297854
 20
-25.40294156066327
 30
0.0
 10
13.83936872649221
 20
-26.26524891149299
 30
0.0
 10
13.83577555990099
 20
-26.6964025869079
 30
0.0
 10
13.83218239330977
 20
-27.12036992914035
 30
0.0
 10
13.82859032319905
 20
-27.5371520346708
 30
0.0
 10
13.82859032319905
 20
-27.74554253919579
 30
0.0
 10
13.82499715660785
 20
-27.95034097361005
 30
0.0
 10
13.82499715660785
 20
-28.15513940802432
 30
0.0
 10
13.82499715660785
 20
-28.27729939676247
 30
0.0
 10
13.85014822626587
 20
-28.39586731538988
 30
0.0
 10
13.89326293591906
 20
-28.50724780435429
 30
0.0
 10
13.93637874205276
 20
-28.61862938979922
 30
0.0
 10
14.0010513547728
 20
-28.7192314754705
 30
0.0
 10
14.08009663385774
 20
-28.80546199125739
 30
0.0
 10
14.15914191294264
 20
-28.89169250704425
 30
0.0
 10
14.25255766543149
 20
-28.96355145294673
 30
0.0
 10
14.35316084758326
 20
-29.01744566237362
 30
0.0
 10
14.35316084758326
 20
-29.01744566237362
 30
0.0
 10
14.43220612666821
 20
-29.05337513532486
 30
0.0
 10
14.43220612666821
 20
-29.05337513532486
 30
0.0
 10
14.45735719632623
 20
-29.064153538618
 30
0.0
 10
14.48610033609505
 20
-29.07133987180047
 30
0.0
 10
14.51484347586383
 20
-29.08211827509366
 30
0.0
 10
14.56873768529072
 20
-29.09648984497802
 30
0.0
 10
14.62263189471757
 20
-29.11086141486243
 30
0.0
 10
14.68730450743758
 20
-29.11804774804487
 30
0.0
 10
14.70167607732199
 20
-29.12164091463612
 30
0.0
 10
14.71964081379759
 20
-29.12164091463612
 30
0.0
 10
14.73042031357128
 20
-29.12523408122732
 30
0.0
 10
14.73042031357128
 20
-29.12523408122732
 30
0.0
 10
14.76634978652252
 20
-29.12523408122732
 30
0.0
 10
14.76634978652252
 20
-29.12523408122732
 30
0.0
 10
14.76634978652252
 20
-29.12523408122732
 30
0.0
 10
14.80227925947373
 20
-29.12523408122732
 30
0.0
 10
14.80227925947373
 20
-29.12523408122732
 30
0.0
 10
14.80227925947373
 20
-29.12523408122732
 30
0.0
 10
14.80946559265617
 20
-29.12523408122732
 30
0.0
 10
14.80946559265617
 20
-29.12523408122732
 30
0.0
 10
14.82743032913183
 20
-29.12523408122732
 30
0.0
 10
14.82024399594937
 20
-29.12523408122732
 30
0.0
 10
14.82743032913183
 20
-29.12523408122732
 30
0.0
 10
14.82743032913183
 20
-29.12523408122732
 30
0.0
 10
14.84539506560746
 20
-29.12523408122732
 30
0.0
 10
14.84539506560746
 20
-29.12523408122732
 30
0.0
 10
14.89210294185184
 20
-29.12523408122732
 30
0.0
 10
14.93881191457679
 20
-29.12523408122732
 30
0.0
 10
14.98911295741239
 20
-29.12523408122732
 30
0.0
 10
15.08252980638175
 20
-29.12523408122732
 30
0.0
 10
15.17594665535105
 20
-29.12164091463612
 30
0.0
 10
15.26936240783986
 20
-29.12164091463612
 30
0.0
 10
15.64302870723671
 20
-29.11804774804487
 30
0.0
 10
16.00232343674907
 20
-29.11445458145365
 30
0.0
 10
16.34724659637709
 20
-29.11086251134293
 30
0.0
 10
17.03709291563311
 20
-29.10367617816049
 30
0.0
 10
17.6694507623905
 20
-29.09649094145852
 30
0.0
 10
18.2299507597259
 20
-29.08930460827605
 30
0.0
 10
18.79045075706136
 20
-29.08211827509366
 30
0.0
 10
19.27909180849429
 20
-29.07852620498291
 30
0.0
 10
19.6815012476599
 20
-29.07852620498291
 30
0.0
 10
20.48632122247161
 20
-29.07493303839169
 30
0.0
 10
20.94621913413572
 20
-29.07493303839169
 30
0.0
 10
20.94621913413572
 20
-29.07493303839169
 30
0.0
 10
20.94621913413572
 20
-29.07493303839169
 30
0.0
 10
20.97855544049574
 20
-29.07493303839169
 30
0.0
 10
21.03963598310502
 20
-29.07133987180047
 30
0.0
 10
21.10071652571433
 20
-29.064153538618
 30
0.0
 10
21.19413227820319
 20
-29.04978196873364
 30
0.0
 10
21.30551386364813
 20
-29.00307409248921
 30
0.0
 10
21.41689544909309
 20
-28.95636621624478
 30
0.0
 10
21.54624177101361
 20
-28.87372777056867
 30
0.0
 10
21.66121542656927
 20
-28.7443814486481
 30
0.0
 10
21.71510963599621
 20
-28.6761156693368
 30
0.0
 10
21.76900384542306
 20
-28.5970703902519
 30
0.0
 10
21.80852648496552
 20
-28.50724670787382
 30
0.0
 10
21.81571281814798
 20
-28.48209563821572
 30
0.0
 10
21.8264901249606
 20
-28.46053883162939
 30
0.0
 10
21.83367645814307
 20
-28.43538776197134
 30
0.0
 10
21.84086279132553
 20
-28.41023669231324
 30
0.0
 10
21.84804912450798
 20
-28.38508671913567
 30
0.0
 10
21.85523326472942
 20
-28.35993564947762
 30
0.0
 10
21.86241959791189
 20
-28.33478457981957
 30
0.0
 10
21.86601166802262
 20
-28.30604144005075
 30
0.0
 10
21.86960593109428
 20
-28.27729830028195
 30
0.0
 10
21.873198001205
 20
-28.26292673039754
 30
0.0
 10
21.873198001205
 20
-28.24855516051318
 30
0.0
 10
21.87679226427672
 20
-28.23418249414825
 30
0.0
 10
21.87679226427672
 20
-28.22340409085511
 30
0.0
 10
21.87679226427672
 20
-28.20903142449025
 30
0.0
 10
21.88038433438745
 20
-28.19825302119706
 30
0.0
 10
21.88038433438745
 20
-28.18747461790387
 30
0.0
 10
21.88038433438745
 20
-28.17310195153896
 30
0.0
 10
21.88397640449817
 20
-28.15873038165457
 30
0.0
 10
21.88397640449817
 20
-28.15873038165457
 30
0.0
 10
21.88397640449817
 20
-28.14435881177016
 30
0.0
 10
21.88397640449817
 20
-28.14435881177016
 30
0.0
 10
21.88397640449817
 20
-28.14435881177016
 30
0.0
 10
21.88397640449817
 20
-28.13358040847702
 30
0.0
 10
21.88397640449817
 20
-28.13358040847702
 30
0.0
 10
21.88397640449817
 20
-28.13358040847702
 30
0.0
 10
21.88397640449817
 20
-28.11561567200139
 30
0.0
 10
21.88397640449817
 20
-28.11561567200139
 30
0.0
 10
21.88397640449817
 20
-28.09046460234329
 30
0.0
 10
21.88397640449817
 20
-28.06531462916574
 30
0.0
 10
21.88397640449817
 20
-28.03657039291645
 30
0.0
 10
21.88397640449817
 20
-27.9826761834896
 30
0.0
 10
21.88397640449817
 20
-27.92878197406276
 30
0.0
 10
21.88397640449817
 20
-27.87488776463589
 30
0.0
 10
21.88397640449817
 20
-27.76350617919095
 30
0.0
 10
21.88397640449817
 20
-27.64853252363529
 30
0.0
 10
21.88397640449817
 20
-27.52637143841664
 30
0.0
 10
21.88397640449817
 20
-27.28205146094041
 30
0.0
 10
21.88756847460889
 20
-27.01976565050806
 30
0.0
 10
21.89116273768064
 20
-26.73951620008059
 30
0.0
 10
21.89475480779136
 20
-26.17901620274514
 30
0.0
 10
21.90194114097383
 20
-25.54665725950723
 30
0.0
 10
21.90553540404557
 20
-24.85681203673173
 30
0.0
 10
21.90553540404557
 20
-24.75261678446923
 30
0.0
 10
21.90553540404557
 20
-24.64482836561549
 30
0.0
 10
21.90912747415627
 20
-24.53703994676183
 30
0.0
 10
21.90912747415627
 20
-24.53703994676183
 30
0.0
 10
22.25045746719305
 20
-24.33942784552998
 30
0.0
 10
22.25045746719305
 20
-24.33942784552998
 30
0.0
 10
22.25045746719305
 20
-24.33942784552998
 30
0.0
 10
23.06605694177839
 20
-23.86515836398141
 30
0.0
 10
23.06605694177839
 20
-23.86515836398141
 30
0.0
 10
23.06605694177839
 20
-23.86515836398141
 30
0.0
 10
23.47205954753518
 20
-23.62802362320713
 30
0.0
 10
23.47205954753518
 20
-23.62802362320713
 30
0.0
 10
23.47205954753518
 20
-23.62802362320713
 30
0.0
 10
23.52236168685133
 20
-23.59928048343833
 30
0.0
 10
23.52236168685133
 20
-23.59928048343833
 30
0.0
 10
23.54032642332696
 20
-23.58850208014517
 30
0.0
 10
23.56547749298498
 20
-23.57412941378023
 30
0.0
 10
23.58703429957134
 20
-23.55616467730463
 30
0.0
 10
23.62655584263335
 20
-23.52382837094463
 30
0.0
 10
23.66607957865628
 20
-23.48789889799339
 30
0.0
 10
23.69841478853583
 20
-23.44837625845091
 30
0.0
 10
23.76308740125584
 20
-23.36933097936597
 30
0.0
 10
23.80620320738952
 20
-23.26872889369474
 30
0.0
 10
23.82416794386515
 20
-23.16812680802344
 30
0.0
 10
23.82776220693689
 20
-23.06752472235217
 30
0.0
 10
23.82057587375443
 20
-22.96332947008967
 30
0.0
 10
23.78464640080316
 20
-22.86631945452912
 30
0.0
  0
SPLINE
  5
42
330
1F
100
AcDbEntity
  8
Layer 1
370
     0
100
AcDbSpline
210
0.0
220
0.0
230
1.0
 70
    11
 71
     3
 72
   284
 73
   280
 74
     0
 42
0.0000000001
 43
0.0000000001
 12
1.0
 22
0.0
 32
0.0
 13
1.0
 23
0.0
 33
0.0
 40
0.0
 40
0.0
 40
0.0
 40
0.0
 40
1.0
 40
1.0
 40
1.0
 40
2.0
 40
2.0
 40
2.0
 40
3.0
 40
3.0
 40
3.0
 40
4.0
 40
4.0
 40
4.0
 40
5.0
 40
5.0
 40
5.0
 40
6.0
 40
6.0
 40
6.0
 40
7.0
 40
7.0
 40
7.0
 40
8.0
 40
8.0
 40
8.0
 40
9.0
 40
9.0
 40
9.0
 40
10.0
 40
10.0
 40
10.0
 40
11.0
 40
11.0
 40
11.0
 40
12.0
 40
12.0
 40
12.0
 40
13.0
 40
13.0
 40
13.0
 40
14.0
 40
14.0
 40
14.0
 40
15.0
 40
15.0
 40
15.0
 40
16.0
 40
16.0
 40
16.0
 40
17.0
 40
17.0
 40
17.0
 40
18.0
 40
18.0
 40
18.0
 40
19.0
 40
19.0
 40
19.0
 40
20.0
 40
20.0
 40
20.0
 40
21.0
 40
21.0
 40
21.0
 40
22.0
 40
22.0
 40
22.0
 40
23.0
 40
23.0
 40
23.0
 40
24.0
 40
24.0
 40
24.0
 40
25.0
 40
25.0
 40
25.0
 40
26.0
 40
26.0
 40
26.0
 40
27.0
 40
27.0
 40
27.0
 40
28.0
 40
28.0
 40
28.0
 40
29.0
 40
29.0
 40
29.0
 40
30.0
 40
30.0
 40
30.0
 40
31.0
 40
31.0
 40
31.0
 40
32.0
 40
32.0
 40
32.0
 40
33.0
 40
33.0
 40
33.0
 40
34.0
 40
34.0
 40
34.0
 40
35.0
 40
35.0
 40
35.0
 40
36.0
 40
36.0
 40
36.0
 40
37.0
 40
37.0
 40
37.0
 40
38.0
 40
38.0
 40
38.0
 40
39.0
 40
39.0
 40
39.0
 40
40.0
 40
40.0
 40
40.0
 40
41.0
 40
41.0
 40
41.0
 40
42.0
 40
42.0
 40
42.0
 40
43.0
 40
43.0
 40
43.0
 40
44.0
 40
44.0
 40
44.0
 40
45.0
 40
45.0
 40
45.0
 40
46.0
 40
46.0
 40
46.0
 40
47.0
 40
47.0
 40
47.0
 40
48.0
 40
48.0
 40
48.0
 40
49.0
 40
49.0
 40
49.0
 40
50.0
 40
50.0
 40
50.0
 40
51.0
 40
51.0
 40
51.0
 40
52.0
 40
52.0
 40
52.0
 40
53.0
 40
53.0
 40
53.0
 40
54.0
 40
54.0
 40
54.0
 40
55.0
 40
55.0
 40
55.0
 40
56.0
 40
56.0
 40
56.0
 40
57.0
 40
57.0
 40
57.0
 40
58.0
 40
58.0
 40
58.0
 40
59.0
 40
59.0
 40
59.0
 40
60.0
 40
60.0
 40
60.0
 40
61.0
 40
61.0
 40
61.0
 40
62.0
 40
62.0
 40
62.0
 40
63.0
 40
63.0
 40
63.0
 40
64.0
 40
64.0
 40
64.0
 40
65.0
 40
65.0
 40
65.0
 40
66.0
 40
66.0
 40
66.0
 40
67.0
 40
67.0
 40
67.0
 40
68.0
 40
68.0
 40
68.0
 40
69.0
 40
69.0
 40
69.0
 40
70.0
 40
70.0
 40
70.0
 40
71.0
 40
71.0
 40
71.0
 40
72.0
 40
72.0
 40
72.0
 40
73.0
 40
73.0
 40
73.0
 40
74.0
 40
74.0
 40
74.0
 40
75.0
 40
75.0
 40
75.0
 40
76.0
 40
76.0
 40
76.0
 40
77.0
 40
77.0
 40
77.0
 40
78.0
 40
78.0
 40
78.0
 40
79.0
 40
79.0
 40
79.0
 40
80.0
 40
80.0
 40
80.0
 40
81.0
 40
81.0
 40
81.0
 40
82.0
 40
82.0
 40
82.0
 40
83.0
 40
83.0
 40
83.0
 40
84.0
 40
84.0
 40
84.0
 40
85.0
 40
85.0
 40
85.0
 40
86.0
 40
86.0
 40
86.0
 40
87.0
 40
87.0
 40
87.0
 40
88.0
 40
88.0
 40
88.0
 40
89.0
 40
89.0
 40
89.0
 40
90.0
 40
90.0
 40
90.0
 40
91.0
 40
91.0
 40
91.0
 40
92.0
 40
92.0
 40
92.0
 40
93.0
 40
93.0
 40
93.0
 40
93.0
 10
21.65402909338682
 20
-24.86040520332295
 30
0.0
 10
21.66121542656927
 20
-25.55025152257897
 30
0.0
 10
21.66480749668002
 20
-26.1826093693364
 30
0.0
 10
21.66840066327126
 20
-26.74310936667181
 30
0.0
 10
21.67199382986246
 20
-27.0233588170993
 30
0.0
 10
21.67199382986246
 20
-27.28564462753164
 30
0.0
 10
21.67558699645373
 20
-27.52996460500786
 30
0.0
 10
21.67558699645373
 20
-27.65212459374601
 30
0.0
 10
21.67558699645373
 20
-27.76709934578215
 30
0.0
 10
21.67558699645373
 20
-27.87848093122711
 30
0.0
 10
21.67558699645373
 20
-27.93237514065395
 30
0.0
 10
21.67558699645373
 20
-27.98986251667207
 30
0.0
 10
21.67558699645373
 20
-28.04016355950767
 30
0.0
 10
21.67558699645373
 20
-28.06531462916574
 30
0.0
 10
21.67558699645373
 20
-28.09405776893456
 30
0.0
 10
21.67558699645373
 20
-28.11920883859261
 30
0.0
 10
21.67558699645373
 20
-28.11920883859261
 30
0.0
 10
21.67558699645373
 20
-28.13717357506822
 30
0.0
 10
21.67558699645373
 20
-28.13717357506822
 30
0.0
 10
21.67558699645373
 20
-28.13717357506822
 30
0.0
 10
21.67558699645373
 20
-28.14795197836141
 30
0.0
 10
21.67558699645373
 20
-28.14795197836141
 30
0.0
 10
21.67558699645373
 20
-28.14795197836141
 30
0.0
 10
21.67558699645373
 20
-28.14795197836141
 30
0.0
 10
21.67558699645373
 20
-28.14795197836141
 30
0.0
 10
21.67558699645373
 20
-28.14795197836141
 30
0.0
 10
21.67558699645373
 20
-28.15154514495263
 30
0.0
 10
21.67558699645373
 20
-28.15154514495263
 30
0.0
 10
21.67558699645373
 20
-28.16591671483704
 30
0.0
 10
21.67558699645373
 20
-28.17669621461068
 30
0.0
 10
21.67558699645373
 20
-28.19106778449506
 30
0.0
 10
21.67558699645373
 20
-28.20184618778825
 30
0.0
 10
21.67558699645373
 20
-28.21621885415316
 30
0.0
 10
21.67558699645373
 20
-28.22699725744633
 30
0.0
 10
21.67558699645373
 20
-28.23777566073952
 30
0.0
 10
21.67199382986246
 20
-28.24855516051318
 30
0.0
 10
21.67199382986246
 20
-28.25574039721512
 30
0.0
 10
21.66840066327126
 20
-28.27729830028195
 30
0.0
 10
21.66840066327126
 20
-28.29526303675756
 30
0.0
 10
21.66121542656927
 20
-28.31682093982444
 30
0.0
 10
21.65402909338682
 20
-28.33837884289131
 30
0.0
 10
21.6504370232761
 20
-28.35634357936689
 30
0.0
 10
21.64325069009374
 20
-28.37790148243372
 30
0.0
 10
21.63606435691127
 20
-28.39586621890933
 30
0.0
 10
21.62887912020927
 20
-28.41742412197621
 30
0.0
 10
21.62169278702681
 20
-28.43538885845181
 30
0.0
 10
21.58935648066679
 20
-28.50724780435429
 30
0.0
 10
21.54983384112433
 20
-28.5719204170743
 30
0.0
 10
21.50671803499068
 20
-28.6258146265012
 30
0.0
 10
21.41689435261254
 20
-28.73000987876369
 30
0.0
 10
21.31629226694132
 20
-28.79468358796422
 30
0.0
 10
21.22646858456318
 20
-28.83061306091546
 30
0.0
 10
21.14023806877634
 20
-28.8665425338667
 30
0.0
 10
21.06478595628267
 20
-28.87732093715989
 30
0.0
 10
21.01807808003819
 20
-28.88450727034231
 30
0.0
 10
20.96777703720254
 20
-28.88810043693353
 30
0.0
 10
20.94262596754452
 20
-28.88810043693353
 30
0.0
 10
20.94262596754452
 20
-28.88810043693353
 30
0.0
 10
20.94262596754452
 20
-28.88810043693353
 30
0.0
 10
20.48272915236084
 20
-28.88450727034231
 30
0.0
 10
19.67790808106868
 20
-28.88450727034231
 30
0.0
 10
19.27549754542257
 20
-28.88450727034231
 30
0.0
 10
18.78685759047014
 20
-28.88091410375106
 30
0.0
 10
18.22635759313468
 20
-28.87372886704917
 30
0.0
 10
17.66585759579925
 20
-28.8665425338667
 30
0.0
 10
17.03349865256137
 20
-28.85935729716476
 30
0.0
 10
16.34365342978584
 20
-28.85217096398229
 30
0.0
 10
15.99873027015784
 20
-28.84857779739107
 30
0.0
 10
15.63943554064543
 20
-28.84498463079982
 30
0.0
 10
15.26576924124864
 20
-28.8413925606891
 30
0.0
 10
15.17235239227933
 20
-28.8413925606891
 30
0.0
 10
15.07893554331
 20
-28.83779939409788
 30
0.0
 10
14.98551979082117
 20
-28.83779939409788
 30
0.0
 10
14.93881191457679
 20
-28.83779939409788
 30
0.0
 10
14.89210294185184
 20
-28.83779939409788
 30
0.0
 10
14.84180189901619
 20
-28.83779939409788
 30
0.0
 10
14.84180189901619
 20
-28.83779939409788
 30
0.0
 10
14.82383716254058
 20
-28.83779939409788
 30
0.0
 10
14.82383716254058
 20
-28.83779939409788
 30
0.0
 10
14.82383716254058
 20
-28.83779939409788
 30
0.0
 10
14.82383716254058
 20
-28.83779939409788
 30
0.0
 10
14.82024399594937
 20
-28.83779939409788
 30
0.0
 10
14.82024399594937
 20
-28.83779939409788
 30
0.0
 10
14.8130576627669
 20
-28.83779939409788
 30
0.0
 10
14.8130576627669
 20
-28.83779939409788
 30
0.0
 10
14.8130576627669
 20
-28.83779939409788
 30
0.0
 10
14.77712818981571
 20
-28.83420622750668
 30
0.0
 10
14.77712818981571
 20
-28.83420622750668
 30
0.0
 10
14.77712818981571
 20
-28.83420622750668
 30
0.0
 10
14.74119871686442
 20
-28.83061306091546
 30
0.0
 10
14.74119871686442
 20
-28.83061306091546
 30
0.0
 10
14.73042031357128
 20
-28.83061306091546
 30
0.0
 10
14.72323398038881
 20
-28.82701989432422
 30
0.0
 10
14.7160476472064
 20
-28.82701989432422
 30
0.0
 10
14.68371134084638
 20
-28.82342672773299
 30
0.0
 10
14.64418870130392
 20
-28.81264832443986
 30
0.0
 10
14.60466606176144
 20
-28.80186882466617
 30
0.0
 10
14.60466606176144
 20
-28.80186882466617
 30
0.0
 10
14.55077185233459
 20
-28.78031092159929
 30
0.0
 10
14.55077185233459
 20
-28.78031092159929
 30
0.0
 10
14.55077185233459
 20
-28.78031092159929
 30
0.0
 10
14.49687764290772
 20
-28.75515985194129
 30
0.0
 10
14.49687764290772
 20
-28.75515985194129
 30
0.0
 10
14.42861186359647
 20
-28.71563721239881
 30
0.0
 10
14.36393815439593
 20
-28.66533616956316
 30
0.0
 10
14.31004394496904
 20
-28.60425562695385
 30
0.0
 10
14.20584869270654
 20
-28.48209563821572
 30
0.0
 10
14.14117498350606
 20
-28.32400617652638
 30
0.0
 10
14.13758291339534
 20
-28.15873038165457
 30
0.0
 10
14.13398974680407
 20
-27.9575251138315
 30
0.0
 10
14.13398974680407
 20
-27.75272777589779
 30
0.0
 10
14.13039658021287
 20
-27.54433617489227
 30
0.0
 10
14.12680341362165
 20
-27.1275540693618
 30
0.0
 10
14.12321024703043
 20
-26.70358672712935
 30
0.0
 10
14.1196181769197
 20
-26.27243305171449
 30
0.0
 10
14.10883977362651
 20
-25.41012570088472
 30
0.0
 10
14.10165344044405
 20
-24.51907521028617
 30
0.0
 10
14.09087503715088
 20
-23.61365205332271
 30
0.0
 10
14.08728187055969
 20
-23.16094047484097
 30
0.0
 10
14.08368870396847
 20
-22.70463682624856
 30
0.0
 10
14.08009663385774
 20
-22.24473891458441
 30
0.0
 10
14.08009663385774
 20
-22.24473891458441
 30
0.0
 10
14.08009663385774
 20
-22.20162310845068
 30
0.0
 10
14.08009663385774
 20
-22.20162310845068
 30
0.0
 10
14.08009663385774
 20
-22.20162310845068
 30
0.0
 10
14.08009663385774
 20
-22.18006520538382
 30
0.0
 10
14.08009663385774
 20
-22.18006520538382
 30
0.0
 10
14.08009663385774
 20
-22.18006520538382
 30
0.0
 10
14.08009663385774
 20
-22.18006520538382
 30
0.0
 10
14.08009663385774
 20
-22.18006520538382
 30
0.0
 10
14.08009663385774
 20
-22.18006520538382
 30
0.0
 10
14.08009663385774
 20
-22.18006520538382
 30
0.0
 10
14.08009663385774
 20
-22.17647203879265
 30
0.0
 10
14.08009663385774
 20
-22.17647203879265
 30
0.0
 10
14.08368980044896
 20
-22.12257782936576
 30
0.0
 10
14.08368980044896
 20
-22.12257782936576
 30
0.0
 10
14.08368980044896
 20
-22.12257782936576
 30
0.0
 10
14.08368980044896
 20
-22.10101992629893
 30
0.0
 10
14.08368980044896
 20
-22.10101992629893
 30
0.0
 10
14.08368980044896
 20
-22.09383359311646
 30
0.0
 10
14.08728296704016
 20
-22.09024152300577
 30
0.0
 10
14.08728296704016
 20
-22.0830551898233
 30
0.0
 10
14.09446930022263
 20
-22.03993938368959
 30
0.0
 10
14.10524770351579
 20
-21.98963834085397
 30
0.0
 10
14.11961927340018
 20
-21.93933729801837
 30
0.0
 10
14.15195557976022
 20
-21.84592044904901
 30
0.0
 10
14.20584978918706
 20
-21.75609676667093
 30
0.0
 10
14.27411556849832
 20
-21.68064465417721
 30
0.0
 10
14.41064712712083
 20
-21.52974042918984
 30
0.0
 10
14.60825922835263
 20
-21.43991729505198
 30
0.0
 10
14.8130576627669
 20
-21.43991729505198
 30
0.0
 10
15.73285238961474
 20
-21.43991729505198
 30
0.0
 10
16.6526471164626
 20
-21.44351046164318
 30
0.0
 10
17.55806917694559
 20
-21.45428886493634
 30
0.0
 10
18.46349233390896
 20
-21.46147464987853
 30
0.0
 10
19.35454282450751
 20
-21.472253601412
 30
0.0
 10
20.21685017533726
 20
-21.47943938635419
 30
0.0
 10
20.43242701304472
 20
-21.47943938635419
 30
0.0
 10
20.64800385075212
 20
-21.48303255294541
 30
0.0
 10
20.85639435527714
 20
-21.48303255294541
 30
0.0
 10
20.85639435527714
 20
-21.48303255294541
 30
0.0
 10
20.92825330117961
 20
-21.48303255294541
 30
0.0
 10
20.92825330117961
 20
-21.48303255294541
 30
0.0
 10
20.92825330117961
 20
-21.48303255294541
 30
0.0
 10
21.00729858026456
 20
-21.48662571953663
 30
0.0
 10
21.00729858026456
 20
-21.48662571953663
 30
0.0
 10
21.02885648333138
 20
-21.49021888612782
 30
0.0
 10
21.04682121980702
 20
-21.49381150447882
 30
0.0
 10
21.06837912287384
 20
-21.49740467107004
 30
0.0
 10
21.0899370259407
 20
-21.50099783766129
 30
0.0
 10
21.11149492900752
 20
-21.50818362260346
 30
0.0
 10
21.12945966548316
 20
-21.5117767891947
 30
0.0
 10
21.21209701467882
 20
-21.53692785885275
 30
0.0
 10
21.29114229376377
 20
-21.57644940191472
 30
0.0
 10
21.35940807307497
 20
-21.63034361134161
 30
0.0
 10
21.49593963169749
 20
-21.7345388636041
 30
0.0
 10
21.58935648066679
 20
-21.89262832529344
 30
0.0
 10
21.62169278702681
 20
-22.05790412016523
 30
0.0
 10
21.62528595361808
 20
-22.07946202323208
 30
0.0
 10
21.62887912020927
 20
-22.10101992629893
 30
0.0
 10
21.62887912020927
 20
-22.11898466277454
 30
0.0
 10
21.62887912020927
 20
-22.14054256584136
 30
0.0
 10
21.63247228680055
 20
-22.15850730231699
 30
0.0
 10
21.63247228680055
 20
-22.18365727549457
 30
0.0
 10
21.63247228680055
 20
-22.23395831833022
 30
0.0
 10
21.63247228680055
 20
-22.28425936116587
 30
0.0
 10
21.63247228680055
 20
-22.33456150048199
 30
0.0
 10
21.63247228680055
 20
-22.43516358615327
 30
0.0
 10
21.63247228680055
 20
-22.53576676830501
 30
0.0
 10
21.63247228680055
 20
-22.63277568738512
 30
0.0
 10
21.63247228680055
 20
-22.85553885827497
 30
0.0
 10
21.63247228680055
 20
-23.07830093268436
 30
0.0
 10
21.63606545339174
 20
-23.29387777039179
 30
0.0
 10
21.63606545339174
 20
-23.29387777039179
 30
0.0
 10
20.95340546731818
 20
-23.69269513944664
 30
0.0
 10
20.95340546731818
 20
-23.69269513944664
 30
0.0
 10
20.95340546731818
 20
-23.69269513944664
 30
0.0
 10
20.9390338974338
 20
-22.26988779128146
 30
0.0
 10
20.9390338974338
 20
-22.26988779128146
 30
0.0
 10
20.9390338974338
 20
-22.21599358185457
 30
0.0
 10
20.89591809130007
 20
-22.17287777572091
 30
0.0
 10
20.84202388187322
 20
-22.17287777572091
 30
0.0
 10
20.84202388187322
 20
-22.17287777572091
 30
0.0
 10
20.84202388187322
 20
-22.17287777572091
 30
0.0
 10
20.84202388187322
 20
-22.17287777572091
 30
0.0
 10
20.5941107378058
 20
-22.16928460912969
 30
0.0
 10
20.34619759373832
 20
-22.16569144253845
 30
0.0
 10
20.09828335319035
 20
-22.16209937242772
 30
0.0
 10
20.09828335319035
 20
-22.16209937242772
 30
0.0
 10
19.35454282450751
 20
-22.15132096913456
 30
0.0
 10
19.35454282450751
 20
-22.15132096913456
 30
0.0
 10
19.35454282450751
 20
-22.15132096913456
 30
0.0
 10
17.87065603021352
 20
-22.13694939925017
 30
0.0
 10
17.87065603021352
 20
-22.13694939925017
 30
0.0
 10
17.87065603021352
 20
-22.13694939925017
 30
0.0
 10
16.38676923591955
 20
-22.13335623265895
 30
0.0
 10
16.38676923591955
 20
-22.13335623265895
 30
0.0
 10
16.38676923591955
 20
-22.13335623265895
 30
0.0
 10
15.64302870723671
 20
-22.12976306606773
 30
0.0
 10
15.64302870723671
 20
-22.12976306606773
 30
0.0
 10
15.64302870723671
 20
-22.12976306606773
 30
0.0
 10
14.89928817855379
 20
-22.12976306606773
 30
0.0
 10
14.89928817855379
 20
-22.12976306606773
 30
0.0
 10
14.89928817855379
 20
-22.12976306606773
 30
0.0
 10
14.89928817855379
 20
-22.12976306606773
 30
0.0
 10
14.89928817855379
 20
-22.12976306606773
 30
0.0
 10
14.82383606606009
 20
-22.12976306606773
 30
0.0
 10
14.7627566199313
 20
-22.19084360867701
 30
0.0
 10
14.7627566199313
 20
-22.26988779128146
 30
0.0
 10
14.7627566199313
 20
-22.26988779128146
 30
0.0
 10
14.76634978652252
 20
-23.71784511262422
 30
0.0
 10
14.76634978652252
 20
-23.71784511262422
 30
0.0
 10
14.76634978652252
 20
-23.71784511262422
 30
0.0
 10
14.76634978652252
 20
-24.44002773824021
 30
0.0
 10
14.76634978652252
 20
-24.44002773824021
 30
0.0
 10
14.76634978652252
 20
-24.44002773824021
 30
0.0
 10
14.76994295311371
 20
-25.16221036385625
 30
0.0
 10
14.76994295311371
 20
-25.16221036385625
 30
0.0
 10
14.76994295311371
 20
-25.16221036385625
 30
0.0
 10
14.78072135640691
 20
-26.61016768519903
 30
0.0
 10
14.78072135640691
 20
-26.61016768519903
 30
0.0
 10
14.78790768958935
 20
-27.09162240344957
 30
0.0
 10
14.79149975970007
 20
-27.57667028829133
 30
0.0
 10
14.79868609288254
 20
-28.05812500654179
 30
0.0
 10
14.79868609288254
 20
-28.05812500654179
 30
0.0
 10
14.79868609288254
 20
-28.05812500654179
 30
0.0
 10
14.79868609288254
 20
-28.05812500654179
 30
0.0
 10
14.79868609288254
 20
-28.11201921596868
 30
0.0
 10
14.84180189901619
 20
-28.15513502210236
 30
0.0
 10
14.89569610844309
 20
-28.15513502210236
 30
0.0
 10
14.89569610844309
 20
-28.15513502210236
 30
0.0
 10
19.35095075439679
 20
-28.20543606493798
 30
0.0
 10
19.35095075439679
 20
-28.20543606493798
 30
0.0
 10
19.35095075439679
 20
-28.20543606493798
 30
0.0
 10
20.09469128307965
 20
-28.2126223981204
 30
0.0
 10
20.09469128307965
 20
-28.2126223981204
 30
0.0
 10
20.09469128307965
 20
-28.2126223981204
 30
0.0
 10
20.46476441588523
 20
-28.21621556471167
 30
0.0
 10
20.46476441588523
 20
-28.21621556471167
 30
0.0
 10
20.58692440462333
 20
-28.21621556471167
 30
0.0
 10
20.71267755995271
 20
-28.21621556471167
 30
0.0
 10
20.83483754869076
 20
-28.21621556471167
 30
0.0
 10
20.83483754869076
 20
-28.21621556471167
 30
0.0
 10
20.83843071528203
 20
-28.21621556471167
 30
0.0
 10
20.83843071528203
 20
-28.21621556471167
 30
0.0
 10
20.83843071528203
 20
-28.21621556471167
 30
0.0
 10
20.83843071528203
 20
-28.21621556471167
 30
0.0
 10
20.83843071528203
 20
-28.21621556471167
 30
0.0
 10
20.92466123106889
 20
-28.21621556471167
 30
0.0
 10
20.99292701038017
 20
-28.14435661880919
 30
0.0
 10
20.99292701038017
 20
-28.05812610302231
 30
0.0
 10
20.99292701038017
 20
-28.05812610302231
 30
0.0
 10
20.96059070402018
 20
-25.08316508477133
 30
0.0
 10
20.96059070402018
 20
-25.08316508477133
 30
0.0
 10
20.96059070402018
 20
-25.08316508477133
 30
0.0
 10
21.63606435691127
 20
-24.68794088230768
 30
0.0
 10
21.63606435691127
 20
-24.68794088230768
 30
0.0
 10
21.65043592679563
 20
-24.74543154776726
 30
0.0
 10
21.65043592679563
 20
-24.80291782730483
 30
0.0
 10
21.65402909338682
 20
-24.86040520332295
 30
0.0
  0
SPLINE
  5
43
330
1F
100
AcDbEntity
  8
Layer 1
370
     0
100
AcDbSpline
210
0.0
220
0.0
230
1.0
 70
    11
 71
     3
 72
   215
 73
   211
 74
     0
 42
0.0000000001
 43
0.0000000001
 12
1.0
 22
0.0
 32
0.0
 13
1.0
 23
0.0
 33
0.0
 40
0.0
 40
0.0
 40
0.0
 40
0.0
 40
1.0
 40
1.0
 40
1.0
 40
2.0
 40
2.0
 40
2.0
 40
3.0
 40
3.0
 40
3.0
 40
4.0
 40
4.0
 40
4.0
 40
5.0
 40
5.0
 40
5.0
 40
6.0
 40
6.0
 40
6.0
 40
7.0
 40
7.0
 40
7.0
 40
8.0
 40
8.0
 40
8.0
 40
9.0
 40
9.0
 40
9.0
 40
10.0
 40
10.0
 40
10.0
 40
11.0
 40
11.0
 40
11.0
 40
12.0
 40
12.0
 40
12.0
 40
13.0
 40
13.0
 40
13.0
 40
14.0
 40
14.0
 40
14.0
 40
15.0
 40
15.0
 40
15.0
 40
16.0
 40
16.0
 40
16.0
 40
17.0
 40
17.0
 40
17.0
 40
18.0
 40
18.0
 40
18.0
 40
19.0
 40
19.0
 40
19.0
 40
20.0
 40
20.0
 40
20.0
 40
21.0
 40
21.0
 40
21.0
 40
22.0
 40
22.0
 40
22.0
 40
23.0
 40
23.0
 40
23.0
 40
24.0
 40
24.0
 40
24.0
 40
25.0
 40
25.0
 40
25.0
 40
26.0
 40
26.0
 40
26.0
 40
27.0
 40
27.0
 40
27.0
 40
28.0
 40
28.0
 40
28.0
 40
29.0
 40
29.0
 40
29.0
 40
30.0
 40
30.0
 40
30.0
 40
31.0
 40
31.0
 40
31.0
 40
32.0
 40
32.0
 40
32.0
 40
33.0
 40
33.0
 40
33.0
 40
34.0
 40
34.0
 40
34.0
 40
35.0
 40
35.0
 40
35.0
 40
36.0
 40
36.0
 40
36.0
 40
37.0
 40
37.0
 40
37.0
 40
38.0
 40
38.0
 40
38.0
 40
39.0
 40
39.0
 40
39.0
 40
40.0
 40
40.0
 40
40.0
 40
41.0
 40
41.0
 40
41.0
 40
42.0
 40
42.0
 40
42.0
 40
43.0
 40
43.0
 40
43.0
 40
44.0
 40
44.0
 40
44.0
 40
45.0
 40
45.0
 40
45.0
 40
46.0
 40
46.0
 40
46.0
 40
47.0
 40
47.0
 40
47.0
 40
48.0
 40
48.0
 40
48.0
 40
49.0
 40
49.0
 40
49.0
 40
50.0
 40
50.0
 40
50.0
 40
51.0
 40
51.0
 40
51.0
 40
52.0
 40
52.0
 40
52.0
 40
53.0
 40
53.0
 40
53.0
 40
54.0
 40
54.0
 40
54.0
 40
55.0
 40
55.0
 40
55.0
 40
56.0
 40
56.0
 40
56.0
 40
57.0
 40
57.0
 40
57.0
 40
58.0
 40
58.0
 40
58.0
 40
59.0
 40
59.0
 40
59.0
 40
60.0
 40
60.0
 40
60.0
 40
61.0
 40
61.0
 40
61.0
 40
62.0
 40
62.0
 40
62.0
 40
63.0
 40
63.0
 40
63.0
 40
64.0
 40
64.0
 40
64.0
 40
65.0
 40
65.0
 40
65.0
 40
66.0
 40
66.0
 40
66.0
 40
67.0
 40
67.0
 40
67.0
 40
68.0
 40
68.0
 40
68.0
 40
69.0
 40
69.0
 40
69.0
 40
70.0
 40
70.0
 40
70.0
 40
70.0
 10
17.38920021548251
 20
-25.79816466664644
 30
0.0
 10
17.27063339333563
 20
-25.64366837154827
 30
0.0
 10
17.15206547470823
 20
-25.48917097996966
 30
0.0
 10
17.03349865256137
 20
-25.33826785146274
 30
0.0
 10
17.03349865256137
 20
-25.33826785146274
 30
0.0
 10
16.62390288021334
 20
-24.8101041604873
 30
0.0
 10
16.62390288021334
 20
-24.8101041604873
 30
0.0
 10
16.62390288021334
 20
-24.8101041604873
 30
0.0
 10
16.51970762795084
 20
-24.68075783856673
 30
0.0
 10
16.51970762795084
 20
-24.68075783856673
 30
0.0
 10
16.50892922465765
 20
-24.66997943527359
 30
0.0
 10
16.50533605806643
 20
-24.6591999354999
 30
0.0
 10
16.49096448818204
 20
-24.64842153220674
 30
0.0
 10
16.48018608488888
 20
-24.63404996232233
 30
0.0
 10
16.46940658511519
 20
-24.62327046254866
 30
0.0
 10
16.45503501523076
 20
-24.60889889266425
 30
0.0
 10
16.45503501523076
 20
-24.60889889266425
 30
0.0
 10
16.41551237568829
 20
-24.57296941971302
 30
0.0
 10
16.41551237568829
 20
-24.57296941971302
 30
0.0
 10
16.40114080580391
 20
-24.56219101641985
 30
0.0
 10
16.38676923591955
 20
-24.55141151664619
 30
0.0
 10
16.37239656955464
 20
-24.540633113353
 30
0.0
 10
16.25382974740776
 20
-24.45799576415735
 30
0.0
 10
16.10651868901156
 20
-24.41847312461487
 30
0.0
 10
15.96639396379783
 20
-24.4364378610905
 30
0.0
 10
15.89453501789535
 20
-24.44362419427297
 30
0.0
 10
15.82267607199287
 20
-24.46518100085932
 30
0.0
 10
15.75800345927284
 20
-24.49751840369981
 30
0.0
 10
15.74003872279721
 20
-24.50829680699301
 30
0.0
 10
15.7220739863216
 20
-24.51548314017544
 30
0.0
 10
15.70410924984599
 20
-24.52626154346864
 30
0.0
 10
15.69333084655283
 20
-24.53344787665105
 30
0.0
 10
15.68973767996158
 20
-24.53344787665105
 30
0.0
 10
15.68614451337036
 20
-24.540633113353
 30
0.0
 10
15.68614451337036
 20
-24.540633113353
 30
0.0
 10
15.6681797768947
 20
-24.55141151664619
 30
0.0
 10
15.6681797768947
 20
-24.55141151664619
 30
0.0
 10
15.6681797768947
 20
-24.55141151664619
 30
0.0
 10
15.66099344371226
 20
-24.55859784982865
 30
0.0
 10
15.66099344371226
 20
-24.55859784982865
 30
0.0
 10
15.66099344371226
 20
-24.55859784982865
 30
0.0
 10
15.65380711052985
 20
-24.56578418301109
 30
0.0
 10
15.65380711052985
 20
-24.56578418301109
 30
0.0
 10
15.65380711052985
 20
-24.56578418301109
 30
0.0
 10
15.6502139439386
 20
-24.56937734960229
 30
0.0
 10
15.6502139439386
 20
-24.56937734960229
 30
0.0
 10
15.6502139439386
 20
-24.56937734960229
 30
0.0
 10
15.64662077734743
 20
-24.57297051619354
 30
0.0
 10
15.64662077734743
 20
-24.57297051619354
 30
0.0
 10
15.64662077734743
 20
-24.57297051619354
 30
0.0
 10
15.62506287428055
 20
-24.59093525266912
 30
0.0
 10
15.62506287428055
 20
-24.59093525266912
 30
0.0
 10
15.61069130439614
 20
-24.60171365596231
 30
0.0
 10
15.59991180462248
 20
-24.61608632232724
 30
0.0
 10
15.58554023473807
 20
-24.6304578922116
 30
0.0
 10
15.48493814906682
 20
-24.73824631106532
 30
0.0
 10
15.42745077304873
 20
-24.87837103627905
 30
0.0
 10
15.42385760645751
 20
-25.02568209467525
 30
0.0
 10
15.42385760645751
 20
-25.0975410405777
 30
0.0
 10
15.4346360097507
 20
-25.17299315307145
 30
0.0
 10
15.45619391281753
 20
-25.24125893238266
 30
0.0
 10
15.45978707940874
 20
-25.25922366885831
 30
0.0
 10
15.47056548270189
 20
-25.27718840533394
 30
0.0
 10
15.47775181588435
 20
-25.29155997521831
 30
0.0
 10
15.47775181588435
 20
-25.29155997521831
 30
0.0
 10
15.48853021917754
 20
-25.31671104487638
 30
0.0
 10
15.48853021917754
 20
-25.31671104487638
 30
0.0
 10
15.48853021917754
 20
-25.31671104487638
 30
0.0
 10
15.50290178906195
 20
-25.34186211453445
 30
0.0
 10
15.50290178906195
 20
-25.34186211453445
 30
0.0
 10
15.50290178906195
 20
-25.34186211453445
 30
0.0
 10
15.51727335894637
 20
-25.36701318419255
 30
0.0
 10
15.51727335894637
 20
-25.36701318419255
 30
0.0
 10
15.52445969212878
 20
-25.37779158748572
 30
0.0
 10
15.52445969212878
 20
-25.37779158748572
 30
0.0
 10
15.53164492883073
 20
-25.38497792066816
 30
0.0
 10
15.53164492883073
 20
-25.38497792066816
 30
0.0
 10
15.54242333212392
 20
-25.40294265714374
 30
0.0
 10
15.54242333212392
 20
-25.40294265714374
 30
0.0
 10
15.54242333212392
 20
-25.40294265714374
 30
0.0
 10
15.54601649871509
 20
-25.40653582373501
 30
0.0
 10
15.54601649871509
 20
-25.40653582373501
 30
0.0
 10
15.54601649871509
 20
-25.40653582373501
 30
0.0
 10
15.54601649871509
 20
-25.4101289903262
 30
0.0
 10
15.54601649871509
 20
-25.4101289903262
 30
0.0
 10
15.54601649871509
 20
-25.4101289903262
 30
0.0
 10
15.55320283189755
 20
-25.41731532350867
 30
0.0
 10
15.55320283189755
 20
-25.41731532350867
 30
0.0
 10
15.55320283189755
 20
-25.41731532350867
 30
0.0
 10
15.56038916508002
 20
-25.42450165669111
 30
0.0
 10
15.56038916508002
 20
-25.42450165669111
 30
0.0
 10
15.56038916508002
 20
-25.42450165669111
 30
0.0
 10
15.76877966960501
 20
-25.68678637064295
 30
0.0
 10
15.76877966960501
 20
-25.68678637064295
 30
0.0
 10
15.76877966960501
 20
-25.68678637064295
 30
0.0
 10
16.18556177513549
 20
-26.20776372843594
 30
0.0
 10
16.18556177513549
 20
-26.20776372843594
 30
0.0
 10
16.18556177513549
 20
-26.20776372843594
 30
0.0
 10
16.60234388066599
 20
-26.72874108622894
 30
0.0
 10
16.60234388066599
 20
-26.72874108622894
 30
0.0
 10
16.60234388066599
 20
-26.72874108622894
 30
0.0
 10
16.70653913292848
 20
-26.85808740814948
 30
0.0
 10
16.70653913292848
 20
-26.85808740814948
 30
0.0
 10
16.70653913292848
 20
-26.85808740814948
 30
0.0
 10
16.76043334235533
 20
-26.92276002086952
 30
0.0
 10
16.76043334235533
 20
-26.92276002086952
 30
0.0
 10
16.78199124542216
 20
-26.94791109052757
 30
0.0
 10
16.80714121859976
 20
-26.97665423029639
 30
0.0
 10
16.83588545484905
 20
-27.00180529995441
 30
0.0
 10
16.89337283086711
 20
-27.05210634279006
 30
0.0
 10
16.95804544358715
 20
-27.09162898233254
 30
0.0
 10
17.02631122289843
 20
-27.11678005199059
 30
0.0
 10
17.06224069584965
 20
-27.13115162187501
 30
0.0
 10
17.09817016880091
 20
-27.13833795505747
 30
0.0
 10
17.13409964175212
 20
-27.14552319175937
 30
0.0
 10
17.15206437822776
 20
-27.14911635835066
 30
0.0
 10
17.17002911470336
 20
-27.15270952494183
 30
0.0
 10
17.19158701777024
 20
-27.15270952494183
 30
0.0
 10
17.19158701777024
 20
-27.15270952494183
 30
0.0
 10
17.2059585876546
 20
-27.15270952494183
 30
0.0
 10
17.2059585876546
 20
-27.15270952494183
 30
0.0
 10
17.21314492083707
 20
-27.15270952494183
 30
0.0
 10
17.21673699094779
 20
-27.15270952494183
 30
0.0
 10
17.22033015753901
 20
-27.15270952494183
 30
0.0
 10
17.22033015753901
 20
-27.15270952494183
 30
0.0
 10
17.24188806060584
 20
-27.15270952494183
 30
0.0
 10
17.24188806060584
 20
-27.15270952494183
 30
0.0
 10
17.24188806060584
 20
-27.15270952494183
 30
0.0
 10
17.24548122719706
 20
-27.15270952494183
 30
0.0
 10
17.24548122719706
 20
-27.15270952494183
 30
0.0
 10
17.34967647945955
 20
-27.15270952494183
 30
0.0
 10
17.45746489831329
 20
-27.12396638517306
 30
0.0
 10
17.54728858069138
 20
-27.07366424585689
 30
0.0
 10
17.54728858069138
 20
-27.07366424585689
 30
0.0
 10
17.75208701510564
 20
-26.95509742371003
 30
0.0
 10
17.75208701510564
 20
-26.95509742371003
 30
0.0
 10
17.75208701510564
 20
-26.95509742371003
 30
0.0
 10
18.15808962086246
 20
-26.71796268293575
 30
0.0
 10
18.15808962086246
 20
-26.71796268293575
 30
0.0
 10
18.15808962086246
 20
-26.71796268293575
 30
0.0
 10
18.9736890954478
 20
-26.24369320138718
 30
0.0
 10
18.9736890954478
 20
-26.24369320138718
 30
0.0
 10
18.9736890954478
 20
-26.24369320138718
 30
0.0
 10
20.60488694813797
 20
-25.29515533477052
 30
0.0
 10
20.60488694813797
 20
-25.29515533477052
 30
0.0
 10
20.60488694813797
 20
-25.29515533477052
 30
0.0
 10
20.70908220040042
 20
-25.23407479216121
 30
0.0
 10
20.70908220040042
 20
-25.23407479216121
 30
0.0
 10
20.70908220040042
 20
-25.23407479216121
 30
0.0
 10
20.68033906063167
 20
-27.90363529032669
 30
0.0
 10
20.68033906063167
 20
-27.90363529032669
 30
0.0
 10
20.60848011472919
 20
-27.90363529032669
 30
0.0
 10
20.53662116882672
 20
-27.90363529032669
 30
0.0
 10
20.46476222292424
 20
-27.90363529032669
 30
0.0
 10
20.46476222292424
 20
-27.90363529032669
 30
0.0
 10
20.09468909011866
 20
-27.90722845691789
 30
0.0
 10
20.09468909011866
 20
-27.90722845691789
 30
0.0
 10
20.09468909011866
 20
-27.90722845691789
 30
0.0
 10
19.35094856143577
 20
-27.91441479010033
 30
0.0
 10
19.35094856143577
 20
-27.91441479010033
 30
0.0
 10
19.35094856143577
 20
-27.91441479010033
 30
0.0
 10
17.8670617671418
 20
-27.93237952657596
 30
0.0
 10
17.8670617671418
 20
-27.93237952657596
 30
0.0
 10
17.8670617671418
 20
-27.93237952657596
 30
0.0
 10
14.99629709763389
 20
-27.96471583293598
 30
0.0
 10
14.99629709763389
 20
-27.96471583293598
 30
0.0
 10
15.00348343081628
 20
-27.51559742104544
 30
0.0
 10
15.00707550092703
 20
-27.06647900915499
 30
0.0
 10
15.01426183410947
 20
-26.61736059726445
 30
0.0
 10
15.01426183410947
 20
-26.61736059726445
 30
0.0
 10
15.02504023740261
 20
-25.16940327592172
 30
0.0
 10
15.02504023740261
 20
-25.16940327592172
 30
0.0
 10
15.02504023740261
 20
-25.16940327592172
 30
0.0
 10
15.02863340399388
 20
-24.44722065030568
 30
0.0
 10
15.02863340399388
 20
-24.44722065030568
 30
0.0
 10
15.02863340399388
 20
-24.44722065030568
 30
0.0
 10
15.02863340399388
 20
-23.72503802468966
 30
0.0
 10
15.02863340399388
 20
-23.72503802468966
 30
0.0
 10
15.02863340399388
 20
-23.72503802468966
 30
0.0
 10
15.03222657058508
 20
-22.41720542856061
 30
0.0
 10
15.03222657058508
 20
-22.41720542856061
 30
0.0
 10
15.03222657058508
 20
-22.41720542856061
 30
0.0
 10
15.63584127757374
 20
-22.41720542856061
 30
0.0
 10
15.63584127757374
 20
-22.41720542856061
 30
0.0
 10
15.63584127757374
 20
-22.41720542856061
 30
0.0
 10
16.37958180625658
 20
-22.41361226196942
 30
0.0
 10
16.37958180625658
 20
-22.41361226196942
 30
0.0
 10
16.37958180625658
 20
-22.41361226196942
 30
0.0
 10
17.8634686005506
 20
-22.41001909537815
 30
0.0
 10
17.8634686005506
 20
-22.41001909537815
 30
0.0
 10
17.8634686005506
 20
-22.41001909537815
 30
0.0
 10
19.34735539484457
 20
-22.39564752549379
 30
0.0
 10
19.34735539484457
 20
-22.39564752549379
 30
0.0
 10
19.34735539484457
 20
-22.39564752549379
 30
0.0
 10
20.09109592352744
 20
-22.3848691222006
 30
0.0
 10
20.09109592352744
 20
-22.3848691222006
 30
0.0
 10
20.3066727612349
 20
-22.38127595560938
 30
0.0
 10
20.51865643235106
 20
-22.37768278901816
 30
0.0
 10
20.73423327005851
 20
-22.37409071890743
 30
0.0
 10
20.73423327005851
 20
-22.37409071890743
 30
0.0
 10
20.71986170017415
 20
-23.83282754002385
 30
0.0
 10
20.71986170017415
 20
-23.83282754002385
 30
0.0
 10
20.71986170017415
 20
-23.83282754002385
 30
0.0
 10
20.54740066860035
 20
-23.93342962569515
 30
0.0
 10
20.54740066860035
 20
-23.93342962569515
 30
0.0
 10
20.54740066860035
 20
-23.93342962569515
 30
0.0
 10
18.92338805261213
 20
-24.89274699208545
 30
0.0
 10
18.92338805261213
 20
-24.89274699208545
 30
0.0
 10
18.92338805261213
 20
-24.89274699208545
 30
0.0
 10
17.38920021548251
 20
-25.79816466664644
 30
0.0
 10
17.38920021548251
 20
-25.79816466664644
 30
0.0
  0
SPLINE
  5
44
330
1F
100
AcDbEntity
  8
Layer 1
370
     0
100
AcDbSpline
210
0.0
220
0.0
230
1.0
 70
    11
 71
     3
 72
   218
 73
   214
 74
     0
 42
0.0000000001
 43
0.0000000001
 12
1.0
 22
0.0
 32
0.0
 13
1.0
 23
0.0
 33
0.0
 40
0.0
 40
0.0
 40
0.0
 40
0.0
 40
1.0
 40
1.0
 40
1.0
 40
2.0
 40
2.0
 40
2.0
 40
3.0
 40
3.0
 40
3.0
 40
4.0
 40
4.0
 40
4.0
 40
5.0
 40
5.0
 40
5.0
 40
6.0
 40
6.0
 40
6.0
 40
7.0
 40
7.0
 40
7.0
 40
8.0
 40
8.0
 40
8.0
 40
9.0
 40
9.0
 40
9.0
 40
10.0
 40
10.0
 40
10.0
 40
11.0
 40
11.0
 40
11.0
 40
12.0
 40
12.0
 40
12.0
 40
13.0
 40
13.0
 40
13.0
 40
14.0
 40
14.0
 40
14.0
 40
15.0
 40
15.0
 40
15.0
 40
16.0
 40
16.0
 40
16.0
 40
17.0
 40
17.0
 40
17.0
 40
18.0
 40
18.0
 40
18.0
 40
19.0
 40
19.0
 40
19.0
 40
20.0
 40
20.0
 40
20.0
 40
21.0
 40
21.0
 40
21.0
 40
22.0
 40
22.0
 40
22.0
 40
23.0
 40
23.0
 40
23.0
 40
24.0
 40
24.0
 40
24.0
 40
25.0
 40
25.0
 40
25.0
 40
26.0
 40
26.0
 40
26.0
 40
27.0
 40
27.0
 40
27.0
 40
28.0
 40
28.0
 40
28.0
 40
29.0
 40
29.0
 40
29.0
 40
30.0
 40
30.0
 40
30.0
 40
31.0
 40
31.0
 40
31.0
 40
32.0
 40
32.0
 40
32.0
 40
33.0
 40
33.0
 40
33.0
 40
34.0
 40
34.0
 40
34.0
 40
35.0
 40
35.0
 40
35.0
 40
36.0
 40
36.0
 40
36.0
 40
37.0
 40
37.0
 40
37.0
 40
38.0
 40
38.0
 40
38.0
 40
39.0
 40
39.0
 40
39.0
 40
40.0
 40
40.0
 40
40.0
 40
41.0
 40
41.0
 40
41.0
 40
42.0
 40
42.0
 40
42.0
 40
43.0
 40
43.0
 40
43.0
 40
44.0
 40
44.0
 40
44.0
 40
45.0
 40
45.0
 40
45.0
 40
46.0
 40
46.0
 40
46.0
 40
47.0
 40
47.0
 40
47.0
 40
48.0
 40
48.0
 40
48.0
 40
49.0
 40
49.0
 40
49.0
 40
50.0
 40
50.0
 40
50.0
 40
51.0
 40
51.0
 40
51.0
 40
52.0
 40
52.0
 40
52.0
 40
53.0
 40
53.0
 40
53.0
 40
54.0
 40
54.0
 40
54.0
 40
55.0
 40
55.0
 40
55.0
 40
56.0
 40
56.0
 40
56.0
 40
57.0
 40
57.0
 40
57.0
 40
58.0
 40
58.0
 40
58.0
 40
59.0
 40
59.0
 40
59.0
 40
60.0
 40
60.0
 40
60.0
 40
61.0
 40
61.0
 40
61.0
 40
62.0
 40
62.0
 40
62.0
 40
63.0
 40
63.0
 40
63.0
 40
64.0
 40
64.0
 40
64.0
 40
65.0
 40
65.0
 40
65.0
 40
66.0
 40
66.0
 40
66.0
 40
67.0
 40
67.0
 40
67.0
 40
68.0
 40
68.0
 40
68.0
 40
69.0
 40
69.0
 40
69.0
 40
70.0
 40
70.0
 40
70.0
 40
71.0
 40
71.0
 40
71.0
 40
71.0
 10
23.52954802003377
 20
-23.12501209837023
 30
0.0
 10
23.5187696167406
 20
-23.17890630779713
 30
0.0
 10
23.49721061719331
 20
-23.22920735063273
 30
0.0
 10
23.46128114424202
 20
-23.27232315676643
 30
0.0
 10
23.44331640776636
 20
-23.29388105983331
 30
0.0
 10
23.42535167129083
 20
-23.31184579630892
 30
0.0
 10
23.40379486470445
 20
-23.32621736619333
 30
0.0
 10
23.39301646141126
 20
-23.33340369937574
 30
0.0
 10
23.38223805811809
 20
-23.34058893607769
 30
0.0
 10
23.36786539175316
 20
-23.34777526926016
 30
0.0
 10
23.36786539175316
 20
-23.34777526926016
 30
0.0
 10
23.31756325243704
 20
-23.37651840902893
 30
0.0
 10
23.31756325243704
 20
-23.37651840902893
 30
0.0
 10
23.31756325243704
 20
-23.37651840902893
 30
0.0
 10
22.90796638360851
 20
-23.61005998321199
 30
0.0
 10
22.90796638360851
 20
-23.61005998321199
 30
0.0
 10
22.90796638360851
 20
-23.61005998321199
 30
0.0
 10
22.09236690902316
 20
-24.08073629816936
 30
0.0
 10
22.09236690902316
 20
-24.08073629816936
 30
0.0
 10
22.09236690902316
 20
-24.08073629816936
 30
0.0
 10
20.46117015281349
 20
-25.02927416478597
 30
0.0
 10
20.46117015281349
 20
-25.02927416478597
 30
0.0
 10
20.46117015281349
 20
-25.02927416478597
 30
0.0
 10
18.82997230012329
 20
-25.97421886481142
 30
0.0
 10
18.82997230012329
 20
-25.97421886481142
 30
0.0
 10
18.82997230012329
 20
-25.97421886481142
 30
0.0
 10
18.01437282553803
 20
-26.44489517976869
 30
0.0
 10
18.01437282553803
 20
-26.44489517976869
 30
0.0
 10
18.01437282553803
 20
-26.44489517976869
 30
0.0
 10
17.60477705318997
 20
-26.68202992054299
 30
0.0
 10
17.60477705318997
 20
-26.68202992054299
 30
0.0
 10
17.60477705318997
 20
-26.68202992054299
 30
0.0
 10
17.40357178536692
 20
-26.79700467257918
 30
0.0
 10
17.40357178536692
 20
-26.79700467257918
 30
0.0
 10
17.35686390912249
 20
-26.82215574223722
 30
0.0
 10
17.30656176980637
 20
-26.83652731212164
 30
0.0
 10
17.25626072697072
 20
-26.83652731212164
 30
0.0
 10
17.25626072697072
 20
-26.83652731212164
 30
0.0
 10
17.23829599049511
 20
-26.83652731212164
 30
0.0
 10
17.23829599049511
 20
-26.83652731212164
 30
0.0
 10
17.23470282390389
 20
-26.83652731212164
 30
0.0
 10
17.2311096573127
 20
-26.83652731212164
 30
0.0
 10
17.2311096573127
 20
-26.83652731212164
 30
0.0
 10
17.2311096573127
 20
-26.83652731212164
 30
0.0
 10
17.22751649072143
 20
-26.83652731212164
 30
0.0
 10
17.22751649072143
 20
-26.83652731212164
 30
0.0
 10
17.22033015753901
 20
-26.83652731212164
 30
0.0
 10
17.20955175424584
 20
-26.83293414553042
 30
0.0
 10
17.2023654210634
 20
-26.83293414553042
 30
0.0
 10
17.18440068458777
 20
-26.82934097893922
 30
0.0
 10
17.16643594811214
 20
-26.82574781234795
 30
0.0
 10
17.14847121163653
 20
-26.81856257564603
 30
0.0
 10
17.11254173868529
 20
-26.80778417235286
 30
0.0
 10
17.08379859891647
 20
-26.78622626928604
 30
0.0
 10
17.05505436266718
 20
-26.76466836621916
 30
0.0
 10
17.04068279278282
 20
-26.75029679633475
 30
0.0
 10
17.02990329300916
 20
-26.73951729656109
 30
0.0
 10
17.01553172312475
 20
-26.72514572667673
 30
0.0
 10
17.01553172312475
 20
-26.72514572667673
 30
0.0
 10
16.96163751369785
 20
-26.66047311395667
 30
0.0
 10
16.96163751369785
 20
-26.66047311395667
 30
0.0
 10
16.96163751369785
 20
-26.66047311395667
 30
0.0
 10
16.85744226143536
 20
-26.5311267920361
 30
0.0
 10
16.85744226143536
 20
-26.5311267920361
 30
0.0
 10
16.85744226143536
 20
-26.5311267920361
 30
0.0
 10
16.43706698931368
 20
-26.01374260083435
 30
0.0
 10
16.43706698931368
 20
-26.01374260083435
 30
0.0
 10
16.43706698931368
 20
-26.01374260083435
 30
0.0
 10
16.00950867345103
 20
-25.49276414656086
 30
0.0
 10
16.00950867345103
 20
-25.49276414656086
 30
0.0
 10
16.00950867345103
 20
-25.49276414656086
 30
0.0
 10
15.7975250023348
 20
-25.23407150271974
 30
0.0
 10
15.7975250023348
 20
-25.23407150271974
 30
0.0
 10
15.7975250023348
 20
-25.23407150271974
 30
0.0
 10
15.79033866915233
 20
-25.22688516953728
 30
0.0
 10
15.79033866915233
 20
-25.22688516953728
 30
0.0
 10
15.79033866915233
 20
-25.22688516953728
 30
0.0
 10
15.78674550256111
 20
-25.22329200294608
 30
0.0
 10
15.78674550256111
 20
-25.22329200294608
 30
0.0
 10
15.78674550256111
 20
-25.22329200294608
 30
0.0
 10
15.77596709926795
 20
-25.20532726647045
 30
0.0
 10
15.77596709926795
 20
-25.20532726647045
 30
0.0
 10
15.77237393267675
 20
-25.20173409987923
 30
0.0
 10
15.76518869597481
 20
-25.19454886317726
 30
0.0
 10
15.76518869597481
 20
-25.19095569658609
 30
0.0
 10
15.76518869597481
 20
-25.19095569658609
 30
0.0
 10
15.76159552938356
 20
-25.1801772932929
 30
0.0
 10
15.76159552938356
 20
-25.1801772932929
 30
0.0
 10
15.76159552938356
 20
-25.1801772932929
 30
0.0
 10
15.7544091962011
 20
-25.16939888999971
 30
0.0
 10
15.7544091962011
 20
-25.16939888999971
 30
0.0
 10
15.7544091962011
 20
-25.16939888999971
 30
0.0
 10
15.74722286301865
 20
-25.15502732011529
 30
0.0
 10
15.74722286301865
 20
-25.15502732011529
 30
0.0
 10
15.74362969642746
 20
-25.14784098693288
 30
0.0
 10
15.74003652983624
 20
-25.13706258363971
 30
0.0
 10
15.73644445972546
 20
-25.12987625045725
 30
0.0
 10
15.7220728898411
 20
-25.09394677750601
 30
0.0
 10
15.71488655665864
 20
-25.05801730455475
 30
0.0
 10
15.71488655665864
 20
-25.01849466501229
 30
0.0
 10
15.71488655665864
 20
-24.94304255251862
 30
0.0
 10
15.74362969642746
 20
-24.86399836991414
 30
0.0
 10
15.79393183574358
 20
-24.8065109938961
 30
0.0
 10
15.80111816892605
 20
-24.79932466071366
 30
0.0
 10
15.80830340562794
 20
-24.79213942401169
 30
0.0
 10
15.81548973881041
 20
-24.78495309082922
 30
0.0
 10
15.81548973881041
 20
-24.78495309082922
 30
0.0
 10
15.8262681421036
 20
-24.77417468753609
 30
0.0
 10
15.8262681421036
 20
-24.77417468753609
 30
0.0
 10
15.8262681421036
 20
-24.77417468753609
 30
0.0
 10
15.82986130869482
 20
-24.77058152094484
 30
0.0
 10
15.82986130869482
 20
-24.77058152094484
 30
0.0
 10
15.82986130869482
 20
-24.77058152094484
 30
0.0
 10
15.82986130869482
 20
-24.77058152094484
 30
0.0
 10
15.82986130869482
 20
-24.77058152094484
 30
0.0
 10
15.82986130869482
 20
-24.77058152094484
 30
0.0
 10
15.82986130869482
 20
-24.77058152094484
 30
0.0
 10
15.82986130869482
 20
-24.77058152094484
 30
0.0
 10
15.82986130869482
 20
-24.77058152094484
 30
0.0
 10
15.83345447528604
 20
-24.76698835435364
 30
0.0
 10
15.83345447528604
 20
-24.76698835435364
 30
0.0
 10
15.83345447528604
 20
-24.76698835435364
 30
0.0
 10
15.85141921176169
 20
-24.75620995106045
 30
0.0
 10
15.85141921176169
 20
-24.75620995106045
 30
0.0
 10
15.85501237835287
 20
-24.75261678446923
 30
0.0
 10
15.86219761505484
 20
-24.74543154776726
 30
0.0
 10
15.86579078164606
 20
-24.74543154776726
 30
0.0
 10
15.87297711482852
 20
-24.74183838117604
 30
0.0
 10
15.88016235153044
 20
-24.73824521458482
 30
0.0
 10
15.88734868471288
 20
-24.7346531444741
 30
0.0
 10
15.92327815766412
 20
-24.71668840799849
 30
0.0
 10
15.95920763061536
 20
-24.7059100047053
 30
0.0
 10
15.99873027015784
 20
-24.69872367152288
 30
0.0
 10
16.07777554924279
 20
-24.68794526822972
 30
0.0
 10
16.16041289843841
 20
-24.7059100047053
 30
0.0
 10
16.22508551115849
 20
-24.75261788094973
 30
0.0
 10
16.23227184434091
 20
-24.7598042141322
 30
0.0
 10
16.24305024763407
 20
-24.76339628424292
 30
0.0
 10
16.25023658081649
 20
-24.77058261742534
 30
0.0
 10
16.25023658081649
 20
-24.77058261742534
 30
0.0
 10
16.27179448388337
 20
-24.78854735390097
 30
0.0
 10
16.27179448388337
 20
-24.78854735390097
 30
0.0
 10
16.27179448388337
 20
-24.78854735390097
 30
0.0
 10
16.29335238695019
 20
-24.81010525696779
 30
0.0
 10
16.29335238695019
 20
-24.81010525696779
 30
0.0
 10
16.30053872013266
 20
-24.81729159015026
 30
0.0
 10
16.3113171234258
 20
-24.83166316003467
 30
0.0
 10
16.31850345660827
 20
-24.83884839673659
 30
0.0
 10
16.31850345660827
 20
-24.83884839673659
 30
0.0
 10
16.42629187546203
 20
-24.96819471865718
 30
0.0
 10
16.42629187546203
 20
-24.96819471865718
 30
0.0
 10
16.42629187546203
 20
-24.96819471865718
 30
0.0
 10
16.85744555087684
 20
-25.47839367315694
 30
0.0
 10
16.85744555087684
 20
-25.47839367315694
 30
0.0
 10
17.0011634426818
 20
-25.64726263462002
 30
0.0
 10
17.14488133448678
 20
-25.81972366619372
 30
0.0
 10
17.28859922629176
 20
-25.9885926276568
 30
0.0
 10
17.28859922629176
 20
-25.9885926276568
 30
0.0
 10
17.28859922629176
 20
-25.9885926276568
 30
0.0
 10
17.28859922629176
 20
-25.9885926276568
 30
0.0
 10
17.28859922629176
 20
-25.9885926276568
 30
0.0
 10
17.28859922629176
 20
-25.9885926276568
 30
0.0
 10
17.28859922629176
 20
-25.9885926276568
 30
0.0
 10
17.31734236606058
 20
-26.02452210060801
 30
0.0
 10
17.37123657548742
 20
-26.03530050390117
 30
0.0
 10
17.41435238162108
 20
-26.01015053072362
 30
0.0
 10
17.41435238162108
 20
-26.01015053072362
 30
0.0
 10
19.05273656749371
 20
-25.07598423399137
 30
0.0
 10
19.05273656749371
 20
-25.07598423399137
 30
0.0
 10
19.05273656749371
 20
-25.07598423399137
 30
0.0
 10
20.69112075336635
 20
-24.14181793725912
 30
0.0
 10
20.69112075336635
 20
-24.14181793725912
 30
0.0
 10
20.69112075336635
 20
-24.14181793725912
 30
0.0
 10
22.32591067616729
 20
-23.2040584739357
 30
0.0
 10
22.32591067616729
 20
-23.2040584739357
 30
0.0
 10
22.32591067616729
 20
-23.2040584739357
 30
0.0
 10
22.73550754499572
 20
-22.97051689975263
 30
0.0
 10
22.73550754499572
 20
-22.97051689975263
 30
0.0
 10
22.73550754499572
 20
-22.97051689975263
 30
0.0
 10
22.94030597941001
 20
-22.85195007760573
 30
0.0
 10
22.94030597941001
 20
-22.85195007760573
 30
0.0
 10
22.94030597941001
 20
-22.85195007760573
 30
0.0
 10
23.04090806508131
 20
-22.79446270158767
 30
0.0
 10
23.04090806508131
 20
-22.79446270158767
 30
0.0
 10
23.04090806508131
 20
-22.79446270158767
 30
0.0
 10
23.04809439826375
 20
-22.79086953499644
 30
0.0
 10
23.04809439826375
 20
-22.79086953499644
 30
0.0
 10
23.04809439826375
 20
-22.79086953499644
 30
0.0
 10
23.04809439826375
 20
-22.79086953499644
 30
0.0
 10
23.04809439826375
 20
-22.79086953499644
 30
0.0
 10
23.04809439826375
 20
-22.79086953499644
 30
0.0
 10
23.04809439826375
 20
-22.79086953499644
 30
0.0
 10
23.04809439826375
 20
-22.79086953499644
 30
0.0
 10
23.04809439826375
 20
-22.79086953499644
 30
0.0
 10
23.06246706462869
 20
-22.78368320181398
 30
0.0
 10
23.06246706462869
 20
-22.78368320181398
 30
0.0
 10
23.06246706462869
 20
-22.78368320181398
 30
0.0
 10
23.08761813428671
 20
-22.76931163192956
 30
0.0
 10
23.08761813428671
 20
-22.76931163192956
 30
0.0
 10
23.09121020439743
 20
-22.76931163192956
 30
0.0
 10
23.0983965375799
 20
-22.76571846533837
 30
0.0
 10
23.10199080065164
 20
-22.76571846533837
 30
0.0
 10
23.10558287076234
 20
-22.76212529874715
 30
0.0
 10
23.11276920394481
 20
-22.76212529874715
 30
0.0
 10
23.11995553712728
 20
-22.7585321321559
 30
0.0
 10
23.22415188587024
 20
-22.72619582579591
 30
0.0
 10
23.34631077812782
 20
-22.75134579897344
 30
0.0
 10
23.42535605721276
 20
-22.82679791146716
 30
0.0
 10
23.46487760027478
 20
-22.8627273844184
 30
0.0
 10
23.49721500311524
 20
-22.90943526066278
 30
0.0
 10
23.5151797395909
 20
-22.96332947008967
 30
0.0
 10
23.53314009014449
 20
-23.01363051292527
 30
0.0
 10
23.53673216025522
 20
-23.07111788894341
 30
0.0
 10
23.52954802003377
 20
-23.12501209837023
 30
0.0
  0
HATCH
  5
45
330
1F
100
AcDbEntity
  8
Layer 1
 62
   250
420
  2301728
100
AcDbHatch
 10
0.0
 20
0.0
 30
0.0
210
0.0
220
0.0
230
1.0
  2
SOLID
 70
     1
 71
     0
 91
        4
 92
        1
 93
        1
 72
     4
 94
        3
 73
     0
 74
     1
 95
      287
 96
      283
 40
0.0
 40
0.0
 40
0.0
 40
0.0
 40
1.0
 40
1.0
 40
1.0
 40
2.0
 40
2.0
 40
2.0
 40
3.0
 40
3.0
 40
3.0
 40
4.0
 40
4.0
 40
4.0
 40
5.0
 40
5.0
 40
5.0
 40
6.0
 40
6.0
 40
6.0
 40
7.0
 40
7.0
 40
7.0
 40
8.0
 40
8.0
 40
8.0
 40
9.0
 40
9.0
 40
9.0
 40
10.0
 40
10.0
 40
10.0
 40
11.0
 40
11.0
 40
11.0
 40
12.0
 40
12.0
 40
12.0
 40
13.0
 40
13.0
 40
13.0
 40
14.0
 40
14.0
 40
14.0
 40
15.0
 40
15.0
 40
15.0
 40
16.0
 40
16.0
 40
16.0
 40
17.0
 40
17.0
 40
17.0
 40
18.0
 40
18.0
 40
18.0
 40
19.0
 40
19.0
 40
19.0
 40
20.0
 40
20.0
 40
20.0
 40
21.0
 40
21.0
 40
21.0
 40
22.0
 40
22.0
 40
22.0
 40
23.0
 40
23.0
 40
23.0
 40
24.0
 40
24.0
 40
24.0
 40
25.0
 40
25.0
 40
25.0
 40
26.0
 40
26.0
 40
26.0
 40
27.0
 40
27.0
 40
27.0
 40
28.0
 40
28.0
 40
28.0
 40
29.0
 40
29.0
 40
29.0
 40
30.0
 40
30.0
 40
30.0
 40
31.0
 40
31.0
 40
31.0
 40
32.0
 40
32.0
 40
32.0
 40
33.0
 40
33.0
 40
33.0
 40
34.0
 40
34.0
 40
34.0
 40
35.0
 40
35.0
 40
35.0
 40
36.0
 40
36.0
 40
36.0
 40
37.0
 40
37.0
 40
37.0
 40
38.0
 40
38.0
 40
38.0
 40
39.0
 40
39.0
 40
39.0
 40
40.0
 40
40.0
 40
40.0
 40
41.0
 40
41.0
 40
41.0
 40
42.0
 40
42.0
 40
42.0
 40
43.0
 40
43.0
 40
43.0
 40
44.0
 40
44.0
 40
44.0
 40
45.0
 40
45.0
 40
45.0
 40
46.0
 40
46.0
 40
46.0
 40
47.0
 40
47.0
 40
47.0
 40
48.0
 40
48.0
 40
48.0
 40
49.0
 40
49.0
 40
49.0
 40
50.0
 40
50.0
 40
50.0
 40
51.0
 40
51.0
 40
51.0
 40
52.0
 40
52.0
 40
52.0
 40
53.0
 40
53.0
 40
53.0
 40
54.0
 40
54.0
 40
54.0
 40
55.0
 40
55.0
 40
55.0
 40
56.0
 40
56.0
 40
56.0
 40
57.0
 40
57.0
 40
57.0
 40
58.0
 40
58.0
 40
58.0
 40
59.0
 40
59.0
 40
59.0
 40
60.0
 40
60.0
 40
60.0
 40
61.0
 40
61.0
 40
61.0
 40
62.0
 40
62.0
 40
62.0
 40
63.0
 40
63.0
 40
63.0
 40
64.0
 40
64.0
 40
64.0
 40
65.0
 40
65.0
 40
65.0
 40
66.0
 40
66.0
 40
66.0
 40
67.0
 40
67.0
 40
67.0
 40
68.0
 40
68.0
 40
68.0
 40
69.0
 40
69.0
 40
69.0
 40
70.0
 40
70.0
 40
70.0
 40
71.0
 40
71.0
 40
71.0
 40
72.0
 40
72.0
 40
72.0
 40
73.0
 40
73.0
 40
73.0
 40
74.0
 40
74.0
 40
74.0
 40
75.0
 40
75.0
 40
75.0
 40
76.0
 40
76.0
 40
76.0
 40
77.0
 40
77.0
 40
77.0
 40
78.0
 40
78.0
 40
78.0
 40
79.0
 40
79.0
 40
79.0
 40
80.0
 40
80.0
 40
80.0
 40
81.0
 40
81.0
 40
81.0
 40
82.0
 40
82.0
 40
82.0
 40
83.0
 40
83.0
 40
83.0
 40
84.0
 40
84.0
 40
84.0
 40
85.0
 40
85.0
 40
85.0
 40
86.0
 40
86.0
 40
86.0
 40
87.0
 40
87.0
 40
87.0
 40
88.0
 40
88.0
 40
88.0
 40
89.0
 40
89.0
 40
89.0
 40
90.0
 40
90.0
 40
90.0
 40
91.0
 40
91.0
 40
91.0
 40
92.0
 40
92.0
 40
92.0
 40
93.0
 40
93.0
 40
93.0
 40
94.0
 40
94.0
 40
94.0
 40
94.0
 10
23.78464640080316
 20
-22.86631945452912
 10
23.78464640080316
 20
-22.86631945452912
 10
23.76668166432758
 20
-22.82679681498666
 10
23.76668166432758
 20
-22.82679681498666
 10
23.76668166432758
 20
-22.82679681498666
 10
23.76308959421688
 20
-22.81601841169347
 10
23.76308959421688
 20
-22.81601841169347
 10
23.76308959421688
 20
-22.81601841169347
 10
23.75949752410613
 20
-22.80883207851106
 10
23.75949752410613
 20
-22.80883207851106
 10
23.75949752410613
 20
-22.80883207851106
 10
23.75231119092369
 20
-22.79446050862665
 10
23.75231119092369
 20
-22.79446050862665
 10
23.75231119092369
 20
-22.79446050862665
 10
23.74512485774122
 20
-22.78008893874228
 10
23.74512485774122
 20
-22.78008893874228
 10
23.74512485774122
 20
-22.78008893874228
 10
23.7415327876305
 20
-22.77290260555982
 10
23.7415327876305
 20
-22.77290260555982
 10
23.7415327876305
 20
-22.77290260555982
 10
23.7415327876305
 20
-22.76930943896857
 10
23.7415327876305
 20
-22.76930943896857
 10
23.73434645444806
 20
-22.75493786908419
 10
23.73794071751978
 20
-22.76212310578613
 10
23.73434645444806
 20
-22.75853103567541
 10
23.73434645444806
 20
-22.75853103567541
 10
23.71278964786168
 20
-22.72619472931539
 10
23.71278964786168
 20
-22.72619472931539
 10
23.69841698149677
 20
-22.70463682624856
 10
23.68045224502121
 20
-22.68667208977291
 10
23.6660817716173
 20
-22.66511418670608
 10
23.64811703514164
 20
-22.6471494502305
 10
23.63015229866601
 20
-22.62918471375484
 10
23.61218756219046
 20
-22.61121997727921
 10
23.45769126709231
 20
-22.47468841865669
 10
23.23133602609166
 20
-22.42797944593182
 10
23.03731599497059
 20
-22.4890599885411
 10
23.01216492531249
 20
-22.49624632172357
 10
22.98342178554374
 20
-22.50702472501671
 10
22.95827071588565
 20
-22.51780312830988
 10
22.95827071588565
 20
-22.51780312830988
 10
22.93311964622762
 20
-22.53217469819431
 10
22.93311964622762
 20
-22.53217469819431
 10
22.93311964622762
 20
-22.53217469819431
 10
22.91874697986271
 20
-22.53936103137673
 10
22.91874697986271
 20
-22.53936103137673
 10
22.91874697986271
 20
-22.53936103137673
 10
22.90437431349778
 20
-22.5465473645592
 10
22.90437431349778
 20
-22.5465473645592
 10
22.90437431349778
 20
-22.5465473645592
 10
22.89718798031532
 20
-22.55014053115042
 10
22.89718798031532
 20
-22.55014053115042
 10
22.89718798031532
 20
-22.55014053115042
 10
22.79658589464412
 20
-22.61122107375973
 10
22.79658589464412
 20
-22.61122107375973
 10
22.79658589464412
 20
-22.61122107375973
 10
22.59178746022983
 20
-22.72978789590661
 10
22.59178746022983
 20
-22.72978789590661
 10
22.59178746022983
 20
-22.72978789590661
 10
22.18578485447304
 20
-22.96692263668092
 10
22.18578485447304
 20
-22.96692263668092
 10
22.18578485447304
 20
-22.96692263668092
 10
21.90553540404557
 20
-23.12860526496148
 10
21.90553540404557
 20
-23.12860526496148
 10
21.90553540404557
 20
-22.96332947008967
 10
21.90553540404557
 20
-22.79446160510714
 10
21.90912747415627
 20
-22.62559264364412
 10
21.90912747415627
 20
-22.52499055797287
 10
21.90912747415627
 20
-22.42798054241232
 10
21.90912747415627
 20
-22.32737845674102
 10
21.90912747415627
 20
-22.27707741390539
 10
21.90912747415627
 20
-22.22677637106979
 10
21.90912747415627
 20
-22.17647423175362
 10
21.90912747415627
 20
-22.15132316209555
 10
21.90553540404557
 20
-22.11898685573556
 10
21.90553540404557
 20
-22.09024371596673
 10
21.90553540404557
 20
-22.06150057619794
 10
21.89834907086311
 20
-22.03275633994867
 10
21.89475700075238
 20
-22.00401320017987
 10
21.85523545769037
 20
-21.77047162599683
 10
21.7258880392893
 20
-21.55130162169815
 10
21.53186910464877
 20
-21.40399111154223
 10
21.43485908908817
 20
-21.32853899904851
 10
21.32707067023451
 20
-21.27464478962166
 10
21.20850384808755
 20
-21.23871531667042
 10
21.17976070831881
 20
-21.23152953172818
 10
21.15101647206951
 20
-21.22434374678601
 10
21.11868016570952
 20
-21.21715741360354
 10
21.0863438593495
 20
-21.21356424701237
 10
21.05041438639821
 20
-21.20637846207018
 10
21.02167015014892
 20
-21.20278584371918
 10
21.02167015014892
 20
-21.20278584371918
 10
20.94262487106397
 20
-21.19919267712794
 10
20.94262487106397
 20
-21.19919267712794
 10
20.94262487106397
 20
-21.19919267712794
 10
20.85639435527714
 20
-21.19919267712794
 10
20.85639435527714
 20
-21.19919267712794
 10
20.64441068416095
 20
-21.19919267712794
 10
20.43242701304472
 20
-21.20278584371918
 10
20.21685017533726
 20
-21.20278584371918
 10
19.35454282450751
 20
-21.20637901031038
 10
18.46349233390896
 20
-21.22075058019482
 10
17.55806917694559
 20
-21.22793636513701
 10
16.65264601998211
 20
-21.23871531667042
 10
15.73285238961474
 20
-21.24230793502137
 10
14.8130576627669
 20
-21.24230793502137
 10
14.55436501892579
 20
-21.23871476843017
 10
14.29926663815642
 20
-21.35368952046633
 10
14.12680451010217
 20
-21.54052212192449
 10
14.04057399431526
 20
-21.6339389708938
 10
13.972308215004
 20
-21.74532055633876
 10
13.92919240887035
 20
-21.86748054507686
 10
13.90763450580347
 20
-21.92856108768617
 10
13.89326293591906
 20
-21.98964053381496
 10
13.88607660273662
 20
-22.05790631312624
 10
13.88607660273662
 20
-22.06509264630871
 10
13.88248343614542
 20
-22.07587104960185
 10
13.88248343614542
 20
-22.08305738278432
 10
13.88248343614542
 20
-22.08305738278432
 10
13.88248343614542
 20
-22.10461528585114
 10
13.88248343614542
 20
-22.10461528585114
 10
13.88248343614542
 20
-22.10461528585114
 10
13.87889026955418
 20
-22.14773109198485
 10
13.87889026955418
 20
-22.14773109198485
 10
13.87889026955418
 20
-22.14773109198485
 10
13.87889026955418
 20
-22.15850949527801
 10
13.87889026955418
 20
-22.15850949527801
 10
13.87889026955418
 20
-22.15850949527801
 10
13.87889026955418
 20
-22.1728810651624
 10
13.87889026955418
 20
-22.1728810651624
 10
13.87889026955418
 20
-22.1728810651624
 10
13.87889026955418
 20
-22.19443896822923
 10
13.87889026955418
 20
-22.19443896822923
 10
13.87889026955418
 20
-22.19443896822923
 10
13.87889026955418
 20
-22.23755477436293
 10
13.87889026955418
 20
-22.23755477436293
 10
13.87889026955418
 20
-22.69745158954662
 10
13.87529710296296
 20
-23.15375633461953
 10
13.86811186626101
 20
-23.60646791310127
 10
13.85733346296787
 20
-24.51189107006472
 10
13.8501471297854
 20
-25.40294156066327
 10
13.83936872649221
 20
-26.26524891149299
 10
13.83577555990099
 20
-26.6964025869079
 10
13.83218239330977
 20
-27.12036992914035
 10
13.82859032319905
 20
-27.5371520346708
 10
13.82859032319905
 20
-27.74554253919579
 10
13.82499715660785
 20
-27.95034097361005
 10
13.82499715660785
 20
-28.15513940802432
 10
13.82499715660785
 20
-28.27729939676247
 10
13.85014822626587
 20
-28.39586731538988
 10
13.89326293591906
 20
-28.50724780435429
 10
13.93637874205276
 20
-28.61862938979922
 10
14.0010513547728
 20
-28.7192314754705
 10
14.08009663385774
 20
-28.80546199125739
 10
14.15914191294264
 20
-28.89169250704425
 10
14.25255766543149
 20
-28.96355145294673
 10
14.35316084758326
 20
-29.01744566237362
 10
14.35316084758326
 20
-29.01744566237362
 10
14.43220612666821
 20
-29.05337513532486
 10
14.43220612666821
 20
-29.05337513532486
 10
14.45735719632623
 20
-29.064153538618
 10
14.48610033609505
 20
-29.07133987180047
 10
14.51484347586383
 20
-29.08211827509366
 10
14.56873768529072
 20
-29.09648984497802
 10
14.62263189471757
 20
-29.11086141486243
 10
14.68730450743758
 20
-29.11804774804487
 10
14.70167607732199
 20
-29.12164091463612
 10
14.71964081379759
 20
-29.12164091463612
 10
14.73042031357128
 20
-29.12523408122732
 10
14.73042031357128
 20
-29.12523408122732
 10
14.76634978652252
 20
-29.12523408122732
 10
14.76634978652252
 20
-29.12523408122732
 10
14.76634978652252
 20
-29.12523408122732
 10
14.80227925947373
 20
-29.12523408122732
 10
14.80227925947373
 20
-29.12523408122732
 10
14.80227925947373
 20
-29.12523408122732
 10
14.80946559265617
 20
-29.12523408122732
 10
14.80946559265617
 20
-29.12523408122732
 10
14.82743032913183
 20
-29.12523408122732
 10
14.82024399594937
 20
-29.12523408122732
 10
14.82743032913183
 20
-29.12523408122732
 10
14.82743032913183
 20
-29.12523408122732
 10
14.84539506560746
 20
-29.12523408122732
 10
14.84539506560746
 20
-29.12523408122732
 10
14.89210294185184
 20
-29.12523408122732
 10
14.93881191457679
 20
-29.12523408122732
 10
14.98911295741239
 20
-29.12523408122732
 10
15.08252980638175
 20
-29.12523408122732
 10
15.17594665535105
 20
-29.12164091463612
 10
15.26936240783986
 20
-29.12164091463612
 10
15.64302870723671
 20
-29.11804774804487
 10
16.00232343674907
 20
-29.11445458145365
 10
16.34724659637709
 20
-29.11086251134293
 10
17.03709291563311
 20
-29.10367617816049
 10
17.6694507623905
 20
-29.09649094145852
 10
18.2299507597259
 20
-29.08930460827605
 10
18.79045075706136
 20
-29.08211827509366
 10
19.27909180849429
 20
-29.07852620498291
 10
19.6815012476599
 20
-29.07852620498291
 10
20.48632122247161
 20
-29.07493303839169
 10
20.94621913413572
 20
-29.07493303839169
 10
20.94621913413572
 20
-29.07493303839169
 10
20.94621913413572
 20
-29.07493303839169
 10
20.97855544049574
 20
-29.07493303839169
 10
21.03963598310502
 20
-29.07133987180047
 10
21.10071652571433
 20
-29.064153538618
 10
21.19413227820319
 20
-29.04978196873364
 10
21.30551386364813
 20
-29.00307409248921
 10
21.41689544909309
 20
-28.95636621624478
 10
21.54624177101361
 20
-28.87372777056867
 10
21.66121542656927
 20
-28.7443814486481
 10
21.71510963599621
 20
-28.6761156693368
 10
21.76900384542306
 20
-28.5970703902519
 10
21.80852648496552
 20
-28.50724670787382
 10
21.81571281814798
 20
-28.48209563821572
 10
21.8264901249606
 20
-28.46053883162939
 10
21.83367645814307
 20
-28.43538776197134
 10
21.84086279132553
 20
-28.41023669231324
 10
21.84804912450798
 20
-28.38508671913567
 10
21.85523326472942
 20
-28.35993564947762
 10
21.86241959791189
 20
-28.33478457981957
 10
21.86601166802262
 20
-28.30604144005075
 10
21.86960593109428
 20
-28.27729830028195
 10
21.873198001205
 20
-28.26292673039754
 10
21.873198001205
 20
-28.24855516051318
 10
21.87679226427672
 20
-28.23418249414825
 10
21.87679226427672
 20
-28.22340409085511
 10
21.87679226427672
 20
-28.20903142449025
 10
21.88038433438745
 20
-28.19825302119706
 10
21.88038433438745
 20
-28.18747461790387
 10
21.88038433438745
 20
-28.17310195153896
 10
21.88397640449817
 20
-28.15873038165457
 10
21.88397640449817
 20
-28.15873038165457
 10
21.88397640449817
 20
-28.14435881177016
 10
21.88397640449817
 20
-28.14435881177016
 10
21.88397640449817
 20
-28.14435881177016
 10
21.88397640449817
 20
-28.13358040847702
 10
21.88397640449817
 20
-28.13358040847702
 10
21.88397640449817
 20
-28.13358040847702
 10
21.88397640449817
 20
-28.11561567200139
 10
21.88397640449817
 20
-28.11561567200139
 10
21.88397640449817
 20
-28.09046460234329
 10
21.88397640449817
 20
-28.06531462916574
 10
21.88397640449817
 20
-28.03657039291645
 10
21.88397640449817
 20
-27.9826761834896
 10
21.88397640449817
 20
-27.92878197406276
 10
21.88397640449817
 20
-27.87488776463589
 10
21.88397640449817
 20
-27.76350617919095
 10
21.88397640449817
 20
-27.64853252363529
 10
21.88397640449817
 20
-27.52637143841664
 10
21.88397640449817
 20
-27.28205146094041
 10
21.88756847460889
 20
-27.01976565050806
 10
21.89116273768064
 20
-26.73951620008059
 10
21.89475480779136
 20
-26.17901620274514
 10
21.90194114097383
 20
-25.54665725950723
 10
21.90553540404557
 20
-24.85681203673173
 10
21.90553540404557
 20
-24.75261678446923
 10
21.90553540404557
 20
-24.64482836561549
 10
21.90912747415627
 20
-24.53703994676183
 10
21.90912747415627
 20
-24.53703994676183
 10
22.25045746719305
 20
-24.33942784552998
 10
22.25045746719305
 20
-24.33942784552998
 10
22.25045746719305
 20
-24.33942784552998
 10
23.06605694177839
 20
-23.86515836398141
 10
23.06605694177839
 20
-23.86515836398141
 10
23.06605694177839
 20
-23.86515836398141
 10
23.47205954753518
 20
-23.62802362320713
 10
23.47205954753518
 20
-23.62802362320713
 10
23.47205954753518
 20
-23.62802362320713
 10
23.52236168685133
 20
-23.59928048343833
 10
23.52236168685133
 20
-23.59928048343833
 10
23.54032642332696
 20
-23.58850208014517
 10
23.56547749298498
 20
-23.57412941378023
 10
23.58703429957134
 20
-23.55616467730463
 10
23.62655584263335
 20
-23.52382837094463
 10
23.66607957865628
 20
-23.48789889799339
 10
23.69841478853583
 20
-23.44837625845091
 10
23.76308740125584
 20
-23.36933097936597
 10
23.80620320738952
 20
-23.26872889369474
 10
23.82416794386515
 20
-23.16812680802344
 10
23.82776220693689
 20
-23.06752472235217
 10
23.82057587375443
 20
-22.96332947008967
 10
23.78464640080316
 20
-22.86631945452912
 97
        0
 97
        0
 92
        1
 93
        1
 72
     4
 94
        3
 73
     0
 74
     1
 95
      284
 96
      280
 40
0.0
 40
0.0
 40
0.0
 40
0.0
 40
1.0
 40
1.0
 40
1.0
 40
2.0
 40
2.0
 40
2.0
 40
3.0
 40
3.0
 40
3.0
 40
4.0
 40
4.0
 40
4.0
 40
5.0
 40
5.0
 40
5.0
 40
6.0
 40
6.0
 40
6.0
 40
7.0
 40
7.0
 40
7.0
 40
8.0
 40
8.0
 40
8.0
 40
9.0
 40
9.0
 40
9.0
 40
10.0
 40
10.0
 40
10.0
 40
11.0
 40
11.0
 40
11.0
 40
12.0
 40
12.0
 40
12.0
 40
13.0
 40
13.0
 40
13.0
 40
14.0
 40
14.0
 40
14.0
 40
15.0
 40
15.0
 40
15.0
 40
16.0
 40
16.0
 40
16.0
 40
17.0
 40
17.0
 40
17.0
 40
18.0
 40
18.0
 40
18.0
 40
19.0
 40
19.0
 40
19.0
 40
20.0
 40
20.0
 40
20.0
 40
21.0
 40
21.0
 40
21.0
 40
22.0
 40
22.0
 40
22.0
 40
23.0
 40
23.0
 40
23.0
 40
24.0
 40
24.0
 40
24.0
 40
25.0
 40
25.0
 40
25.0
 40
26.0
 40
26.0
 40
26.0
 40
27.0
 40
27.0
 40
27.0
 40
28.0
 40
28.0
 40
28.0
 40
29.0
 40
29.0
 40
29.0
 40
30.0
 40
30.0
 40
30.0
 40
31.0
 40
31.0
 40
31.0
 40
32.0
 40
32.0
 40
32.0
 40
33.0
 40
33.0
 40
33.0
 40
34.0
 40
34.0
 40
34.0
 40
35.0
 40
35.0
 40
35.0
 40
36.0
 40
36.0
 40
36.0
 40
37.0
 40
37.0
 40
37.0
 40
38.0
 40
38.0
 40
38.0
 40
39.0
 40
39.0
 40
39.0
 40
40.0
 40
40.0
 40
40.0
 40
41.0
 40
41.0
 40
41.0
 40
42.0
 40
42.0
 40
42.0
 40
43.0
 40
43.0
 40
43.0
 40
44.0
 40
44.0
 40
44.0
 40
45.0
 40
45.0
 40
45.0
 40
46.0
 40
46.0
 40
46.0
 40
47.0
 40
47.0
 40
47.0
 40
48.0
 40
48.0
 40
48.0
 40
49.0
 40
49.0
 40
49.0
 40
50.0
 40
50.0
 40
50.0
 40
51.0
 40
51.0
 40
51.0
 40
52.0
 40
52.0
 40
52.0
 40
53.0
 40
53.0
 40
53.0
 40
54.0
 40
54.0
 40
54.0
 40
55.0
 40
55.0
 40
55.0
 40
56.0
 40
56.0
 40
56.0
 40
57.0
 40
57.0
 40
57.0
 40
58.0
 40
58.0
 40
58.0
 40
59.0
 40
59.0
 40
59.0
 40
60.0
 40
60.0
 40
60.0
 40
61.0
 40
61.0
 40
61.0
 40
62.0
 40
62.0
 40
62.0
 40
63.0
 40
63.0
 40
63.0
 40
64.0
 40
64.0
 40
64.0
 40
65.0
 40
65.0
 40
65.0
 40
66.0
 40
66.0
 40
66.0
 40
67.0
 40
67.0
 40
67.0
 40
68.0
 40
68.0
 40
68.0
 40
69.0
 40
69.0
 40
69.0
 40
70.0
 40
70.0
 40
70.0
 40
71.0
 40
71.0
 40
71.0
 40
72.0
 40
72.0
 40
72.0
 40
73.0
 40
73.0
 40
73.0
 40
74.0
 40
74.0
 40
74.0
 40
75.0
 40
75.0
 40
75.0
 40
76.0
 40
76.0
 40
76.0
 40
77.0
 40
77.0
 40
77.0
 40
78.0
 40
78.0
 40
78.0
 40
79.0
 40
79.0
 40
79.0
 40
80.0
 40
80.0
 40
80.0
 40
81.0
 40
81.0
 40
81.0
 40
82.0
 40
82.0
 40
82.0
 40
83.0
 40
83.0
 40
83.0
 40
84.0
 40
84.0
 40
84.0
 40
85.0
 40
85.0
 40
85.0
 40
86.0
 40
86.0
 40
86.0
 40
87.0
 40
87.0
 40
87.0
 40
88.0
 40
88.0
 40
88.0
 40
89.0
 40
89.0
 40
89.0
 40
90.0
 40
90.0
 40
90.0
 40
91.0
 40
91.0
 40
91.0
 40
92.0
 40
92.0
 40
92.0
 40
93.0
 40
93.0
 40
93.0
 40
93.0
 10
21.65402909338682
 20
-24.86040520332295
 10
21.66121542656927
 20
-25.55025152257897
 10
21.66480749668002
 20
-26.1826093693364
 10
21.66840066327126
 20
-26.74310936667181
 10
21.67199382986246
 20
-27.0233588170993
 10
21.67199382986246
 20
-27.28564462753164
 10
21.67558699645373
 20
-27.52996460500786
 10
21.67558699645373
 20
-27.65212459374601
 10
21.67558699645373
 20
-27.76709934578215
 10
21.67558699645373
 20
-27.87848093122711
 10
21.67558699645373
 20
-27.93237514065395
 10
21.67558699645373
 20
-27.98986251667207
 10
21.67558699645373
 20
-28.04016355950767
 10
21.67558699645373
 20
-28.06531462916574
 10
21.67558699645373
 20
-28.09405776893456
 10
21.67558699645373
 20
-28.11920883859261
 10
21.67558699645373
 20
-28.11920883859261
 10
21.67558699645373
 20
-28.13717357506822
 10
21.67558699645373
 20
-28.13717357506822
 10
21.67558699645373
 20
-28.13717357506822
 10
21.67558699645373
 20
-28.14795197836141
 10
21.67558699645373
 20
-28.14795197836141
 10
21.67558699645373
 20
-28.14795197836141
 10
21.67558699645373
 20
-28.14795197836141
 10
21.67558699645373
 20
-28.14795197836141
 10
21.67558699645373
 20
-28.14795197836141
 10
21.67558699645373
 20
-28.15154514495263
 10
21.67558699645373
 20
-28.15154514495263
 10
21.67558699645373
 20
-28.16591671483704
 10
21.67558699645373
 20
-28.17669621461068
 10
21.67558699645373
 20
-28.19106778449506
 10
21.67558699645373
 20
-28.20184618778825
 10
21.67558699645373
 20
-28.21621885415316
 10
21.67558699645373
 20
-28.22699725744633
 10
21.67558699645373
 20
-28.23777566073952
 10
21.67199382986246
 20
-28.24855516051318
 10
21.67199382986246
 20
-28.25574039721512
 10
21.66840066327126
 20
-28.27729830028195
 10
21.66840066327126
 20
-28.29526303675756
 10
21.66121542656927
 20
-28.31682093982444
 10
21.65402909338682
 20
-28.33837884289131
 10
21.6504370232761
 20
-28.35634357936689
 10
21.64325069009374
 20
-28.37790148243372
 10
21.63606435691127
 20
-28.39586621890933
 10
21.62887912020927
 20
-28.41742412197621
 10
21.62169278702681
 20
-28.43538885845181
 10
21.58935648066679
 20
-28.50724780435429
 10
21.54983384112433
 20
-28.5719204170743
 10
21.50671803499068
 20
-28.6258146265012
 10
21.41689435261254
 20
-28.73000987876369
 10
21.31629226694132
 20
-28.79468358796422
 10
21.22646858456318
 20
-28.83061306091546
 10
21.14023806877634
 20
-28.8665425338667
 10
21.06478595628267
 20
-28.87732093715989
 10
21.01807808003819
 20
-28.88450727034231
 10
20.96777703720254
 20
-28.88810043693353
 10
20.94262596754452
 20
-28.88810043693353
 10
20.94262596754452
 20
-28.88810043693353
 10
20.94262596754452
 20
-28.88810043693353
 10
20.48272915236084
 20
-28.88450727034231
 10
19.67790808106868
 20
-28.88450727034231
 10
19.27549754542257
 20
-28.88450727034231
 10
18.78685759047014
 20
-28.88091410375106
 10
18.22635759313468
 20
-28.87372886704917
 10
17.66585759579925
 20
-28.8665425338667
 10
17.03349865256137
 20
-28.85935729716476
 10
16.34365342978584
 20
-28.85217096398229
 10
15.99873027015784
 20
-28.84857779739107
 10
15.63943554064543
 20
-28.84498463079982
 10
15.26576924124864
 20
-28.8413925606891
 10
15.17235239227933
 20
-28.8413925606891
 10
15.07893554331
 20
-28.83779939409788
 10
14.98551979082117
 20
-28.83779939409788
 10
14.93881191457679
 20
-28.83779939409788
 10
14.89210294185184
 20
-28.83779939409788
 10
14.84180189901619
 20
-28.83779939409788
 10
14.84180189901619
 20
-28.83779939409788
 10
14.82383716254058
 20
-28.83779939409788
 10
14.82383716254058
 20
-28.83779939409788
 10
14.82383716254058
 20
-28.83779939409788
 10
14.82383716254058
 20
-28.83779939409788
 10
14.82024399594937
 20
-28.83779939409788
 10
14.82024399594937
 20
-28.83779939409788
 10
14.8130576627669
 20
-28.83779939409788
 10
14.8130576627669
 20
-28.83779939409788
 10
14.8130576627669
 20
-28.83779939409788
 10
14.77712818981571
 20
-28.83420622750668
 10
14.77712818981571
 20
-28.83420622750668
 10
14.77712818981571
 20
-28.83420622750668
 10
14.74119871686442
 20
-28.83061306091546
 10
14.74119871686442
 20
-28.83061306091546
 10
14.73042031357128
 20
-28.83061306091546
 10
14.72323398038881
 20
-28.82701989432422
 10
14.7160476472064
 20
-28.82701989432422
 10
14.68371134084638
 20
-28.82342672773299
 10
14.64418870130392
 20
-28.81264832443986
 10
14.60466606176144
 20
-28.80186882466617
 10
14.60466606176144
 20
-28.80186882466617
 10
14.55077185233459
 20
-28.78031092159929
 10
14.55077185233459
 20
-28.78031092159929
 10
14.55077185233459
 20
-28.78031092159929
 10
14.49687764290772
 20
-28.75515985194129
 10
14.49687764290772
 20
-28.75515985194129
 10
14.42861186359647
 20
-28.71563721239881
 10
14.36393815439593
 20
-28.66533616956316
 10
14.31004394496904
 20
-28.60425562695385
 10
14.20584869270654
 20
-28.48209563821572
 10
14.14117498350606
 20
-28.32400617652638
 10
14.13758291339534
 20
-28.15873038165457
 10
14.13398974680407
 20
-27.9575251138315
 10
14.13398974680407
 20
-27.75272777589779
 10
14.13039658021287
 20
-27.54433617489227
 10
14.12680341362165
 20
-27.1275540693618
 10
14.12321024703043
 20
-26.70358672712935
 10
14.1196181769197
 20
-26.27243305171449
 10
14.10883977362651
 20
-25.41012570088472
 10
14.10165344044405
 20
-24.51907521028617
 10
14.09087503715088
 20
-23.61365205332271
 10
14.08728187055969
 20
-23.16094047484097
 10
14.08368870396847
 20
-22.70463682624856
 10
14.08009663385774
 20
-22.24473891458441
 10
14.08009663385774
 20
-22.24473891458441
 10
14.08009663385774
 20
-22.20162310845068
 10
14.08009663385774
 20
-22.20162310845068
 10
14.08009663385774
 20
-22.20162310845068
 10
14.08009663385774
 20
-22.18006520538382
 10
14.08009663385774
 20
-22.18006520538382
 10
14.08009663385774
 20
-22.18006520538382
 10
14.08009663385774
 20
-22.18006520538382
 10
14.08009663385774
 20
-22.18006520538382
 10
14.08009663385774
 20
-22.18006520538382
 10
14.08009663385774
 20
-22.18006520538382
 10
14.08009663385774
 20
-22.17647203879265
 10
14.08009663385774
 20
-22.17647203879265
 10
14.08368980044896
 20
-22.12257782936576
 10
14.08368980044896
 20
-22.12257782936576
 10
14.08368980044896
 20
-22.12257782936576
 10
14.08368980044896
 20
-22.10101992629893
 10
14.08368980044896
 20
-22.10101992629893
 10
14.08368980044896
 20
-22.09383359311646
 10
14.08728296704016
 20
-22.09024152300577
 10
14.08728296704016
 20
-22.0830551898233
 10
14.09446930022263
 20
-22.03993938368959
 10
14.10524770351579
 20
-21.98963834085397
 10
14.11961927340018
 20
-21.93933729801837
 10
14.15195557976022
 20
-21.84592044904901
 10
14.20584978918706
 20
-21.75609676667093
 10
14.27411556849832
 20
-21.68064465417721
 10
14.41064712712083
 20
-21.52974042918984
 10
14.60825922835263
 20
-21.43991729505198
 10
14.8130576627669
 20
-21.43991729505198
 10
15.73285238961474
 20
-21.43991729505198
 10
16.6526471164626
 20
-21.44351046164318
 10
17.55806917694559
 20
-21.45428886493634
 10
18.46349233390896
 20
-21.46147464987853
 10
19.35454282450751
 20
-21.472253601412
 10
20.21685017533726
 20
-21.47943938635419
 10
20.43242701304472
 20
-21.47943938635419
 10
20.64800385075212
 20
-21.48303255294541
 10
20.85639435527714
 20
-21.48303255294541
 10
20.85639435527714
 20
-21.48303255294541
 10
20.92825330117961
 20
-21.48303255294541
 10
20.92825330117961
 20
-21.48303255294541
 10
20.92825330117961
 20
-21.48303255294541
 10
21.00729858026456
 20
-21.48662571953663
 10
21.00729858026456
 20
-21.48662571953663
 10
21.02885648333138
 20
-21.49021888612782
 10
21.04682121980702
 20
-21.49381150447882
 10
21.06837912287384
 20
-21.49740467107004
 10
21.0899370259407
 20
-21.50099783766129
 10
21.11149492900752
 20
-21.50818362260346
 10
21.12945966548316
 20
-21.5117767891947
 10
21.21209701467882
 20
-21.53692785885275
 10
21.29114229376377
 20
-21.57644940191472
 10
21.35940807307497
 20
-21.63034361134161
 10
21.49593963169749
 20
-21.7345388636041
 10
21.58935648066679
 20
-21.89262832529344
 10
21.62169278702681
 20
-22.05790412016523
 10
21.62528595361808
 20
-22.07946202323208
 10
21.62887912020927
 20
-22.10101992629893
 10
21.62887912020927
 20
-22.11898466277454
 10
21.62887912020927
 20
-22.14054256584136
 10
21.63247228680055
 20
-22.15850730231699
 10
21.63247228680055
 20
-22.18365727549457
 10
21.63247228680055
 20
-22.23395831833022
 10
21.63247228680055
 20
-22.28425936116587
 10
21.63247228680055
 20
-22.33456150048199
 10
21.63247228680055
 20
-22.43516358615327
 10
21.63247228680055
 20
-22.53576676830501
 10
21.63247228680055
 20
-22.63277568738512
 10
21.63247228680055
 20
-22.85553885827497
 10
21.63247228680055
 20
-23.07830093268436
 10
21.63606545339174
 20
-23.29387777039179
 10
21.63606545339174
 20
-23.29387777039179
 10
20.95340546731818
 20
-23.69269513944664
 10
20.95340546731818
 20
-23.69269513944664
 10
20.95340546731818
 20
-23.69269513944664
 10
20.9390338974338
 20
-22.26988779128146
 10
20.9390338974338
 20
-22.26988779128146
 10
20.9390338974338
 20
-22.21599358185457
 10
20.89591809130007
 20
-22.17287777572091
 10
20.84202388187322
 20
-22.17287777572091
 10
20.84202388187322
 20
-22.17287777572091
 10
20.84202388187322
 20
-22.17287777572091
 10
20.84202388187322
 20
-22.17287777572091
 10
20.5941107378058
 20
-22.16928460912969
 10
20.34619759373832
 20
-22.16569144253845
 10
20.09828335319035
 20
-22.16209937242772
 10
20.09828335319035
 20
-22.16209937242772
 10
19.35454282450751
 20
-22.15132096913456
 10
19.35454282450751
 20
-22.15132096913456
 10
19.35454282450751
 20
-22.15132096913456
 10
17.87065603021352
 20
-22.13694939925017
 10
17.87065603021352
 20
-22.13694939925017
 10
17.87065603021352
 20
-22.13694939925017
 10
16.38676923591955
 20
-22.13335623265895
 10
16.38676923591955
 20
-22.13335623265895
 10
16.38676923591955
 20
-22.13335623265895
 10
15.64302870723671
 20
-22.12976306606773
 10
15.64302870723671
 20
-22.12976306606773
 10
15.64302870723671
 20
-22.12976306606773
 10
14.89928817855379
 20
-22.12976306606773
 10
14.89928817855379
 20
-22.12976306606773
 10
14.89928817855379
 20
-22.12976306606773
 10
14.89928817855379
 20
-22.12976306606773
 10
14.89928817855379
 20
-22.12976306606773
 10
14.82383606606009
 20
-22.12976306606773
 10
14.7627566199313
 20
-22.19084360867701
 10
14.7627566199313
 20
-22.26988779128146
 10
14.7627566199313
 20
-22.26988779128146
 10
14.76634978652252
 20
-23.71784511262422
 10
14.76634978652252
 20
-23.71784511262422
 10
14.76634978652252
 20
-23.71784511262422
 10
14.76634978652252
 20
-24.44002773824021
 10
14.76634978652252
 20
-24.44002773824021
 10
14.76634978652252
 20
-24.44002773824021
 10
14.76994295311371
 20
-25.16221036385625
 10
14.76994295311371
 20
-25.16221036385625
 10
14.76994295311371
 20
-25.16221036385625
 10
14.78072135640691
 20
-26.61016768519903
 10
14.78072135640691
 20
-26.61016768519903
 10
14.78790768958935
 20
-27.09162240344957
 10
14.79149975970007
 20
-27.57667028829133
 10
14.79868609288254
 20
-28.05812500654179
 10
14.79868609288254
 20
-28.05812500654179
 10
14.79868609288254
 20
-28.05812500654179
 10
14.79868609288254
 20
-28.05812500654179
 10
14.79868609288254
 20
-28.11201921596868
 10
14.84180189901619
 20
-28.15513502210236
 10
14.89569610844309
 20
-28.15513502210236
 10
14.89569610844309
 20
-28.15513502210236
 10
19.35095075439679
 20
-28.20543606493798
 10
19.35095075439679
 20
-28.20543606493798
 10
19.35095075439679
 20
-28.20543606493798
 10
20.09469128307965
 20
-28.2126223981204
 10
20.09469128307965
 20
-28.2126223981204
 10
20.09469128307965
 20
-28.2126223981204
 10
20.46476441588523
 20
-28.21621556471167
 10
20.46476441588523
 20
-28.21621556471167
 10
20.58692440462333
 20
-28.21621556471167
 10
20.71267755995271
 20
-28.21621556471167
 10
20.83483754869076
 20
-28.21621556471167
 10
20.83483754869076
 20
-28.21621556471167
 10
20.83843071528203
 20
-28.21621556471167
 10
20.83843071528203
 20
-28.21621556471167
 10
20.83843071528203
 20
-28.21621556471167
 10
20.83843071528203
 20
-28.21621556471167
 10
20.83843071528203
 20
-28.21621556471167
 10
20.92466123106889
 20
-28.21621556471167
 10
20.99292701038017
 20
-28.14435661880919
 10
20.99292701038017
 20
-28.05812610302231
 10
20.99292701038017
 20
-28.05812610302231
 10
20.96059070402018
 20
-25.08316508477133
 10
20.96059070402018
 20
-25.08316508477133
 10
20.96059070402018
 20
-25.08316508477133
 10
21.63606435691127
 20
-24.68794088230768
 10
21.63606435691127
 20
-24.68794088230768
 10
21.65043592679563
 20
-24.74543154776726
 10
21.65043592679563
 20
-24.80291782730483
 10
21.65402909338682
 20
-24.86040520332295
 97
        0
 97
        0
 92
        1
 93
        1
 72
     4
 94
        3
 73
     0
 74
     1
 95
      215
 96
      211
 40
0.0
 40
0.0
 40
0.0
 40
0.0
 40
1.0
 40
1.0
 40
1.0
 40
2.0
 40
2.0
 40
2.0
 40
3.0
 40
3.0
 40
3.0
 40
4.0
 40
4.0
 40
4.0
 40
5.0
 40
5.0
 40
5.0
 40
6.0
 40
6.0
 40
6.0
 40
7.0
 40
7.0
 40
7.0
 40
8.0
 40
8.0
 40
8.0
 40
9.0
 40
9.0
 40
9.0
 40
10.0
 40
10.0
 40
10.0
 40
11.0
 40
11.0
 40
11.0
 40
12.0
 40
12.0
 40
12.0
 40
13.0
 40
13.0
 40
13.0
 40
14.0
 40
14.0
 40
14.0
 40
15.0
 40
15.0
 40
15.0
 40
16.0
 40
16.0
 40
16.0
 40
17.0
 40
17.0
 40
17.0
 40
18.0
 40
18.0
 40
18.0
 40
19.0
 40
19.0
 40
19.0
 40
20.0
 40
20.0
 40
20.0
 40
21.0
 40
21.0
 40
21.0
 40
22.0
 40
22.0
 40
22.0
 40
23.0
 40
23.0
 40
23.0
 40
24.0
 40
24.0
 40
24.0
 40
25.0
 40
25.0
 40
25.0
 40
26.0
 40
26.0
 40
26.0
 40
27.0
 40
27.0
 40
27.0
 40
28.0
 40
28.0
 40
28.0
 40
29.0
 40
29.0
 40
29.0
 40
30.0
 40
30.0
 40
30.0
 40
31.0
 40
31.0
 40
31.0
 40
32.0
 40
32.0
 40
32.0
 40
33.0
 40
33.0
 40
33.0
 40
34.0
 40
34.0
 40
34.0
 40
35.0
 40
35.0
 40
35.0
 40
36.0
 40
36.0
 40
36.0
 40
37.0
 40
37.0
 40
37.0
 40
38.0
 40
38.0
 40
38.0
 40
39.0
 40
39.0
 40
39.0
 40
40.0
 40
40.0
 40
40.0
 40
41.0
 40
41.0
 40
41.0
 40
42.0
 40
42.0
 40
42.0
 40
43.0
 40
43.0
 40
43.0
 40
44.0
 40
44.0
 40
44.0
 40
45.0
 40
45.0
 40
45.0
 40
46.0
 40
46.0
 40
46.0
 40
47.0
 40
47.0
 40
47.0
 40
48.0
 40
48.0
 40
48.0
 40
49.0
 40
49.0
 40
49.0
 40
50.0
 40
50.0
 40
50.0
 40
51.0
 40
51.0
 40
51.0
 40
52.0
 40
52.0
 40
52.0
 40
53.0
 40
53.0
 40
53.0
 40
54.0
 40
54.0
 40
54.0
 40
55.0
 40
55.0
 40
55.0
 40
56.0
 40
56.0
 40
56.0
 40
57.0
 40
57.0
 40
57.0
 40
58.0
 40
58.0
 40
58.0
 40
59.0
 40
59.0
 40
59.0
 40
60.0
 40
60.0
 40
60.0
 40
61.0
 40
61.0
 40
61.0
 40
62.0
 40
62.0
 40
62.0
 40
63.0
 40
63.0
 40
63.0
 40
64.0
 40
64.0
 40
64.0
 40
65.0
 40
65.0
 40
65.0
 40
66.0
 40
66.0
 40
66.0
 40
67.0
 40
67.0
 40
67.0
 40
68.0
 40
68.0
 40
68.0
 40
69.0
 40
69.0
 40
69.0
 40
70.0
 40
70.0
 40
70.0
 40
70.0
 10
17.38920021548251
 20
-25.79816466664644
 10
17.27063339333563
 20
-25.64366837154827
 10
17.15206547470823
 20
-25.48917097996966
 10
17.03349865256137
 20
-25.33826785146274
 10
17.03349865256137
 20
-25.33826785146274
 10
16.62390288021334
 20
-24.8101041604873
 10
16.62390288021334
 20
-24.8101041604873
 10
16.62390288021334
 20
-24.8101041604873
 10
16.51970762795084
 20
-24.68075783856673
 10
16.51970762795084
 20
-24.68075783856673
 10
16.50892922465765
 20
-24.66997943527359
 10
16.50533605806643
 20
-24.6591999354999
 10
16.49096448818204
 20
-24.64842153220674
 10
16.48018608488888
 20
-24.63404996232233
 10
16.46940658511519
 20
-24.62327046254866
 10
16.45503501523076
 20
-24.60889889266425
 10
16.45503501523076
 20
-24.60889889266425
 10
16.41551237568829
 20
-24.57296941971302
 10
16.41551237568829
 20
-24.57296941971302
 10
16.40114080580391
 20
-24.56219101641985
 10
16.38676923591955
 20
-24.55141151664619
 10
16.37239656955464
 20
-24.540633113353
 10
16.25382974740776
 20
-24.45799576415735
 10
16.10651868901156
 20
-24.41847312461487
 10
15.96639396379783
 20
-24.4364378610905
 10
15.89453501789535
 20
-24.44362419427297
 10
15.82267607199287
 20
-24.46518100085932
 10
15.75800345927284
 20
-24.49751840369981
 10
15.74003872279721
 20
-24.50829680699301
 10
15.7220739863216
 20
-24.51548314017544
 10
15.70410924984599
 20
-24.52626154346864
 10
15.69333084655283
 20
-24.53344787665105
 10
15.68973767996158
 20
-24.53344787665105
 10
15.68614451337036
 20
-24.540633113353
 10
15.68614451337036
 20
-24.540633113353
 10
15.6681797768947
 20
-24.55141151664619
 10
15.6681797768947
 20
-24.55141151664619
 10
15.6681797768947
 20
-24.55141151664619
 10
15.66099344371226
 20
-24.55859784982865
 10
15.66099344371226
 20
-24.55859784982865
 10
15.66099344371226
 20
-24.55859784982865
 10
15.65380711052985
 20
-24.56578418301109
 10
15.65380711052985
 20
-24.56578418301109
 10
15.65380711052985
 20
-24.56578418301109
 10
15.6502139439386
 20
-24.56937734960229
 10
15.6502139439386
 20
-24.56937734960229
 10
15.6502139439386
 20
-24.56937734960229
 10
15.64662077734743
 20
-24.57297051619354
 10
15.64662077734743
 20
-24.57297051619354
 10
15.64662077734743
 20
-24.57297051619354
 10
15.62506287428055
 20
-24.59093525266912
 10
15.62506287428055
 20
-24.59093525266912
 10
15.61069130439614
 20
-24.60171365596231
 10
15.59991180462248
 20
-24.61608632232724
 10
15.58554023473807
 20
-24.6304578922116
 10
15.48493814906682
 20
-24.73824631106532
 10
15.42745077304873
 20
-24.87837103627905
 10
15.42385760645751
 20
-25.02568209467525
 10
15.42385760645751
 20
-25.0975410405777
 10
15.4346360097507
 20
-25.17299315307145
 10
15.45619391281753
 20
-25.24125893238266
 10
15.45978707940874
 20
-25.25922366885831
 10
15.47056548270189
 20
-25.27718840533394
 10
15.47775181588435
 20
-25.29155997521831
 10
15.47775181588435
 20
-25.29155997521831
 10
15.48853021917754
 20
-25.31671104487638
 10
15.48853021917754
 20
-25.31671104487638
 10
15.48853021917754
 20
-25.31671104487638
 10
15.50290178906195
 20
-25.34186211453445
 10
15.50290178906195
 20
-25.34186211453445
 10
15.50290178906195
 20
-25.34186211453445
 10
15.51727335894637
 20
-25.36701318419255
 10
15.51727335894637
 20
-25.36701318419255
 10
15.52445969212878
 20
-25.37779158748572
 10
15.52445969212878
 20
-25.37779158748572
 10
15.53164492883073
 20
-25.38497792066816
 10
15.53164492883073
 20
-25.38497792066816
 10
15.54242333212392
 20
-25.40294265714374
 10
15.54242333212392
 20
-25.40294265714374
 10
15.54242333212392
 20
-25.40294265714374
 10
15.54601649871509
 20
-25.40653582373501
 10
15.54601649871509
 20
-25.40653582373501
 10
15.54601649871509
 20
-25.40653582373501
 10
15.54601649871509
 20
-25.4101289903262
 10
15.54601649871509
 20
-25.4101289903262
 10
15.54601649871509
 20
-25.4101289903262
 10
15.55320283189755
 20
-25.41731532350867
 10
15.55320283189755
 20
-25.41731532350867
 10
15.55320283189755
 20
-25.41731532350867
 10
15.56038916508002
 20
-25.42450165669111
 10
15.56038916508002
 20
-25.42450165669111
 10
15.56038916508002
 20
-25.42450165669111
 10
15.76877966960501
 20
-25.68678637064295
 10
15.76877966960501
 20
-25.68678637064295
 10
15.76877966960501
 20
-25.68678637064295
 10
16.18556177513549
 20
-26.20776372843594
 10
16.18556177513549
 20
-26.20776372843594
 10
16.18556177513549
 20
-26.20776372843594
 10
16.60234388066599
 20
-26.72874108622894
 10
16.60234388066599
 20
-26.72874108622894
 10
16.60234388066599
 20
-26.72874108622894
 10
16.70653913292848
 20
-26.85808740814948
 10
16.70653913292848
 20
-26.85808740814948
 10
16.70653913292848
 20
-26.85808740814948
 10
16.76043334235533
 20
-26.92276002086952
 10
16.76043334235533
 20
-26.92276002086952
 10
16.78199124542216
 20
-26.94791109052757
 10
16.80714121859976
 20
-26.97665423029639
 10
16.83588545484905
 20
-27.00180529995441
 10
16.89337283086711
 20
-27.05210634279006
 10
16.95804544358715
 20
-27.09162898233254
 10
17.02631122289843
 20
-27.11678005199059
 10
17.06224069584965
 20
-27.13115162187501
 10
17.09817016880091
 20
-27.13833795505747
 10
17.13409964175212
 20
-27.14552319175937
 10
17.15206437822776
 20
-27.14911635835066
 10
17.17002911470336
 20
-27.15270952494183
 10
17.19158701777024
 20
-27.15270952494183
 10
17.19158701777024
 20
-27.15270952494183
 10
17.2059585876546
 20
-27.15270952494183
 10
17.2059585876546
 20
-27.15270952494183
 10
17.21314492083707
 20
-27.15270952494183
 10
17.21673699094779
 20
-27.15270952494183
 10
17.22033015753901
 20
-27.15270952494183
 10
17.22033015753901
 20
-27.15270952494183
 10
17.24188806060584
 20
-27.15270952494183
 10
17.24188806060584
 20
-27.15270952494183
 10
17.24188806060584
 20
-27.15270952494183
 10
17.24548122719706
 20
-27.15270952494183
 10
17.24548122719706
 20
-27.15270952494183
 10
17.34967647945955
 20
-27.15270952494183
 10
17.45746489831329
 20
-27.12396638517306
 10
17.54728858069138
 20
-27.07366424585689
 10
17.54728858069138
 20
-27.07366424585689
 10
17.75208701510564
 20
-26.95509742371003
 10
17.75208701510564
 20
-26.95509742371003
 10
17.75208701510564
 20
-26.95509742371003
 10
18.15808962086246
 20
-26.71796268293575
 10
18.15808962086246
 20
-26.71796268293575
 10
18.15808962086246
 20
-26.71796268293575
 10
18.9736890954478
 20
-26.24369320138718
 10
18.9736890954478
 20
-26.24369320138718
 10
18.9736890954478
 20
-26.24369320138718
 10
20.60488694813797
 20
-25.29515533477052
 10
20.60488694813797
 20
-25.29515533477052
 10
20.60488694813797
 20
-25.29515533477052
 10
20.70908220040042
 20
-25.23407479216121
 10
20.70908220040042
 20
-25.23407479216121
 10
20.70908220040042
 20
-25.23407479216121
 10
20.68033906063167
 20
-27.90363529032669
 10
20.68033906063167
 20
-27.90363529032669
 10
20.60848011472919
 20
-27.90363529032669
 10
20.53662116882672
 20
-27.90363529032669
 10
20.46476222292424
 20
-27.90363529032669
 10
20.46476222292424
 20
-27.90363529032669
 10
20.09468909011866
 20
-27.90722845691789
 10
20.09468909011866
 20
-27.90722845691789
 10
20.09468909011866
 20
-27.90722845691789
 10
19.35094856143577
 20
-27.91441479010033
 10
19.35094856143577
 20
-27.91441479010033
 10
19.35094856143577
 20
-27.91441479010033
 10
17.8670617671418
 20
-27.93237952657596
 10
17.8670617671418
 20
-27.93237952657596
 10
17.8670617671418
 20
-27.93237952657596
 10
14.99629709763389
 20
-27.96471583293598
 10
14.99629709763389
 20
-27.96471583293598
 10
15.00348343081628
 20
-27.51559742104544
 10
15.00707550092703
 20
-27.06647900915499
 10
15.01426183410947
 20
-26.61736059726445
 10
15.01426183410947
 20
-26.61736059726445
 10
15.02504023740261
 20
-25.16940327592172
 10
15.02504023740261
 20
-25.16940327592172
 10
15.02504023740261
 20
-25.16940327592172
 10
15.02863340399388
 20
-24.44722065030568
 10
15.02863340399388
 20
-24.44722065030568
 10
15.02863340399388
 20
-24.44722065030568
 10
15.02863340399388
 20
-23.72503802468966
 10
15.02863340399388
 20
-23.72503802468966
 10
15.02863340399388
 20
-23.72503802468966
 10
15.03222657058508
 20
-22.41720542856061
 10
15.03222657058508
 20
-22.41720542856061
 10
15.03222657058508
 20
-22.41720542856061
 10
15.63584127757374
 20
-22.41720542856061
 10
15.63584127757374
 20
-22.41720542856061
 10
15.63584127757374
 20
-22.41720542856061
 10
16.37958180625658
 20
-22.41361226196942
 10
16.37958180625658
 20
-22.41361226196942
 10
16.37958180625658
 20
-22.41361226196942
 10
17.8634686005506
 20
-22.41001909537815
 10
17.8634686005506
 20
-22.41001909537815
 10
17.8634686005506
 20
-22.41001909537815
 10
19.34735539484457
 20
-22.39564752549379
 10
19.34735539484457
 20
-22.39564752549379
 10
19.34735539484457
 20
-22.39564752549379
 10
20.09109592352744
 20
-22.3848691222006
 10
20.09109592352744
 20
-22.3848691222006
 10
20.3066727612349
 20
-22.38127595560938
 10
20.51865643235106
 20
-22.37768278901816
 10
20.73423327005851
 20
-22.37409071890743
 10
20.73423327005851
 20
-22.37409071890743
 10
20.71986170017415
 20
-23.83282754002385
 10
20.71986170017415
 20
-23.83282754002385
 10
20.71986170017415
 20
-23.83282754002385
 10
20.54740066860035
 20
-23.93342962569515
 10
20.54740066860035
 20
-23.93342962569515
 10
20.54740066860035
 20
-23.93342962569515
 10
18.92338805261213
 20
-24.89274699208545
 10
18.92338805261213
 20
-24.89274699208545
 10
18.92338805261213
 20
-24.89274699208545
 10
17.38920021548251
 20
-25.79816466664644
 10
17.38920021548251
 20
-25.79816466664644
 97
        0
 97
        0
 92
        1
 93
        1
 72
     4
 94
        3
 73
     0
 74
     1
 95
      218
 96
      214
 40
0.0
 40
0.0
 40
0.0
 40
0.0
 40
1.0
 40
1.0
 40
1.0
 40
2.0
 40
2.0
 40
2.0
 40
3.0
 40
3.0
 40
3.0
 40
4.0
 40
4.0
 40
4.0
 40
5.0
 40
5.0
 40
5.0
 40
6.0
 40
6.0
 40
6.0
 40
7.0
 40
7.0
 40
7.0
 40
8.0
 40
8.0
 40
8.0
 40
9.0
 40
9.0
 40
9.0
 40
10.0
 40
10.0
 40
10.0
 40
11.0
 40
11.0
 40
11.0
 40
12.0
 40
12.0
 40
12.0
 40
13.0
 40
13.0
 40
13.0
 40
14.0
 40
14.0
 40
14.0
 40
15.0
 40
15.0
 40
15.0
 40
16.0
 40
16.0
 40
16.0
 40
17.0
 40
17.0
 40
17.0
 40
18.0
 40
18.0
 40
18.0
 40
19.0
 40
19.0
 40
19.0
 40
20.0
 40
20.0
 40
20.0
 40
21.0
 40
21.0
 40
21.0
 40
22.0
 40
22.0
 40
22.0
 40
23.0
 40
23.0
 40
23.0
 40
24.0
 40
24.0
 40
24.0
 40
25.0
 40
25.0
 40
25.0
 40
26.0
 40
26.0
 40
26.0
 40
27.0
 40
27.0
 40
27.0
 40
28.0
 40
28.0
 40
28.0
 40
29.0
 40
29.0
 40
29.0
 40
30.0
 40
30.0
 40
30.0
 40
31.0
 40
31.0
 40
31.0
 40
32.0
 40
32.0
 40
32.0
 40
33.0
 40
33.0
 40
33.0
 40
34.0
 40
34.0
 40
34.0
 40
35.0
 40
35.0
 40
35.0
 40
36.0
 40
36.0
 40
36.0
 40
37.0
 40
37.0
 40
37.0
 40
38.0
 40
38.0
 40
38.0
 40
39.0
 40
39.0
 40
39.0
 40
40.0
 40
40.0
 40
40.0
 40
41.0
 40
41.0
 40
41.0
 40
42.0
 40
42.0
 40
42.0
 40
43.0
 40
43.0
 40
43.0
 40
44.0
 40
44.0
 40
44.0
 40
45.0
 40
45.0
 40
45.0
 40
46.0
 40
46.0
 40
46.0
 40
47.0
 40
47.0
 40
47.0
 40
48.0
 40
48.0
 40
48.0
 40
49.0
 40
49.0
 40
49.0
 40
50.0
 40
50.0
 40
50.0
 40
51.0
 40
51.0
 40
51.0
 40
52.0
 40
52.0
 40
52.0
 40
53.0
 40
53.0
 40
53.0
 40
54.0
 40
54.0
 40
54.0
 40
55.0
 40
55.0
 40
55.0
 40
56.0
 40
56.0
 40
56.0
 40
57.0
 40
57.0
 40
57.0
 40
58.0
 40
58.0
 40
58.0
 40
59.0
 40
59.0
 40
59.0
 40
60.0
 40
60.0
 40
60.0
 40
61.0
 40
61.0
 40
61.0
 40
62.0
 40
62.0
 40
62.0
 40
63.0
 40
63.0
 40
63.0
 40
64.0
 40
64.0
 40
64.0
 40
65.0
 40
65.0
 40
65.0
 40
66.0
 40
66.0
 40
66.0
 40
67.0
 40
67.0
 40
67.0
 40
68.0
 40
68.0
 40
68.0
 40
69.0
 40
69.0
 40
69.0
 40
70.0
 40
70.0
 40
70.0
 40
71.0
 40
71.0
 40
71.0
 40
71.0
 10
23.52954802003377
 20
-23.12501209837023
 10
23.5187696167406
 20
-23.17890630779713
 10
23.49721061719331
 20
-23.22920735063273
 10
23.46128114424202
 20
-23.27232315676643
 10
23.44331640776636
 20
-23.29388105983331
 10
23.42535167129083
 20
-23.31184579630892
 10
23.40379486470445
 20
-23.32621736619333
 10
23.39301646141126
 20
-23.33340369937574
 10
23.38223805811809
 20
-23.34058893607769
 10
23.36786539175316
 20
-23.34777526926016
 10
23.36786539175316
 20
-23.34777526926016
 10
23.31756325243704
 20
-23.37651840902893
 10
23.31756325243704
 20
-23.37651840902893
 10
23.31756325243704
 20
-23.37651840902893
 10
22.90796638360851
 20
-23.61005998321199
 10
22.90796638360851
 20
-23.61005998321199
 10
22.90796638360851
 20
-23.61005998321199
 10
22.09236690902316
 20
-24.08073629816936
 10
22.09236690902316
 20
-24.08073629816936
 10
22.09236690902316
 20
-24.08073629816936
 10
20.46117015281349
 20
-25.02927416478597
 10
20.46117015281349
 20
-25.02927416478597
 10
20.46117015281349
 20
-25.02927416478597
 10
18.82997230012329
 20
-25.97421886481142
 10
18.82997230012329
 20
-25.97421886481142
 10
18.82997230012329
 20
-25.97421886481142
 10
18.01437282553803
 20
-26.44489517976869
 10
18.01437282553803
 20
-26.44489517976869
 10
18.01437282553803
 20
-26.44489517976869
 10
17.60477705318997
 20
-26.68202992054299
 10
17.60477705318997
 20
-26.68202992054299
 10
17.60477705318997
 20
-26.68202992054299
 10
17.40357178536692
 20
-26.79700467257918
 10
17.40357178536692
 20
-26.79700467257918
 10
17.35686390912249
 20
-26.82215574223722
 10
17.30656176980637
 20
-26.83652731212164
 10
17.25626072697072
 20
-26.83652731212164
 10
17.25626072697072
 20
-26.83652731212164
 10
17.23829599049511
 20
-26.83652731212164
 10
17.23829599049511
 20
-26.83652731212164
 10
17.23470282390389
 20
-26.83652731212164
 10
17.2311096573127
 20
-26.83652731212164
 10
17.2311096573127
 20
-26.83652731212164
 10
17.2311096573127
 20
-26.83652731212164
 10
17.22751649072143
 20
-26.83652731212164
 10
17.22751649072143
 20
-26.83652731212164
 10
17.22033015753901
 20
-26.83652731212164
 10
17.20955175424584
 20
-26.83293414553042
 10
17.2023654210634
 20
-26.83293414553042
 10
17.18440068458777
 20
-26.82934097893922
 10
17.16643594811214
 20
-26.82574781234795
 10
17.14847121163653
 20
-26.81856257564603
 10
17.11254173868529
 20
-26.80778417235286
 10
17.08379859891647
 20
-26.78622626928604
 10
17.05505436266718
 20
-26.76466836621916
 10
17.04068279278282
 20
-26.75029679633475
 10
17.02990329300916
 20
-26.73951729656109
 10
17.01553172312475
 20
-26.72514572667673
 10
17.01553172312475
 20
-26.72514572667673
 10
16.96163751369785
 20
-26.66047311395667
 10
16.96163751369785
 20
-26.66047311395667
 10
16.96163751369785
 20
-26.66047311395667
 10
16.85744226143536
 20
-26.5311267920361
 10
16.85744226143536
 20
-26.5311267920361
 10
16.85744226143536
 20
-26.5311267920361
 10
16.43706698931368
 20
-26.01374260083435
 10
16.43706698931368
 20
-26.01374260083435
 10
16.43706698931368
 20
-26.01374260083435
 10
16.00950867345103
 20
-25.49276414656086
 10
16.00950867345103
 20
-25.49276414656086
 10
16.00950867345103
 20
-25.49276414656086
 10
15.7975250023348
 20
-25.23407150271974
 10
15.7975250023348
 20
-25.23407150271974
 10
15.7975250023348
 20
-25.23407150271974
 10
15.79033866915233
 20
-25.22688516953728
 10
15.79033866915233
 20
-25.22688516953728
 10
15.79033866915233
 20
-25.22688516953728
 10
15.78674550256111
 20
-25.22329200294608
 10
15.78674550256111
 20
-25.22329200294608
 10
15.78674550256111
 20
-25.22329200294608
 10
15.77596709926795
 20
-25.20532726647045
 10
15.77596709926795
 20
-25.20532726647045
 10
15.77237393267675
 20
-25.20173409987923
 10
15.76518869597481
 20
-25.19454886317726
 10
15.76518869597481
 20
-25.19095569658609
 10
15.76518869597481
 20
-25.19095569658609
 10
15.76159552938356
 20
-25.1801772932929
 10
15.76159552938356
 20
-25.1801772932929
 10
15.76159552938356
 20
-25.1801772932929
 10
15.7544091962011
 20
-25.16939888999971
 10
15.7544091962011
 20
-25.16939888999971
 10
15.7544091962011
 20
-25.16939888999971
 10
15.74722286301865
 20
-25.15502732011529
 10
15.74722286301865
 20
-25.15502732011529
 10
15.74362969642746
 20
-25.14784098693288
 10
15.74003652983624
 20
-25.13706258363971
 10
15.73644445972546
 20
-25.12987625045725
 10
15.7220728898411
 20
-25.09394677750601
 10
15.71488655665864
 20
-25.05801730455475
 10
15.71488655665864
 20
-25.01849466501229
 10
15.71488655665864
 20
-24.94304255251862
 10
15.74362969642746
 20
-24.86399836991414
 10
15.79393183574358
 20
-24.8065109938961
 10
15.80111816892605
 20
-24.79932466071366
 10
15.80830340562794
 20
-24.79213942401169
 10
15.81548973881041
 20
-24.78495309082922
 10
15.81548973881041
 20
-24.78495309082922
 10
15.8262681421036
 20
-24.77417468753609
 10
15.8262681421036
 20
-24.77417468753609
 10
15.8262681421036
 20
-24.77417468753609
 10
15.82986130869482
 20
-24.77058152094484
 10
15.82986130869482
 20
-24.77058152094484
 10
15.82986130869482
 20
-24.77058152094484
 10
15.82986130869482
 20
-24.77058152094484
 10
15.82986130869482
 20
-24.77058152094484
 10
15.82986130869482
 20
-24.77058152094484
 10
15.82986130869482
 20
-24.77058152094484
 10
15.82986130869482
 20
-24.77058152094484
 10
15.82986130869482
 20
-24.77058152094484
 10
15.83345447528604
 20
-24.76698835435364
 10
15.83345447528604
 20
-24.76698835435364
 10
15.83345447528604
 20
-24.76698835435364
 10
15.85141921176169
 20
-24.75620995106045
 10
15.85141921176169
 20
-24.75620995106045
 10
15.85501237835287
 20
-24.75261678446923
 10
15.86219761505484
 20
-24.74543154776726
 10
15.86579078164606
 20
-24.74543154776726
 10
15.87297711482852
 20
-24.74183838117604
 10
15.88016235153044
 20
-24.73824521458482
 10
15.88734868471288
 20
-24.7346531444741
 10
15.92327815766412
 20
-24.71668840799849
 10
15.95920763061536
 20
-24.7059100047053
 10
15.99873027015784
 20
-24.69872367152288
 10
16.07777554924279
 20
-24.68794526822972
 10
16.16041289843841
 20
-24.7059100047053
 10
16.22508551115849
 20
-24.75261788094973
 10
16.23227184434091
 20
-24.7598042141322
 10
16.24305024763407
 20
-24.76339628424292
 10
16.25023658081649
 20
-24.77058261742534
 10
16.25023658081649
 20
-24.77058261742534
 10
16.27179448388337
 20
-24.78854735390097
 10
16.27179448388337
 20
-24.78854735390097
 10
16.27179448388337
 20
-24.78854735390097
 10
16.29335238695019
 20
-24.81010525696779
 10
16.29335238695019
 20
-24.81010525696779
 10
16.30053872013266
 20
-24.81729159015026
 10
16.3113171234258
 20
-24.83166316003467
 10
16.31850345660827
 20
-24.83884839673659
 10
16.31850345660827
 20
-24.83884839673659
 10
16.42629187546203
 20
-24.96819471865718
 10
16.42629187546203
 20
-24.96819471865718
 10
16.42629187546203
 20
-24.96819471865718
 10
16.85744555087684
 20
-25.47839367315694
 10
16.85744555087684
 20
-25.47839367315694
 10
17.0011634426818
 20
-25.64726263462002
 10
17.14488133448678
 20
-25.81972366619372
 10
17.28859922629176
 20
-25.9885926276568
 10
17.28859922629176
 20
-25.9885926276568
 10
17.28859922629176
 20
-25.9885926276568
 10
17.28859922629176
 20
-25.9885926276568
 10
17.28859922629176
 20
-25.9885926276568
 10
17.28859922629176
 20
-25.9885926276568
 10
17.28859922629176
 20
-25.9885926276568
 10
17.31734236606058
 20
-26.02452210060801
 10
17.37123657548742
 20
-26.03530050390117
 10
17.41435238162108
 20
-26.01015053072362
 10
17.41435238162108
 20
-26.01015053072362
 10
19.05273656749371
 20
-25.07598423399137
 10
19.05273656749371
 20
-25.07598423399137
 10
19.05273656749371
 20
-25.07598423399137
 10
20.69112075336635
 20
-24.14181793725912
 10
20.69112075336635
 20
-24.14181793725912
 10
20.69112075336635
 20
-24.14181793725912
 10
22.32591067616729
 20
-23.2040584739357
 10
22.32591067616729
 20
-23.2040584739357
 10
22.32591067616729
 20
-23.2040584739357
 10
22.73550754499572
 20
-22.97051689975263
 10
22.73550754499572
 20
-22.97051689975263
 10
22.73550754499572
 20
-22.97051689975263
 10
22.94030597941001
 20
-22.85195007760573
 10
22.94030597941001
 20
-22.85195007760573
 10
22.94030597941001
 20
-22.85195007760573
 10
23.04090806508131
 20
-22.79446270158767
 10
23.04090806508131
 20
-22.79446270158767
 10
23.04090806508131
 20
-22.79446270158767
 10
23.04809439826375
 20
-22.79086953499644
 10
23.04809439826375
 20
-22.79086953499644
 10
23.04809439826375
 20
-22.79086953499644
 10
23.04809439826375
 20
-22.79086953499644
 10
23.04809439826375
 20
-22.79086953499644
 10
23.04809439826375
 20
-22.79086953499644
 10
23.04809439826375
 20
-22.79086953499644
 10
23.04809439826375
 20
-22.79086953499644
 10
23.04809439826375
 20
-22.79086953499644
 10
23.06246706462869
 20
-22.78368320181398
 10
23.06246706462869
 20
-22.78368320181398
 10
23.06246706462869
 20
-22.78368320181398
 10
23.08761813428671
 20
-22.76931163192956
 10
23.08761813428671
 20
-22.76931163192956
 10
23.09121020439743
 20
-22.76931163192956
 10
23.0983965375799
 20
-22.76571846533837
 10
23.10199080065164
 20
-22.76571846533837
 10
23.10558287076234
 20
-22.76212529874715
 10
23.11276920394481
 20
-22.76212529874715
 10
23.11995553712728
 20
-22.7585321321559
 10
23.22415188587024
 20
-22.72619582579591
 10
23.34631077812782
 20
-22.75134579897344
 10
23.42535605721276
 20
-22.82679791146716
 10
23.46487760027478
 20
-22.8627273844184
 10
23.49721500311524
 20
-22.90943526066278
 10
23.5151797395909
 20
-22.96332947008967
 10
23.53314009014449
 20
-23.01363051292527
 10
23.53673216025522
 20
-23.07111788894341
 10
23.52954802003377
 20
-23.12501209837023
 97
        0
 97
        0
 75
     2
 76
     1
 98
        0
  0
ENDSEC
  0
SECTION
  2
OBJECTS
  0
DICTIONARY
  5
C
330
0
100
AcDbDictionary
281
     1
  3
ACAD_GROUP
350
D
  3
ACAD_LAYOUT
350
1A
  3
ACAD_MATERIAL
350
3B
  3
ACAD_MLEADERSTYLE
350
47
  3
ACAD_MLINESTYLE
350
17
  3
ACAD_PLOTSETTINGS
350
19
  3
ACAD_PLOTSTYLENAME
350
E
  3
ACAD_TABLESTYLE
350
46
  3
ACAD_VISUALSTYLE
350
2A
  0
SUN
  5
3F
330
29
100
AcDbSun
 90
        1
290
     0
 63
     7
421
 16777215
 40
1.0
291
     1
 91
  2455826
 92
 54000000
292
     0
 70
     2
 71
   256
280
     1
  0
DICTIONARY
  5
D
102
{ACAD_REACTORS
330
C
102
}
330
C
100
AcDbDictionary
281
     1
  0
DICTIONARY
  5
1A
102
{ACAD_REACTORS
330
C
102
}
330
C
100
AcDbDictionary
281
     1
  3
Layout1
350
1E
  3
Layout2
350
26
  3
Model
350
22
  0
DICTIONARY
  5
3B
102
{ACAD_REACTORS
330
C
102
}
330
C
100
AcDbDictionary
281
     1
  3
ByBlock
350
3D
  3
ByLayer
350
3C
  3
Global
350
3E
  0
DICTIONARY
  5
47
102
{ACAD_REACTORS
330
C
102
}
330
C
100
AcDbDictionary
281
     1
  0
DICTIONARY
  5
17
102
{ACAD_REACTORS
330
C
102
}
330
C
100
AcDbDictionary
281
     1
  3
Standard
350
18
  0
DICTIONARY
  5
19
102
{ACAD_REACTORS
330
C
102
}
330
C
100
AcDbDictionary
281
     1
  0
ACDBDICTIONARYWDFLT
  5
E
102
{ACAD_REACTORS
330
C
102
}
330
C
100
AcDbDictionary
281
     1
  3
Normal
350
F
100
AcDbDictionaryWithDefault
340
F
  0
DICTIONARY
  5
46
102
{ACAD_REACTORS
330
C
102
}
330
C
100
AcDbDictionary
281
     1
  0
DICTIONARY
  5
2A
102
{ACAD_REACTORS
330
C
102
}
330
C
100
AcDbDictionary
281
     1
  3
2dWireframe
350
2F
  3
3D Hidden
350
31
  3
3dWireframe
350
30
  3
Basic
350
32
  3
Brighten
350
36
  3
ColorChange
350
3A
  3
Conceptual
350
34
  3
Dim
350
35
  3
Facepattern
350
39
  3
Flat
350
2B
  3
FlatWithEdges
350
2C
  3
Gouraud
350
2D
  3
GouraudWithEdges
350
2E
  3
Linepattern
350
38
  3
Realistic
350
33
  3
Thicken
350
37
  0
LAYOUT
  5
1E
102
{ACAD_REACTORS
330
1A
102
}
330
1A
100
AcDbPlotSettings
  1

  2
none_device
  4

  6

 40
0.0
 41
0.0
 42
0.0
 43
0.0
 44
0.0
 45
0.0
 46
0.0
 47
0.0
 48
0.0
 49
0.0
140
0.0
141
0.0
142
1.0
143
1.0
 70
   688
 72
     0
 73
     0
 74
     5
  7

 75
    16
 76
     0
 77
     2
 78
   300
147
1.0
148
0.0
149
0.0
100
AcDbLayout
  1
Layout1
 70
     1
 71
     1
 10
0.0
 20
0.0
 11
12.0
 21
9.0
 12
0.0
 22
0.0
 32
0.0
 14
1.000000000000000E+20
 24
1.000000000000000E+20
 34
1.000000000000000E+20
 15
-1.000000000000000E+20
 25
-1.000000000000000E+20
 35
-1.000000000000000E+20
146
0.0
 13
0.0
 23
0.0
 33
0.0
 16
1.0
 26
0.0
 36
0.0
 17
0.0
 27
1.0
 37
0.0
 76
     0
330
1B
  0
LAYOUT
  5
26
102
{ACAD_REACTORS
330
1A
102
}
330
1A
100
AcDbPlotSettings
  1

  2
none_device
  4

  6

 40
0.0
 41
0.0
 42
0.0
 43
0.0
 44
0.0
 45
0.0
 46
0.0
 47
0.0
 48
0.0
 49
0.0
140
0.0
141
0.0
142
1.0
143
1.0
 70
   688
 72
     0
 73
     0
 74
     5
  7

 75
    16
 76
     0
 77
     2
 78
   300
147
1.0
148
0.0
149
0.0
100
AcDbLayout
  1
Layout2
 70
     1
 71
     2
 10
0.0
 20
0.0
 11
0.0
 21
0.0
 12
0.0
 22
0.0
 32
0.0
 14
0.0
 24
0.0
 34
0.0
 15
0.0
 25
0.0
 35
0.0
146
0.0
 13
0.0
 23
0.0
 33
0.0
 16
1.0
 26
0.0
 36
0.0
 17
0.0
 27
1.0
 37
0.0
 76
     0
330
23
  0
LAYOUT
  5
22
102
{ACAD_REACTORS
330
1A
102
}
330
1A
100
AcDbPlotSettings
  1

  2
none_device
  4

  6

 40
0.0
 41
0.0
 42
0.0
 43
0.0
 44
0.0
 45
0.0
 46
0.0
 47
0.0
 48
0.0
 49
0.0
140
0.0
141
0.0
142
1.0
143
1.0
 70
  1712
 72
     0
 73
     0
 74
     0
  7

 75
     0
 76
     0
 77
     2
 78
   300
147
1.0
148
0.0
149
0.0
100
AcDbLayout
  1
Model
 70
     1
 71
     0
 10
0.0
 20
0.0
 11
12.0
 21
9.0
 12
0.0
 22
0.0
 32
0.0
 14
1.000000000000000E+20
 24
1.000000000000000E+20
 34
1.000000000000000E+20
 15
-1.000000000000000E+20
 25
-1.000000000000000E+20
 35
-1.000000000000000E+20
146
0.0
 13
0.0
 23
0.0
 33
0.0
 16
1.0
 26
0.0
 36
0.0
 17
0.0
 27
1.0
 37
0.0
 76
     0
330
1F
331
29
  0
MATERIAL
  5
3D
102
{ACAD_REACTORS
330
3B
102
}
330
3B
100
AcDbMaterial
  1
ByBlock
 72
     1
 94
      127
  0
MATERIAL
  5
3C
102
{ACAD_REACTORS
330
3B
102
}
330
3B
100
AcDbMaterial
  1
ByLayer
 72
     1
 94
      127
  0
MATERIAL
  5
3E
102
{ACAD_REACTORS
330
3B
102
}
330
3B
100
AcDbMaterial
  1
Global
 72
     1
 94
      127
  0
MLINESTYLE
  5
18
102
{ACAD_REACTORS
330
17
102
}
330
17
100
AcDbMlineStyle
  2
Standard
 70
     0
  3

 62
   256
 51
90.0
 52
90.0
 71
     2
 49
0.5
 62
   256
  6
BYLAYER
 49
-0.5
 62
   256
  6
BYLAYER
  0
ACDBPLACEHOLDER
  5
F
102
{ACAD_REACTORS
330
E
102
}
330
E
  0
VISUALSTYLE
  5
2F
102
{ACAD_REACTORS
330
2A
102
}
330
2A
100
AcDbVisualStyle
  2
2dWireframe
 70
     4
177
     2
291
     0
 71
     0
176
     1
 72
     2
176
     1
 73
     0
176
     1
 90
        0
176
     1
 40
-0.6
176
     1
 41
-30.0
176
     1
 62
     5
 63
     7
421
 16777215
176
     1
 74
     1
176
     1
 91
        4
176
     1
 64
     7
176
     1
 65
   257
176
     1
 75
     1
176
     1
175
     1
176
     1
 42
1.0
176
     1
 92
        0
176
     1
 66
   257
176
     1
 43
1.0
176
     1
 76
     1
176
     1
 77
     6
176
     1
 78
     2
176
     1
 67
     7
176
     1
 79
     5
176
     1
170
     0
176
     1
171
     0
176
     1
290
     0
176
     1
 93
        1
176
     1
 44
0.0
176
     1
173
     0
176
     1
  0
VISUALSTYLE
  5
31
102
{ACAD_REACTORS
330
2A
102
}
330
2A
100
AcDbVisualStyle
  2
3D Hidden
 70
     6
177
     2
291
     0
 71
     1
176
     1
 72
     2
176
     1
 73
     2
176
     1
 90
        0
176
     1
 40
-0.6
176
     1
 41
-30.0
176
     1
 62
     5
 63
     7
421
 16777215
176
     1
 74
     2
176
     1
 91
        2
176
     1
 64
     7
176
     1
 65
   257
176
     1
 75
     2
176
     1
175
     1
176
     1
 42
40.0
176
     1
 92
        0
176
     1
 66
   257
176
     1
 43
1.0
176
     1
 76
     1
176
     1
 77
     6
176
     1
 78
     2
176
     1
 67
     7
176
     1
 79
     3
176
     1
170
     0
176
     1
171
     0
176
     1
290
     0
176
     1
 93
        1
176
     1
 44
0.0
176
     1
173
     0
176
     1
  0
VISUALSTYLE
  5
30
102
{ACAD_REACTORS
330
2A
102
}
330
2A
100
AcDbVisualStyle
  2
3dWireframe
 70
     5
177
     2
291
     0
 71
     0
176
     1
 72
     2
176
     1
 73
     0
176
     1
 90
        0
176
     1
 40
-0.6
176
     1
 41
-30.0
176
     1
 62
     5
 63
     7
421
 16777215
176
     1
 74
     1
176
     1
 91
        4
176
     1
 64
     7
176
     1
 65
   257
176
     1
 75
     1
176
     1
175
     1
176
     1
 42
1.0
176
     1
 92
        0
176
     1
 66
   257
176
     1
 43
1.0
176
     1
 76
     1
176
     1
 77
     6
176
     1
 78
     2
176
     1
 67
     7
176
     1
 79
     5
176
     1
170
     0
176
     1
171
     0
176
     1
290
     0
176
     1
 93
        1
176
     1
 44
0.0
176
     1
173
     0
176
     1
  0
VISUALSTYLE
  5
32
102
{ACAD_REACTORS
330
2A
102
}
330
2A
100
AcDbVisualStyle
  2
Basic
 70
     7
177
     2
291
     1
 71
     1
176
     1
 72
     0
176
     1
 73
     1
176
     1
 90
        0
176
     1
 40
-0.6
176
     1
 41
-30.0
176
     1
 62
     5
 63
     7
421
 16777215
176
     1
 74
     0
176
     1
 91
        4
176
     1
 64
     7
176
     1
 65
   257
176
     1
 75
     1
176
     1
175
     1
176
     1
 42
1.0
176
     1
 92
        8
176
     1
 66
     7
176
     1
 43
1.0
176
     1
 76
     1
176
     1
 77
     6
176
     1
 78
     2
176
     1
 67
     7
176
     1
 79
     5
176
     1
170
     0
176
     1
171
     0
176
     1
290
     0
176
     1
 93
        1
176
     1
 44
0.0
176
     1
173
     0
176
     1
  0
VISUALSTYLE
  5
36
102
{ACAD_REACTORS
330
2A
102
}
330
2A
100
AcDbVisualStyle
  2
Brighten
 70
    12
177
     2
291
     1
 71
     2
176
     1
 72
     2
176
     1
 73
     0
176
     1
 90
        0
176
     1
 40
-0.6
176
     1
 41
-30.0
176
     1
 62
     5
 63
     7
421
 16777215
176
     1
 74
     1
176
     1
 91
        4
176
     1
 64
     7
176
     1
 65
   257
176
     1
 75
     1
176
     1
175
     1
176
     1
 42
1.0
176
     1
 92
        8
176
     1
 66
     7
176
     1
 43
1.0
176
     1
 76
     1
176
     1
 77
     6
176
     1
 78
     2
176
     1
 67
     7
176
     1
 79
     5
176
     1
170
     0
176
     1
171
     0
176
     1
290
     0
176
     1
 93
        1
176
     1
 44
50.0
176
     1
173
     0
176
     1
  0
VISUALSTYLE
  5
3A
102
{ACAD_REACTORS
330
2A
102
}
330
2A
100
AcDbVisualStyle
  2
ColorChange
 70
    16
177
     2
291
     1
 71
     2
176
     1
 72
     2
176
     1
 73
     3
176
     1
 90
        0
176
     1
 40
-0.6
176
     1
 41
-30.0
176
     1
 62
     5
 63
     8
421
  8421504
176
     1
 74
     1
176
     1
 91
        4
176
     1
 64
     7
176
     1
 65
   257
176
     1
 75
     1
176
     1
175
     1
176
     1
 42
1.0
176
     1
 92
        8
176
     1
 66
     8
424
  8421504
176
     1
 43
1.0
176
     1
 76
     1
176
     1
 77
     6
176
     1
 78
     2
176
     1
 67
     7
176
     1
 79
     5
176
     1
170
     0
176
     1
171
     0
176
     1
290
     0
176
     1
 93
        1
176
     1
 44
0.0
176
     1
173
     0
176
     1
  0
VISUALSTYLE
  5
34
102
{ACAD_REACTORS
330
2A
102
}
330
2A
100
AcDbVisualStyle
  2
Conceptual
 70
     9
177
     2
291
     0
 71
     3
176
     1
 72
     2
176
     1
 73
     0
176
     1
 90
        0
176
     1
 40
-0.6
176
     1
 41
-30.0
176
     1
 62
     5
 63
     7
421
 16777215
176
     1
 74
     2
176
     1
 91
        2
176
     1
 64
     7
176
     1
 65
   257
176
     1
 75
     1
176
     1
175
     1
176
     1
 42
40.0
176
     1
 92
        8
176
     1
 66
     7
176
     1
 43
1.0
176
     1
 76
     1
176
     1
 77
     6
176
     1
 78
     2
176
     1
 67
     7
176
     1
 79
     3
176
     1
170
     0
176
     1
171
     0
176
     1
290
     0
176
     1
 93
        1
176
     1
 44
0.0
176
     1
173
     0
176
     1
  0
VISUALSTYLE
  5
35
102
{ACAD_REACTORS
330
2A
102
}
330
2A
100
AcDbVisualStyle
  2
Dim
 70
    11
177
     2
291
     1
 71
     2
176
     1
 72
     2
176
     1
 73
     0
176
     1
 90
        0
176
     1
 40
-0.6
176
     1
 41
-30.0
176
     1
 62
     5
 63
     7
421
 16777215
176
     1
 74
     1
176
     1
 91
        4
176
     1
 64
     7
176
     1
 65
   257
176
     1
 75
     1
176
     1
175
     1
176
     1
 42
1.0
176
     1
 92
        8
176
     1
 66
     7
176
     1
 43
1.0
176
     1
 76
     1
176
     1
 77
     6
176
     1
 78
     2
176
     1
 67
     7
176
     1
 79
     5
176
     1
170
     0
176
     1
171
     0
176
     1
290
     0
176
     1
 93
        1
176
     1
 44
-50.0
176
     1
173
     0
176
     1
  0
VISUALSTYLE
  5
39
102
{ACAD_REACTORS
330
2A
102
}
330
2A
100
AcDbVisualStyle
  2
Facepattern
 70
    15
177
     2
291
     1
 71
     2
176
     1
 72
     2
176
     1
 73
     0
176
     1
 90
        0
176
     1
 40
-0.6
176
     1
 41
-30.0
176
     1
 62
     5
 63
     7
421
 16777215
176
     1
 74
     1
176
     1
 91
        4
176
     1
 64
     7
176
     1
 65
   257
176
     1
 75
     1
176
     1
175
     1
176
     1
 42
1.0
176
     1
 92
        8
176
     1
 66
     7
176
     1
 43
1.0
176
     1
 76
     1
176
     1
 77
     6
176
     1
 78
     2
176
     1
 67
     7
176
     1
 79
     5
176
     1
170
     0
176
     1
171
     0
176
     1
290
     0
176
     1
 93
        1
176
     1
 44
0.0
176
     1
173
     0
176
     1
  0
VISUALSTYLE
  5
2B
102
{ACAD_REACTORS
330
2A
102
}
330
2A
100
AcDbVisualStyle
  2
Flat
 70
     0
177
     2
291
     1
 71
     2
176
     1
 72
     1
176
     1
 73
     1
176
     1
 90
        2
176
     1
 40
-0.6
176
     1
 41
30.0
176
     1
 62
     5
 63
     7
421
 16777215
176
     1
 74
     0
176
     1
 91
        4
176
     1
 64
     7
176
     1
 65
   257
176
     1
 75
     1
176
     1
175
     1
176
     1
 42
1.0
176
     1
 92
        8
176
     1
 66
     7
176
     1
 43
1.0
176
     1
 76
     1
176
     1
 77
     6
176
     1
 78
     2
176
     1
 67
     7
176
     1
 79
     5
176
     1
170
     0
176
     1
171
     0
176
     1
290
     0
176
     1
 93
       13
176
     1
 44
0.0
176
     1
173
     0
176
     1
  0
VISUALSTYLE
  5
2C
102
{ACAD_REACTORS
330
2A
102
}
330
2A
100
AcDbVisualStyle
  2
FlatWithEdges
 70
     1
177
     2
291
     1
 71
     2
176
     1
 72
     1
176
     1
 73
     1
176
     1
 90
        2
176
     1
 40
-0.6
176
     1
 41
30.0
176
     1
 62
     5
 63
     7
421
 16777215
176
     1
 74
     1
176
     1
 91
        4
176
     1
 64
     7
176
     1
 65
   257
176
     1
 75
     1
176
     1
175
     1
176
     1
 42
1.0
176
     1
 92
        0
176
     1
 66
   257
176
     1
 43
1.0
176
     1
 76
     1
176
     1
 77
     6
176
     1
 78
     2
176
     1
 67
     7
176
     1
 79
     5
176
     1
170
     0
176
     1
171
     0
176
     1
290
     0
176
     1
 93
       13
176
     1
 44
0.0
176
     1
173
     0
176
     1
  0
VISUALSTYLE
  5
2D
102
{ACAD_REACTORS
330
2A
102
}
330
2A
100
AcDbVisualStyle
  2
Gouraud
 70
     2
177
     2
291
     1
 71
     2
176
     1
 72
     2
176
     1
 73
     1
176
     1
 90
        2
176
     1
 40
-0.6
176
     1
 41
30.0
176
     1
 62
     5
 63
     7
421
 16777215
176
     1
 74
     0
176
     1
 91
        4
176
     1
 64
     7
176
     1
 65
   257
176
     1
 75
     1
176
     1
175
     1
176
     1
 42
1.0
176
     1
 92
        0
176
     1
 66
     7
176
     1
 43
1.0
176
     1
 76
     1
176
     1
 77
     6
176
     1
 78
     2
176
     1
 67
     7
176
     1
 79
     5
176
     1
170
     0
176
     1
171
     0
176
     1
290
     0
176
     1
 93
       13
176
     1
 44
0.0
176
     1
173
     0
176
     1
  0
VISUALSTYLE
  5
2E
102
{ACAD_REACTORS
330
2A
102
}
330
2A
100
AcDbVisualStyle
  2
GouraudWithEdges
 70
     3
177
     2
291
     1
 71
     2
176
     1
 72
     2
176
     1
 73
     1
176
     1
 90
        2
176
     1
 40
-0.6
176
     1
 41
30.0
176
     1
 62
     5
 63
     7
421
 16777215
176
     1
 74
     1
176
     1
 91
        4
176
     1
 64
     7
176
     1
 65
   257
176
     1
 75
     1
176
     1
175
     1
176
     1
 42
1.0
176
     1
 92
        0
176
     1
 66
   257
176
     1
 43
1.0
176
     1
 76
     1
176
     1
 77
     6
176
     1
 78
     2
176
     1
 67
     7
176
     1
 79
     5
176
     1
170
     0
176
     1
171
     0
176
     1
290
     0
176
     1
 93
       13
176
     1
 44
0.0
176
     1
173
     0
176
     1
  0
VISUALSTYLE
  5
38
102
{ACAD_REACTORS
330
2A
102
}
330
2A
100
AcDbVisualStyle
  2
Linepattern
 70
    14
177
     2
291
     1
 71
     2
176
     1
 72
     2
176
     1
 73
     0
176
     1
 90
        0
176
     1
 40
-0.6
176
     1
 41
-30.0
176
     1
 62
     5
 63
     7
421
 16777215
176
     1
 74
     1
176
     1
 91
        4
176
     1
 64
     7
176
     1
 65
   257
176
     1
 75
     7
176
     1
175
     7
176
     1
 42
1.0
176
     1
 92
        8
176
     1
 66
     7
176
     1
 43
1.0
176
     1
 76
     1
176
     1
 77
     6
176
     1
 78
     2
176
     1
 67
     7
176
     1
 79
     5
176
     1
170
     0
176
     1
171
     0
176
     1
290
     0
176
     1
 93
        1
176
     1
 44
0.0
176
     1
173
     0
176
     1
  0
VISUALSTYLE
  5
33
102
{ACAD_REACTORS
330
2A
102
}
330
2A
100
AcDbVisualStyle
  2
Realistic
 70
     8
177
     2
291
     0
 71
     2
176
     1
 72
     2
176
     1
 73
     0
176
     1
 90
        0
176
     1
 40
-0.6
176
     1
 41
-30.0
176
     1
 62
     5
 63
     7
421
 16777215
176
     1
 74
     1
176
     1
 91
        0
176
     1
 64
     7
176
     1
 65
   257
176
     1
 75
     1
176
     1
175
     1
176
     1
 42
1.0
176
     1
 92
        8
176
     1
 66
     8
424
  7895160
176
     1
 43
1.0
176
     1
 76
     1
176
     1
 77
     6
176
     1
 78
     2
176
     1
 67
     7
176
     1
 79
     5
176
     1
170
     0
176
     1
171
     0
176
     1
290
     0
176
     1
 93
       13
176
     1
 44
0.0
176
     1
173
     0
176
     1
  0
VISUALSTYLE
  5
37
102
{ACAD_REACTORS
330
2A
102
}
330
2A
100
AcDbVisualStyle
  2
Thicken
 70
    13
177
     2
291
     1
 71
     2
176
     1
 72
     2
176
     1
 73
     0
176
     1
 90
        0
176
     1
 40
-0.6
176
     1
 41
-30.0
176
     1
 62
     5
 63
     7
421
 16777215
176
     1
 74
     1
176
     1
 91
        4
176
     1
 64
     7
176
     1
 65
   257
176
     1
 75
     1
176
     1
175
     1
176
     1
 42
1.0
176
     1
 92
       12
176
     1
 66
     7
176
     1
 43
1.0
176
     1
 76
     1
176
     1
 77
     6
176
     1
 78
     2
176
     1
 67
     7
176
     1
 79
     5
176
     1
170
     0
176
     1
171
     0
176
     1
290
     0
176
     1
 93
        1
176
     1
 44
0.0
176
     1
173
     0
176
     1
  0
ENDSEC
  0
EOF
